<?xml version="1.0" encoding="UTF-8" standalone="no"?>
<!DOCTYPE svg PUBLIC "-//W3C//DTD SVG 1.1//EN"
 "http://www.w3.org/Graphics/SVG/1.1/DTD/svg11.dtd">
<!-- Generated by graphviz version 2.43.0 (0)
 -->
<!-- Title: MCTS Tree\nmcts/0.25/tree.svg Pages: 1 -->
<svg width="689pt" height="719pt"
 viewBox="0.00 0.00 689.00 719.00" xmlns="http://www.w3.org/2000/svg" xmlns:xlink="http://www.w3.org/1999/xlink">
<g id="graph0" class="graph" transform="scale(1 1) rotate(0) translate(4 715)">
<title>MCTS Tree\nmcts/0.25/tree.svg</title>
<polygon fill="white" stroke="transparent" points="-4,4 -4,-715 685,-715 685,4 -4,4"/>
<!-- 0 -->
<g id="node1" class="node">
<title>0</title>
<path fill="none" stroke="black" d="M378.5,-664.5C378.5,-664.5 446.5,-664.5 446.5,-664.5 452.5,-664.5 458.5,-670.5 458.5,-676.5 458.5,-676.5 458.5,-698.5 458.5,-698.5 458.5,-704.5 452.5,-710.5 446.5,-710.5 446.5,-710.5 378.5,-710.5 378.5,-710.5 372.5,-710.5 366.5,-704.5 366.5,-698.5 366.5,-698.5 366.5,-676.5 366.5,-676.5 366.5,-670.5 372.5,-664.5 378.5,-664.5"/>
<text text-anchor="middle" x="412.5" y="-695.3" font-family="Times,serif" font-size="14.00"> </text>
<polyline fill="none" stroke="black" points="366.5,-687.5 458.5,-687.5 "/>
<text text-anchor="middle" x="384" y="-672.3" font-family="Times,serif" font-size="14.00">16</text>
<polyline fill="none" stroke="black" points="401.5,-664.5 401.5,-687.5 "/>
<text text-anchor="middle" x="430" y="-672.3" font-family="Times,serif" font-size="14.00">1.429</text>
</g>
<!-- 453985451967301305 -->
<g id="node2" class="node">
<title>453985451967301305</title>
<path fill="none" stroke="black" d="M320.5,-581.5C320.5,-581.5 388.5,-581.5 388.5,-581.5 394.5,-581.5 400.5,-587.5 400.5,-593.5 400.5,-593.5 400.5,-615.5 400.5,-615.5 400.5,-621.5 394.5,-627.5 388.5,-627.5 388.5,-627.5 320.5,-627.5 320.5,-627.5 314.5,-627.5 308.5,-621.5 308.5,-615.5 308.5,-615.5 308.5,-593.5 308.5,-593.5 308.5,-587.5 314.5,-581.5 320.5,-581.5"/>
<text text-anchor="middle" x="354.5" y="-612.3" font-family="Times,serif" font-size="14.00">ADRP</text>
<polyline fill="none" stroke="black" points="308.5,-604.5 400.5,-604.5 "/>
<text text-anchor="middle" x="326" y="-589.3" font-family="Times,serif" font-size="14.00">14</text>
<polyline fill="none" stroke="black" points="343.5,-581.5 343.5,-604.5 "/>
<text text-anchor="middle" x="372" y="-589.3" font-family="Times,serif" font-size="14.00">1.429</text>
</g>
<!-- 0&#45;&gt;453985451967301305 -->
<g id="edge1" class="edge">
<title>0&#45;&gt;453985451967301305</title>
<path fill="none" stroke="black" d="M396.65,-664.37C390.39,-655.62 383.08,-645.41 376.33,-635.99"/>
<polygon fill="black" stroke="black" points="379,-633.7 370.33,-627.61 373.31,-637.78 379,-633.7"/>
</g>
<!-- &#45;3011592385460353745 -->
<g id="node3" class="node">
<title>&#45;3011592385460353745</title>
<path fill="none" stroke="black" d="M456.5,-581.5C456.5,-581.5 538.5,-581.5 538.5,-581.5 544.5,-581.5 550.5,-587.5 550.5,-593.5 550.5,-593.5 550.5,-615.5 550.5,-615.5 550.5,-621.5 544.5,-627.5 538.5,-627.5 538.5,-627.5 456.5,-627.5 456.5,-627.5 450.5,-627.5 444.5,-621.5 444.5,-615.5 444.5,-615.5 444.5,-593.5 444.5,-593.5 444.5,-587.5 450.5,-581.5 456.5,-581.5"/>
<text text-anchor="middle" x="497.5" y="-612.3" font-family="Times,serif" font-size="14.00">MOVi32imm</text>
<polyline fill="none" stroke="black" points="444.5,-604.5 550.5,-604.5 "/>
<text text-anchor="middle" x="463" y="-589.3" font-family="Times,serif" font-size="14.00">2</text>
<polyline fill="none" stroke="black" points="481.5,-581.5 481.5,-604.5 "/>
<text text-anchor="middle" x="516" y="-589.3" font-family="Times,serif" font-size="14.00">0.524</text>
</g>
<!-- 0&#45;&gt;&#45;3011592385460353745 -->
<g id="edge2" class="edge">
<title>0&#45;&gt;&#45;3011592385460353745</title>
<path fill="none" stroke="black" d="M435.73,-664.37C445.38,-655.17 456.71,-644.37 467.02,-634.55"/>
<polygon fill="black" stroke="black" points="469.48,-637.04 474.3,-627.61 464.65,-631.97 469.48,-637.04"/>
</g>
<!-- 2716792374854324847 -->
<g id="node4" class="node">
<title>2716792374854324847</title>
<path fill="none" stroke="black" d="M111,-498.5C111,-498.5 170,-498.5 170,-498.5 176,-498.5 182,-504.5 182,-510.5 182,-510.5 182,-532.5 182,-532.5 182,-538.5 176,-544.5 170,-544.5 170,-544.5 111,-544.5 111,-544.5 105,-544.5 99,-538.5 99,-532.5 99,-532.5 99,-510.5 99,-510.5 99,-504.5 105,-498.5 111,-498.5"/>
<text text-anchor="middle" x="140.5" y="-529.3" font-family="Times,serif" font-size="14.00">ADRP</text>
<polyline fill="none" stroke="black" points="99,-521.5 182,-521.5 "/>
<text text-anchor="middle" x="112" y="-506.3" font-family="Times,serif" font-size="14.00">2</text>
<polyline fill="none" stroke="black" points="125,-498.5 125,-521.5 "/>
<text text-anchor="middle" x="153.5" y="-506.3" font-family="Times,serif" font-size="14.00">0.931</text>
</g>
<!-- 453985451967301305&#45;&gt;2716792374854324847 -->
<g id="edge3" class="edge">
<title>453985451967301305&#45;&gt;2716792374854324847</title>
<path fill="none" stroke="black" d="M308.33,-586.02C274.07,-573.06 227.36,-555.38 191.92,-541.96"/>
<polygon fill="black" stroke="black" points="192.83,-538.57 182.24,-538.3 190.35,-545.11 192.83,-538.57"/>
</g>
<!-- 3808974242173227695 -->
<g id="node5" class="node">
<title>3808974242173227695</title>
<path fill="none" stroke="black" d="M260.5,-498.5C260.5,-498.5 342.5,-498.5 342.5,-498.5 348.5,-498.5 354.5,-504.5 354.5,-510.5 354.5,-510.5 354.5,-532.5 354.5,-532.5 354.5,-538.5 348.5,-544.5 342.5,-544.5 342.5,-544.5 260.5,-544.5 260.5,-544.5 254.5,-544.5 248.5,-538.5 248.5,-532.5 248.5,-532.5 248.5,-510.5 248.5,-510.5 248.5,-504.5 254.5,-498.5 260.5,-498.5"/>
<text text-anchor="middle" x="301.5" y="-529.3" font-family="Times,serif" font-size="14.00">MOVi32imm</text>
<polyline fill="none" stroke="black" points="248.5,-521.5 354.5,-521.5 "/>
<text text-anchor="middle" x="267" y="-506.3" font-family="Times,serif" font-size="14.00">2</text>
<polyline fill="none" stroke="black" points="285.5,-498.5 285.5,-521.5 "/>
<text text-anchor="middle" x="320" y="-506.3" font-family="Times,serif" font-size="14.00">0.931</text>
</g>
<!-- 453985451967301305&#45;&gt;3808974242173227695 -->
<g id="edge4" class="edge">
<title>453985451967301305&#45;&gt;3808974242173227695</title>
<path fill="none" stroke="black" d="M340.02,-581.37C334.29,-572.62 327.62,-562.41 321.45,-552.99"/>
<polygon fill="black" stroke="black" points="324.37,-551.06 315.96,-544.61 318.51,-554.89 324.37,-551.06"/>
</g>
<!-- &#45;1742423996592276497 -->
<g id="node6" class="node">
<title>&#45;1742423996592276497</title>
<path fill="none" stroke="black" d="M384.5,-498.5C384.5,-498.5 452.5,-498.5 452.5,-498.5 458.5,-498.5 464.5,-504.5 464.5,-510.5 464.5,-510.5 464.5,-532.5 464.5,-532.5 464.5,-538.5 458.5,-544.5 452.5,-544.5 452.5,-544.5 384.5,-544.5 384.5,-544.5 378.5,-544.5 372.5,-538.5 372.5,-532.5 372.5,-532.5 372.5,-510.5 372.5,-510.5 372.5,-504.5 378.5,-498.5 384.5,-498.5"/>
<text text-anchor="middle" x="418.5" y="-529.3" font-family="Times,serif" font-size="14.00">LDRXui</text>
<polyline fill="none" stroke="black" points="372.5,-521.5 464.5,-521.5 "/>
<text text-anchor="middle" x="390" y="-506.3" font-family="Times,serif" font-size="14.00">10</text>
<polyline fill="none" stroke="black" points="407.5,-498.5 407.5,-521.5 "/>
<text text-anchor="middle" x="436" y="-506.3" font-family="Times,serif" font-size="14.00">1.429</text>
</g>
<!-- 453985451967301305&#45;&gt;&#45;1742423996592276497 -->
<g id="edge5" class="edge">
<title>453985451967301305&#45;&gt;&#45;1742423996592276497</title>
<path fill="none" stroke="black" d="M371.99,-581.37C378.97,-572.53 387.13,-562.21 394.64,-552.7"/>
<polygon fill="black" stroke="black" points="397.58,-554.62 401.03,-544.61 392.09,-550.28 397.58,-554.62"/>
</g>
<!-- &#45;773811519697997781 -->
<g id="node7" class="node">
<title>&#45;773811519697997781</title>
<path fill="none" stroke="black" d="M495,-498.5C495,-498.5 554,-498.5 554,-498.5 560,-498.5 566,-504.5 566,-510.5 566,-510.5 566,-532.5 566,-532.5 566,-538.5 560,-544.5 554,-544.5 554,-544.5 495,-544.5 495,-544.5 489,-544.5 483,-538.5 483,-532.5 483,-532.5 483,-510.5 483,-510.5 483,-504.5 489,-498.5 495,-498.5"/>
<text text-anchor="middle" x="524.5" y="-529.3" font-family="Times,serif" font-size="14.00">ADRP</text>
<polyline fill="none" stroke="black" points="483,-521.5 566,-521.5 "/>
<text text-anchor="middle" x="496" y="-506.3" font-family="Times,serif" font-size="14.00">2</text>
<polyline fill="none" stroke="black" points="509,-498.5 509,-521.5 "/>
<text text-anchor="middle" x="537.5" y="-506.3" font-family="Times,serif" font-size="14.00">0.524</text>
</g>
<!-- &#45;3011592385460353745&#45;&gt;&#45;773811519697997781 -->
<g id="edge6" class="edge">
<title>&#45;3011592385460353745&#45;&gt;&#45;773811519697997781</title>
<path fill="none" stroke="black" d="M504.88,-581.37C507.68,-572.97 510.92,-563.24 513.95,-554.14"/>
<polygon fill="black" stroke="black" points="517.29,-555.2 517.13,-544.61 510.65,-552.99 517.29,-555.2"/>
</g>
<!-- 4007737411284835377 -->
<g id="node12" class="node">
<title>4007737411284835377</title>
<path fill="none" stroke="black" d="M50.5,-415.5C50.5,-415.5 132.5,-415.5 132.5,-415.5 138.5,-415.5 144.5,-421.5 144.5,-427.5 144.5,-427.5 144.5,-449.5 144.5,-449.5 144.5,-455.5 138.5,-461.5 132.5,-461.5 132.5,-461.5 50.5,-461.5 50.5,-461.5 44.5,-461.5 38.5,-455.5 38.5,-449.5 38.5,-449.5 38.5,-427.5 38.5,-427.5 38.5,-421.5 44.5,-415.5 50.5,-415.5"/>
<text text-anchor="middle" x="91.5" y="-446.3" font-family="Times,serif" font-size="14.00">MOVi32imm</text>
<polyline fill="none" stroke="black" points="38.5,-438.5 144.5,-438.5 "/>
<text text-anchor="middle" x="57" y="-423.3" font-family="Times,serif" font-size="14.00">2</text>
<polyline fill="none" stroke="black" points="75.5,-415.5 75.5,-438.5 "/>
<text text-anchor="middle" x="110" y="-423.3" font-family="Times,serif" font-size="14.00">0.931</text>
</g>
<!-- 2716792374854324847&#45;&gt;4007737411284835377 -->
<g id="edge11" class="edge">
<title>2716792374854324847&#45;&gt;4007737411284835377</title>
<path fill="none" stroke="black" d="M127.11,-498.37C121.87,-489.71 115.77,-479.62 110.12,-470.27"/>
<polygon fill="black" stroke="black" points="113.04,-468.35 104.87,-461.61 107.05,-471.97 113.04,-468.35"/>
</g>
<!-- &#45;4639404716742212679 -->
<g id="node10" class="node">
<title>&#45;4639404716742212679</title>
<path fill="none" stroke="black" d="M175,-415.5C175,-415.5 234,-415.5 234,-415.5 240,-415.5 246,-421.5 246,-427.5 246,-427.5 246,-449.5 246,-449.5 246,-455.5 240,-461.5 234,-461.5 234,-461.5 175,-461.5 175,-461.5 169,-461.5 163,-455.5 163,-449.5 163,-449.5 163,-427.5 163,-427.5 163,-421.5 169,-415.5 175,-415.5"/>
<text text-anchor="middle" x="204.5" y="-446.3" font-family="Times,serif" font-size="14.00">LDRXui</text>
<polyline fill="none" stroke="black" points="163,-438.5 246,-438.5 "/>
<text text-anchor="middle" x="176" y="-423.3" font-family="Times,serif" font-size="14.00">1</text>
<polyline fill="none" stroke="black" points="189,-415.5 189,-438.5 "/>
<text text-anchor="middle" x="217.5" y="-423.3" font-family="Times,serif" font-size="14.00">0.835</text>
</g>
<!-- 3808974242173227695&#45;&gt;&#45;4639404716742212679 -->
<g id="edge9" class="edge">
<title>3808974242173227695&#45;&gt;&#45;4639404716742212679</title>
<path fill="none" stroke="black" d="M274.99,-498.37C263.87,-489.08 250.8,-478.16 238.94,-468.26"/>
<polygon fill="black" stroke="black" points="240.89,-465.33 230.97,-461.61 236.41,-470.7 240.89,-465.33"/>
</g>
<!-- 9074189218120061735 -->
<g id="node11" class="node">
<title>9074189218120061735</title>
<path fill="none" stroke="black" d="M276,-415.5C276,-415.5 335,-415.5 335,-415.5 341,-415.5 347,-421.5 347,-427.5 347,-427.5 347,-449.5 347,-449.5 347,-455.5 341,-461.5 335,-461.5 335,-461.5 276,-461.5 276,-461.5 270,-461.5 264,-455.5 264,-449.5 264,-449.5 264,-427.5 264,-427.5 264,-421.5 270,-415.5 276,-415.5"/>
<text text-anchor="middle" x="305.5" y="-446.3" font-family="Times,serif" font-size="14.00">ADRP</text>
<polyline fill="none" stroke="black" points="264,-438.5 347,-438.5 "/>
<text text-anchor="middle" x="277" y="-423.3" font-family="Times,serif" font-size="14.00">1</text>
<polyline fill="none" stroke="black" points="290,-415.5 290,-438.5 "/>
<text text-anchor="middle" x="318.5" y="-423.3" font-family="Times,serif" font-size="14.00">0.931</text>
</g>
<!-- 3808974242173227695&#45;&gt;9074189218120061735 -->
<g id="edge10" class="edge">
<title>3808974242173227695&#45;&gt;9074189218120061735</title>
<path fill="none" stroke="black" d="M302.59,-498.37C303,-490.15 303.47,-480.66 303.91,-471.73"/>
<polygon fill="black" stroke="black" points="307.41,-471.77 304.41,-461.61 300.42,-471.42 307.41,-471.77"/>
</g>
<!-- 651955584646992693 -->
<g id="node8" class="node">
<title>651955584646992693</title>
<path fill="none" stroke="black" d="M377.5,-415.5C377.5,-415.5 459.5,-415.5 459.5,-415.5 465.5,-415.5 471.5,-421.5 471.5,-427.5 471.5,-427.5 471.5,-449.5 471.5,-449.5 471.5,-455.5 465.5,-461.5 459.5,-461.5 459.5,-461.5 377.5,-461.5 377.5,-461.5 371.5,-461.5 365.5,-455.5 365.5,-449.5 365.5,-449.5 365.5,-427.5 365.5,-427.5 365.5,-421.5 371.5,-415.5 377.5,-415.5"/>
<text text-anchor="middle" x="418.5" y="-446.3" font-family="Times,serif" font-size="14.00">MOVi32imm</text>
<polyline fill="none" stroke="black" points="365.5,-438.5 471.5,-438.5 "/>
<text text-anchor="middle" x="384" y="-423.3" font-family="Times,serif" font-size="14.00">5</text>
<polyline fill="none" stroke="black" points="402.5,-415.5 402.5,-438.5 "/>
<text text-anchor="middle" x="437" y="-423.3" font-family="Times,serif" font-size="14.00">1.429</text>
</g>
<!-- &#45;1742423996592276497&#45;&gt;651955584646992693 -->
<g id="edge7" class="edge">
<title>&#45;1742423996592276497&#45;&gt;651955584646992693</title>
<path fill="none" stroke="black" d="M418.5,-498.37C418.5,-490.15 418.5,-480.66 418.5,-471.73"/>
<polygon fill="black" stroke="black" points="422,-471.61 418.5,-461.61 415,-471.61 422,-471.61"/>
</g>
<!-- 6893956018348612735 -->
<g id="node9" class="node">
<title>6893956018348612735</title>
<path fill="none" stroke="black" d="M512,-415.5C512,-415.5 571,-415.5 571,-415.5 577,-415.5 583,-421.5 583,-427.5 583,-427.5 583,-449.5 583,-449.5 583,-455.5 577,-461.5 571,-461.5 571,-461.5 512,-461.5 512,-461.5 506,-461.5 500,-455.5 500,-449.5 500,-449.5 500,-427.5 500,-427.5 500,-421.5 506,-415.5 512,-415.5"/>
<text text-anchor="middle" x="541.5" y="-446.3" font-family="Times,serif" font-size="14.00">ADRP</text>
<polyline fill="none" stroke="black" points="500,-438.5 583,-438.5 "/>
<text text-anchor="middle" x="513" y="-423.3" font-family="Times,serif" font-size="14.00">5</text>
<polyline fill="none" stroke="black" points="526,-415.5 526,-438.5 "/>
<text text-anchor="middle" x="554.5" y="-423.3" font-family="Times,serif" font-size="14.00">1.429</text>
</g>
<!-- &#45;1742423996592276497&#45;&gt;6893956018348612735 -->
<g id="edge8" class="edge">
<title>&#45;1742423996592276497&#45;&gt;6893956018348612735</title>
<path fill="none" stroke="black" d="M452.11,-498.37C466.75,-488.72 484.07,-477.32 499.55,-467.13"/>
<polygon fill="black" stroke="black" points="501.5,-470.03 507.93,-461.61 497.65,-464.18 501.5,-470.03"/>
</g>
<!-- 452191766504087378 -->
<g id="node14" class="node">
<title>452191766504087378</title>
<path fill="none" stroke="black" d="M383,-332.5C383,-332.5 442,-332.5 442,-332.5 448,-332.5 454,-338.5 454,-344.5 454,-344.5 454,-366.5 454,-366.5 454,-372.5 448,-378.5 442,-378.5 442,-378.5 383,-378.5 383,-378.5 377,-378.5 371,-372.5 371,-366.5 371,-366.5 371,-344.5 371,-344.5 371,-338.5 377,-332.5 383,-332.5"/>
<text text-anchor="middle" x="412.5" y="-363.3" font-family="Times,serif" font-size="14.00">ADRP</text>
<polyline fill="none" stroke="black" points="371,-355.5 454,-355.5 "/>
<text text-anchor="middle" x="384" y="-340.3" font-family="Times,serif" font-size="14.00">5</text>
<polyline fill="none" stroke="black" points="397,-332.5 397,-355.5 "/>
<text text-anchor="middle" x="425.5" y="-340.3" font-family="Times,serif" font-size="14.00">1.429</text>
</g>
<!-- 651955584646992693&#45;&gt;452191766504087378 -->
<g id="edge13" class="edge">
<title>651955584646992693&#45;&gt;452191766504087378</title>
<path fill="none" stroke="black" d="M416.86,-415.37C416.25,-407.15 415.55,-397.66 414.89,-388.73"/>
<polygon fill="black" stroke="black" points="418.37,-388.32 414.14,-378.61 411.39,-388.84 418.37,-388.32"/>
</g>
<!-- 7631966129212378199 -->
<g id="node13" class="node">
<title>7631966129212378199</title>
<path fill="none" stroke="black" d="M505.5,-332.5C505.5,-332.5 587.5,-332.5 587.5,-332.5 593.5,-332.5 599.5,-338.5 599.5,-344.5 599.5,-344.5 599.5,-366.5 599.5,-366.5 599.5,-372.5 593.5,-378.5 587.5,-378.5 587.5,-378.5 505.5,-378.5 505.5,-378.5 499.5,-378.5 493.5,-372.5 493.5,-366.5 493.5,-366.5 493.5,-344.5 493.5,-344.5 493.5,-338.5 499.5,-332.5 505.5,-332.5"/>
<text text-anchor="middle" x="546.5" y="-363.3" font-family="Times,serif" font-size="14.00">MOVi32imm</text>
<polyline fill="none" stroke="black" points="493.5,-355.5 599.5,-355.5 "/>
<text text-anchor="middle" x="512" y="-340.3" font-family="Times,serif" font-size="14.00">5</text>
<polyline fill="none" stroke="black" points="530.5,-332.5 530.5,-355.5 "/>
<text text-anchor="middle" x="565" y="-340.3" font-family="Times,serif" font-size="14.00">1.429</text>
</g>
<!-- 6893956018348612735&#45;&gt;7631966129212378199 -->
<g id="edge12" class="edge">
<title>6893956018348612735&#45;&gt;7631966129212378199</title>
<path fill="none" stroke="black" d="M542.87,-415.37C543.37,-407.15 543.96,-397.66 544.51,-388.73"/>
<polygon fill="black" stroke="black" points="548.01,-388.8 545.14,-378.61 541.03,-388.37 548.01,-388.8"/>
</g>
<!-- &#45;8023902835037578165 -->
<g id="node17" class="node">
<title>&#45;8023902835037578165</title>
<path fill="none" stroke="black" d="M12,-332.5C12,-332.5 71,-332.5 71,-332.5 77,-332.5 83,-338.5 83,-344.5 83,-344.5 83,-366.5 83,-366.5 83,-372.5 77,-378.5 71,-378.5 71,-378.5 12,-378.5 12,-378.5 6,-378.5 0,-372.5 0,-366.5 0,-366.5 0,-344.5 0,-344.5 0,-338.5 6,-332.5 12,-332.5"/>
<text text-anchor="middle" x="41.5" y="-363.3" font-family="Times,serif" font-size="14.00">LDRXui</text>
<polyline fill="none" stroke="black" points="0,-355.5 83,-355.5 "/>
<text text-anchor="middle" x="13" y="-340.3" font-family="Times,serif" font-size="14.00">1</text>
<polyline fill="none" stroke="black" points="26,-332.5 26,-355.5 "/>
<text text-anchor="middle" x="54.5" y="-340.3" font-family="Times,serif" font-size="14.00">0.931</text>
</g>
<!-- 4007737411284835377&#45;&gt;&#45;8023902835037578165 -->
<g id="edge16" class="edge">
<title>4007737411284835377&#45;&gt;&#45;8023902835037578165</title>
<path fill="none" stroke="black" d="M77.84,-415.37C72.49,-406.71 66.27,-396.62 60.5,-387.27"/>
<polygon fill="black" stroke="black" points="63.38,-385.28 55.15,-378.61 57.42,-388.95 63.38,-385.28"/>
</g>
<!-- &#45;7422421628093764435 -->
<g id="node18" class="node">
<title>&#45;7422421628093764435</title>
<path fill="none" stroke="black" d="M113,-332.5C113,-332.5 172,-332.5 172,-332.5 178,-332.5 184,-338.5 184,-344.5 184,-344.5 184,-366.5 184,-366.5 184,-372.5 178,-378.5 172,-378.5 172,-378.5 113,-378.5 113,-378.5 107,-378.5 101,-372.5 101,-366.5 101,-366.5 101,-344.5 101,-344.5 101,-338.5 107,-332.5 113,-332.5"/>
<text text-anchor="middle" x="142.5" y="-363.3" font-family="Times,serif" font-size="14.00">STRWui</text>
<polyline fill="none" stroke="black" points="101,-355.5 184,-355.5 "/>
<text text-anchor="middle" x="114" y="-340.3" font-family="Times,serif" font-size="14.00">1</text>
<polyline fill="none" stroke="black" points="127,-332.5 127,-355.5 "/>
<text text-anchor="middle" x="155.5" y="-340.3" font-family="Times,serif" font-size="14.00">0.524</text>
</g>
<!-- 4007737411284835377&#45;&gt;&#45;7422421628093764435 -->
<g id="edge17" class="edge">
<title>4007737411284835377&#45;&gt;&#45;7422421628093764435</title>
<path fill="none" stroke="black" d="M105.44,-415.37C110.89,-406.71 117.24,-396.62 123.12,-387.27"/>
<polygon fill="black" stroke="black" points="126.21,-388.93 128.58,-378.61 120.29,-385.2 126.21,-388.93"/>
</g>
<!-- &#45;180371019099719143 -->
<g id="node15" class="node">
<title>&#45;180371019099719143</title>
<path fill="none" stroke="black" d="M527,-249.5C527,-249.5 586,-249.5 586,-249.5 592,-249.5 598,-255.5 598,-261.5 598,-261.5 598,-283.5 598,-283.5 598,-289.5 592,-295.5 586,-295.5 586,-295.5 527,-295.5 527,-295.5 521,-295.5 515,-289.5 515,-283.5 515,-283.5 515,-261.5 515,-261.5 515,-255.5 521,-249.5 527,-249.5"/>
<text text-anchor="middle" x="556.5" y="-280.3" font-family="Times,serif" font-size="14.00">STRWui</text>
<polyline fill="none" stroke="black" points="515,-272.5 598,-272.5 "/>
<text text-anchor="middle" x="528" y="-257.3" font-family="Times,serif" font-size="14.00">5</text>
<polyline fill="none" stroke="black" points="541,-249.5 541,-272.5 "/>
<text text-anchor="middle" x="569.5" y="-257.3" font-family="Times,serif" font-size="14.00">1.429</text>
</g>
<!-- 7631966129212378199&#45;&gt;&#45;180371019099719143 -->
<g id="edge14" class="edge">
<title>7631966129212378199&#45;&gt;&#45;180371019099719143</title>
<path fill="none" stroke="black" d="M549.23,-332.37C550.25,-324.15 551.42,-314.66 552.52,-305.73"/>
<polygon fill="black" stroke="black" points="556.02,-305.96 553.77,-295.61 549.07,-305.1 556.02,-305.96"/>
</g>
<!-- &#45;4277461379687834576 -->
<g id="node16" class="node">
<title>&#45;4277461379687834576</title>
<path fill="none" stroke="black" d="M378,-249.5C378,-249.5 437,-249.5 437,-249.5 443,-249.5 449,-255.5 449,-261.5 449,-261.5 449,-283.5 449,-283.5 449,-289.5 443,-295.5 437,-295.5 437,-295.5 378,-295.5 378,-295.5 372,-295.5 366,-289.5 366,-283.5 366,-283.5 366,-261.5 366,-261.5 366,-255.5 372,-249.5 378,-249.5"/>
<text text-anchor="middle" x="407.5" y="-280.3" font-family="Times,serif" font-size="14.00">STRWui</text>
<polyline fill="none" stroke="black" points="366,-272.5 449,-272.5 "/>
<text text-anchor="middle" x="379" y="-257.3" font-family="Times,serif" font-size="14.00">5</text>
<polyline fill="none" stroke="black" points="392,-249.5 392,-272.5 "/>
<text text-anchor="middle" x="420.5" y="-257.3" font-family="Times,serif" font-size="14.00">1.429</text>
</g>
<!-- 452191766504087378&#45;&gt;&#45;4277461379687834576 -->
<g id="edge15" class="edge">
<title>452191766504087378&#45;&gt;&#45;4277461379687834576</title>
<path fill="none" stroke="black" d="M411.13,-332.37C410.63,-324.15 410.04,-314.66 409.49,-305.73"/>
<polygon fill="black" stroke="black" points="412.97,-305.37 408.86,-295.61 405.99,-305.8 412.97,-305.37"/>
</g>
<!-- &#45;5708187231461703122 -->
<g id="node19" class="node">
<title>&#45;5708187231461703122</title>
<path fill="none" stroke="black" d="M485,-166.5C485,-166.5 640,-166.5 640,-166.5 646,-166.5 652,-172.5 652,-178.5 652,-178.5 652,-200.5 652,-200.5 652,-206.5 646,-212.5 640,-212.5 640,-212.5 485,-212.5 485,-212.5 479,-212.5 473,-206.5 473,-200.5 473,-200.5 473,-178.5 473,-178.5 473,-172.5 479,-166.5 485,-166.5"/>
<text text-anchor="middle" x="562.5" y="-197.3" font-family="Times,serif" font-size="14.00">ADJCALLSTACKDOWN</text>
<polyline fill="none" stroke="black" points="473,-189.5 652,-189.5 "/>
<text text-anchor="middle" x="510" y="-174.3" font-family="Times,serif" font-size="14.00">5</text>
<polyline fill="none" stroke="black" points="547,-166.5 547,-189.5 "/>
<text text-anchor="middle" x="599.5" y="-174.3" font-family="Times,serif" font-size="14.00">1.429</text>
</g>
<!-- &#45;180371019099719143&#45;&gt;&#45;5708187231461703122 -->
<g id="edge18" class="edge">
<title>&#45;180371019099719143&#45;&gt;&#45;5708187231461703122</title>
<path fill="none" stroke="black" d="M558.14,-249.37C558.75,-241.15 559.45,-231.66 560.11,-222.73"/>
<polygon fill="black" stroke="black" points="563.61,-222.84 560.86,-212.61 556.63,-222.32 563.61,-222.84"/>
</g>
<!-- &#45;3636139296915674601 -->
<g id="node20" class="node">
<title>&#45;3636139296915674601</title>
<path fill="none" stroke="black" d="M288,-166.5C288,-166.5 443,-166.5 443,-166.5 449,-166.5 455,-172.5 455,-178.5 455,-178.5 455,-200.5 455,-200.5 455,-206.5 449,-212.5 443,-212.5 443,-212.5 288,-212.5 288,-212.5 282,-212.5 276,-206.5 276,-200.5 276,-200.5 276,-178.5 276,-178.5 276,-172.5 282,-166.5 288,-166.5"/>
<text text-anchor="middle" x="365.5" y="-197.3" font-family="Times,serif" font-size="14.00">ADJCALLSTACKDOWN</text>
<polyline fill="none" stroke="black" points="276,-189.5 455,-189.5 "/>
<text text-anchor="middle" x="313" y="-174.3" font-family="Times,serif" font-size="14.00">5</text>
<polyline fill="none" stroke="black" points="350,-166.5 350,-189.5 "/>
<text text-anchor="middle" x="402.5" y="-174.3" font-family="Times,serif" font-size="14.00">1.429</text>
</g>
<!-- &#45;4277461379687834576&#45;&gt;&#45;3636139296915674601 -->
<g id="edge19" class="edge">
<title>&#45;4277461379687834576&#45;&gt;&#45;3636139296915674601</title>
<path fill="none" stroke="black" d="M396.02,-249.37C391.58,-240.79 386.41,-230.83 381.61,-221.56"/>
<polygon fill="black" stroke="black" points="384.67,-219.87 376.96,-212.61 378.46,-223.1 384.67,-219.87"/>
</g>
<!-- &#45;789615578170852651 -->
<g id="node21" class="node">
<title>&#45;789615578170852651</title>
<path fill="none" stroke="black" d="M509,-83.5C509,-83.5 568,-83.5 568,-83.5 574,-83.5 580,-89.5 580,-95.5 580,-95.5 580,-117.5 580,-117.5 580,-123.5 574,-129.5 568,-129.5 568,-129.5 509,-129.5 509,-129.5 503,-129.5 497,-123.5 497,-117.5 497,-117.5 497,-95.5 497,-95.5 497,-89.5 503,-83.5 509,-83.5"/>
<text text-anchor="middle" x="538.5" y="-114.3" font-family="Times,serif" font-size="14.00">SUBSWri</text>
<polyline fill="none" stroke="black" points="497,-106.5 580,-106.5 "/>
<text text-anchor="middle" x="510" y="-91.3" font-family="Times,serif" font-size="14.00">3</text>
<polyline fill="none" stroke="black" points="523,-83.5 523,-106.5 "/>
<text text-anchor="middle" x="551.5" y="-91.3" font-family="Times,serif" font-size="14.00">1.429</text>
</g>
<!-- &#45;5708187231461703122&#45;&gt;&#45;789615578170852651 -->
<g id="edge20" class="edge">
<title>&#45;5708187231461703122&#45;&gt;&#45;789615578170852651</title>
<path fill="none" stroke="black" d="M555.94,-166.37C553.48,-158.06 550.63,-148.45 547.96,-139.43"/>
<polygon fill="black" stroke="black" points="551.25,-138.2 545.05,-129.61 544.54,-140.19 551.25,-138.2"/>
</g>
<!-- 3498434249866180766 -->
<g id="node22" class="node">
<title>3498434249866180766</title>
<path fill="none" stroke="red" d="M610,-83.5C610,-83.5 669,-83.5 669,-83.5 675,-83.5 681,-89.5 681,-95.5 681,-95.5 681,-117.5 681,-117.5 681,-123.5 675,-129.5 669,-129.5 669,-129.5 610,-129.5 610,-129.5 604,-129.5 598,-123.5 598,-117.5 598,-117.5 598,-95.5 598,-95.5 598,-89.5 604,-83.5 610,-83.5"/>
<text text-anchor="middle" x="639.5" y="-114.3" font-family="Times,serif" font-size="14.00">LDRXui</text>
<polyline fill="none" stroke="black" points="598,-106.5 681,-106.5 "/>
<text text-anchor="middle" x="611" y="-91.3" font-family="Times,serif" font-size="14.00">2</text>
<polyline fill="none" stroke="black" points="624,-83.5 624,-106.5 "/>
<text text-anchor="middle" x="652.5" y="-91.3" font-family="Times,serif" font-size="14.00">1.429</text>
</g>
<!-- &#45;5708187231461703122&#45;&gt;3498434249866180766 -->
<g id="edge21" class="edge">
<title>&#45;5708187231461703122&#45;&gt;3498434249866180766</title>
<path fill="none" stroke="black" d="M583.54,-166.37C592.11,-157.35 602.15,-146.79 611.34,-137.12"/>
<polygon fill="black" stroke="black" points="614.13,-139.27 618.48,-129.61 609.06,-134.44 614.13,-139.27"/>
</g>
<!-- 2650321848792586336 -->
<g id="node23" class="node">
<title>2650321848792586336</title>
<path fill="none" stroke="black" d="M259,-83.5C259,-83.5 318,-83.5 318,-83.5 324,-83.5 330,-89.5 330,-95.5 330,-95.5 330,-117.5 330,-117.5 330,-123.5 324,-129.5 318,-129.5 318,-129.5 259,-129.5 259,-129.5 253,-129.5 247,-123.5 247,-117.5 247,-117.5 247,-95.5 247,-95.5 247,-89.5 253,-83.5 259,-83.5"/>
<text text-anchor="middle" x="288.5" y="-114.3" font-family="Times,serif" font-size="14.00">LDRXui</text>
<polyline fill="none" stroke="black" points="247,-106.5 330,-106.5 "/>
<text text-anchor="middle" x="260" y="-91.3" font-family="Times,serif" font-size="14.00">3</text>
<polyline fill="none" stroke="black" points="273,-83.5 273,-106.5 "/>
<text text-anchor="middle" x="301.5" y="-91.3" font-family="Times,serif" font-size="14.00">1.429</text>
</g>
<!-- &#45;3636139296915674601&#45;&gt;2650321848792586336 -->
<g id="edge22" class="edge">
<title>&#45;3636139296915674601&#45;&gt;2650321848792586336</title>
<path fill="none" stroke="black" d="M344.46,-166.37C335.89,-157.35 325.85,-146.79 316.66,-137.12"/>
<polygon fill="black" stroke="black" points="318.94,-134.44 309.52,-129.61 313.87,-139.27 318.94,-134.44"/>
</g>
<!-- &#45;3516700506318557462 -->
<g id="node24" class="node">
<title>&#45;3516700506318557462</title>
<path fill="none" stroke="black" d="M360,-83.5C360,-83.5 419,-83.5 419,-83.5 425,-83.5 431,-89.5 431,-95.5 431,-95.5 431,-117.5 431,-117.5 431,-123.5 425,-129.5 419,-129.5 419,-129.5 360,-129.5 360,-129.5 354,-129.5 348,-123.5 348,-117.5 348,-117.5 348,-95.5 348,-95.5 348,-89.5 354,-83.5 360,-83.5"/>
<text text-anchor="middle" x="389.5" y="-114.3" font-family="Times,serif" font-size="14.00">SUBSWri</text>
<polyline fill="none" stroke="black" points="348,-106.5 431,-106.5 "/>
<text text-anchor="middle" x="361" y="-91.3" font-family="Times,serif" font-size="14.00">2</text>
<polyline fill="none" stroke="black" points="374,-83.5 374,-106.5 "/>
<text text-anchor="middle" x="402.5" y="-91.3" font-family="Times,serif" font-size="14.00">1.429</text>
</g>
<!-- &#45;3636139296915674601&#45;&gt;&#45;3516700506318557462 -->
<g id="edge23" class="edge">
<title>&#45;3636139296915674601&#45;&gt;&#45;3516700506318557462</title>
<path fill="none" stroke="black" d="M372.06,-166.37C374.52,-158.06 377.37,-148.45 380.04,-139.43"/>
<polygon fill="black" stroke="black" points="383.46,-140.19 382.95,-129.61 376.75,-138.2 383.46,-140.19"/>
</g>
<!-- &#45;1227123872615754427 -->
<g id="node25" class="node">
<title>&#45;1227123872615754427</title>
<path fill="none" stroke="black" d="M509,-0.5C509,-0.5 568,-0.5 568,-0.5 574,-0.5 580,-6.5 580,-12.5 580,-12.5 580,-34.5 580,-34.5 580,-40.5 574,-46.5 568,-46.5 568,-46.5 509,-46.5 509,-46.5 503,-46.5 497,-40.5 497,-34.5 497,-34.5 497,-12.5 497,-12.5 497,-6.5 503,-0.5 509,-0.5"/>
<text text-anchor="middle" x="538.5" y="-31.3" font-family="Times,serif" font-size="14.00">LDRXui</text>
<polyline fill="none" stroke="black" points="497,-23.5 580,-23.5 "/>
<text text-anchor="middle" x="510" y="-8.3" font-family="Times,serif" font-size="14.00">3</text>
<polyline fill="none" stroke="black" points="523,-0.5 523,-23.5 "/>
<text text-anchor="middle" x="551.5" y="-8.3" font-family="Times,serif" font-size="14.00">1.429</text>
</g>
<!-- &#45;789615578170852651&#45;&gt;&#45;1227123872615754427 -->
<g id="edge24" class="edge">
<title>&#45;789615578170852651&#45;&gt;&#45;1227123872615754427</title>
<path fill="none" stroke="black" d="M538.5,-83.37C538.5,-75.15 538.5,-65.66 538.5,-56.73"/>
<polygon fill="black" stroke="black" points="542,-56.61 538.5,-46.61 535,-56.61 542,-56.61"/>
</g>
</g>
</svg>
