<?xml version="1.0" encoding="UTF-8" standalone="no"?>
<!DOCTYPE svg PUBLIC "-//W3C//DTD SVG 1.1//EN"
 "http://www.w3.org/Graphics/SVG/1.1/DTD/svg11.dtd">
<!-- Generated by graphviz version 2.43.0 (0)
 -->
<!-- Title: MCTS Tree\nmcts/0.25/tree.svg Pages: 1 -->
<svg width="682pt" height="719pt" viewBox="0.00 0.00 682.00 719.00"
    xmlns="http://www.w3.org/2000/svg"
    xmlns:xlink="http://www.w3.org/1999/xlink">
    <g id="graph0" class="graph" transform="scale(1 1) rotate(0) translate(4 715)">
        <title>MCTS Tree\nmcts/0.25/tree.svg</title>
        <polygon fill="white" stroke="transparent" points="-4,4 -4,-715 678,-715 678,4 -4,4"/>
        <!-- 0 -->
        <g id="node1" class="node">
            <title>0</title>
            <path fill="none" stroke="black" d="M272.5,-664.5C272.5,-664.5 340.5,-664.5 340.5,-664.5 346.5,-664.5 352.5,-670.5 352.5,-676.5 352.5,-676.5 352.5,-698.5 352.5,-698.5 352.5,-704.5 346.5,-710.5 340.5,-710.5 340.5,-710.5 272.5,-710.5 272.5,-710.5 266.5,-710.5 260.5,-704.5 260.5,-698.5 260.5,-698.5 260.5,-676.5 260.5,-676.5 260.5,-670.5 266.5,-664.5 272.5,-664.5"/>
            <text text-anchor="middle" x="306.5" y="-695.3" font-family="Times,serif" font-size="14.00"></text>
            <polyline fill="none" stroke="black" points="260.5,-687.5 352.5,-687.5 "/>
            <text text-anchor="middle" x="278" y="-672.3" font-family="Times,serif" font-size="14.00">17</text>
            <polyline fill="none" stroke="black" points="295.5,-664.5 295.5,-687.5 "/>
            <text text-anchor="middle" x="324" y="-672.3" font-family="Times,serif" font-size="14.00">1.429</text>
        </g>
        <!-- 3012180349916102802 -->
        <g id="node2" class="node">
            <title>3012180349916102802</title>
            <path fill="none" stroke="black" d="M207.5,-581.5C207.5,-581.5 289.5,-581.5 289.5,-581.5 295.5,-581.5 301.5,-587.5 301.5,-593.5 301.5,-593.5 301.5,-615.5 301.5,-615.5 301.5,-621.5 295.5,-627.5 289.5,-627.5 289.5,-627.5 207.5,-627.5 207.5,-627.5 201.5,-627.5 195.5,-621.5 195.5,-615.5 195.5,-615.5 195.5,-593.5 195.5,-593.5 195.5,-587.5 201.5,-581.5 207.5,-581.5"/>
            <text text-anchor="middle" x="248.5" y="-612.3" font-family="Times,serif" font-size="14.00">MOVi32imm</text>
            <polyline fill="none" stroke="black" points="195.5,-604.5 301.5,-604.5 "/>
            <text text-anchor="middle" x="214" y="-589.3" font-family="Times,serif" font-size="14.00">2</text>
            <polyline fill="none" stroke="black" points="232.5,-581.5 232.5,-604.5 "/>
            <text text-anchor="middle" x="267" y="-589.3" font-family="Times,serif" font-size="14.00">0.524</text>
        </g>
        <!-- 0&#45;&gt;3012180349916102802 -->
        <g id="edge1" class="edge">
            <title>0&#45;&gt;3012180349916102802</title>
            <path fill="none" stroke="black" d="M290.65,-664.37C284.39,-655.62 277.08,-645.41 270.33,-635.99"/>
            <polygon fill="black" stroke="black" points="273,-633.7 264.33,-627.61 267.31,-637.78 273,-633.7"/>
        </g>
        <!-- &#45;5572346302183888012 -->
        <g id="node3" class="node">
            <title>&#45;5572346302183888012</title>
            <path fill="#005AA9" fill-opacity="1" stroke="black" d="M359.5,-581.5C359.5,-581.5 427.5,-581.5 427.5,-581.5 433.5,-581.5 439.5,-587.5 439.5,-593.5 439.5,-593.5 439.5,-615.5 439.5,-615.5 439.5,-621.5 433.5,-627.5 427.5,-627.5 427.5,-627.5 359.5,-627.5 359.5,-627.5 353.5,-627.5 347.5,-621.5 347.5,-615.5 347.5,-615.5 347.5,-593.5 347.5,-593.5 347.5,-587.5 353.5,-581.5 359.5,-581.5"/>
            <text fill="white" text-anchor="middle" x="393.5" y="-612.3" font-family="Times,serif" font-size="14.00">ADRP</text>
            <polyline fill="none" stroke="black" points="347.5,-604.5 439.5,-604.5 "/>
            <text fill="white" text-anchor="middle" x="365" y="-589.3" font-family="Times,serif" font-size="14.00">15</text>
            <polyline fill="none" stroke="black" points="382.5,-581.5 382.5,-604.5 "/>
            <text fill="white" text-anchor="middle" x="411" y="-589.3" font-family="Times,serif" font-size="14.00">1.429</text>
        </g>
        <!-- 0&#45;&gt;&#45;5572346302183888012 -->
        <g id="edge2" class="edge">
            <title>0&#45;&gt;&#45;5572346302183888012</title>
            <path fill="none" stroke="black" d="M330.27,-664.37C340.15,-655.17 351.75,-644.37 362.3,-634.55"/>
            <polygon fill="black" stroke="black" points="364.82,-636.98 369.76,-627.61 360.05,-631.86 364.82,-636.98"/>
        </g>
        <!-- 805201743826338871 -->
        <g id="node7" class="node">
            <title>805201743826338871</title>
            <path fill="none" stroke="black" d="M163,-498.5C163,-498.5 222,-498.5 222,-498.5 228,-498.5 234,-504.5 234,-510.5 234,-510.5 234,-532.5 234,-532.5 234,-538.5 228,-544.5 222,-544.5 222,-544.5 163,-544.5 163,-544.5 157,-544.5 151,-538.5 151,-532.5 151,-532.5 151,-510.5 151,-510.5 151,-504.5 157,-498.5 163,-498.5"/>
            <text text-anchor="middle" x="192.5" y="-529.3" font-family="Times,serif" font-size="14.00">ADRP</text>
            <polyline fill="none" stroke="black" points="151,-521.5 234,-521.5 "/>
            <text text-anchor="middle" x="164" y="-506.3" font-family="Times,serif" font-size="14.00">2</text>
            <polyline fill="none" stroke="black" points="177,-498.5 177,-521.5 "/>
            <text text-anchor="middle" x="205.5" y="-506.3" font-family="Times,serif" font-size="14.00">0.524</text>
        </g>
        <!-- 3012180349916102802&#45;&gt;805201743826338871 -->
        <g id="edge6" class="edge">
            <title>3012180349916102802&#45;&gt;805201743826338871</title>
            <path fill="none" stroke="black" d="M233.2,-581.37C227.15,-572.62 220.09,-562.41 213.58,-552.99"/>
            <polygon fill="black" stroke="black" points="216.35,-550.84 207.78,-544.61 210.59,-554.82 216.35,-550.84"/>
        </g>
        <!-- 6217194180326575002 -->
        <g id="node4" class="node">
            <title>6217194180326575002</title>
            <path fill="#005AA9" fill-opacity="1" stroke="black" d="M264.5,-498.5C264.5,-498.5 332.5,-498.5 332.5,-498.5 338.5,-498.5 344.5,-504.5 344.5,-510.5 344.5,-510.5 344.5,-532.5 344.5,-532.5 344.5,-538.5 338.5,-544.5 332.5,-544.5 332.5,-544.5 264.5,-544.5 264.5,-544.5 258.5,-544.5 252.5,-538.5 252.5,-532.5 252.5,-532.5 252.5,-510.5 252.5,-510.5 252.5,-504.5 258.5,-498.5 264.5,-498.5"/>
            <text fill="white" text-anchor="middle" x="298.5" y="-529.3" font-family="Times,serif" font-size="14.00">LDRXui</text>
            <polyline fill="none" stroke="black" points="252.5,-521.5 344.5,-521.5 "/>
            <text fill="white" text-anchor="middle" x="270" y="-506.3" font-family="Times,serif" font-size="14.00">11</text>
            <polyline fill="none" stroke="black" points="287.5,-498.5 287.5,-521.5 "/>
            <text fill="white" text-anchor="middle" x="316" y="-506.3" font-family="Times,serif" font-size="14.00">1.429</text>
        </g>
        <!-- &#45;5572346302183888012&#45;&gt;6217194180326575002 -->
        <g id="edge3" class="edge">
            <title>&#45;5572346302183888012&#45;&gt;6217194180326575002</title>
            <path fill="none" stroke="black" d="M367.54,-581.37C356.65,-572.08 343.84,-561.16 332.23,-551.26"/>
            <polygon fill="black" stroke="black" points="334.31,-548.43 324.43,-544.61 329.77,-553.76 334.31,-548.43"/>
        </g>
        <!-- 4285990965964743179 -->
        <g id="node5" class="node">
            <title>4285990965964743179</title>
            <path fill="none" stroke="black" d="M380,-498.5C380,-498.5 439,-498.5 439,-498.5 445,-498.5 451,-504.5 451,-510.5 451,-510.5 451,-532.5 451,-532.5 451,-538.5 445,-544.5 439,-544.5 439,-544.5 380,-544.5 380,-544.5 374,-544.5 368,-538.5 368,-532.5 368,-532.5 368,-510.5 368,-510.5 368,-504.5 374,-498.5 380,-498.5"/>
            <text text-anchor="middle" x="409.5" y="-529.3" font-family="Times,serif" font-size="14.00">ADRP</text>
            <polyline fill="none" stroke="black" points="368,-521.5 451,-521.5 "/>
            <text text-anchor="middle" x="381" y="-506.3" font-family="Times,serif" font-size="14.00">2</text>
            <polyline fill="none" stroke="black" points="394,-498.5 394,-521.5 "/>
            <text text-anchor="middle" x="422.5" y="-506.3" font-family="Times,serif" font-size="14.00">0.931</text>
        </g>
        <!-- &#45;5572346302183888012&#45;&gt;4285990965964743179 -->
        <g id="edge4" class="edge">
            <title>&#45;5572346302183888012&#45;&gt;4285990965964743179</title>
            <path fill="none" stroke="black" d="M397.87,-581.37C399.51,-573.06 401.41,-563.45 403.19,-554.43"/>
            <polygon fill="black" stroke="black" points="406.63,-555.1 405.13,-544.61 399.76,-553.74 406.63,-555.1"/>
        </g>
        <!-- &#45;2331534830490706097 -->
        <g id="node6" class="node">
            <title>&#45;2331534830490706097</title>
            <path fill="none" stroke="black" d="M490.5,-498.5C490.5,-498.5 572.5,-498.5 572.5,-498.5 578.5,-498.5 584.5,-504.5 584.5,-510.5 584.5,-510.5 584.5,-532.5 584.5,-532.5 584.5,-538.5 578.5,-544.5 572.5,-544.5 572.5,-544.5 490.5,-544.5 490.5,-544.5 484.5,-544.5 478.5,-538.5 478.5,-532.5 478.5,-532.5 478.5,-510.5 478.5,-510.5 478.5,-504.5 484.5,-498.5 490.5,-498.5"/>
            <text text-anchor="middle" x="531.5" y="-529.3" font-family="Times,serif" font-size="14.00">MOVi32imm</text>
            <polyline fill="none" stroke="black" points="478.5,-521.5 584.5,-521.5 "/>
            <text text-anchor="middle" x="497" y="-506.3" font-family="Times,serif" font-size="14.00">2</text>
            <polyline fill="none" stroke="black" points="515.5,-498.5 515.5,-521.5 "/>
            <text text-anchor="middle" x="550" y="-506.3" font-family="Times,serif" font-size="14.00">0.931</text>
        </g>
        <!-- &#45;5572346302183888012&#45;&gt;&#45;2331534830490706097 -->
        <g id="edge5" class="edge">
            <title>&#45;5572346302183888012&#45;&gt;&#45;2331534830490706097</title>
            <path fill="none" stroke="black" d="M431.21,-581.37C447.79,-571.63 467.43,-560.11 484.92,-549.84"/>
            <polygon fill="black" stroke="black" points="486.98,-552.69 493.84,-544.61 483.44,-546.65 486.98,-552.69"/>
        </g>
        <!-- 8936888571052705822 -->
        <g id="node8" class="node">
            <title>8936888571052705822</title>
            <path fill="#005AA9" fill-opacity="1" stroke="black" d="M152,-415.5C152,-415.5 211,-415.5 211,-415.5 217,-415.5 223,-421.5 223,-427.5 223,-427.5 223,-449.5 223,-449.5 223,-455.5 217,-461.5 211,-461.5 211,-461.5 152,-461.5 152,-461.5 146,-461.5 140,-455.5 140,-449.5 140,-449.5 140,-427.5 140,-427.5 140,-421.5 146,-415.5 152,-415.5"/>
            <text fill="white" text-anchor="middle" x="181.5" y="-446.3" font-family="Times,serif" font-size="14.00">ADRP</text>
            <polyline fill="none" stroke="black" points="140,-438.5 223,-438.5 "/>
            <text fill="white" text-anchor="middle" x="153" y="-423.3" font-family="Times,serif" font-size="14.00">6</text>
            <polyline fill="none" stroke="black" points="166,-415.5 166,-438.5 "/>
            <text fill="white" text-anchor="middle" x="194.5" y="-423.3" font-family="Times,serif" font-size="14.00">1.429</text>
        </g>
        <!-- 6217194180326575002&#45;&gt;8936888571052705822 -->
        <g id="edge7" class="edge">
            <title>6217194180326575002&#45;&gt;8936888571052705822</title>
            <path fill="none" stroke="black" d="M266.53,-498.37C252.73,-488.81 236.43,-477.53 221.81,-467.41"/>
            <polygon fill="black" stroke="black" points="223.65,-464.42 213.43,-461.61 219.66,-470.18 223.65,-464.42"/>
        </g>
        <!-- &#45;3076574409509125465 -->
        <g id="node9" class="node">
            <title>&#45;3076574409509125465</title>
            <path fill="none" stroke="black" d="M253.5,-415.5C253.5,-415.5 335.5,-415.5 335.5,-415.5 341.5,-415.5 347.5,-421.5 347.5,-427.5 347.5,-427.5 347.5,-449.5 347.5,-449.5 347.5,-455.5 341.5,-461.5 335.5,-461.5 335.5,-461.5 253.5,-461.5 253.5,-461.5 247.5,-461.5 241.5,-455.5 241.5,-449.5 241.5,-449.5 241.5,-427.5 241.5,-427.5 241.5,-421.5 247.5,-415.5 253.5,-415.5"/>
            <text text-anchor="middle" x="294.5" y="-446.3" font-family="Times,serif" font-size="14.00">MOVi32imm</text>
            <polyline fill="none" stroke="black" points="241.5,-438.5 347.5,-438.5 "/>
            <text text-anchor="middle" x="260" y="-423.3" font-family="Times,serif" font-size="14.00">5</text>
            <polyline fill="none" stroke="black" points="278.5,-415.5 278.5,-438.5 "/>
            <text text-anchor="middle" x="313" y="-423.3" font-family="Times,serif" font-size="14.00">1.429</text>
        </g>
        <!-- 6217194180326575002&#45;&gt;&#45;3076574409509125465 -->
        <g id="edge8" class="edge">
            <title>6217194180326575002&#45;&gt;&#45;3076574409509125465</title>
            <path fill="none" stroke="black" d="M297.41,-498.37C297,-490.15 296.53,-480.66 296.09,-471.73"/>
            <polygon fill="black" stroke="black" points="299.58,-471.42 295.59,-461.61 292.59,-471.77 299.58,-471.42"/>
        </g>
        <!-- 1322822474104603009 -->
        <g id="node12" class="node">
            <title>1322822474104603009</title>
            <path fill="none" stroke="black" d="M377.5,-415.5C377.5,-415.5 459.5,-415.5 459.5,-415.5 465.5,-415.5 471.5,-421.5 471.5,-427.5 471.5,-427.5 471.5,-449.5 471.5,-449.5 471.5,-455.5 465.5,-461.5 459.5,-461.5 459.5,-461.5 377.5,-461.5 377.5,-461.5 371.5,-461.5 365.5,-455.5 365.5,-449.5 365.5,-449.5 365.5,-427.5 365.5,-427.5 365.5,-421.5 371.5,-415.5 377.5,-415.5"/>
            <text text-anchor="middle" x="418.5" y="-446.3" font-family="Times,serif" font-size="14.00">MOVi32imm</text>
            <polyline fill="none" stroke="black" points="365.5,-438.5 471.5,-438.5 "/>
            <text text-anchor="middle" x="384" y="-423.3" font-family="Times,serif" font-size="14.00">2</text>
            <polyline fill="none" stroke="black" points="402.5,-415.5 402.5,-438.5 "/>
            <text text-anchor="middle" x="437" y="-423.3" font-family="Times,serif" font-size="14.00">0.931</text>
        </g>
        <!-- 4285990965964743179&#45;&gt;1322822474104603009 -->
        <g id="edge11" class="edge">
            <title>4285990965964743179&#45;&gt;1322822474104603009</title>
            <path fill="none" stroke="black" d="M411.96,-498.37C412.87,-490.15 413.93,-480.66 414.92,-471.73"/>
            <polygon fill="black" stroke="black" points="418.42,-471.93 416.04,-461.61 411.46,-471.16 418.42,-471.93"/>
        </g>
        <!-- 3710377183519596120 -->
        <g id="node10" class="node">
            <title>3710377183519596120</title>
            <path fill="none" stroke="black" d="M502,-415.5C502,-415.5 561,-415.5 561,-415.5 567,-415.5 573,-421.5 573,-427.5 573,-427.5 573,-449.5 573,-449.5 573,-455.5 567,-461.5 561,-461.5 561,-461.5 502,-461.5 502,-461.5 496,-461.5 490,-455.5 490,-449.5 490,-449.5 490,-427.5 490,-427.5 490,-421.5 496,-415.5 502,-415.5"/>
            <text text-anchor="middle" x="531.5" y="-446.3" font-family="Times,serif" font-size="14.00">LDRXui</text>
            <polyline fill="none" stroke="black" points="490,-438.5 573,-438.5 "/>
            <text text-anchor="middle" x="503" y="-423.3" font-family="Times,serif" font-size="14.00">1</text>
            <polyline fill="none" stroke="black" points="516,-415.5 516,-438.5 "/>
            <text text-anchor="middle" x="544.5" y="-423.3" font-family="Times,serif" font-size="14.00">0.835</text>
        </g>
        <!-- &#45;2331534830490706097&#45;&gt;3710377183519596120 -->
        <g id="edge9" class="edge">
            <title>&#45;2331534830490706097&#45;&gt;3710377183519596120</title>
            <path fill="none" stroke="black" d="M531.5,-498.37C531.5,-490.15 531.5,-480.66 531.5,-471.73"/>
            <polygon fill="black" stroke="black" points="535,-471.61 531.5,-461.61 528,-471.61 535,-471.61"/>
        </g>
        <!-- 7334024980447416117 -->
        <g id="node11" class="node">
            <title>7334024980447416117</title>
            <path fill="none" stroke="black" d="M603,-415.5C603,-415.5 662,-415.5 662,-415.5 668,-415.5 674,-421.5 674,-427.5 674,-427.5 674,-449.5 674,-449.5 674,-455.5 668,-461.5 662,-461.5 662,-461.5 603,-461.5 603,-461.5 597,-461.5 591,-455.5 591,-449.5 591,-449.5 591,-427.5 591,-427.5 591,-421.5 597,-415.5 603,-415.5"/>
            <text text-anchor="middle" x="632.5" y="-446.3" font-family="Times,serif" font-size="14.00">ADRP</text>
            <polyline fill="none" stroke="black" points="591,-438.5 674,-438.5 "/>
            <text text-anchor="middle" x="604" y="-423.3" font-family="Times,serif" font-size="14.00">1</text>
            <polyline fill="none" stroke="black" points="617,-415.5 617,-438.5 "/>
            <text text-anchor="middle" x="645.5" y="-423.3" font-family="Times,serif" font-size="14.00">0.931</text>
        </g>
        <!-- &#45;2331534830490706097&#45;&gt;7334024980447416117 -->
        <g id="edge10" class="edge">
            <title>&#45;2331534830490706097&#45;&gt;7334024980447416117</title>
            <path fill="none" stroke="black" d="M559.1,-498.37C570.79,-488.99 584.56,-477.95 596.99,-467.98"/>
            <polygon fill="black" stroke="black" points="599.32,-470.59 604.93,-461.61 594.94,-465.13 599.32,-470.59"/>
        </g>
        <!-- 5562036051356041828 -->
        <g id="node13" class="node">
            <title>5562036051356041828</title>
            <path fill="#005AA9" fill-opacity="1" stroke="black" d="M140.5,-332.5C140.5,-332.5 222.5,-332.5 222.5,-332.5 228.5,-332.5 234.5,-338.5 234.5,-344.5 234.5,-344.5 234.5,-366.5 234.5,-366.5 234.5,-372.5 228.5,-378.5 222.5,-378.5 222.5,-378.5 140.5,-378.5 140.5,-378.5 134.5,-378.5 128.5,-372.5 128.5,-366.5 128.5,-366.5 128.5,-344.5 128.5,-344.5 128.5,-338.5 134.5,-332.5 140.5,-332.5"/>
            <text fill="white" text-anchor="middle" x="181.5" y="-363.3" font-family="Times,serif" font-size="14.00">MOVi32imm</text>
            <polyline fill="none" stroke="black" points="128.5,-355.5 234.5,-355.5 "/>
            <text fill="white" text-anchor="middle" x="147" y="-340.3" font-family="Times,serif" font-size="14.00">6</text>
            <polyline fill="none" stroke="black" points="165.5,-332.5 165.5,-355.5 "/>
            <text fill="white" text-anchor="middle" x="200" y="-340.3" font-family="Times,serif" font-size="14.00">1.429</text>
        </g>
        <!-- 8936888571052705822&#45;&gt;5562036051356041828 -->
        <g id="edge12" class="edge">
            <title>8936888571052705822&#45;&gt;5562036051356041828</title>
            <path fill="none" stroke="black" d="M181.5,-415.37C181.5,-407.15 181.5,-397.66 181.5,-388.73"/>
            <polygon fill="black" stroke="black" points="185,-388.61 181.5,-378.61 178,-388.61 185,-388.61"/>
        </g>
        <!-- &#45;2692824766019855634 -->
        <g id="node14" class="node">
            <title>&#45;2692824766019855634</title>
            <path fill="none" stroke="black" d="M275,-332.5C275,-332.5 334,-332.5 334,-332.5 340,-332.5 346,-338.5 346,-344.5 346,-344.5 346,-366.5 346,-366.5 346,-372.5 340,-378.5 334,-378.5 334,-378.5 275,-378.5 275,-378.5 269,-378.5 263,-372.5 263,-366.5 263,-366.5 263,-344.5 263,-344.5 263,-338.5 269,-332.5 275,-332.5"/>
            <text text-anchor="middle" x="304.5" y="-363.3" font-family="Times,serif" font-size="14.00">ADRP</text>
            <polyline fill="none" stroke="black" points="263,-355.5 346,-355.5 "/>
            <text text-anchor="middle" x="276" y="-340.3" font-family="Times,serif" font-size="14.00">5</text>
            <polyline fill="none" stroke="black" points="289,-332.5 289,-355.5 "/>
            <text text-anchor="middle" x="317.5" y="-340.3" font-family="Times,serif" font-size="14.00">1.429</text>
        </g>
        <!-- &#45;3076574409509125465&#45;&gt;&#45;2692824766019855634 -->
        <g id="edge13" class="edge">
            <title>&#45;3076574409509125465&#45;&gt;&#45;2692824766019855634</title>
            <path fill="none" stroke="black" d="M297.23,-415.37C298.25,-407.15 299.42,-397.66 300.52,-388.73"/>
            <polygon fill="black" stroke="black" points="304.02,-388.96 301.77,-378.61 297.07,-388.1 304.02,-388.96"/>
        </g>
        <!-- &#45;2700181618163808054 -->
        <g id="node17" class="node">
            <title>&#45;2700181618163808054</title>
            <path fill="none" stroke="black" d="M382,-332.5C382,-332.5 441,-332.5 441,-332.5 447,-332.5 453,-338.5 453,-344.5 453,-344.5 453,-366.5 453,-366.5 453,-372.5 447,-378.5 441,-378.5 441,-378.5 382,-378.5 382,-378.5 376,-378.5 370,-372.5 370,-366.5 370,-366.5 370,-344.5 370,-344.5 370,-338.5 376,-332.5 382,-332.5"/>
            <text text-anchor="middle" x="411.5" y="-363.3" font-family="Times,serif" font-size="14.00">STRWui</text>
            <polyline fill="none" stroke="black" points="370,-355.5 453,-355.5 "/>
            <text text-anchor="middle" x="383" y="-340.3" font-family="Times,serif" font-size="14.00">1</text>
            <polyline fill="none" stroke="black" points="396,-332.5 396,-355.5 "/>
            <text text-anchor="middle" x="424.5" y="-340.3" font-family="Times,serif" font-size="14.00">0.524</text>
        </g>
        <!-- 1322822474104603009&#45;&gt;&#45;2700181618163808054 -->
        <g id="edge16" class="edge">
            <title>1322822474104603009&#45;&gt;&#45;2700181618163808054</title>
            <path fill="none" stroke="black" d="M416.59,-415.37C415.88,-407.15 415.06,-397.66 414.28,-388.73"/>
            <polygon fill="black" stroke="black" points="417.76,-388.27 413.41,-378.61 410.78,-388.87 417.76,-388.27"/>
        </g>
        <!-- &#45;1070675871797138725 -->
        <g id="node18" class="node">
            <title>&#45;1070675871797138725</title>
            <path fill="none" stroke="black" d="M483,-332.5C483,-332.5 542,-332.5 542,-332.5 548,-332.5 554,-338.5 554,-344.5 554,-344.5 554,-366.5 554,-366.5 554,-372.5 548,-378.5 542,-378.5 542,-378.5 483,-378.5 483,-378.5 477,-378.5 471,-372.5 471,-366.5 471,-366.5 471,-344.5 471,-344.5 471,-338.5 477,-332.5 483,-332.5"/>
            <text text-anchor="middle" x="512.5" y="-363.3" font-family="Times,serif" font-size="14.00">LDRXui</text>
            <polyline fill="none" stroke="black" points="471,-355.5 554,-355.5 "/>
            <text text-anchor="middle" x="484" y="-340.3" font-family="Times,serif" font-size="14.00">1</text>
            <polyline fill="none" stroke="black" points="497,-332.5 497,-355.5 "/>
            <text text-anchor="middle" x="525.5" y="-340.3" font-family="Times,serif" font-size="14.00">0.931</text>
        </g>
        <!-- 1322822474104603009&#45;&gt;&#45;1070675871797138725 -->
        <g id="edge17" class="edge">
            <title>1322822474104603009&#45;&gt;&#45;1070675871797138725</title>
            <path fill="none" stroke="black" d="M444.19,-415.37C454.96,-406.08 467.64,-395.16 479.12,-385.26"/>
            <polygon fill="black" stroke="black" points="481.55,-387.79 486.85,-378.61 476.98,-382.48 481.55,-387.79"/>
        </g>
        <!-- 3820220332324987941 -->
        <g id="node15" class="node">
            <title>3820220332324987941</title>
            <path fill="#005AA9" fill-opacity="1" stroke="black" d="M131,-249.5C131,-249.5 190,-249.5 190,-249.5 196,-249.5 202,-255.5 202,-261.5 202,-261.5 202,-283.5 202,-283.5 202,-289.5 196,-295.5 190,-295.5 190,-295.5 131,-295.5 131,-295.5 125,-295.5 119,-289.5 119,-283.5 119,-283.5 119,-261.5 119,-261.5 119,-255.5 125,-249.5 131,-249.5"/>
            <text fill="white" text-anchor="middle" x="160.5" y="-280.3" font-family="Times,serif" font-size="14.00">STRWui</text>
            <polyline fill="none" stroke="black" points="119,-272.5 202,-272.5 "/>
            <text fill="white" text-anchor="middle" x="132" y="-257.3" font-family="Times,serif" font-size="14.00">6</text>
            <polyline fill="none" stroke="black" points="145,-249.5 145,-272.5 "/>
            <text fill="white" text-anchor="middle" x="173.5" y="-257.3" font-family="Times,serif" font-size="14.00">1.429</text>
        </g>
        <!-- 5562036051356041828&#45;&gt;3820220332324987941 -->
        <g id="edge14" class="edge">
            <title>5562036051356041828&#45;&gt;3820220332324987941</title>
            <path fill="none" stroke="black" d="M175.76,-332.37C173.61,-324.06 171.12,-314.45 168.78,-305.43"/>
            <polygon fill="black" stroke="black" points="172.13,-304.41 166.23,-295.61 165.35,-306.17 172.13,-304.41"/>
        </g>
        <!-- &#45;8415395904210564177 -->
        <g id="node16" class="node">
            <title>&#45;8415395904210564177</title>
            <path fill="none" stroke="black" d="M280,-249.5C280,-249.5 339,-249.5 339,-249.5 345,-249.5 351,-255.5 351,-261.5 351,-261.5 351,-283.5 351,-283.5 351,-289.5 345,-295.5 339,-295.5 339,-295.5 280,-295.5 280,-295.5 274,-295.5 268,-289.5 268,-283.5 268,-283.5 268,-261.5 268,-261.5 268,-255.5 274,-249.5 280,-249.5"/>
            <text text-anchor="middle" x="309.5" y="-280.3" font-family="Times,serif" font-size="14.00">STRWui</text>
            <polyline fill="none" stroke="black" points="268,-272.5 351,-272.5 "/>
            <text text-anchor="middle" x="281" y="-257.3" font-family="Times,serif" font-size="14.00">5</text>
            <polyline fill="none" stroke="black" points="294,-249.5 294,-272.5 "/>
            <text text-anchor="middle" x="322.5" y="-257.3" font-family="Times,serif" font-size="14.00">1.429</text>
        </g>
        <!-- &#45;2692824766019855634&#45;&gt;&#45;8415395904210564177 -->
        <g id="edge15" class="edge">
            <title>&#45;2692824766019855634&#45;&gt;&#45;8415395904210564177</title>
            <path fill="none" stroke="black" d="M305.87,-332.37C306.37,-324.15 306.96,-314.66 307.51,-305.73"/>
            <polygon fill="black" stroke="black" points="311.01,-305.8 308.14,-295.61 304.03,-305.37 311.01,-305.8"/>
        </g>
        <!-- &#45;5122896078360723192 -->
        <g id="node19" class="node">
            <title>&#45;5122896078360723192</title>
            <path fill="#005AA9" fill-opacity="1" stroke="black" d="M41,-166.5C41,-166.5 196,-166.5 196,-166.5 202,-166.5 208,-172.5 208,-178.5 208,-178.5 208,-200.5 208,-200.5 208,-206.5 202,-212.5 196,-212.5 196,-212.5 41,-212.5 41,-212.5 35,-212.5 29,-206.5 29,-200.5 29,-200.5 29,-178.5 29,-178.5 29,-172.5 35,-166.5 41,-166.5"/>
            <text fill="white" text-anchor="middle" x="118.5" y="-197.3" font-family="Times,serif" font-size="14.00">ADJCALLSTACKDOWN</text>
            <polyline fill="none" stroke="black" points="29,-189.5 208,-189.5 "/>
            <text fill="white" text-anchor="middle" x="66" y="-174.3" font-family="Times,serif" font-size="14.00">6</text>
            <polyline fill="none" stroke="black" points="103,-166.5 103,-189.5 "/>
            <text fill="white" text-anchor="middle" x="155.5" y="-174.3" font-family="Times,serif" font-size="14.00">1.429</text>
        </g>
        <!-- 3820220332324987941&#45;&gt;&#45;5122896078360723192 -->
        <g id="edge18" class="edge">
            <title>3820220332324987941&#45;&gt;&#45;5122896078360723192</title>
            <path fill="none" stroke="black" d="M149.02,-249.37C144.58,-240.79 139.41,-230.83 134.61,-221.56"/>
            <polygon fill="black" stroke="black" points="137.67,-219.87 129.96,-212.61 131.46,-223.1 137.67,-219.87"/>
        </g>
        <!-- &#45;3435817249294891903 -->
        <g id="node20" class="node">
            <title>&#45;3435817249294891903</title>
            <path fill="none" stroke="black" d="M238,-166.5C238,-166.5 393,-166.5 393,-166.5 399,-166.5 405,-172.5 405,-178.5 405,-178.5 405,-200.5 405,-200.5 405,-206.5 399,-212.5 393,-212.5 393,-212.5 238,-212.5 238,-212.5 232,-212.5 226,-206.5 226,-200.5 226,-200.5 226,-178.5 226,-178.5 226,-172.5 232,-166.5 238,-166.5"/>
            <text text-anchor="middle" x="315.5" y="-197.3" font-family="Times,serif" font-size="14.00">ADJCALLSTACKDOWN</text>
            <polyline fill="none" stroke="black" points="226,-189.5 405,-189.5 "/>
            <text text-anchor="middle" x="263" y="-174.3" font-family="Times,serif" font-size="14.00">5</text>
            <polyline fill="none" stroke="black" points="300,-166.5 300,-189.5 "/>
            <text text-anchor="middle" x="352.5" y="-174.3" font-family="Times,serif" font-size="14.00">1.429</text>
        </g>
        <!-- &#45;8415395904210564177&#45;&gt;&#45;3435817249294891903 -->
        <g id="edge19" class="edge">
            <title>&#45;8415395904210564177&#45;&gt;&#45;3435817249294891903</title>
            <path fill="none" stroke="black" d="M311.14,-249.37C311.75,-241.15 312.45,-231.66 313.11,-222.73"/>
            <polygon fill="black" stroke="black" points="316.61,-222.84 313.86,-212.61 309.63,-222.32 316.61,-222.84"/>
        </g>
        <!-- 8008354433550445218 -->
        <g id="node21" class="node">
            <title>8008354433550445218</title>
            <path fill="none" stroke="black" d="M12,-83.5C12,-83.5 71,-83.5 71,-83.5 77,-83.5 83,-89.5 83,-95.5 83,-95.5 83,-117.5 83,-117.5 83,-123.5 77,-129.5 71,-129.5 71,-129.5 12,-129.5 12,-129.5 6,-129.5 0,-123.5 0,-117.5 0,-117.5 0,-95.5 0,-95.5 0,-89.5 6,-83.5 12,-83.5"/>
            <text text-anchor="middle" x="41.5" y="-114.3" font-family="Times,serif" font-size="14.00">SUBSWri</text>
            <polyline fill="none" stroke="black" points="0,-106.5 83,-106.5 "/>
            <text text-anchor="middle" x="13" y="-91.3" font-family="Times,serif" font-size="14.00">3</text>
            <polyline fill="none" stroke="black" points="26,-83.5 26,-106.5 "/>
            <text text-anchor="middle" x="54.5" y="-91.3" font-family="Times,serif" font-size="14.00">1.429</text>
        </g>
        <!-- &#45;5122896078360723192&#45;&gt;8008354433550445218 -->
        <g id="edge20" class="edge">
            <title>&#45;5122896078360723192&#45;&gt;8008354433550445218</title>
            <path fill="none" stroke="black" d="M97.46,-166.37C88.89,-157.35 78.85,-146.79 69.66,-137.12"/>
            <polygon fill="black" stroke="black" points="71.94,-134.44 62.52,-129.61 66.87,-139.27 71.94,-134.44"/>
        </g>
        <!-- &#45;5675867309129636454 -->
        <g id="node22" class="node">
            <title>&#45;5675867309129636454</title>
            <path fill="#005AA9" fill-opacity="1" stroke="black" d="M113,-83.5C113,-83.5 172,-83.5 172,-83.5 178,-83.5 184,-89.5 184,-95.5 184,-95.5 184,-117.5 184,-117.5 184,-123.5 178,-129.5 172,-129.5 172,-129.5 113,-129.5 113,-129.5 107,-129.5 101,-123.5 101,-117.5 101,-117.5 101,-95.5 101,-95.5 101,-89.5 107,-83.5 113,-83.5"/>
            <text fill="white" text-anchor="middle" x="142.5" y="-114.3" font-family="Times,serif" font-size="14.00">LDRXui</text>
            <polyline fill="none" stroke="black" points="101,-106.5 184,-106.5 "/>
            <text fill="white" text-anchor="middle" x="114" y="-91.3" font-family="Times,serif" font-size="14.00">3</text>
            <polyline fill="none" stroke="black" points="127,-83.5 127,-106.5 "/>
            <text fill="white" text-anchor="middle" x="155.5" y="-91.3" font-family="Times,serif" font-size="14.00">1.429</text>
        </g>
        <!-- &#45;5122896078360723192&#45;&gt;&#45;5675867309129636454 -->
        <g id="edge21" class="edge">
            <title>&#45;5122896078360723192&#45;&gt;&#45;5675867309129636454</title>
            <path fill="none" stroke="black" d="M125.06,-166.37C127.52,-158.06 130.37,-148.45 133.04,-139.43"/>
            <polygon fill="black" stroke="black" points="136.46,-140.19 135.95,-129.61 129.75,-138.2 136.46,-140.19"/>
        </g>
        <!-- &#45;8631111921116168125 -->
        <g id="node23" class="node">
            <title>&#45;8631111921116168125</title>
            <path fill="none" stroke="black" d="M262,-83.5C262,-83.5 321,-83.5 321,-83.5 327,-83.5 333,-89.5 333,-95.5 333,-95.5 333,-117.5 333,-117.5 333,-123.5 327,-129.5 321,-129.5 321,-129.5 262,-129.5 262,-129.5 256,-129.5 250,-123.5 250,-117.5 250,-117.5 250,-95.5 250,-95.5 250,-89.5 256,-83.5 262,-83.5"/>
            <text text-anchor="middle" x="291.5" y="-114.3" font-family="Times,serif" font-size="14.00">SUBSWri</text>
            <polyline fill="none" stroke="black" points="250,-106.5 333,-106.5 "/>
            <text text-anchor="middle" x="263" y="-91.3" font-family="Times,serif" font-size="14.00">2</text>
            <polyline fill="none" stroke="black" points="276,-83.5 276,-106.5 "/>
            <text text-anchor="middle" x="304.5" y="-91.3" font-family="Times,serif" font-size="14.00">1.429</text>
        </g>
        <!-- &#45;3435817249294891903&#45;&gt;&#45;8631111921116168125 -->
        <g id="edge22" class="edge">
            <title>&#45;3435817249294891903&#45;&gt;&#45;8631111921116168125</title>
            <path fill="none" stroke="black" d="M308.94,-166.37C306.48,-158.06 303.63,-148.45 300.96,-139.43"/>
            <polygon fill="black" stroke="black" points="304.25,-138.2 298.05,-129.61 297.54,-140.19 304.25,-138.2"/>
        </g>
        <!-- 6248497693880325940 -->
        <g id="node24" class="node">
            <title>6248497693880325940</title>
            <path fill="none" stroke="black" d="M363,-83.5C363,-83.5 422,-83.5 422,-83.5 428,-83.5 434,-89.5 434,-95.5 434,-95.5 434,-117.5 434,-117.5 434,-123.5 428,-129.5 422,-129.5 422,-129.5 363,-129.5 363,-129.5 357,-129.5 351,-123.5 351,-117.5 351,-117.5 351,-95.5 351,-95.5 351,-89.5 357,-83.5 363,-83.5"/>
            <text text-anchor="middle" x="392.5" y="-114.3" font-family="Times,serif" font-size="14.00">LDRXui</text>
            <polyline fill="none" stroke="black" points="351,-106.5 434,-106.5 "/>
            <text text-anchor="middle" x="364" y="-91.3" font-family="Times,serif" font-size="14.00">3</text>
            <polyline fill="none" stroke="black" points="377,-83.5 377,-106.5 "/>
            <text text-anchor="middle" x="405.5" y="-91.3" font-family="Times,serif" font-size="14.00">1.429</text>
        </g>
        <!-- &#45;3435817249294891903&#45;&gt;6248497693880325940 -->
        <g id="edge23" class="edge">
            <title>&#45;3435817249294891903&#45;&gt;6248497693880325940</title>
            <path fill="none" stroke="black" d="M336.54,-166.37C345.11,-157.35 355.15,-146.79 364.34,-137.12"/>
            <polygon fill="black" stroke="black" points="367.13,-139.27 371.48,-129.61 362.06,-134.44 367.13,-139.27"/>
        </g>
        <!-- 442673872530165203 -->
        <g id="node25" class="node">
            <title>442673872530165203</title>
            <path fill="none" stroke="black" d="M12,-0.5C12,-0.5 71,-0.5 71,-0.5 77,-0.5 83,-6.5 83,-12.5 83,-12.5 83,-34.5 83,-34.5 83,-40.5 77,-46.5 71,-46.5 71,-46.5 12,-46.5 12,-46.5 6,-46.5 0,-40.5 0,-34.5 0,-34.5 0,-12.5 0,-12.5 0,-6.5 6,-0.5 12,-0.5"/>
            <text text-anchor="middle" x="41.5" y="-31.3" font-family="Times,serif" font-size="14.00">LDRXui</text>
            <polyline fill="none" stroke="black" points="0,-23.5 83,-23.5 "/>
            <text text-anchor="middle" x="13" y="-8.3" font-family="Times,serif" font-size="14.00">3</text>
            <polyline fill="none" stroke="black" points="26,-0.5 26,-23.5 "/>
            <text text-anchor="middle" x="54.5" y="-8.3" font-family="Times,serif" font-size="14.00">1.429</text>
        </g>
        <!-- 8008354433550445218&#45;&gt;442673872530165203 -->
        <g id="edge24" class="edge">
            <title>8008354433550445218&#45;&gt;442673872530165203</title>
            <path fill="none" stroke="black" d="M41.5,-83.37C41.5,-75.15 41.5,-65.66 41.5,-56.73"/>
            <polygon fill="black" stroke="black" points="45,-56.61 41.5,-46.61 38,-56.61 45,-56.61"/>
        </g>
        <!-- &#45;6877899287542071383 -->
        <g id="node26" class="node">
            <title>&#45;6877899287542071383</title>
            <path fill="none" stroke="black" d="M113,-0.5C113,-0.5 172,-0.5 172,-0.5 178,-0.5 184,-6.5 184,-12.5 184,-12.5 184,-34.5 184,-34.5 184,-40.5 178,-46.5 172,-46.5 172,-46.5 113,-46.5 113,-46.5 107,-46.5 101,-40.5 101,-34.5 101,-34.5 101,-12.5 101,-12.5 101,-6.5 107,-0.5 113,-0.5"/>
            <text text-anchor="middle" x="142.5" y="-31.3" font-family="Times,serif" font-size="14.00">SUBSWri</text>
            <polyline fill="none" stroke="black" points="101,-23.5 184,-23.5 "/>
            <text text-anchor="middle" x="114" y="-8.3" font-family="Times,serif" font-size="14.00">2</text>
            <polyline fill="none" stroke="black" points="127,-0.5 127,-23.5 "/>
            <text text-anchor="middle" x="155.5" y="-8.3" font-family="Times,serif" font-size="14.00">1.429</text>
        </g>
        <!-- &#45;5675867309129636454&#45;&gt;&#45;6877899287542071383 -->
        <g id="edge25" class="edge">
            <title>&#45;5675867309129636454&#45;&gt;&#45;6877899287542071383</title>
            <path fill="none" stroke="black" d="M142.5,-83.37C142.5,-75.15 142.5,-65.66 142.5,-56.73"/>
            <polygon fill="black" stroke="black" points="146,-56.61 142.5,-46.61 139,-56.61 146,-56.61"/>
        </g>
        <!-- &#45;5943317212369862425 -->
        <g id="node27" class="node">
            <title>&#45;5943317212369862425</title>
            <path fill="#00715E" fill-opacity="1" stroke="black" d="M214,-0.5C214,-0.5 369,-0.5 369,-0.5 375,-0.5 381,-6.5 381,-12.5 381,-12.5 381,-34.5 381,-34.5 381,-40.5 375,-46.5 369,-46.5 369,-46.5 214,-46.5 214,-46.5 208,-46.5 202,-40.5 202,-34.5 202,-34.5 202,-12.5 202,-12.5 202,-6.5 208,-0.5 214,-0.5"/>
            <text fill="white" text-anchor="middle" x="291.5" y="-31.3" font-family="Times,serif" font-size="14.00">ADJCALLSTACKDOWN</text>
            <polyline fill="none" stroke="black" points="202,-23.5 381,-23.5 "/>
            <text fill="white" text-anchor="middle" x="239" y="-8.3" font-family="Times,serif" font-size="14.00">1</text>
            <polyline fill="none" stroke="black" points="276,-0.5 276,-23.5 "/>
            <text fill="white" text-anchor="middle" x="328.5" y="-8.3" font-family="Times,serif" font-size="14.00">0.834</text>
        </g>
        <!-- &#45;5675867309129636454&#45;&gt;&#45;5943317212369862425 -->
        <g id="edge26" class="edge">
            <title>&#45;5675867309129636454&#45;&gt;&#45;5943317212369862425</title>
            <path fill="none" stroke="black" d="M183.21,-83.37C201.36,-73.5 222.91,-61.79 241.98,-51.42"/>
            <polygon fill="black" stroke="black" points="243.72,-54.46 250.83,-46.61 240.38,-48.31 243.72,-54.46"/>
        </g>
    </g>
</svg>
