<?xml version="1.0" encoding="UTF-8" standalone="no"?>
<!DOCTYPE svg PUBLIC "-//W3C//DTD SVG 1.1//EN"
 "http://www.w3.org/Graphics/SVG/1.1/DTD/svg11.dtd">
<!-- Generated by graphviz version 2.43.0 (0)
 -->
<!-- Title: MCTS Tree\nmcts/1.0/tree.svg Pages: 1 -->
<svg width="1592pt" height="396pt"
 viewBox="0.00 0.00 1592.00 396.00" xmlns="http://www.w3.org/2000/svg" xmlns:xlink="http://www.w3.org/1999/xlink">
<g id="graph0" class="graph" transform="scale(1 1) rotate(0) translate(4 392)">
<title>MCTS Tree\nmcts/1.0/tree.svg</title>
<polygon fill="white" stroke="transparent" points="-4,4 -4,-392 1588,-392 1588,4 -4,4"/>
<!-- 0 -->
<g id="node1" class="node">
<title>0</title>
<path fill="none" stroke="black" d="M719.5,-318.5C719.5,-318.5 864.5,-318.5 864.5,-318.5 870.5,-318.5 876.5,-324.5 876.5,-330.5 876.5,-330.5 876.5,-375.5 876.5,-375.5 876.5,-381.5 870.5,-387.5 864.5,-387.5 864.5,-387.5 719.5,-387.5 719.5,-387.5 713.5,-387.5 707.5,-381.5 707.5,-375.5 707.5,-375.5 707.5,-330.5 707.5,-330.5 707.5,-324.5 713.5,-318.5 719.5,-318.5"/>
<text text-anchor="middle" x="792" y="-372.3" font-family="Times,serif" font-size="14.00"> </text>
<polyline fill="none" stroke="black" points="707.5,-364.5 876.5,-364.5 "/>
<text text-anchor="middle" x="752" y="-349.3" font-family="Times,serif" font-size="14.00">&#45;1344.000</text>
<polyline fill="none" stroke="black" points="707.5,-341.5 796.5,-341.5 "/>
<text text-anchor="middle" x="752" y="-326.3" font-family="Times,serif" font-size="14.00">11</text>
<polyline fill="none" stroke="black" points="796.5,-318.5 796.5,-364.5 "/>
<text text-anchor="middle" x="836.5" y="-337.8" font-family="Times,serif" font-size="14.00">&#45;122.182</text>
</g>
<!-- 5903292439941823984 -->
<g id="node2" class="node">
<title>5903292439941823984</title>
<path fill="none" stroke="black" d="M190,-212.5C190,-212.5 326,-212.5 326,-212.5 332,-212.5 338,-218.5 338,-224.5 338,-224.5 338,-269.5 338,-269.5 338,-275.5 332,-281.5 326,-281.5 326,-281.5 190,-281.5 190,-281.5 184,-281.5 178,-275.5 178,-269.5 178,-269.5 178,-224.5 178,-224.5 178,-218.5 184,-212.5 190,-212.5"/>
<text text-anchor="middle" x="258" y="-266.3" font-family="Times,serif" font-size="14.00">MOVi32imm</text>
<polyline fill="none" stroke="black" points="178,-258.5 338,-258.5 "/>
<text text-anchor="middle" x="218" y="-243.3" font-family="Times,serif" font-size="14.00">&#45;131.000</text>
<polyline fill="none" stroke="black" points="178,-235.5 258,-235.5 "/>
<text text-anchor="middle" x="218" y="-220.3" font-family="Times,serif" font-size="14.00">1</text>
<polyline fill="none" stroke="black" points="258,-212.5 258,-258.5 "/>
<text text-anchor="middle" x="298" y="-231.8" font-family="Times,serif" font-size="14.00">&#45;131.000</text>
</g>
<!-- 0&#45;&gt;5903292439941823984 -->
<g id="edge1" class="edge">
<title>0&#45;&gt;5903292439941823984</title>
<path fill="none" stroke="black" d="M707.39,-335.52C609.34,-316.43 448.43,-285.09 348.11,-265.55"/>
<polygon fill="black" stroke="black" points="348.77,-262.11 338.29,-263.64 347.44,-268.98 348.77,-262.11"/>
</g>
<!-- 9170512030484694792 -->
<g id="node3" class="node">
<title>9170512030484694792</title>
<path fill="none" stroke="black" d="M546,-212.5C546,-212.5 682,-212.5 682,-212.5 688,-212.5 694,-218.5 694,-224.5 694,-224.5 694,-269.5 694,-269.5 694,-275.5 688,-281.5 682,-281.5 682,-281.5 546,-281.5 546,-281.5 540,-281.5 534,-275.5 534,-269.5 534,-269.5 534,-224.5 534,-224.5 534,-218.5 540,-212.5 546,-212.5"/>
<text text-anchor="middle" x="614" y="-266.3" font-family="Times,serif" font-size="14.00">ADDXri</text>
<polyline fill="none" stroke="black" points="534,-258.5 694,-258.5 "/>
<text text-anchor="middle" x="574" y="-243.3" font-family="Times,serif" font-size="14.00">&#45;727.000</text>
<polyline fill="none" stroke="black" points="534,-235.5 614,-235.5 "/>
<text text-anchor="middle" x="574" y="-220.3" font-family="Times,serif" font-size="14.00">6</text>
<polyline fill="none" stroke="black" points="614,-212.5 614,-258.5 "/>
<text text-anchor="middle" x="654" y="-231.8" font-family="Times,serif" font-size="14.00">&#45;121.167</text>
</g>
<!-- 0&#45;&gt;9170512030484694792 -->
<g id="edge2" class="edge">
<title>0&#45;&gt;9170512030484694792</title>
<path fill="none" stroke="black" d="M734.21,-318.23C717.09,-308.23 698.21,-297.2 680.59,-286.91"/>
<polygon fill="black" stroke="black" points="681.9,-283.62 671.5,-281.6 678.37,-289.66 681.9,-283.62"/>
</g>
<!-- 4866100236939789477 -->
<g id="node4" class="node">
<title>4866100236939789477</title>
<path fill="none" stroke="black" d="M813,-212.5C813,-212.5 949,-212.5 949,-212.5 955,-212.5 961,-218.5 961,-224.5 961,-224.5 961,-269.5 961,-269.5 961,-275.5 955,-281.5 949,-281.5 949,-281.5 813,-281.5 813,-281.5 807,-281.5 801,-275.5 801,-269.5 801,-269.5 801,-224.5 801,-224.5 801,-218.5 807,-212.5 813,-212.5"/>
<text text-anchor="middle" x="881" y="-266.3" font-family="Times,serif" font-size="14.00">UBFMXri</text>
<polyline fill="none" stroke="black" points="801,-258.5 961,-258.5 "/>
<text text-anchor="middle" x="841" y="-243.3" font-family="Times,serif" font-size="14.00">&#45;122.000</text>
<polyline fill="none" stroke="black" points="801,-235.5 881,-235.5 "/>
<text text-anchor="middle" x="841" y="-220.3" font-family="Times,serif" font-size="14.00">1</text>
<polyline fill="none" stroke="black" points="881,-212.5 881,-258.5 "/>
<text text-anchor="middle" x="921" y="-231.8" font-family="Times,serif" font-size="14.00">&#45;122.000</text>
</g>
<!-- 0&#45;&gt;4866100236939789477 -->
<g id="edge3" class="edge">
<title>0&#45;&gt;4866100236939789477</title>
<path fill="none" stroke="black" d="M820.9,-318.23C828.75,-309.06 837.34,-299.02 845.51,-289.47"/>
<polygon fill="black" stroke="black" points="848.41,-291.47 852.25,-281.6 843.09,-286.92 848.41,-291.47"/>
</g>
<!-- 9130727656612598127 -->
<g id="node5" class="node">
<title>9130727656612598127</title>
<path fill="none" stroke="red" d="M1080,-212.5C1080,-212.5 1216,-212.5 1216,-212.5 1222,-212.5 1228,-218.5 1228,-224.5 1228,-224.5 1228,-269.5 1228,-269.5 1228,-275.5 1222,-281.5 1216,-281.5 1216,-281.5 1080,-281.5 1080,-281.5 1074,-281.5 1068,-275.5 1068,-269.5 1068,-269.5 1068,-224.5 1068,-224.5 1068,-218.5 1074,-212.5 1080,-212.5"/>
<text text-anchor="middle" x="1148" y="-266.3" font-family="Times,serif" font-size="14.00">MOVaddr</text>
<polyline fill="none" stroke="black" points="1068,-258.5 1228,-258.5 "/>
<text text-anchor="middle" x="1108" y="-243.3" font-family="Times,serif" font-size="14.00">&#45;364.000</text>
<polyline fill="none" stroke="black" points="1068,-235.5 1148,-235.5 "/>
<text text-anchor="middle" x="1108" y="-220.3" font-family="Times,serif" font-size="14.00">3</text>
<polyline fill="none" stroke="black" points="1148,-212.5 1148,-258.5 "/>
<text text-anchor="middle" x="1188" y="-231.8" font-family="Times,serif" font-size="14.00">&#45;121.333</text>
</g>
<!-- 0&#45;&gt;9130727656612598127 -->
<g id="edge4" class="edge">
<title>0&#45;&gt;9130727656612598127</title>
<path fill="none" stroke="black" d="M876.82,-327.22C931.43,-311.27 1002.34,-290.55 1057.96,-274.3"/>
<polygon fill="black" stroke="black" points="1059.18,-277.59 1067.8,-271.43 1057.22,-270.87 1059.18,-277.59"/>
</g>
<!-- &#45;7235030405522161501 -->
<g id="node12" class="node">
<title>&#45;7235030405522161501</title>
<path fill="none" stroke="black" d="M12,-106.5C12,-106.5 148,-106.5 148,-106.5 154,-106.5 160,-112.5 160,-118.5 160,-118.5 160,-163.5 160,-163.5 160,-169.5 154,-175.5 148,-175.5 148,-175.5 12,-175.5 12,-175.5 6,-175.5 0,-169.5 0,-163.5 0,-163.5 0,-118.5 0,-118.5 0,-112.5 6,-106.5 12,-106.5"/>
<text text-anchor="middle" x="80" y="-160.3" font-family="Times,serif" font-size="14.00">ADDXri</text>
<polyline fill="none" stroke="black" points="0,-152.5 160,-152.5 "/>
<text text-anchor="middle" x="40" y="-137.3" font-family="Times,serif" font-size="14.00">&#45;131.000</text>
<polyline fill="none" stroke="black" points="0,-129.5 80,-129.5 "/>
<text text-anchor="middle" x="40" y="-114.3" font-family="Times,serif" font-size="14.00">1</text>
<polyline fill="none" stroke="black" points="80,-106.5 80,-152.5 "/>
<text text-anchor="middle" x="120" y="-125.8" font-family="Times,serif" font-size="14.00">&#45;131.000</text>
</g>
<!-- 5903292439941823984&#45;&gt;&#45;7235030405522161501 -->
<g id="edge11" class="edge">
<title>5903292439941823984&#45;&gt;&#45;7235030405522161501</title>
<path fill="none" stroke="black" d="M200.21,-212.23C183.09,-202.23 164.21,-191.2 146.59,-180.91"/>
<polygon fill="black" stroke="black" points="147.9,-177.62 137.5,-175.6 144.37,-183.66 147.9,-177.62"/>
</g>
<!-- 8010580911675844098 -->
<g id="node8" class="node">
<title>8010580911675844098</title>
<path fill="none" stroke="black" d="M190,-106.5C190,-106.5 326,-106.5 326,-106.5 332,-106.5 338,-112.5 338,-118.5 338,-118.5 338,-163.5 338,-163.5 338,-169.5 332,-175.5 326,-175.5 326,-175.5 190,-175.5 190,-175.5 184,-175.5 178,-169.5 178,-163.5 178,-163.5 178,-118.5 178,-118.5 178,-112.5 184,-106.5 190,-106.5"/>
<text text-anchor="middle" x="258" y="-160.3" font-family="Times,serif" font-size="14.00">SUBSXri</text>
<polyline fill="none" stroke="black" points="178,-152.5 338,-152.5 "/>
<text text-anchor="middle" x="218" y="-137.3" font-family="Times,serif" font-size="14.00">&#45;242.000</text>
<polyline fill="none" stroke="black" points="178,-129.5 258,-129.5 "/>
<text text-anchor="middle" x="218" y="-114.3" font-family="Times,serif" font-size="14.00">2</text>
<polyline fill="none" stroke="black" points="258,-106.5 258,-152.5 "/>
<text text-anchor="middle" x="298" y="-125.8" font-family="Times,serif" font-size="14.00">&#45;121.000</text>
</g>
<!-- 9170512030484694792&#45;&gt;8010580911675844098 -->
<g id="edge7" class="edge">
<title>9170512030484694792&#45;&gt;8010580911675844098</title>
<path fill="none" stroke="black" d="M533.9,-227.41C483.03,-215.04 415.71,-197.65 348.33,-176.33"/>
<polygon fill="black" stroke="black" points="348.98,-172.87 338.39,-173.16 346.85,-179.53 348.98,-172.87"/>
</g>
<!-- 6353920273094229316 -->
<g id="node9" class="node">
<title>6353920273094229316</title>
<path fill="none" stroke="black" d="M368,-106.5C368,-106.5 504,-106.5 504,-106.5 510,-106.5 516,-112.5 516,-118.5 516,-118.5 516,-163.5 516,-163.5 516,-169.5 510,-175.5 504,-175.5 504,-175.5 368,-175.5 368,-175.5 362,-175.5 356,-169.5 356,-163.5 356,-163.5 356,-118.5 356,-118.5 356,-112.5 362,-106.5 368,-106.5"/>
<text text-anchor="middle" x="436" y="-160.3" font-family="Times,serif" font-size="14.00">MOVaddr</text>
<polyline fill="none" stroke="black" points="356,-152.5 516,-152.5 "/>
<text text-anchor="middle" x="396" y="-137.3" font-family="Times,serif" font-size="14.00">&#45;131.000</text>
<polyline fill="none" stroke="black" points="356,-129.5 436,-129.5 "/>
<text text-anchor="middle" x="396" y="-114.3" font-family="Times,serif" font-size="14.00">1</text>
<polyline fill="none" stroke="black" points="436,-106.5 436,-152.5 "/>
<text text-anchor="middle" x="476" y="-125.8" font-family="Times,serif" font-size="14.00">&#45;131.000</text>
</g>
<!-- 9170512030484694792&#45;&gt;6353920273094229316 -->
<g id="edge8" class="edge">
<title>9170512030484694792&#45;&gt;6353920273094229316</title>
<path fill="none" stroke="black" d="M556.21,-212.23C539.09,-202.23 520.21,-191.2 502.59,-180.91"/>
<polygon fill="black" stroke="black" points="503.9,-177.62 493.5,-175.6 500.37,-183.66 503.9,-177.62"/>
</g>
<!-- &#45;4365863876455486669 -->
<g id="node10" class="node">
<title>&#45;4365863876455486669</title>
<path fill="none" stroke="black" d="M546,-106.5C546,-106.5 682,-106.5 682,-106.5 688,-106.5 694,-112.5 694,-118.5 694,-118.5 694,-163.5 694,-163.5 694,-169.5 688,-175.5 682,-175.5 682,-175.5 546,-175.5 546,-175.5 540,-175.5 534,-169.5 534,-163.5 534,-163.5 534,-118.5 534,-118.5 534,-112.5 540,-106.5 546,-106.5"/>
<text text-anchor="middle" x="614" y="-160.3" font-family="Times,serif" font-size="14.00">ADDXri</text>
<polyline fill="none" stroke="black" points="534,-152.5 694,-152.5 "/>
<text text-anchor="middle" x="574" y="-137.3" font-family="Times,serif" font-size="14.00">&#45;233.000</text>
<polyline fill="none" stroke="black" points="534,-129.5 614,-129.5 "/>
<text text-anchor="middle" x="574" y="-114.3" font-family="Times,serif" font-size="14.00">2</text>
<polyline fill="none" stroke="black" points="614,-106.5 614,-152.5 "/>
<text text-anchor="middle" x="654" y="-125.8" font-family="Times,serif" font-size="14.00">&#45;116.500</text>
</g>
<!-- 9170512030484694792&#45;&gt;&#45;4365863876455486669 -->
<g id="edge9" class="edge">
<title>9170512030484694792&#45;&gt;&#45;4365863876455486669</title>
<path fill="none" stroke="black" d="M614,-212.23C614,-203.79 614,-194.62 614,-185.77"/>
<polygon fill="black" stroke="black" points="617.5,-185.6 614,-175.6 610.5,-185.6 617.5,-185.6"/>
</g>
<!-- &#45;2831631805788518634 -->
<g id="node11" class="node">
<title>&#45;2831631805788518634</title>
<path fill="none" stroke="black" d="M724,-106.5C724,-106.5 860,-106.5 860,-106.5 866,-106.5 872,-112.5 872,-118.5 872,-118.5 872,-163.5 872,-163.5 872,-169.5 866,-175.5 860,-175.5 860,-175.5 724,-175.5 724,-175.5 718,-175.5 712,-169.5 712,-163.5 712,-163.5 712,-118.5 712,-118.5 712,-112.5 718,-106.5 724,-106.5"/>
<text text-anchor="middle" x="792" y="-160.3" font-family="Times,serif" font-size="14.00">UBFMXri</text>
<polyline fill="none" stroke="black" points="712,-152.5 872,-152.5 "/>
<text text-anchor="middle" x="752" y="-137.3" font-family="Times,serif" font-size="14.00">&#45;121.000</text>
<polyline fill="none" stroke="black" points="712,-129.5 792,-129.5 "/>
<text text-anchor="middle" x="752" y="-114.3" font-family="Times,serif" font-size="14.00">1</text>
<polyline fill="none" stroke="black" points="792,-106.5 792,-152.5 "/>
<text text-anchor="middle" x="832" y="-125.8" font-family="Times,serif" font-size="14.00">&#45;121.000</text>
</g>
<!-- 9170512030484694792&#45;&gt;&#45;2831631805788518634 -->
<g id="edge10" class="edge">
<title>9170512030484694792&#45;&gt;&#45;2831631805788518634</title>
<path fill="none" stroke="black" d="M671.79,-212.23C688.91,-202.23 707.79,-191.2 725.41,-180.91"/>
<polygon fill="black" stroke="black" points="727.63,-183.66 734.5,-175.6 724.1,-177.62 727.63,-183.66"/>
</g>
<!-- &#45;3172429255525161742 -->
<g id="node13" class="node">
<title>&#45;3172429255525161742</title>
<path fill="none" stroke="black" d="M902,-106.5C902,-106.5 1038,-106.5 1038,-106.5 1044,-106.5 1050,-112.5 1050,-118.5 1050,-118.5 1050,-163.5 1050,-163.5 1050,-169.5 1044,-175.5 1038,-175.5 1038,-175.5 902,-175.5 902,-175.5 896,-175.5 890,-169.5 890,-163.5 890,-163.5 890,-118.5 890,-118.5 890,-112.5 896,-106.5 902,-106.5"/>
<text text-anchor="middle" x="970" y="-160.3" font-family="Times,serif" font-size="14.00">ADDXri</text>
<polyline fill="none" stroke="black" points="890,-152.5 1050,-152.5 "/>
<text text-anchor="middle" x="930" y="-137.3" font-family="Times,serif" font-size="14.00">&#45;122.000</text>
<polyline fill="none" stroke="black" points="890,-129.5 970,-129.5 "/>
<text text-anchor="middle" x="930" y="-114.3" font-family="Times,serif" font-size="14.00">1</text>
<polyline fill="none" stroke="black" points="970,-106.5 970,-152.5 "/>
<text text-anchor="middle" x="1010" y="-125.8" font-family="Times,serif" font-size="14.00">&#45;122.000</text>
</g>
<!-- 4866100236939789477&#45;&gt;&#45;3172429255525161742 -->
<g id="edge12" class="edge">
<title>4866100236939789477&#45;&gt;&#45;3172429255525161742</title>
<path fill="none" stroke="black" d="M909.9,-212.23C917.75,-203.06 926.34,-193.02 934.51,-183.47"/>
<polygon fill="black" stroke="black" points="937.41,-185.47 941.25,-175.6 932.09,-180.92 937.41,-185.47"/>
</g>
<!-- &#45;5948395930370907936 -->
<g id="node6" class="node">
<title>&#45;5948395930370907936</title>
<path fill="none" stroke="black" d="M1080,-106.5C1080,-106.5 1216,-106.5 1216,-106.5 1222,-106.5 1228,-112.5 1228,-118.5 1228,-118.5 1228,-163.5 1228,-163.5 1228,-169.5 1222,-175.5 1216,-175.5 1216,-175.5 1080,-175.5 1080,-175.5 1074,-175.5 1068,-169.5 1068,-163.5 1068,-163.5 1068,-118.5 1068,-118.5 1068,-112.5 1074,-106.5 1080,-106.5"/>
<text text-anchor="middle" x="1148" y="-160.3" font-family="Times,serif" font-size="14.00">MOVi32imm</text>
<polyline fill="none" stroke="black" points="1068,-152.5 1228,-152.5 "/>
<text text-anchor="middle" x="1108" y="-137.3" font-family="Times,serif" font-size="14.00">&#45;121.000</text>
<polyline fill="none" stroke="black" points="1068,-129.5 1148,-129.5 "/>
<text text-anchor="middle" x="1108" y="-114.3" font-family="Times,serif" font-size="14.00">1</text>
<polyline fill="none" stroke="black" points="1148,-106.5 1148,-152.5 "/>
<text text-anchor="middle" x="1188" y="-125.8" font-family="Times,serif" font-size="14.00">&#45;121.000</text>
</g>
<!-- 9130727656612598127&#45;&gt;&#45;5948395930370907936 -->
<g id="edge5" class="edge">
<title>9130727656612598127&#45;&gt;&#45;5948395930370907936</title>
<path fill="none" stroke="black" d="M1148,-212.23C1148,-203.79 1148,-194.62 1148,-185.77"/>
<polygon fill="black" stroke="black" points="1151.5,-185.6 1148,-175.6 1144.5,-185.6 1151.5,-185.6"/>
</g>
<!-- &#45;751916645828190852 -->
<g id="node7" class="node">
<title>&#45;751916645828190852</title>
<path fill="none" stroke="black" d="M1258,-106.5C1258,-106.5 1394,-106.5 1394,-106.5 1400,-106.5 1406,-112.5 1406,-118.5 1406,-118.5 1406,-163.5 1406,-163.5 1406,-169.5 1400,-175.5 1394,-175.5 1394,-175.5 1258,-175.5 1258,-175.5 1252,-175.5 1246,-169.5 1246,-163.5 1246,-163.5 1246,-118.5 1246,-118.5 1246,-112.5 1252,-106.5 1258,-106.5"/>
<text text-anchor="middle" x="1326" y="-160.3" font-family="Times,serif" font-size="14.00">UBFMXri</text>
<polyline fill="none" stroke="black" points="1246,-152.5 1406,-152.5 "/>
<text text-anchor="middle" x="1286" y="-137.3" font-family="Times,serif" font-size="14.00">&#45;243.000</text>
<polyline fill="none" stroke="black" points="1246,-129.5 1326,-129.5 "/>
<text text-anchor="middle" x="1286" y="-114.3" font-family="Times,serif" font-size="14.00">2</text>
<polyline fill="none" stroke="black" points="1326,-106.5 1326,-152.5 "/>
<text text-anchor="middle" x="1366" y="-125.8" font-family="Times,serif" font-size="14.00">&#45;121.500</text>
</g>
<!-- 9130727656612598127&#45;&gt;&#45;751916645828190852 -->
<g id="edge6" class="edge">
<title>9130727656612598127&#45;&gt;&#45;751916645828190852</title>
<path fill="none" stroke="black" d="M1205.79,-212.23C1222.91,-202.23 1241.79,-191.2 1259.41,-180.91"/>
<polygon fill="black" stroke="black" points="1261.63,-183.66 1268.5,-175.6 1258.1,-177.62 1261.63,-183.66"/>
</g>
<!-- &#45;2725374979694505164 -->
<g id="node20" class="node">
<title>&#45;2725374979694505164</title>
<path fill="none" stroke="black" d="M1080,-0.5C1080,-0.5 1216,-0.5 1216,-0.5 1222,-0.5 1228,-6.5 1228,-12.5 1228,-12.5 1228,-57.5 1228,-57.5 1228,-63.5 1222,-69.5 1216,-69.5 1216,-69.5 1080,-69.5 1080,-69.5 1074,-69.5 1068,-63.5 1068,-57.5 1068,-57.5 1068,-12.5 1068,-12.5 1068,-6.5 1074,-0.5 1080,-0.5"/>
<text text-anchor="middle" x="1148" y="-54.3" font-family="Times,serif" font-size="14.00">ADDXri</text>
<polyline fill="none" stroke="black" points="1068,-46.5 1228,-46.5 "/>
<text text-anchor="middle" x="1108" y="-31.3" font-family="Times,serif" font-size="14.00">&#45;121.000</text>
<polyline fill="none" stroke="black" points="1068,-23.5 1148,-23.5 "/>
<text text-anchor="middle" x="1108" y="-8.3" font-family="Times,serif" font-size="14.00">1</text>
<polyline fill="none" stroke="black" points="1148,-0.5 1148,-46.5 "/>
<text text-anchor="middle" x="1188" y="-19.8" font-family="Times,serif" font-size="14.00">&#45;121.000</text>
</g>
<!-- &#45;5948395930370907936&#45;&gt;&#45;2725374979694505164 -->
<g id="edge19" class="edge">
<title>&#45;5948395930370907936&#45;&gt;&#45;2725374979694505164</title>
<path fill="none" stroke="black" d="M1148,-106.23C1148,-97.79 1148,-88.62 1148,-79.77"/>
<polygon fill="black" stroke="black" points="1151.5,-79.6 1148,-69.6 1144.5,-79.6 1151.5,-79.6"/>
</g>
<!-- 1273442511580213988 -->
<g id="node21" class="node">
<title>1273442511580213988</title>
<path fill="none" stroke="black" d="M1258,-0.5C1258,-0.5 1394,-0.5 1394,-0.5 1400,-0.5 1406,-6.5 1406,-12.5 1406,-12.5 1406,-57.5 1406,-57.5 1406,-63.5 1400,-69.5 1394,-69.5 1394,-69.5 1258,-69.5 1258,-69.5 1252,-69.5 1246,-63.5 1246,-57.5 1246,-57.5 1246,-12.5 1246,-12.5 1246,-6.5 1252,-0.5 1258,-0.5"/>
<text text-anchor="middle" x="1326" y="-54.3" font-family="Times,serif" font-size="14.00">ADDXri</text>
<polyline fill="none" stroke="black" points="1246,-46.5 1406,-46.5 "/>
<text text-anchor="middle" x="1286" y="-31.3" font-family="Times,serif" font-size="14.00">&#45;122.000</text>
<polyline fill="none" stroke="black" points="1246,-23.5 1326,-23.5 "/>
<text text-anchor="middle" x="1286" y="-8.3" font-family="Times,serif" font-size="14.00">1</text>
<polyline fill="none" stroke="black" points="1326,-0.5 1326,-46.5 "/>
<text text-anchor="middle" x="1366" y="-19.8" font-family="Times,serif" font-size="14.00">&#45;122.000</text>
</g>
<!-- &#45;751916645828190852&#45;&gt;1273442511580213988 -->
<g id="edge20" class="edge">
<title>&#45;751916645828190852&#45;&gt;1273442511580213988</title>
<path fill="none" stroke="black" d="M1326,-106.23C1326,-97.79 1326,-88.62 1326,-79.77"/>
<polygon fill="black" stroke="black" points="1329.5,-79.6 1326,-69.6 1322.5,-79.6 1329.5,-79.6"/>
</g>
<!-- 1884742612480843548 -->
<g id="node22" class="node">
<title>1884742612480843548</title>
<path fill="none" stroke="black" d="M1436,-0.5C1436,-0.5 1572,-0.5 1572,-0.5 1578,-0.5 1584,-6.5 1584,-12.5 1584,-12.5 1584,-57.5 1584,-57.5 1584,-63.5 1578,-69.5 1572,-69.5 1572,-69.5 1436,-69.5 1436,-69.5 1430,-69.5 1424,-63.5 1424,-57.5 1424,-57.5 1424,-12.5 1424,-12.5 1424,-6.5 1430,-0.5 1436,-0.5"/>
<text text-anchor="middle" x="1504" y="-54.3" font-family="Times,serif" font-size="14.00">MOVi32imm</text>
<polyline fill="none" stroke="black" points="1424,-46.5 1584,-46.5 "/>
<text text-anchor="middle" x="1464" y="-31.3" font-family="Times,serif" font-size="14.00">&#45;121.000</text>
<polyline fill="none" stroke="black" points="1424,-23.5 1504,-23.5 "/>
<text text-anchor="middle" x="1464" y="-8.3" font-family="Times,serif" font-size="14.00">1</text>
<polyline fill="none" stroke="black" points="1504,-0.5 1504,-46.5 "/>
<text text-anchor="middle" x="1544" y="-19.8" font-family="Times,serif" font-size="14.00">&#45;121.000</text>
</g>
<!-- &#45;751916645828190852&#45;&gt;1884742612480843548 -->
<g id="edge21" class="edge">
<title>&#45;751916645828190852&#45;&gt;1884742612480843548</title>
<path fill="none" stroke="black" d="M1383.79,-106.23C1400.91,-96.23 1419.79,-85.2 1437.41,-74.91"/>
<polygon fill="black" stroke="black" points="1439.63,-77.66 1446.5,-69.6 1436.1,-71.62 1439.63,-77.66"/>
</g>
<!-- &#45;2216222501504396741 -->
<g id="node14" class="node">
<title>&#45;2216222501504396741</title>
<path fill="none" stroke="black" d="M12,-0.5C12,-0.5 148,-0.5 148,-0.5 154,-0.5 160,-6.5 160,-12.5 160,-12.5 160,-57.5 160,-57.5 160,-63.5 154,-69.5 148,-69.5 148,-69.5 12,-69.5 12,-69.5 6,-69.5 0,-63.5 0,-57.5 0,-57.5 0,-12.5 0,-12.5 0,-6.5 6,-0.5 12,-0.5"/>
<text text-anchor="middle" x="80" y="-54.3" font-family="Times,serif" font-size="14.00">MOVaddr</text>
<polyline fill="none" stroke="black" points="0,-46.5 160,-46.5 "/>
<text text-anchor="middle" x="40" y="-31.3" font-family="Times,serif" font-size="14.00">&#45;121.000</text>
<polyline fill="none" stroke="black" points="0,-23.5 80,-23.5 "/>
<text text-anchor="middle" x="40" y="-8.3" font-family="Times,serif" font-size="14.00">1</text>
<polyline fill="none" stroke="black" points="80,-0.5 80,-46.5 "/>
<text text-anchor="middle" x="120" y="-19.8" font-family="Times,serif" font-size="14.00">&#45;121.000</text>
</g>
<!-- 8010580911675844098&#45;&gt;&#45;2216222501504396741 -->
<g id="edge13" class="edge">
<title>8010580911675844098&#45;&gt;&#45;2216222501504396741</title>
<path fill="none" stroke="black" d="M200.21,-106.23C183.09,-96.23 164.21,-85.2 146.59,-74.91"/>
<polygon fill="black" stroke="black" points="147.9,-71.62 137.5,-69.6 144.37,-77.66 147.9,-71.62"/>
</g>
<!-- &#45;8573508519338179273 -->
<g id="node15" class="node">
<title>&#45;8573508519338179273</title>
<path fill="none" stroke="black" d="M190,-0.5C190,-0.5 326,-0.5 326,-0.5 332,-0.5 338,-6.5 338,-12.5 338,-12.5 338,-57.5 338,-57.5 338,-63.5 332,-69.5 326,-69.5 326,-69.5 190,-69.5 190,-69.5 184,-69.5 178,-63.5 178,-57.5 178,-57.5 178,-12.5 178,-12.5 178,-6.5 184,-0.5 190,-0.5"/>
<text text-anchor="middle" x="258" y="-54.3" font-family="Times,serif" font-size="14.00">MOVi32imm</text>
<polyline fill="none" stroke="black" points="178,-46.5 338,-46.5 "/>
<text text-anchor="middle" x="218" y="-31.3" font-family="Times,serif" font-size="14.00">&#45;121.000</text>
<polyline fill="none" stroke="black" points="178,-23.5 258,-23.5 "/>
<text text-anchor="middle" x="218" y="-8.3" font-family="Times,serif" font-size="14.00">1</text>
<polyline fill="none" stroke="black" points="258,-0.5 258,-46.5 "/>
<text text-anchor="middle" x="298" y="-19.8" font-family="Times,serif" font-size="14.00">&#45;121.000</text>
</g>
<!-- 8010580911675844098&#45;&gt;&#45;8573508519338179273 -->
<g id="edge14" class="edge">
<title>8010580911675844098&#45;&gt;&#45;8573508519338179273</title>
<path fill="none" stroke="black" d="M258,-106.23C258,-97.79 258,-88.62 258,-79.77"/>
<polygon fill="black" stroke="black" points="261.5,-79.6 258,-69.6 254.5,-79.6 261.5,-79.6"/>
</g>
<!-- 3323053564961128024 -->
<g id="node16" class="node">
<title>3323053564961128024</title>
<path fill="none" stroke="black" d="M368,-0.5C368,-0.5 504,-0.5 504,-0.5 510,-0.5 516,-6.5 516,-12.5 516,-12.5 516,-57.5 516,-57.5 516,-63.5 510,-69.5 504,-69.5 504,-69.5 368,-69.5 368,-69.5 362,-69.5 356,-63.5 356,-57.5 356,-57.5 356,-12.5 356,-12.5 356,-6.5 362,-0.5 368,-0.5"/>
<text text-anchor="middle" x="436" y="-54.3" font-family="Times,serif" font-size="14.00">ADDXri</text>
<polyline fill="none" stroke="black" points="356,-46.5 516,-46.5 "/>
<text text-anchor="middle" x="396" y="-31.3" font-family="Times,serif" font-size="14.00">&#45;131.000</text>
<polyline fill="none" stroke="black" points="356,-23.5 436,-23.5 "/>
<text text-anchor="middle" x="396" y="-8.3" font-family="Times,serif" font-size="14.00">1</text>
<polyline fill="none" stroke="black" points="436,-0.5 436,-46.5 "/>
<text text-anchor="middle" x="476" y="-19.8" font-family="Times,serif" font-size="14.00">&#45;131.000</text>
</g>
<!-- 6353920273094229316&#45;&gt;3323053564961128024 -->
<g id="edge15" class="edge">
<title>6353920273094229316&#45;&gt;3323053564961128024</title>
<path fill="none" stroke="black" d="M436,-106.23C436,-97.79 436,-88.62 436,-79.77"/>
<polygon fill="black" stroke="black" points="439.5,-79.6 436,-69.6 432.5,-79.6 439.5,-79.6"/>
</g>
<!-- &#45;8294605257062063166 -->
<g id="node18" class="node">
<title>&#45;8294605257062063166</title>
<path fill="none" stroke="black" d="M546,-0.5C546,-0.5 682,-0.5 682,-0.5 688,-0.5 694,-6.5 694,-12.5 694,-12.5 694,-57.5 694,-57.5 694,-63.5 688,-69.5 682,-69.5 682,-69.5 546,-69.5 546,-69.5 540,-69.5 534,-63.5 534,-57.5 534,-57.5 534,-12.5 534,-12.5 534,-6.5 540,-0.5 546,-0.5"/>
<text text-anchor="middle" x="614" y="-54.3" font-family="Times,serif" font-size="14.00">MOVi32imm</text>
<polyline fill="none" stroke="black" points="534,-46.5 694,-46.5 "/>
<text text-anchor="middle" x="574" y="-31.3" font-family="Times,serif" font-size="14.00">&#45;131.000</text>
<polyline fill="none" stroke="black" points="534,-23.5 614,-23.5 "/>
<text text-anchor="middle" x="574" y="-8.3" font-family="Times,serif" font-size="14.00">1</text>
<polyline fill="none" stroke="black" points="614,-0.5 614,-46.5 "/>
<text text-anchor="middle" x="654" y="-19.8" font-family="Times,serif" font-size="14.00">&#45;131.000</text>
</g>
<!-- &#45;4365863876455486669&#45;&gt;&#45;8294605257062063166 -->
<g id="edge17" class="edge">
<title>&#45;4365863876455486669&#45;&gt;&#45;8294605257062063166</title>
<path fill="none" stroke="black" d="M614,-106.23C614,-97.79 614,-88.62 614,-79.77"/>
<polygon fill="black" stroke="black" points="617.5,-79.6 614,-69.6 610.5,-79.6 617.5,-79.6"/>
</g>
<!-- 1929016725532085749 -->
<g id="node19" class="node">
<title>1929016725532085749</title>
<path fill="none" stroke="black" d="M724,-0.5C724,-0.5 860,-0.5 860,-0.5 866,-0.5 872,-6.5 872,-12.5 872,-12.5 872,-57.5 872,-57.5 872,-63.5 866,-69.5 860,-69.5 860,-69.5 724,-69.5 724,-69.5 718,-69.5 712,-63.5 712,-57.5 712,-57.5 712,-12.5 712,-12.5 712,-6.5 718,-0.5 724,-0.5"/>
<text text-anchor="middle" x="792" y="-54.3" font-family="Times,serif" font-size="14.00">MOVaddr</text>
<polyline fill="none" stroke="black" points="712,-46.5 872,-46.5 "/>
<text text-anchor="middle" x="752" y="-31.3" font-family="Times,serif" font-size="14.00">&#45;102.000</text>
<polyline fill="none" stroke="black" points="712,-23.5 792,-23.5 "/>
<text text-anchor="middle" x="752" y="-8.3" font-family="Times,serif" font-size="14.00">1</text>
<polyline fill="none" stroke="black" points="792,-0.5 792,-46.5 "/>
<text text-anchor="middle" x="832" y="-19.8" font-family="Times,serif" font-size="14.00">&#45;102.000</text>
</g>
<!-- &#45;4365863876455486669&#45;&gt;1929016725532085749 -->
<g id="edge18" class="edge">
<title>&#45;4365863876455486669&#45;&gt;1929016725532085749</title>
<path fill="none" stroke="black" d="M671.79,-106.23C688.91,-96.23 707.79,-85.2 725.41,-74.91"/>
<polygon fill="black" stroke="black" points="727.63,-77.66 734.5,-69.6 724.1,-71.62 727.63,-77.66"/>
</g>
<!-- 2549523457377168177 -->
<g id="node17" class="node">
<title>2549523457377168177</title>
<path fill="none" stroke="black" d="M902,-0.5C902,-0.5 1038,-0.5 1038,-0.5 1044,-0.5 1050,-6.5 1050,-12.5 1050,-12.5 1050,-57.5 1050,-57.5 1050,-63.5 1044,-69.5 1038,-69.5 1038,-69.5 902,-69.5 902,-69.5 896,-69.5 890,-63.5 890,-57.5 890,-57.5 890,-12.5 890,-12.5 890,-6.5 896,-0.5 902,-0.5"/>
<text text-anchor="middle" x="970" y="-54.3" font-family="Times,serif" font-size="14.00">ADDXri</text>
<polyline fill="none" stroke="black" points="890,-46.5 1050,-46.5 "/>
<text text-anchor="middle" x="930" y="-31.3" font-family="Times,serif" font-size="14.00">&#45;121.000</text>
<polyline fill="none" stroke="black" points="890,-23.5 970,-23.5 "/>
<text text-anchor="middle" x="930" y="-8.3" font-family="Times,serif" font-size="14.00">1</text>
<polyline fill="none" stroke="black" points="970,-0.5 970,-46.5 "/>
<text text-anchor="middle" x="1010" y="-19.8" font-family="Times,serif" font-size="14.00">&#45;121.000</text>
</g>
<!-- &#45;2831631805788518634&#45;&gt;2549523457377168177 -->
<g id="edge16" class="edge">
<title>&#45;2831631805788518634&#45;&gt;2549523457377168177</title>
<path fill="none" stroke="black" d="M849.79,-106.23C866.91,-96.23 885.79,-85.2 903.41,-74.91"/>
<polygon fill="black" stroke="black" points="905.63,-77.66 912.5,-69.6 902.1,-71.62 905.63,-77.66"/>
</g>
</g>
</svg>
