<?xml version="1.0" encoding="UTF-8" standalone="no"?>
<!-- Generated by graphviz version 2.43.0 (0)
 -->

<!-- Title: MCTS Tree\nmcts/1.0/tree.svg Pages: 1 -->

<svg
   xmlns:dc="http://purl.org/dc/elements/1.1/"
   xmlns:cc="http://creativecommons.org/ns#"
   xmlns:rdf="http://www.w3.org/1999/02/22-rdf-syntax-ns#"
   xmlns:svg="http://www.w3.org/2000/svg"
   xmlns="http://www.w3.org/2000/svg"
   xmlns:sodipodi="http://sodipodi.sourceforge.net/DTD/sodipodi-0.dtd"
   xmlns:inkscape="http://www.inkscape.org/namespaces/inkscape"
   width="1281pt"
   height="391pt"
   viewBox="0 0 1281 391"
   version="1.1"
   id="svg520"
   sodipodi:docname="8752639012199-next.svg"
   inkscape:version="0.92.5 (2060ec1f9f, 2020-04-08)">
  <metadata
     id="metadata526">
    <rdf:RDF>
      <cc:Work
         rdf:about="">
        <dc:format>image/svg+xml</dc:format>
        <dc:type
           rdf:resource="http://purl.org/dc/dcmitype/StillImage" />
        <dc:title></dc:title>
      </cc:Work>
    </rdf:RDF>
  </metadata>
  <defs
     id="defs524" />
  <sodipodi:namedview
     pagecolor="#ffffff"
     bordercolor="#666666"
     borderopacity="1"
     objecttolerance="10"
     gridtolerance="10"
     guidetolerance="10"
     inkscape:pageopacity="0"
     inkscape:pageshadow="2"
     inkscape:window-width="2506"
     inkscape:window-height="1376"
     id="namedview522"
     showgrid="false"
     inkscape:zoom="0.94752309"
     inkscape:cx="778.0654"
     inkscape:cy="308.4314"
     inkscape:window-x="54"
     inkscape:window-y="27"
     inkscape:window-maximized="1"
     inkscape:current-layer="node2"
     fit-margin-left="1"
     fit-margin-top="1"
     fit-margin-right="1"
     fit-margin-bottom="1" />
  <g
     id="graph0"
     class="graph"
     transform="translate(-259.8283,389.30112)">
    <title
       id="title2">MCTS Tree\nmcts/1.0/tree.svg</title>
    <!-- 0 -->
    <g
       id="node1"
       class="node"
       transform="translate(124.5)">
      <title
         id="title6">0</title>
      <path
         d="m 963.5,-318.5 c 0,0 145,0 145,0 6,0 12,-6 12,-12 0,0 0,-45 0,-45 0,-6 -6,-12 -12,-12 0,0 -145,0 -145,0 -6,0 -12,6 -12,12 0,0 0,45 0,45 0,6 6,12 12,12"
         id="path8"
         inkscape:connector-curvature="0"
         style="fill:none;stroke:#000000" />
      <text
         x="1036"
         y="-372.29999"
         font-size="14.00"
         id="text10"
         style="font-size:14px;font-family:Times, serif;text-anchor:middle" />
      <polyline
         points="951.5,-364.5 1120.5,-364.5 "
         id="polyline12"
         style="fill:none;stroke:#000000" />
      <text
         x="996"
         y="-349.29999"
         font-size="14.00"
         id="text14"
         style="font-size:14px;font-family:Times, serif;text-anchor:middle">-1344.000</text>
      <polyline
         points="951.5,-341.5 1040.5,-341.5 "
         id="polyline16"
         style="fill:none;stroke:#000000" />
      <text
         x="996"
         y="-326.29999"
         font-size="14.00"
         id="text18"
         style="font-size:14px;font-family:Times, serif;text-anchor:middle">11</text>
      <polyline
         points="1040.5,-318.5 1040.5,-364.5 "
         id="polyline20"
         style="fill:none;stroke:#000000" />
      <text
         x="1080.5"
         y="-337.79999"
         font-size="14.00"
         id="text22"
         style="font-size:14px;font-family:Times, serif;text-anchor:middle">-122.182</text>
    </g>
    <!-- &#45;6431769390230409528 -->
    <g
       id="node2"
       class="node"
       transform="translate(266.14237)">
      <title
         id="title25">-6431769390230409528</title>
      <path
         d="m 190,-212.5 c 0,0 136,0 136,0 6,0 12,-6 12,-12 0,0 0,-45 0,-45 0,-6 -6,-12 -12,-12 0,0 -136,0 -136,0 -6,0 -12,6 -12,12 0,0 0,45 0,45 0,6 6,12 12,12"
         id="path27"
         inkscape:connector-curvature="0"
         style="fill:none;stroke:#b90f22;stroke-width:1.875;stroke-miterlimit:4;stroke-dasharray:none;stroke-opacity:1" />
      <text
         x="258"
         y="-266.29999"
         font-size="14.00"
         id="text29"
         style="font-size:14px;font-family:Times, serif;text-anchor:middle">MOVaddr</text>
      <polyline
         points="178,-258.5 338,-258.5 "
         id="polyline31"
         style="fill:none;stroke:#000000" />
      <text
         x="218"
         y="-243.3"
         font-size="14.00"
         id="text33"
         style="font-size:14px;font-family:Times, serif;text-anchor:middle">-364.000</text>
      <polyline
         points="178,-235.5 258,-235.5 "
         id="polyline35"
         style="fill:none;stroke:#000000" />
      <text
         x="218"
         y="-220.3"
         font-size="14.00"
         id="text37"
         style="font-size:14px;font-family:Times, serif;text-anchor:middle">3</text>
      <polyline
         points="258,-212.5 258,-258.5 "
         id="polyline39"
         style="fill:none;stroke:#000000" />
      <text
         x="298"
         y="-231.8"
         font-size="14.00"
         id="text41"
         style="font-size:14px;font-family:Times, serif;text-anchor:middle">-121.333</text>
      <flowRoot
         xml:space="preserve"
         id="flowRoot2670"
         style="font-style:normal;font-variant:normal;font-weight:normal;font-stretch:normal;font-size:14.66666698px;line-height:1.25;font-family:sans-serif;-inkscape-font-specification:'sans-serif, Normal';font-variant-ligatures:normal;font-variant-caps:normal;font-variant-numeric:normal;font-feature-settings:normal;text-align:start;letter-spacing:0px;word-spacing:0px;writing-mode:lr-tb;text-anchor:start;fill:#000000;fill-opacity:1;stroke:none"
         transform="matrix(0.75000001,0,0,0.75000001,-5.6717,-389.30112)"><flowRegion
           id="flowRegion2672"><rect
             id="rect2674"
             width="1.119403"
             height="15.298508"
             x="404.85074"
             y="209.76614" /></flowRegion><flowPara
           id="flowPara2676"></flowPara></flowRoot>      <text
         x="298"
         y="-218.84062"
         font-size="14.00"
         id="text41-7"
         style="font-size:14px;font-family:Times, serif;text-anchor:middle;fill:#00715e;fill-opacity:1;stroke:none;stroke-width:0.99999994;stroke-opacity:1">-121.000</text>
      <text
         x="119.68597"
         y="-113.01786"
         font-size="14.00"
         id="text41-7-6"
         style="font-size:14px;font-family:Times, serif;text-anchor:middle;fill:#00715e;fill-opacity:1;stroke:none;stroke-width:0.99999994;stroke-opacity:1">-121.000</text>
      <text
         x="120.12195"
         y="-6.3499541"
         font-size="14.00"
         id="text41-7-5"
         style="font-size:14px;font-family:Times, serif;text-anchor:middle;fill:#00715e;fill-opacity:1;stroke:none;stroke-width:0.99999994;stroke-opacity:1">-122.000</text>
    </g>
    <!-- 0&#45;&gt;&#45;6431769390230409528 -->
    <g
       id="edge1"
       class="edge"
       transform="matrix(0.77038306,0,0,0.88291293,342.90442,-39.994403)"
       style="stroke-width:2.2734687;stroke-miterlimit:4;stroke-dasharray:none;stroke:#b90f22;stroke-opacity:1;fill:#b90f22;fill-opacity:1">
      <title
         id="title44">0-&gt;-6431769390230409528</title>
      <path
         d="m 951.26,-340.67 c -147.74,19.75 -451.14,60.3 -602.8,80.58"
         id="path46"
         inkscape:connector-curvature="0"
         style="fill:#b90f22;stroke:#b90f22;stroke-width:2.2734687;stroke-miterlimit:4;stroke-dasharray:none;stroke-opacity:1;fill-opacity:1" />
      <polygon
         points="348.63,-256.58 338.25,-258.73 347.7,-263.52 "
         id="polygon48"
         style="fill:#b90f22;stroke:#b90f22;stroke-width:2.2734687;stroke-miterlimit:4;stroke-dasharray:none;stroke-opacity:1;fill-opacity:1" />
    </g>
    <!-- 8968172367938046771 -->
    <g
       id="node3"
       class="node"
       transform="translate(124.5)">
      <title
         id="title51">8968172367938046771</title>
      <path
         d="m 857,-212.5 c 0,0 136,0 136,0 6,0 12,-6 12,-12 0,0 0,-45 0,-45 0,-6 -6,-12 -12,-12 0,0 -136,0 -136,0 -6,0 -12,6 -12,12 0,0 0,45 0,45 0,6 6,12 12,12"
         id="path53"
         inkscape:connector-curvature="0"
         style="fill:none;stroke:#00715e;stroke-opacity:1;stroke-width:1.87500004;stroke-miterlimit:4;stroke-dasharray:none" />
      <text
         x="925"
         y="-266.29999"
         font-size="14.00"
         id="text55"
         style="font-size:14px;font-family:Times, serif;text-anchor:middle">ADDXri</text>
      <polyline
         points="845,-258.5 1005,-258.5 "
         id="polyline57"
         style="fill:none;stroke:#000000" />
      <text
         x="885"
         y="-243.3"
         font-size="14.00"
         id="text59"
         style="font-size:14px;font-family:Times, serif;text-anchor:middle">-727.000</text>
      <polyline
         points="845,-235.5 925,-235.5 "
         id="polyline61"
         style="fill:none;stroke:#000000" />
      <text
         x="885"
         y="-220.3"
         font-size="14.00"
         id="text63"
         style="font-size:14px;font-family:Times, serif;text-anchor:middle">6</text>
      <polyline
         points="925,-212.5 925,-258.5 "
         id="polyline65"
         style="fill:none;stroke:#000000" />
      <text
         x="965"
         y="-231.8"
         font-size="14.00"
         id="text67"
         style="font-size:14px;font-family:Times, serif;text-anchor:middle">-121.167</text>
    </g>
    <!-- 0&#45;&gt;8968172367938046771 -->
    <g
       id="edge2"
       class="edge"
       transform="translate(124.5)"
       style="stroke:#00715e;stroke-opacity:1;fill:#00715e;fill-opacity:1;stroke-width:1.87500004;stroke-miterlimit:4;stroke-dasharray:none">
      <title
         id="title70">0-&gt;8968172367938046771</title>
      <path
         d="m 999.96,-318.23 c -10.08,9.45 -21.15,19.82 -31.61,29.62"
         id="path72"
         inkscape:connector-curvature="0"
         style="fill:#00715e;stroke:#00715e;stroke-width:1.87500004;stroke-miterlimit:4;stroke-dasharray:none;stroke-opacity:1;fill-opacity:1" />
      <polygon
         points="970.55,-285.88 960.86,-281.6 965.76,-290.99 "
         id="polygon74"
         style="fill:#00715e;stroke:#00715e;stroke-opacity:1;fill-opacity:1;stroke-width:1.87500004;stroke-miterlimit:4;stroke-dasharray:none" />
    </g>
    <!-- &#45;8696514429205789444 -->
    <g
       id="node4"
       class="node"
       transform="translate(124.5)">
      <title
         id="title77">-8696514429205789444</title>
      <path
         d="m 1079,-212.5 c 0,0 136,0 136,0 6,0 12,-6 12,-12 0,0 0,-45 0,-45 0,-6 -6,-12 -12,-12 0,0 -136,0 -136,0 -6,0 -12,6 -12,12 0,0 0,45 0,45 0,6 6,12 12,12"
         id="path79"
         inkscape:connector-curvature="0"
         style="fill:none;stroke:#000000" />
      <text
         x="1147"
         y="-266.29999"
         font-size="14.00"
         id="text81"
         style="font-size:14px;font-family:Times, serif;text-anchor:middle">MOVi32imm</text>
      <polyline
         points="1067,-258.5 1227,-258.5 "
         id="polyline83"
         style="fill:none;stroke:#000000" />
      <text
         x="1107"
         y="-243.3"
         font-size="14.00"
         id="text85"
         style="font-size:14px;font-family:Times, serif;text-anchor:middle">-131.000</text>
      <polyline
         points="1067,-235.5 1147,-235.5 "
         id="polyline87"
         style="fill:none;stroke:#000000" />
      <text
         x="1107"
         y="-220.3"
         font-size="14.00"
         id="text89"
         style="font-size:14px;font-family:Times, serif;text-anchor:middle">1</text>
      <polyline
         points="1147,-212.5 1147,-258.5 "
         id="polyline91"
         style="fill:none;stroke:#000000" />
      <text
         x="1187"
         y="-231.8"
         font-size="14.00"
         id="text93"
         style="font-size:14px;font-family:Times, serif;text-anchor:middle">-131.000</text>
    </g>
    <!-- 0&#45;&gt;&#45;8696514429205789444 -->
    <g
       id="edge3"
       class="edge"
       transform="translate(124.5)">
      <title
         id="title96">0-&gt;-8696514429205789444</title>
      <path
         d="m 1072.04,-318.23 c 10.08,9.45 21.15,19.82 31.61,29.62"
         id="path98"
         inkscape:connector-curvature="0"
         style="fill:none;stroke:#000000" />
      <polygon
         points="1106.24,-290.99 1111.14,-281.6 1101.45,-285.88 "
         id="polygon100"
         style="fill:#000000;stroke:#000000" />
    </g>
    <!-- 5539072434801851294 -->
    <g
       id="node5"
       class="node"
       transform="translate(45)">
      <title
         id="title103">5539072434801851294</title>
      <path
         d="m 1346,-212.5 c 0,0 136,0 136,0 6,0 12,-6 12,-12 0,0 0,-45 0,-45 0,-6 -6,-12 -12,-12 0,0 -136,0 -136,0 -6,0 -12,6 -12,12 0,0 0,45 0,45 0,6 6,12 12,12"
         id="path105"
         inkscape:connector-curvature="0"
         style="fill:none;stroke:#000000" />
      <text
         x="1414"
         y="-266.29999"
         font-size="14.00"
         id="text107"
         style="font-size:14px;font-family:Times, serif;text-anchor:middle">UBFMXri</text>
      <polyline
         points="1334,-258.5 1494,-258.5 "
         id="polyline109"
         style="fill:none;stroke:#000000" />
      <text
         x="1374"
         y="-243.3"
         font-size="14.00"
         id="text111"
         style="font-size:14px;font-family:Times, serif;text-anchor:middle">-122.000</text>
      <polyline
         points="1334,-235.5 1414,-235.5 "
         id="polyline113"
         style="fill:none;stroke:#000000" />
      <text
         x="1374"
         y="-220.3"
         font-size="14.00"
         id="text115"
         style="font-size:14px;font-family:Times, serif;text-anchor:middle">1</text>
      <polyline
         points="1414,-212.5 1414,-258.5 "
         id="polyline117"
         style="fill:none;stroke:#000000" />
      <text
         x="1454"
         y="-231.8"
         font-size="14.00"
         id="text119"
         style="font-size:14px;font-family:Times, serif;text-anchor:middle">-122.000</text>
    </g>
    <!-- 0&#45;&gt;5539072434801851294 -->
    <g
       id="edge4"
       class="edge"
       transform="matrix(0.66740283,0,0,0.81713662,497.28626,-60.238372)">
      <title
         id="title122">0-&gt;5539072434801851294</title>
      <path
         d="m 1120.83,-328.66 c 60.54,16.66 141.81,39.02 203.43,55.97"
         id="path124"
         inkscape:connector-curvature="0"
         style="fill:none;stroke:#000000" />
      <polygon
         points="1333.98,-270.02 1323.41,-269.29 1325.27,-276.04 "
         id="polygon126"
         style="fill:#000000;stroke:#000000" />
    </g>
    <!-- 5668556145476176026 -->
    <g
       id="node6"
       class="node"
       transform="translate(265.5)">
      <title
         id="title129">5668556145476176026</title>
      <path
         d="m 12,-106.5 c 0,0 136,0 136,0 6,0 12,-6 12,-12 0,0 0,-45 0,-45 0,-6 -6,-12 -12,-12 0,0 -136,0 -136,0 -6,0 -12,6 -12,12 0,0 0,45 0,45 0,6 6,12 12,12"
         id="path131"
         inkscape:connector-curvature="0"
         style="fill:none;stroke:#b90f22;stroke-width:1.87500004;stroke-miterlimit:4;stroke-dasharray:none;stroke-opacity:1" />
      <text
         x="80"
         y="-160.3"
         font-size="14.00"
         id="text133"
         style="font-size:14px;font-family:Times, serif;text-anchor:middle">UBFMXri</text>
      <polyline
         points="0,-152.5 160,-152.5 "
         id="polyline135"
         style="fill:none;stroke:#000000" />
      <text
         x="40"
         y="-137.3"
         font-size="14.00"
         id="text137"
         style="font-size:14px;font-family:Times, serif;text-anchor:middle">-243.000</text>
      <polyline
         points="0,-129.5 80,-129.5 "
         id="polyline139"
         style="fill:none;stroke:#000000" />
      <text
         x="40"
         y="-114.3"
         font-size="14.00"
         id="text141"
         style="font-size:14px;font-family:Times, serif;text-anchor:middle">2</text>
      <polyline
         points="80,-106.5 80,-152.5 "
         id="polyline143"
         style="fill:none;stroke:#000000" />
      <text
         x="120"
         y="-125.8"
         font-size="14.00"
         id="text145"
         style="font-size:14px;font-family:Times, serif;text-anchor:middle">-121.500</text>
    </g>
    <!-- &#45;6431769390230409528&#45;&gt;5668556145476176026 -->
    <g
       id="edge5"
       class="edge"
       transform="translate(265.5)"
       style="stroke-width:1.87500004;stroke-miterlimit:4;stroke-dasharray:none;stroke:#b90f22;stroke-opacity:1;fill:#b90f22;fill-opacity:1">
      <title
         id="title148">-6431769390230409528-&gt;5668556145476176026</title>
      <path
         d="m 200.21,-212.23 c -17.12,10 -36,21.03 -53.62,31.32"
         id="path150"
         inkscape:connector-curvature="0"
         style="fill:#b90f22;stroke:#b90f22;stroke-width:1.87500004;stroke-miterlimit:4;stroke-dasharray:none;stroke-opacity:1;fill-opacity:1" />
      <polygon
         points="137.5,-175.6 144.37,-183.66 147.9,-177.62 "
         id="polygon152"
         style="fill:#b90f22;stroke:#b90f22;stroke-width:1.87500004;stroke-miterlimit:4;stroke-dasharray:none;stroke-opacity:1;fill-opacity:1" />
    </g>
    <!-- &#45;5183799162413662102 -->
    <g
       id="node7"
       class="node"
       transform="translate(265.5)">
      <title
         id="title155">-5183799162413662102</title>
      <path
         d="m 190,-106.5 c 0,0 136,0 136,0 6,0 12,-6 12,-12 0,0 0,-45 0,-45 0,-6 -6,-12 -12,-12 0,0 -136,0 -136,0 -6,0 -12,6 -12,12 0,0 0,45 0,45 0,6 6,12 12,12"
         id="path157"
         inkscape:connector-curvature="0"
         style="fill:none;stroke:#000000" />
      <text
         x="258"
         y="-160.3"
         font-size="14.00"
         id="text159"
         style="font-size:14px;font-family:Times, serif;text-anchor:middle">MOVi32imm</text>
      <polyline
         points="178,-152.5 338,-152.5 "
         id="polyline161"
         style="fill:none;stroke:#000000" />
      <text
         x="218"
         y="-137.3"
         font-size="14.00"
         id="text163"
         style="font-size:14px;font-family:Times, serif;text-anchor:middle">-121.000</text>
      <polyline
         points="178,-129.5 258,-129.5 "
         id="polyline165"
         style="fill:none;stroke:#000000" />
      <text
         x="218"
         y="-114.3"
         font-size="14.00"
         id="text167"
         style="font-size:14px;font-family:Times, serif;text-anchor:middle">1</text>
      <polyline
         points="258,-106.5 258,-152.5 "
         id="polyline169"
         style="fill:none;stroke:#000000" />
      <text
         x="298"
         y="-125.8"
         font-size="14.00"
         id="text171"
         style="font-size:14px;font-family:Times, serif;text-anchor:middle">-121.000</text>
    </g>
    <!-- &#45;6431769390230409528&#45;&gt;&#45;5183799162413662102 -->
    <g
       id="edge6"
       class="edge"
       transform="translate(265.5)">
      <title
         id="title174">-6431769390230409528-&gt;-5183799162413662102</title>
      <path
         d="m 258,-212.23 c 0,8.44 0,17.61 0,26.46"
         id="path176"
         inkscape:connector-curvature="0"
         style="fill:none;stroke:#000000" />
      <polygon
         points="258,-175.6 254.5,-185.6 261.5,-185.6 "
         id="polygon178"
         style="fill:#000000;stroke:#000000" />
    </g>
    <!-- 5262775400436763424 -->
    <g
       id="node8"
       class="node"
       transform="translate(172.5)">
      <title
         id="title181">5262775400436763424</title>
      <path
         d="m 457,-106.5 c 0,0 136,0 136,0 6,0 12,-6 12,-12 0,0 0,-45 0,-45 0,-6 -6,-12 -12,-12 0,0 -136,0 -136,0 -6,0 -12,6 -12,12 0,0 0,45 0,45 0,6 6,12 12,12"
         id="path183"
         inkscape:connector-curvature="0"
         style="fill:none;stroke:#000000" />
      <text
         x="525"
         y="-160.3"
         font-size="14.00"
         id="text185"
         style="font-size:14px;font-family:Times, serif;text-anchor:middle">UBFMXri</text>
      <polyline
         points="445,-152.5 605,-152.5 "
         id="polyline187"
         style="fill:none;stroke:#000000" />
      <text
         x="485"
         y="-137.3"
         font-size="14.00"
         id="text189"
         style="font-size:14px;font-family:Times, serif;text-anchor:middle">-121.000</text>
      <polyline
         points="445,-129.5 525,-129.5 "
         id="polyline191"
         style="fill:none;stroke:#000000" />
      <text
         x="485"
         y="-114.3"
         font-size="14.00"
         id="text193"
         style="font-size:14px;font-family:Times, serif;text-anchor:middle">1</text>
      <polyline
         points="525,-106.5 525,-152.5 "
         id="polyline195"
         style="fill:none;stroke:#000000" />
      <text
         x="565"
         y="-125.8"
         font-size="14.00"
         id="text197"
         style="font-size:14px;font-family:Times, serif;text-anchor:middle">-121.000</text>
    </g>
    <!-- 8968172367938046771&#45;&gt;5262775400436763424 -->
    <g
       id="edge7"
       class="edge"
       transform="matrix(0.82804726,0,0,0.80812996,269.74925,-43.286214)">
      <title
         id="title200">8968172367938046771-&gt;5262775400436763424</title>
      <path
         d="m 844.54,-225.08 c -66.33,17.24 -160.34,41.69 -229.23,59.6"
         id="path202"
         inkscape:connector-curvature="0"
         style="fill:none;stroke:#000000" />
      <polygon
         points="615.9,-162.02 605.34,-162.89 614.13,-168.79 "
         id="polygon204"
         style="fill:#000000;stroke:#000000" />
    </g>
    <!-- &#45;8866724491492648788 -->
    <g
       id="node9"
       class="node"
       transform="translate(124.5)">
      <title
         id="title207">-8866724491492648788</title>
      <path
         d="m 679,-106.5 c 0,0 136,0 136,0 6,0 12,-6 12,-12 0,0 0,-45 0,-45 0,-6 -6,-12 -12,-12 0,0 -136,0 -136,0 -6,0 -12,6 -12,12 0,0 0,45 0,45 0,6 6,12 12,12"
         id="path209"
         inkscape:connector-curvature="0"
         style="fill:none;stroke:#00715e;stroke-width:1.87500004;stroke-miterlimit:4;stroke-dasharray:none;stroke-opacity:1" />
      <text
         x="747"
         y="-160.3"
         font-size="14.00"
         id="text211"
         style="font-size:14px;font-family:Times, serif;text-anchor:middle">ADDXri</text>
      <polyline
         points="667,-152.5 827,-152.5 "
         id="polyline213"
         style="fill:none;stroke:#000000" />
      <text
         x="707"
         y="-137.3"
         font-size="14.00"
         id="text215"
         style="font-size:14px;font-family:Times, serif;text-anchor:middle">-233.000</text>
      <polyline
         points="667,-129.5 747,-129.5 "
         id="polyline217"
         style="fill:none;stroke:#000000" />
      <text
         x="707"
         y="-114.3"
         font-size="14.00"
         id="text219"
         style="font-size:14px;font-family:Times, serif;text-anchor:middle">2</text>
      <polyline
         points="747,-106.5 747,-152.5 "
         id="polyline221"
         style="fill:none;stroke:#000000" />
      <text
         x="787"
         y="-125.8"
         font-size="14.00"
         id="text223"
         style="font-size:14px;font-family:Times, serif;text-anchor:middle">-116.500</text>
    </g>
    <!-- 8968172367938046771&#45;&gt;&#45;8866724491492648788 -->
    <g
       id="edge8"
       class="edge"
       transform="translate(124.5)"
       style="stroke:#00715e;stroke-opacity:1;fill:#00715e;fill-opacity:1;stroke-width:1.87500004;stroke-miterlimit:4;stroke-dasharray:none">
      <title
         id="title226">8968172367938046771-&gt;-8866724491492648788</title>
      <path
         d="m 867.21,-212.23 c -17.12,10 -36,21.03 -53.62,31.32"
         id="path228"
         inkscape:connector-curvature="0"
         style="fill:#00715e;stroke:#00715e;stroke-width:1.87500004;stroke-miterlimit:4;stroke-dasharray:none;stroke-opacity:1;fill-opacity:1" />
      <polygon
         points="814.9,-177.62 804.5,-175.6 811.37,-183.66 "
         id="polygon230"
         style="fill:#00715e;stroke:#00715e;stroke-opacity:1;fill-opacity:1;stroke-width:1.87500004;stroke-miterlimit:4;stroke-dasharray:none" />
    </g>
    <!-- &#45;4848983816374530542 -->
    <g
       id="node10"
       class="node"
       transform="translate(124.5)">
      <title
         id="title233">-4848983816374530542</title>
      <path
         d="m 857,-106.5 c 0,0 136,0 136,0 6,0 12,-6 12,-12 0,0 0,-45 0,-45 0,-6 -6,-12 -12,-12 0,0 -136,0 -136,0 -6,0 -12,6 -12,12 0,0 0,45 0,45 0,6 6,12 12,12"
         id="path235"
         inkscape:connector-curvature="0"
         style="fill:none;stroke:#000000" />
      <text
         x="925"
         y="-160.3"
         font-size="14.00"
         id="text237"
         style="font-size:14px;font-family:Times, serif;text-anchor:middle">MOVaddr</text>
      <polyline
         points="845,-152.5 1005,-152.5 "
         id="polyline239"
         style="fill:none;stroke:#000000" />
      <text
         x="885"
         y="-137.3"
         font-size="14.00"
         id="text241"
         style="font-size:14px;font-family:Times, serif;text-anchor:middle">-131.000</text>
      <polyline
         points="845,-129.5 925,-129.5 "
         id="polyline243"
         style="fill:none;stroke:#000000" />
      <text
         x="885"
         y="-114.3"
         font-size="14.00"
         id="text245"
         style="font-size:14px;font-family:Times, serif;text-anchor:middle">1</text>
      <polyline
         points="925,-106.5 925,-152.5 "
         id="polyline247"
         style="fill:none;stroke:#000000" />
      <text
         x="965"
         y="-125.8"
         font-size="14.00"
         id="text249"
         style="font-size:14px;font-family:Times, serif;text-anchor:middle">-131.000</text>
    </g>
    <!-- 8968172367938046771&#45;&gt;&#45;4848983816374530542 -->
    <g
       id="edge9"
       class="edge"
       transform="translate(124.5)">
      <title
         id="title252">8968172367938046771-&gt;-4848983816374530542</title>
      <path
         d="m 925,-212.23 c 0,8.44 0,17.61 0,26.46"
         id="path254"
         inkscape:connector-curvature="0"
         style="fill:none;stroke:#000000" />
      <polygon
         points="928.5,-185.6 925,-175.6 921.5,-185.6 "
         id="polygon256"
         style="fill:#000000;stroke:#000000" />
    </g>
    <!-- 6817160862643592950 -->
    <g
       id="node11"
       class="node"
       transform="translate(124.5)">
      <title
         id="title259">6817160862643592950</title>
      <path
         d="m 1035,-106.5 c 0,0 136,0 136,0 6,0 12,-6 12,-12 0,0 0,-45 0,-45 0,-6 -6,-12 -12,-12 0,0 -136,0 -136,0 -6,0 -12,6 -12,12 0,0 0,45 0,45 0,6 6,12 12,12"
         id="path261"
         inkscape:connector-curvature="0"
         style="fill:none;stroke:#000000" />
      <text
         x="1103"
         y="-160.3"
         font-size="14.00"
         id="text263"
         style="font-size:14px;font-family:Times, serif;text-anchor:middle">SUBSXri</text>
      <polyline
         points="1023,-152.5 1183,-152.5 "
         id="polyline265"
         style="fill:none;stroke:#000000" />
      <text
         x="1063"
         y="-137.3"
         font-size="14.00"
         id="text267"
         style="font-size:14px;font-family:Times, serif;text-anchor:middle">-242.000</text>
      <polyline
         points="1023,-129.5 1103,-129.5 "
         id="polyline269"
         style="fill:none;stroke:#000000" />
      <text
         x="1063"
         y="-114.3"
         font-size="14.00"
         id="text271"
         style="font-size:14px;font-family:Times, serif;text-anchor:middle">2</text>
      <polyline
         points="1103,-106.5 1103,-152.5 "
         id="polyline273"
         style="fill:none;stroke:#000000" />
      <text
         x="1143"
         y="-125.8"
         font-size="14.00"
         id="text275"
         style="font-size:14px;font-family:Times, serif;text-anchor:middle">-121.000</text>
    </g>
    <!-- 8968172367938046771&#45;&gt;6817160862643592950 -->
    <g
       id="edge10"
       class="edge"
       transform="translate(124.5)">
      <title
         id="title278">8968172367938046771-&gt;6817160862643592950</title>
      <path
         d="m 982.79,-212.23 c 17.12,10 36,21.03 53.62,31.32"
         id="path280"
         inkscape:connector-curvature="0"
         style="fill:none;stroke:#000000" />
      <polygon
         points="1038.63,-183.66 1045.5,-175.6 1035.1,-177.62 "
         id="polygon282"
         style="fill:#000000;stroke:#000000" />
    </g>
    <!-- &#45;4500912339433886548 -->
    <g
       id="node12"
       class="node"
       transform="translate(124.5)">
      <title
         id="title285">-4500912339433886548</title>
      <path
         d="m 1213,-106.5 c 0,0 136,0 136,0 6,0 12,-6 12,-12 0,0 0,-45 0,-45 0,-6 -6,-12 -12,-12 0,0 -136,0 -136,0 -6,0 -12,6 -12,12 0,0 0,45 0,45 0,6 6,12 12,12"
         id="path287"
         inkscape:connector-curvature="0"
         style="fill:none;stroke:#000000" />
      <text
         x="1281"
         y="-160.3"
         font-size="14.00"
         id="text289"
         style="font-size:14px;font-family:Times, serif;text-anchor:middle">ADDXri</text>
      <polyline
         points="1201,-152.5 1361,-152.5 "
         id="polyline291"
         style="fill:none;stroke:#000000" />
      <text
         x="1241"
         y="-137.3"
         font-size="14.00"
         id="text293"
         style="font-size:14px;font-family:Times, serif;text-anchor:middle">-131.000</text>
      <polyline
         points="1201,-129.5 1281,-129.5 "
         id="polyline295"
         style="fill:none;stroke:#000000" />
      <text
         x="1241"
         y="-114.3"
         font-size="14.00"
         id="text297"
         style="font-size:14px;font-family:Times, serif;text-anchor:middle">1</text>
      <polyline
         points="1281,-106.5 1281,-152.5 "
         id="polyline299"
         style="fill:none;stroke:#000000" />
      <text
         x="1321"
         y="-125.8"
         font-size="14.00"
         id="text301"
         style="font-size:14px;font-family:Times, serif;text-anchor:middle">-131.000</text>
    </g>
    <!-- &#45;8696514429205789444&#45;&gt;&#45;4500912339433886548 -->
    <g
       id="edge11"
       class="edge"
       transform="translate(124.5)">
      <title
         id="title304">-8696514429205789444-&gt;-4500912339433886548</title>
      <path
         d="m 1190.51,-212.23 c 12.53,9.72 26.31,20.42 39.26,30.47"
         id="path306"
         inkscape:connector-curvature="0"
         style="fill:none;stroke:#000000" />
      <polygon
         points="1231.96,-184.49 1237.71,-175.6 1227.67,-178.96 "
         id="polygon308"
         style="fill:#000000;stroke:#000000" />
    </g>
    <!-- &#45;8668730213471292032 -->
    <!-- 5539072434801851294&#45;&gt;&#45;8668730213471292032 -->
    <!-- &#45;2506150184736699771 -->
    <!-- &#45;5183799162413662102&#45;&gt;&#45;2506150184736699771 -->
    <!-- 869781099548783346 -->
    <!-- 5262775400436763424&#45;&gt;869781099548783346 -->
    <!-- &#45;2645925511231020701 -->
    <g
       id="node18"
       class="node"
       transform="translate(234)">
      <title
         id="title389">-2645925511231020701</title>
      <path
         d="m 501,-0.5 c 0,0 136,0 136,0 6,0 12,-6 12,-12 0,0 0,-45 0,-45 0,-6 -6,-12 -12,-12 0,0 -136,0 -136,0 -6,0 -12,6 -12,12 0,0 0,45 0,45 0,6 6,12 12,12"
         id="path391"
         inkscape:connector-curvature="0"
         style="fill:none;stroke:#000000" />
      <text
         x="569"
         y="-54.299999"
         font-size="14.00"
         id="text393"
         style="font-size:14px;font-family:Times, serif;text-anchor:middle">MOVi32imm</text>
      <polyline
         points="489,-46.5 649,-46.5 "
         id="polyline395"
         style="fill:none;stroke:#000000" />
      <text
         x="529"
         y="-31.299999"
         font-size="14.00"
         id="text397"
         style="font-size:14px;font-family:Times, serif;text-anchor:middle">-131.000</text>
      <polyline
         points="489,-23.5 569,-23.5 "
         id="polyline399"
         style="fill:none;stroke:#000000" />
      <text
         x="529"
         y="-8.3000002"
         font-size="14.00"
         id="text401"
         style="font-size:14px;font-family:Times, serif;text-anchor:middle">1</text>
      <polyline
         points="569,-0.5 569,-46.5 "
         id="polyline403"
         style="fill:none;stroke:#000000" />
      <text
         x="609"
         y="-19.799999"
         font-size="14.00"
         id="text405"
         style="font-size:14px;font-family:Times, serif;text-anchor:middle">-131.000</text>
    </g>
    <!-- &#45;8866724491492648788&#45;&gt;&#45;2645925511231020701 -->
    <g
       id="edge17"
       class="edge"
       transform="translate(159)">
      <title
         id="title408">-8866724491492648788-&gt;-2645925511231020701</title>
      <path
         d="m 689.21,-106.23 c -17.12,10 -36,21.03 -53.62,31.32"
         id="path410"
         inkscape:connector-curvature="0"
         style="fill:none;stroke:#000000" />
      <polygon
         points="633.37,-77.66 636.9,-71.62 626.5,-69.6 "
         id="polygon412"
         style="fill:#000000;stroke:#000000" />
    </g>
    <!-- 7113230696165713549 -->
    <g
       id="node19"
       class="node"
       transform="translate(234)">
      <title
         id="title415">7113230696165713549</title>
      <path
         d="m 679,-0.5 c 0,0 136,0 136,0 6,0 12,-6 12,-12 0,0 0,-45 0,-45 0,-6 -6,-12 -12,-12 0,0 -136,0 -136,0 -6,0 -12,6 -12,12 0,0 0,45 0,45 0,6 6,12 12,12"
         id="path417"
         inkscape:connector-curvature="0"
         style="fill:none;stroke:#00715e;stroke-opacity:1;stroke-width:1.87500004;stroke-miterlimit:4;stroke-dasharray:none" />
      <text
         x="747"
         y="-54.299999"
         font-size="14.00"
         id="text419"
         style="font-size:14px;font-family:Times, serif;text-anchor:middle">MOVaddr</text>
      <polyline
         points="667,-46.5 827,-46.5 "
         id="polyline421"
         style="fill:none;stroke:#000000" />
      <text
         x="707"
         y="-31.299999"
         font-size="14.00"
         id="text423"
         style="font-size:14px;font-family:Times, serif;text-anchor:middle">-102.000</text>
      <polyline
         points="667,-23.5 747,-23.5 "
         id="polyline425"
         style="fill:none;stroke:#000000" />
      <text
         x="707"
         y="-8.3000002"
         font-size="14.00"
         id="text427"
         style="font-size:14px;font-family:Times, serif;text-anchor:middle">1</text>
      <polyline
         points="747,-0.5 747,-46.5 "
         id="polyline429"
         style="fill:none;stroke:#000000" />
      <text
         x="787"
         y="-19.799999"
         font-size="14.00"
         id="text431"
         style="font-size:14px;font-family:Times, serif;text-anchor:middle">-102.000</text>
      <text
         x="787"
         y="-7.7878494"
         font-size="14.00"
         id="text431-3"
         style="font-size:14px;font-family:Times, serif;text-anchor:middle;stroke-width:0.99999994">
        <tspan
           style="fill:#00715e;fill-opacity:1"
           id="tspan2807">-102.000</tspan>
      </text>
      <text
         x="677.15985"
         y="-112.96189"
         font-size="14.00"
         id="text431-3-8"
         style="font-size:14px;font-family:Times, serif;text-anchor:middle;stroke-width:0.99999994">
        <tspan
           style="fill:#00715e;fill-opacity:1;stroke-width:0.99999994"
           id="tspan2807-8">-102.000</tspan>
      </text>
      <text
         x="855.65985"
         y="-219.4619"
         font-size="14.00"
         id="text431-3-3"
         style="font-size:14px;font-family:Times, serif;text-anchor:middle;stroke-width:0.99999994">
        <tspan
           style="fill:#00715e;fill-opacity:1;stroke-width:0.99999994"
           id="tspan2807-1">-102.000</tspan>
      </text>
      <text
         x="971.36035"
         y="-324.38589"
         font-size="14.00"
         id="text431-3-89"
         style="font-size:14px;font-family:Times, serif;text-anchor:middle;stroke-width:0.99999994">
        <tspan
           style="fill:#00715e;fill-opacity:1;stroke-width:0.99999994"
           id="tspan2807-6">-102.000</tspan>
      </text>
    </g>
    <!-- &#45;8866724491492648788&#45;&gt;7113230696165713549 -->
    <!-- &#45;8688117717318824419 -->
    <!-- &#45;4848983816374530542&#45;&gt;&#45;8688117717318824419 -->
    <!-- &#45;1036867148700489056 -->
    <g
       id="node14"
       class="node"
       transform="translate(124.5)">
      <title
         id="title467">-1036867148700489056</title>
      <path
         d="m 1035,-0.5 c 0,0 136,0 136,0 6,0 12,-6 12,-12 0,0 0,-45 0,-45 0,-6 -6,-12 -12,-12 0,0 -136,0 -136,0 -6,0 -12,6 -12,12 0,0 0,45 0,45 0,6 6,12 12,12"
         id="path469"
         inkscape:connector-curvature="0"
         style="fill:none;stroke:#000000" />
      <text
         x="1103"
         y="-54.299999"
         font-size="14.00"
         id="text471"
         style="font-size:14px;font-family:Times, serif;text-anchor:middle">MOVi32imm</text>
      <polyline
         points="1023,-46.5 1183,-46.5 "
         id="polyline473"
         style="fill:none;stroke:#000000" />
      <text
         x="1063"
         y="-31.299999"
         font-size="14.00"
         id="text475"
         style="font-size:14px;font-family:Times, serif;text-anchor:middle">-121.000</text>
      <polyline
         points="1023,-23.5 1103,-23.5 "
         id="polyline477"
         style="fill:none;stroke:#000000" />
      <text
         x="1063"
         y="-8.3000002"
         font-size="14.00"
         id="text479"
         style="font-size:14px;font-family:Times, serif;text-anchor:middle">1</text>
      <polyline
         points="1103,-0.5 1103,-46.5 "
         id="polyline481"
         style="fill:none;stroke:#000000" />
      <text
         x="1143"
         y="-19.799999"
         font-size="14.00"
         id="text483"
         style="font-size:14px;font-family:Times, serif;text-anchor:middle">-121.000</text>
    </g>
    <!-- 6817160862643592950&#45;&gt;&#45;1036867148700489056 -->
    <g
       id="edge13"
       class="edge"
       transform="translate(124.5)">
      <title
         id="title486">6817160862643592950-&gt;-1036867148700489056</title>
      <path
         d="m 1103,-106.23 c 0,8.44 0,17.61 0,26.46"
         id="path488"
         inkscape:connector-curvature="0"
         style="fill:none;stroke:#000000" />
      <polygon
         points="1106.5,-79.6 1103,-69.6 1099.5,-79.6 "
         id="polygon490"
         style="fill:#000000;stroke:#000000" />
    </g>
    <!-- &#45;1790969449097372399 -->
    <g
       id="node15"
       class="node"
       transform="translate(124.5)">
      <title
         id="title493">-1790969449097372399</title>
      <path
         d="m 1213,-0.5 c 0,0 136,0 136,0 6,0 12,-6 12,-12 0,0 0,-45 0,-45 0,-6 -6,-12 -12,-12 0,0 -136,0 -136,0 -6,0 -12,6 -12,12 0,0 0,45 0,45 0,6 6,12 12,12"
         id="path495"
         inkscape:connector-curvature="0"
         style="fill:none;stroke:#000000" />
      <text
         x="1281"
         y="-54.299999"
         font-size="14.00"
         id="text497"
         style="font-size:14px;font-family:Times, serif;text-anchor:middle">MOVaddr</text>
      <polyline
         points="1201,-46.5 1361,-46.5 "
         id="polyline499"
         style="fill:none;stroke:#000000" />
      <text
         x="1241"
         y="-31.299999"
         font-size="14.00"
         id="text501"
         style="font-size:14px;font-family:Times, serif;text-anchor:middle">-121.000</text>
      <polyline
         points="1201,-23.5 1281,-23.5 "
         id="polyline503"
         style="fill:none;stroke:#000000" />
      <text
         x="1241"
         y="-8.3000002"
         font-size="14.00"
         id="text505"
         style="font-size:14px;font-family:Times, serif;text-anchor:middle">1</text>
      <polyline
         points="1281,-0.5 1281,-46.5 "
         id="polyline507"
         style="fill:none;stroke:#000000" />
      <text
         x="1321"
         y="-19.799999"
         font-size="14.00"
         id="text509"
         style="font-size:14px;font-family:Times, serif;text-anchor:middle">-121.000</text>
    </g>
    <!-- 6817160862643592950&#45;&gt;&#45;1790969449097372399 -->
    <g
       id="edge14"
       class="edge"
       transform="translate(124.5)">
      <title
         id="title512">6817160862643592950-&gt;-1790969449097372399</title>
      <path
         d="m 1160.79,-106.23 c 17.12,10 36,21.03 53.62,31.32"
         id="path514"
         inkscape:connector-curvature="0"
         style="fill:none;stroke:#000000" />
      <polygon
         points="1216.63,-77.66 1223.5,-69.6 1213.1,-71.62 "
         id="polygon516"
         style="fill:#000000;stroke:#000000" />
    </g>
    <g
       id="edge17-9"
       class="edge"
       transform="matrix(-1,0,0,1,1593.4202,-0.13624856)"
       style="fill:#00715e;fill-opacity:1;stroke:#00715e;stroke-opacity:1;stroke-width:1.87500004;stroke-miterlimit:4;stroke-dasharray:none">
      <title
         id="title408-6">-8866724491492648788-&gt;-2645925511231020701</title>
      <path
         d="m 689.21,-106.23 c -17.12,10 -36,21.03 -53.62,31.32"
         id="path410-3"
         inkscape:connector-curvature="0"
         style="fill:#00715e;stroke:#00715e;fill-opacity:1;stroke-opacity:1;stroke-width:1.87500004;stroke-miterlimit:4;stroke-dasharray:none" />
      <polygon
         points="633.37,-77.66 636.9,-71.62 626.5,-69.6 "
         id="polygon412-8"
         style="fill:#00715e;stroke:#00715e;fill-opacity:1;stroke-opacity:1;stroke-width:1.87500004;stroke-miterlimit:4;stroke-dasharray:none" />
    </g>
    <text
       x="523.52069"
       y="-113.08565"
       font-size="14.00"
       id="text141-9"
       style="font-size:14.00000095px;font-family:Times, serif;text-anchor:middle;stroke-width:1" />
    <path
       inkscape:connector-curvature="0"
       style="fill:none;stroke:#b90f22;stroke-width:1.87500004;stroke-miterlimit:4;stroke-dasharray:10,10;stroke-opacity:1"
       d="m 277.5,0.19888592 c 0,0 136,0 136,0 6,0 12,-6.00000002 12,-11.99999992 0,0 0,-45.00001 0,-45.00001 0,-6 -6,-12 -12,-12 0,0 -136,0 -136,0 -6,0 -12,6 -12,12 0,0 0,45.00001 0,45.00001 0,5.9999999 6,11.99999992 12,11.99999992"
       id="path365-5" />
    <text
       style="font-style:italic;font-variant:normal;font-weight:normal;font-stretch:normal;font-size:14.00000095px;font-family:Times, serif;-inkscape-font-specification:'Times, serif, Italic';font-variant-ligatures:normal;font-variant-caps:normal;font-variant-numeric:normal;font-feature-settings:normal;text-align:center;writing-mode:lr-tb;text-anchor:middle;stroke-width:1"
       x="345.82831"
       y="-53.601112"
       font-size="14.00"
       id="text367-6">
      <tspan
         style="font-style:italic;font-variant:normal;font-weight:normal;font-stretch:normal;font-size:14.00000028px;font-family:Times, serif;-inkscape-font-specification:'Times, serif, Italic';font-variant-ligatures:normal;font-variant-caps:normal;font-variant-numeric:normal;font-feature-settings:normal;text-align:center;writing-mode:lr;text-anchor:middle"
         id="tspan1463">ADDXri</tspan>
    </text>
    <polyline
       transform="translate(-980.17164,0.69888592)"
       style="fill:none;stroke:#000000"
       points="1246,-46.5 1406,-46.5 "
       id="polyline369-1" />
    <text
       style="font-size:14.00000095px;font-family:Times, serif;text-anchor:middle;stroke-width:1"
       x="305.82831"
       y="-30.601114"
       font-size="14.00"
       id="text371-1">-122.000</text>
    <polyline
       transform="translate(-980.17164,0.69888592)"
       style="fill:none;stroke:#000000"
       points="1246,-23.5 1326,-23.5 "
       id="polyline373-5" />
    <text
       style="font-size:14.00000095px;font-family:Times, serif;text-anchor:middle;stroke-width:1"
       x="305.82831"
       y="-7.6011143"
       font-size="14.00"
       id="text375-9">1</text>
    <polyline
       transform="translate(-980.17164,0.69888592)"
       style="fill:none;stroke:#000000"
       points="1326,-0.5 1326,-46.5 "
       id="polyline377-8" />
    <text
       style="font-size:14.00000095px;font-family:Times, serif;text-anchor:middle;stroke-width:1"
       x="385.82834"
       y="-19.101084"
       font-size="14.00"
       id="text379-4">-122.000</text>
    <g
       transform="translate(-980.5,0.69888592)"
       id="node22"
       class="node">
      <title
         id="title389-8">1884742612480843548</title>
      <path
         style="fill:none;stroke:#000000"
         inkscape:connector-curvature="0"
         d="m 1436,-0.5 c 0,0 136,0 136,0 6,0 12,-6 12,-12 0,0 0,-45 0,-45 0,-6 -6,-12 -12,-12 0,0 -136,0 -136,0 -6,0 -12,6 -12,12 0,0 0,45 0,45 0,6 6,12 12,12"
         id="path391-1" />
      <text
         style="font-size:14px;font-family:Times, serif;text-anchor:middle"
         x="1504"
         y="-54.299999"
         font-size="14.00"
         id="text393-0">MOVi32imm</text>
      <polyline
         style="fill:none;stroke:#000000"
         points="1424,-46.5 1584,-46.5 "
         id="polyline395-3" />
      <text
         style="font-size:14px;font-family:Times, serif;text-anchor:middle"
         x="1464"
         y="-31.299999"
         font-size="14.00"
         id="text397-0">-121.000</text>
      <polyline
         style="fill:none;stroke:#000000"
         points="1424,-23.5 1504,-23.5 "
         id="polyline399-4" />
      <text
         style="font-size:14px;font-family:Times, serif;text-anchor:middle"
         x="1464"
         y="-8.3000002"
         font-size="14.00"
         id="text401-4">1</text>
      <polyline
         style="fill:none;stroke:#000000"
         points="1504,-0.5 1504,-46.5 "
         id="polyline403-4" />
      <text
         style="font-size:14px;font-family:Times, serif;text-anchor:middle"
         x="1544"
         y="-19.799999"
         font-size="14.00"
         id="text405-4">-121.000</text>
    </g>
    <g
       transform="matrix(-1.1560114,0,0,0.98090757,616.84415,102.42404)"
       id="edge5-7"
       class="edge">
      <title
         id="title148-8">-6431769390230409528-&gt;5668556145476176026</title>
      <path
         style="fill:none;stroke:#000000"
         inkscape:connector-curvature="0"
         d="m 200.21,-212.23 c -17.12,10 -36,21.03 -53.62,31.32"
         id="path150-5" />
      <polygon
         style="fill:#000000;stroke:#000000"
         points="144.37,-183.66 147.9,-177.62 137.5,-175.6 "
         id="polygon152-7" />
    </g>
    <g
       id="edge6-4"
       class="edge"
       transform="matrix(1.0058051,0,0,1.0011879,86.629125,106.15781)"
       style="stroke-width:1.86847189;stroke-miterlimit:4;stroke-dasharray:none;stroke:#b90f22;stroke-opacity:1;fill:#b90f22;fill-opacity:1">
      <title
         id="title174-8">-6431769390230409528-&gt;-5183799162413662102</title>
      <path
         d="m 258,-212.23 c 0,8.44 0,17.61 0,26.46"
         id="path176-1"
         inkscape:connector-curvature="0"
         style="fill:#b90f22;stroke:#b90f22;stroke-width:1.86847189;stroke-miterlimit:4;stroke-dasharray:none;stroke-opacity:1;fill-opacity:1" />
      <polygon
         points="258,-175.6 254.5,-185.6 261.5,-185.6 "
         id="polygon178-0"
         style="fill:#b90f22;stroke:#b90f22;stroke-width:1.86847189;stroke-miterlimit:4;stroke-dasharray:none;stroke-opacity:1;fill-opacity:1" />
    </g>
  </g>
</svg>
