<?xml version="1.0" encoding="UTF-8" standalone="no"?>
<!DOCTYPE svg PUBLIC "-//W3C//DTD SVG 1.1//EN"
 "http://www.w3.org/Graphics/SVG/1.1/DTD/svg11.dtd">
<!-- Generated by graphviz version 2.43.0 (0)
 -->
<!-- Title: MCTS Tree\nmcts/1.0/tree.svg Pages: 1 -->
<svg width="2304pt" height="396pt"
 viewBox="0.00 0.00 2304.00 396.00" xmlns="http://www.w3.org/2000/svg" xmlns:xlink="http://www.w3.org/1999/xlink">
<g id="graph0" class="graph" transform="scale(1 1) rotate(0) translate(4 392)">
<title>MCTS Tree\nmcts/1.0/tree.svg</title>
<polygon fill="white" stroke="transparent" points="-4,4 -4,-392 2300,-392 2300,4 -4,4"/>
<!-- 0 -->
<g id="node1" class="node">
<title>0</title>
<path fill="none" stroke="black" d="M1520.5,-318.5C1520.5,-318.5 1665.5,-318.5 1665.5,-318.5 1671.5,-318.5 1677.5,-324.5 1677.5,-330.5 1677.5,-330.5 1677.5,-375.5 1677.5,-375.5 1677.5,-381.5 1671.5,-387.5 1665.5,-387.5 1665.5,-387.5 1520.5,-387.5 1520.5,-387.5 1514.5,-387.5 1508.5,-381.5 1508.5,-375.5 1508.5,-375.5 1508.5,-330.5 1508.5,-330.5 1508.5,-324.5 1514.5,-318.5 1520.5,-318.5"/>
<text text-anchor="middle" x="1593" y="-372.3" font-family="Times,serif" font-size="14.00"> </text>
<polyline fill="none" stroke="black" points="1508.5,-364.5 1677.5,-364.5 "/>
<text text-anchor="middle" x="1553" y="-349.3" font-family="Times,serif" font-size="14.00">&#45;1849.000</text>
<polyline fill="none" stroke="black" points="1508.5,-341.5 1597.5,-341.5 "/>
<text text-anchor="middle" x="1553" y="-326.3" font-family="Times,serif" font-size="14.00">15</text>
<polyline fill="none" stroke="black" points="1597.5,-318.5 1597.5,-364.5 "/>
<text text-anchor="middle" x="1637.5" y="-337.8" font-family="Times,serif" font-size="14.00">&#45;123.267</text>
</g>
<!-- &#45;6052421852685860173 -->
<g id="node2" class="node">
<title>&#45;6052421852685860173</title>
<path fill="none" stroke="black" d="M457,-212.5C457,-212.5 593,-212.5 593,-212.5 599,-212.5 605,-218.5 605,-224.5 605,-224.5 605,-269.5 605,-269.5 605,-275.5 599,-281.5 593,-281.5 593,-281.5 457,-281.5 457,-281.5 451,-281.5 445,-275.5 445,-269.5 445,-269.5 445,-224.5 445,-224.5 445,-218.5 451,-212.5 457,-212.5"/>
<text text-anchor="middle" x="525" y="-266.3" font-family="Times,serif" font-size="14.00">MOVaddr</text>
<polyline fill="none" stroke="black" points="445,-258.5 605,-258.5 "/>
<text text-anchor="middle" x="485" y="-243.3" font-family="Times,serif" font-size="14.00">&#45;495.000</text>
<polyline fill="none" stroke="black" points="445,-235.5 525,-235.5 "/>
<text text-anchor="middle" x="485" y="-220.3" font-family="Times,serif" font-size="14.00">4</text>
<polyline fill="none" stroke="black" points="525,-212.5 525,-258.5 "/>
<text text-anchor="middle" x="565" y="-231.8" font-family="Times,serif" font-size="14.00">&#45;123.750</text>
</g>
<!-- 0&#45;&gt;&#45;6052421852685860173 -->
<g id="edge1" class="edge">
<title>0&#45;&gt;&#45;6052421852685860173</title>
<path fill="none" stroke="black" d="M1508.3,-343.75C1310.35,-324.48 818.8,-276.61 615.37,-256.8"/>
<polygon fill="black" stroke="black" points="615.61,-253.31 605.31,-255.82 614.93,-260.27 615.61,-253.31"/>
</g>
<!-- &#45;8187724384901090148 -->
<g id="node3" class="node">
<title>&#45;8187724384901090148</title>
<path fill="none" stroke="black" d="M1347,-212.5C1347,-212.5 1483,-212.5 1483,-212.5 1489,-212.5 1495,-218.5 1495,-224.5 1495,-224.5 1495,-269.5 1495,-269.5 1495,-275.5 1489,-281.5 1483,-281.5 1483,-281.5 1347,-281.5 1347,-281.5 1341,-281.5 1335,-275.5 1335,-269.5 1335,-269.5 1335,-224.5 1335,-224.5 1335,-218.5 1341,-212.5 1347,-212.5"/>
<text text-anchor="middle" x="1415" y="-266.3" font-family="Times,serif" font-size="14.00">ADDXri</text>
<polyline fill="none" stroke="black" points="1335,-258.5 1495,-258.5 "/>
<text text-anchor="middle" x="1375" y="-243.3" font-family="Times,serif" font-size="14.00">&#45;858.000</text>
<polyline fill="none" stroke="black" points="1335,-235.5 1415,-235.5 "/>
<text text-anchor="middle" x="1375" y="-220.3" font-family="Times,serif" font-size="14.00">7</text>
<polyline fill="none" stroke="black" points="1415,-212.5 1415,-258.5 "/>
<text text-anchor="middle" x="1455" y="-231.8" font-family="Times,serif" font-size="14.00">&#45;122.571</text>
</g>
<!-- 0&#45;&gt;&#45;8187724384901090148 -->
<g id="edge2" class="edge">
<title>0&#45;&gt;&#45;8187724384901090148</title>
<path fill="none" stroke="black" d="M1535.21,-318.23C1518.09,-308.23 1499.21,-297.2 1481.59,-286.91"/>
<polygon fill="black" stroke="black" points="1482.9,-283.62 1472.5,-281.6 1479.37,-289.66 1482.9,-283.62"/>
</g>
<!-- 832028991243841343 -->
<g id="node4" class="node">
<title>832028991243841343</title>
<path fill="none" stroke="black" d="M1659,-212.5C1659,-212.5 1795,-212.5 1795,-212.5 1801,-212.5 1807,-218.5 1807,-224.5 1807,-224.5 1807,-269.5 1807,-269.5 1807,-275.5 1801,-281.5 1795,-281.5 1795,-281.5 1659,-281.5 1659,-281.5 1653,-281.5 1647,-275.5 1647,-269.5 1647,-269.5 1647,-224.5 1647,-224.5 1647,-218.5 1653,-212.5 1659,-212.5"/>
<text text-anchor="middle" x="1727" y="-266.3" font-family="Times,serif" font-size="14.00">MOVi32imm</text>
<polyline fill="none" stroke="black" points="1647,-258.5 1807,-258.5 "/>
<text text-anchor="middle" x="1687" y="-243.3" font-family="Times,serif" font-size="14.00">&#45;131.000</text>
<polyline fill="none" stroke="black" points="1647,-235.5 1727,-235.5 "/>
<text text-anchor="middle" x="1687" y="-220.3" font-family="Times,serif" font-size="14.00">1</text>
<polyline fill="none" stroke="black" points="1727,-212.5 1727,-258.5 "/>
<text text-anchor="middle" x="1767" y="-231.8" font-family="Times,serif" font-size="14.00">&#45;131.000</text>
</g>
<!-- 0&#45;&gt;832028991243841343 -->
<g id="edge3" class="edge">
<title>0&#45;&gt;832028991243841343</title>
<path fill="none" stroke="black" d="M1636.51,-318.23C1649.04,-308.51 1662.82,-297.81 1675.77,-287.76"/>
<polygon fill="black" stroke="black" points="1677.96,-290.49 1683.71,-281.6 1673.67,-284.96 1677.96,-290.49"/>
</g>
<!-- 5936485499806228863 -->
<g id="node5" class="node">
<title>5936485499806228863</title>
<path fill="none" stroke="black" d="M1970,-212.5C1970,-212.5 2106,-212.5 2106,-212.5 2112,-212.5 2118,-218.5 2118,-224.5 2118,-224.5 2118,-269.5 2118,-269.5 2118,-275.5 2112,-281.5 2106,-281.5 2106,-281.5 1970,-281.5 1970,-281.5 1964,-281.5 1958,-275.5 1958,-269.5 1958,-269.5 1958,-224.5 1958,-224.5 1958,-218.5 1964,-212.5 1970,-212.5"/>
<text text-anchor="middle" x="2038" y="-266.3" font-family="Times,serif" font-size="14.00">UBFMXri</text>
<polyline fill="none" stroke="black" points="1958,-258.5 2118,-258.5 "/>
<text text-anchor="middle" x="1998" y="-243.3" font-family="Times,serif" font-size="14.00">&#45;365.000</text>
<polyline fill="none" stroke="black" points="1958,-235.5 2038,-235.5 "/>
<text text-anchor="middle" x="1998" y="-220.3" font-family="Times,serif" font-size="14.00">3</text>
<polyline fill="none" stroke="black" points="2038,-212.5 2038,-258.5 "/>
<text text-anchor="middle" x="2078" y="-231.8" font-family="Times,serif" font-size="14.00">&#45;121.667</text>
</g>
<!-- 0&#45;&gt;5936485499806228863 -->
<g id="edge4" class="edge">
<title>0&#45;&gt;5936485499806228863</title>
<path fill="none" stroke="black" d="M1677.75,-332.19C1755.01,-314.14 1868.82,-287.54 1947.75,-269.09"/>
<polygon fill="black" stroke="black" points="1948.75,-272.45 1957.69,-266.77 1947.15,-265.64 1948.75,-272.45"/>
</g>
<!-- 1705658124155819808 -->
<g id="node6" class="node">
<title>1705658124155819808</title>
<path fill="none" stroke="black" d="M101,-106.5C101,-106.5 237,-106.5 237,-106.5 243,-106.5 249,-112.5 249,-118.5 249,-118.5 249,-163.5 249,-163.5 249,-169.5 243,-175.5 237,-175.5 237,-175.5 101,-175.5 101,-175.5 95,-175.5 89,-169.5 89,-163.5 89,-163.5 89,-118.5 89,-118.5 89,-112.5 95,-106.5 101,-106.5"/>
<text text-anchor="middle" x="169" y="-160.3" font-family="Times,serif" font-size="14.00">MOVi32imm</text>
<polyline fill="none" stroke="black" points="89,-152.5 249,-152.5 "/>
<text text-anchor="middle" x="129" y="-137.3" font-family="Times,serif" font-size="14.00">&#45;121.000</text>
<polyline fill="none" stroke="black" points="89,-129.5 169,-129.5 "/>
<text text-anchor="middle" x="129" y="-114.3" font-family="Times,serif" font-size="14.00">1</text>
<polyline fill="none" stroke="black" points="169,-106.5 169,-152.5 "/>
<text text-anchor="middle" x="209" y="-125.8" font-family="Times,serif" font-size="14.00">&#45;121.000</text>
</g>
<!-- &#45;6052421852685860173&#45;&gt;1705658124155819808 -->
<g id="edge5" class="edge">
<title>&#45;6052421852685860173&#45;&gt;1705658124155819808</title>
<path fill="none" stroke="black" d="M444.66,-222.53C389.41,-206.39 315.98,-184.94 258.8,-168.23"/>
<polygon fill="black" stroke="black" points="259.63,-164.83 249.04,-165.38 257.66,-171.55 259.63,-164.83"/>
</g>
<!-- &#45;5307234624112361439 -->
<g id="node7" class="node">
<title>&#45;5307234624112361439</title>
<path fill="none" stroke="black" d="M368,-106.5C368,-106.5 504,-106.5 504,-106.5 510,-106.5 516,-112.5 516,-118.5 516,-118.5 516,-163.5 516,-163.5 516,-169.5 510,-175.5 504,-175.5 504,-175.5 368,-175.5 368,-175.5 362,-175.5 356,-169.5 356,-163.5 356,-163.5 356,-118.5 356,-118.5 356,-112.5 362,-106.5 368,-106.5"/>
<text text-anchor="middle" x="436" y="-160.3" font-family="Times,serif" font-size="14.00">UBFMXri</text>
<polyline fill="none" stroke="black" points="356,-152.5 516,-152.5 "/>
<text text-anchor="middle" x="396" y="-137.3" font-family="Times,serif" font-size="14.00">&#45;243.000</text>
<polyline fill="none" stroke="black" points="356,-129.5 436,-129.5 "/>
<text text-anchor="middle" x="396" y="-114.3" font-family="Times,serif" font-size="14.00">2</text>
<polyline fill="none" stroke="black" points="436,-106.5 436,-152.5 "/>
<text text-anchor="middle" x="476" y="-125.8" font-family="Times,serif" font-size="14.00">&#45;121.500</text>
</g>
<!-- &#45;6052421852685860173&#45;&gt;&#45;5307234624112361439 -->
<g id="edge6" class="edge">
<title>&#45;6052421852685860173&#45;&gt;&#45;5307234624112361439</title>
<path fill="none" stroke="black" d="M496.1,-212.23C488.25,-203.06 479.66,-193.02 471.49,-183.47"/>
<polygon fill="black" stroke="black" points="473.91,-180.92 464.75,-175.6 468.59,-185.47 473.91,-180.92"/>
</g>
<!-- &#45;273246897603782898 -->
<g id="node8" class="node">
<title>&#45;273246897603782898</title>
<path fill="none" stroke="black" d="M546,-106.5C546,-106.5 682,-106.5 682,-106.5 688,-106.5 694,-112.5 694,-118.5 694,-118.5 694,-163.5 694,-163.5 694,-169.5 688,-175.5 682,-175.5 682,-175.5 546,-175.5 546,-175.5 540,-175.5 534,-169.5 534,-163.5 534,-163.5 534,-118.5 534,-118.5 534,-112.5 540,-106.5 546,-106.5"/>
<text text-anchor="middle" x="614" y="-160.3" font-family="Times,serif" font-size="14.00">ADDXri</text>
<polyline fill="none" stroke="black" points="534,-152.5 694,-152.5 "/>
<text text-anchor="middle" x="574" y="-137.3" font-family="Times,serif" font-size="14.00">&#45;131.000</text>
<polyline fill="none" stroke="black" points="534,-129.5 614,-129.5 "/>
<text text-anchor="middle" x="574" y="-114.3" font-family="Times,serif" font-size="14.00">1</text>
<polyline fill="none" stroke="black" points="614,-106.5 614,-152.5 "/>
<text text-anchor="middle" x="654" y="-125.8" font-family="Times,serif" font-size="14.00">&#45;131.000</text>
</g>
<!-- &#45;6052421852685860173&#45;&gt;&#45;273246897603782898 -->
<g id="edge7" class="edge">
<title>&#45;6052421852685860173&#45;&gt;&#45;273246897603782898</title>
<path fill="none" stroke="black" d="M553.9,-212.23C561.75,-203.06 570.34,-193.02 578.51,-183.47"/>
<polygon fill="black" stroke="black" points="581.41,-185.47 585.25,-175.6 576.09,-180.92 581.41,-185.47"/>
</g>
<!-- &#45;6570449410455278172 -->
<g id="node9" class="node">
<title>&#45;6570449410455278172</title>
<path fill="none" stroke="black" d="M902,-106.5C902,-106.5 1038,-106.5 1038,-106.5 1044,-106.5 1050,-112.5 1050,-118.5 1050,-118.5 1050,-163.5 1050,-163.5 1050,-169.5 1044,-175.5 1038,-175.5 1038,-175.5 902,-175.5 902,-175.5 896,-175.5 890,-169.5 890,-163.5 890,-163.5 890,-118.5 890,-118.5 890,-112.5 896,-106.5 902,-106.5"/>
<text text-anchor="middle" x="970" y="-160.3" font-family="Times,serif" font-size="14.00">ADDXri</text>
<polyline fill="none" stroke="black" points="890,-152.5 1050,-152.5 "/>
<text text-anchor="middle" x="930" y="-137.3" font-family="Times,serif" font-size="14.00">&#45;233.000</text>
<polyline fill="none" stroke="black" points="890,-129.5 970,-129.5 "/>
<text text-anchor="middle" x="930" y="-114.3" font-family="Times,serif" font-size="14.00">2</text>
<polyline fill="none" stroke="black" points="970,-106.5 970,-152.5 "/>
<text text-anchor="middle" x="1010" y="-125.8" font-family="Times,serif" font-size="14.00">&#45;116.500</text>
</g>
<!-- &#45;8187724384901090148&#45;&gt;&#45;6570449410455278172 -->
<g id="edge8" class="edge">
<title>&#45;8187724384901090148&#45;&gt;&#45;6570449410455278172</title>
<path fill="none" stroke="black" d="M1334.89,-234.26C1264.47,-223.03 1159.28,-204.04 1060.2,-176.2"/>
<polygon fill="black" stroke="black" points="1060.9,-172.76 1050.32,-173.39 1058.98,-179.49 1060.9,-172.76"/>
</g>
<!-- &#45;7268304307815808949 -->
<g id="node10" class="node">
<title>&#45;7268304307815808949</title>
<path fill="none" stroke="black" d="M1080,-106.5C1080,-106.5 1216,-106.5 1216,-106.5 1222,-106.5 1228,-112.5 1228,-118.5 1228,-118.5 1228,-163.5 1228,-163.5 1228,-169.5 1222,-175.5 1216,-175.5 1216,-175.5 1080,-175.5 1080,-175.5 1074,-175.5 1068,-169.5 1068,-163.5 1068,-163.5 1068,-118.5 1068,-118.5 1068,-112.5 1074,-106.5 1080,-106.5"/>
<text text-anchor="middle" x="1148" y="-160.3" font-family="Times,serif" font-size="14.00">MOVi32imm</text>
<polyline fill="none" stroke="black" points="1068,-152.5 1228,-152.5 "/>
<text text-anchor="middle" x="1108" y="-137.3" font-family="Times,serif" font-size="14.00">&#45;131.000</text>
<polyline fill="none" stroke="black" points="1068,-129.5 1148,-129.5 "/>
<text text-anchor="middle" x="1108" y="-114.3" font-family="Times,serif" font-size="14.00">1</text>
<polyline fill="none" stroke="black" points="1148,-106.5 1148,-152.5 "/>
<text text-anchor="middle" x="1188" y="-125.8" font-family="Times,serif" font-size="14.00">&#45;131.000</text>
</g>
<!-- &#45;8187724384901090148&#45;&gt;&#45;7268304307815808949 -->
<g id="edge9" class="edge">
<title>&#45;8187724384901090148&#45;&gt;&#45;7268304307815808949</title>
<path fill="none" stroke="black" d="M1334.89,-214.8C1304.27,-202.87 1269.15,-189.19 1237.69,-176.94"/>
<polygon fill="black" stroke="black" points="1238.64,-173.55 1228.05,-173.18 1236.1,-180.07 1238.64,-173.55"/>
</g>
<!-- &#45;7864447616905464693 -->
<g id="node11" class="node">
<title>&#45;7864447616905464693</title>
<path fill="none" stroke="black" d="M1258,-106.5C1258,-106.5 1394,-106.5 1394,-106.5 1400,-106.5 1406,-112.5 1406,-118.5 1406,-118.5 1406,-163.5 1406,-163.5 1406,-169.5 1400,-175.5 1394,-175.5 1394,-175.5 1258,-175.5 1258,-175.5 1252,-175.5 1246,-169.5 1246,-163.5 1246,-163.5 1246,-118.5 1246,-118.5 1246,-112.5 1252,-106.5 1258,-106.5"/>
<text text-anchor="middle" x="1326" y="-160.3" font-family="Times,serif" font-size="14.00">SUBSXri</text>
<polyline fill="none" stroke="black" points="1246,-152.5 1406,-152.5 "/>
<text text-anchor="middle" x="1286" y="-137.3" font-family="Times,serif" font-size="14.00">&#45;242.000</text>
<polyline fill="none" stroke="black" points="1246,-129.5 1326,-129.5 "/>
<text text-anchor="middle" x="1286" y="-114.3" font-family="Times,serif" font-size="14.00">2</text>
<polyline fill="none" stroke="black" points="1326,-106.5 1326,-152.5 "/>
<text text-anchor="middle" x="1366" y="-125.8" font-family="Times,serif" font-size="14.00">&#45;121.000</text>
</g>
<!-- &#45;8187724384901090148&#45;&gt;&#45;7864447616905464693 -->
<g id="edge10" class="edge">
<title>&#45;8187724384901090148&#45;&gt;&#45;7864447616905464693</title>
<path fill="none" stroke="black" d="M1386.1,-212.23C1378.25,-203.06 1369.66,-193.02 1361.49,-183.47"/>
<polygon fill="black" stroke="black" points="1363.91,-180.92 1354.75,-175.6 1358.59,-185.47 1363.91,-180.92"/>
</g>
<!-- 5278239948359105238 -->
<g id="node12" class="node">
<title>5278239948359105238</title>
<path fill="none" stroke="black" d="M1436,-106.5C1436,-106.5 1572,-106.5 1572,-106.5 1578,-106.5 1584,-112.5 1584,-118.5 1584,-118.5 1584,-163.5 1584,-163.5 1584,-169.5 1578,-175.5 1572,-175.5 1572,-175.5 1436,-175.5 1436,-175.5 1430,-175.5 1424,-169.5 1424,-163.5 1424,-163.5 1424,-118.5 1424,-118.5 1424,-112.5 1430,-106.5 1436,-106.5"/>
<text text-anchor="middle" x="1504" y="-160.3" font-family="Times,serif" font-size="14.00">UBFMXri</text>
<polyline fill="none" stroke="black" points="1424,-152.5 1584,-152.5 "/>
<text text-anchor="middle" x="1464" y="-137.3" font-family="Times,serif" font-size="14.00">&#45;121.000</text>
<polyline fill="none" stroke="black" points="1424,-129.5 1504,-129.5 "/>
<text text-anchor="middle" x="1464" y="-114.3" font-family="Times,serif" font-size="14.00">1</text>
<polyline fill="none" stroke="black" points="1504,-106.5 1504,-152.5 "/>
<text text-anchor="middle" x="1544" y="-125.8" font-family="Times,serif" font-size="14.00">&#45;121.000</text>
</g>
<!-- &#45;8187724384901090148&#45;&gt;5278239948359105238 -->
<g id="edge11" class="edge">
<title>&#45;8187724384901090148&#45;&gt;5278239948359105238</title>
<path fill="none" stroke="black" d="M1443.9,-212.23C1451.75,-203.06 1460.34,-193.02 1468.51,-183.47"/>
<polygon fill="black" stroke="black" points="1471.41,-185.47 1475.25,-175.6 1466.09,-180.92 1471.41,-185.47"/>
</g>
<!-- 3707574863202732406 -->
<g id="node13" class="node">
<title>3707574863202732406</title>
<path fill="none" stroke="black" d="M1614,-106.5C1614,-106.5 1750,-106.5 1750,-106.5 1756,-106.5 1762,-112.5 1762,-118.5 1762,-118.5 1762,-163.5 1762,-163.5 1762,-169.5 1756,-175.5 1750,-175.5 1750,-175.5 1614,-175.5 1614,-175.5 1608,-175.5 1602,-169.5 1602,-163.5 1602,-163.5 1602,-118.5 1602,-118.5 1602,-112.5 1608,-106.5 1614,-106.5"/>
<text text-anchor="middle" x="1682" y="-160.3" font-family="Times,serif" font-size="14.00">MOVaddr</text>
<polyline fill="none" stroke="black" points="1602,-152.5 1762,-152.5 "/>
<text text-anchor="middle" x="1642" y="-137.3" font-family="Times,serif" font-size="14.00">&#45;131.000</text>
<polyline fill="none" stroke="black" points="1602,-129.5 1682,-129.5 "/>
<text text-anchor="middle" x="1642" y="-114.3" font-family="Times,serif" font-size="14.00">1</text>
<polyline fill="none" stroke="black" points="1682,-106.5 1682,-152.5 "/>
<text text-anchor="middle" x="1722" y="-125.8" font-family="Times,serif" font-size="14.00">&#45;131.000</text>
</g>
<!-- &#45;8187724384901090148&#45;&gt;3707574863202732406 -->
<g id="edge12" class="edge">
<title>&#45;8187724384901090148&#45;&gt;3707574863202732406</title>
<path fill="none" stroke="black" d="M1495.11,-214.8C1525.73,-202.87 1560.85,-189.19 1592.31,-176.94"/>
<polygon fill="black" stroke="black" points="1593.9,-180.07 1601.95,-173.18 1591.36,-173.55 1593.9,-180.07"/>
</g>
<!-- &#45;6045175682041577552 -->
<g id="node14" class="node">
<title>&#45;6045175682041577552</title>
<path fill="none" stroke="black" d="M1792,-106.5C1792,-106.5 1928,-106.5 1928,-106.5 1934,-106.5 1940,-112.5 1940,-118.5 1940,-118.5 1940,-163.5 1940,-163.5 1940,-169.5 1934,-175.5 1928,-175.5 1928,-175.5 1792,-175.5 1792,-175.5 1786,-175.5 1780,-169.5 1780,-163.5 1780,-163.5 1780,-118.5 1780,-118.5 1780,-112.5 1786,-106.5 1792,-106.5"/>
<text text-anchor="middle" x="1860" y="-160.3" font-family="Times,serif" font-size="14.00">ADDXri</text>
<polyline fill="none" stroke="black" points="1780,-152.5 1940,-152.5 "/>
<text text-anchor="middle" x="1820" y="-137.3" font-family="Times,serif" font-size="14.00">&#45;131.000</text>
<polyline fill="none" stroke="black" points="1780,-129.5 1860,-129.5 "/>
<text text-anchor="middle" x="1820" y="-114.3" font-family="Times,serif" font-size="14.00">1</text>
<polyline fill="none" stroke="black" points="1860,-106.5 1860,-152.5 "/>
<text text-anchor="middle" x="1900" y="-125.8" font-family="Times,serif" font-size="14.00">&#45;131.000</text>
</g>
<!-- 832028991243841343&#45;&gt;&#45;6045175682041577552 -->
<g id="edge13" class="edge">
<title>832028991243841343&#45;&gt;&#45;6045175682041577552</title>
<path fill="none" stroke="black" d="M1770.18,-212.23C1782.62,-202.51 1796.3,-191.81 1809.16,-181.76"/>
<polygon fill="black" stroke="black" points="1811.31,-184.51 1817.04,-175.6 1807,-179 1811.31,-184.51"/>
</g>
<!-- 7609415792162797617 -->
<g id="node15" class="node">
<title>7609415792162797617</title>
<path fill="none" stroke="black" d="M1970,-106.5C1970,-106.5 2106,-106.5 2106,-106.5 2112,-106.5 2118,-112.5 2118,-118.5 2118,-118.5 2118,-163.5 2118,-163.5 2118,-169.5 2112,-175.5 2106,-175.5 2106,-175.5 1970,-175.5 1970,-175.5 1964,-175.5 1958,-169.5 1958,-163.5 1958,-163.5 1958,-118.5 1958,-118.5 1958,-112.5 1964,-106.5 1970,-106.5"/>
<text text-anchor="middle" x="2038" y="-160.3" font-family="Times,serif" font-size="14.00">ADDXri</text>
<polyline fill="none" stroke="black" points="1958,-152.5 2118,-152.5 "/>
<text text-anchor="middle" x="1998" y="-137.3" font-family="Times,serif" font-size="14.00">&#45;243.000</text>
<polyline fill="none" stroke="black" points="1958,-129.5 2038,-129.5 "/>
<text text-anchor="middle" x="1998" y="-114.3" font-family="Times,serif" font-size="14.00">2</text>
<polyline fill="none" stroke="black" points="2038,-106.5 2038,-152.5 "/>
<text text-anchor="middle" x="2078" y="-125.8" font-family="Times,serif" font-size="14.00">&#45;121.500</text>
</g>
<!-- 5936485499806228863&#45;&gt;7609415792162797617 -->
<g id="edge14" class="edge">
<title>5936485499806228863&#45;&gt;7609415792162797617</title>
<path fill="none" stroke="black" d="M2038,-212.23C2038,-203.79 2038,-194.62 2038,-185.77"/>
<polygon fill="black" stroke="black" points="2041.5,-185.6 2038,-175.6 2034.5,-185.6 2041.5,-185.6"/>
</g>
<!-- &#45;1967388781641180441 -->
<g id="node16" class="node">
<title>&#45;1967388781641180441</title>
<path fill="none" stroke="black" d="M2148,-106.5C2148,-106.5 2284,-106.5 2284,-106.5 2290,-106.5 2296,-112.5 2296,-118.5 2296,-118.5 2296,-163.5 2296,-163.5 2296,-169.5 2290,-175.5 2284,-175.5 2284,-175.5 2148,-175.5 2148,-175.5 2142,-175.5 2136,-169.5 2136,-163.5 2136,-163.5 2136,-118.5 2136,-118.5 2136,-112.5 2142,-106.5 2148,-106.5"/>
<text text-anchor="middle" x="2216" y="-160.3" font-family="Times,serif" font-size="14.00">MOVi32imm</text>
<polyline fill="none" stroke="black" points="2136,-152.5 2296,-152.5 "/>
<text text-anchor="middle" x="2176" y="-137.3" font-family="Times,serif" font-size="14.00">&#45;122.000</text>
<polyline fill="none" stroke="black" points="2136,-129.5 2216,-129.5 "/>
<text text-anchor="middle" x="2176" y="-114.3" font-family="Times,serif" font-size="14.00">1</text>
<polyline fill="none" stroke="black" points="2216,-106.5 2216,-152.5 "/>
<text text-anchor="middle" x="2256" y="-125.8" font-family="Times,serif" font-size="14.00">&#45;122.000</text>
</g>
<!-- 5936485499806228863&#45;&gt;&#45;1967388781641180441 -->
<g id="edge15" class="edge">
<title>5936485499806228863&#45;&gt;&#45;1967388781641180441</title>
<path fill="none" stroke="black" d="M2095.79,-212.23C2112.91,-202.23 2131.79,-191.2 2149.41,-180.91"/>
<polygon fill="black" stroke="black" points="2151.63,-183.66 2158.5,-175.6 2148.1,-177.62 2151.63,-183.66"/>
</g>
<!-- 2390968112299593837 -->
<g id="node23" class="node">
<title>2390968112299593837</title>
<path fill="none" stroke="black" d="M12,-0.5C12,-0.5 148,-0.5 148,-0.5 154,-0.5 160,-6.5 160,-12.5 160,-12.5 160,-57.5 160,-57.5 160,-63.5 154,-69.5 148,-69.5 148,-69.5 12,-69.5 12,-69.5 6,-69.5 0,-63.5 0,-57.5 0,-57.5 0,-12.5 0,-12.5 0,-6.5 6,-0.5 12,-0.5"/>
<text text-anchor="middle" x="80" y="-54.3" font-family="Times,serif" font-size="14.00">ADDXri</text>
<polyline fill="none" stroke="black" points="0,-46.5 160,-46.5 "/>
<text text-anchor="middle" x="40" y="-31.3" font-family="Times,serif" font-size="14.00">&#45;121.000</text>
<polyline fill="none" stroke="black" points="0,-23.5 80,-23.5 "/>
<text text-anchor="middle" x="40" y="-8.3" font-family="Times,serif" font-size="14.00">1</text>
<polyline fill="none" stroke="black" points="80,-0.5 80,-46.5 "/>
<text text-anchor="middle" x="120" y="-19.8" font-family="Times,serif" font-size="14.00">&#45;121.000</text>
</g>
<!-- 1705658124155819808&#45;&gt;2390968112299593837 -->
<g id="edge22" class="edge">
<title>1705658124155819808&#45;&gt;2390968112299593837</title>
<path fill="none" stroke="black" d="M140.1,-106.23C132.25,-97.06 123.66,-87.02 115.49,-77.47"/>
<polygon fill="black" stroke="black" points="117.91,-74.92 108.75,-69.6 112.59,-79.47 117.91,-74.92"/>
</g>
<!-- 2823449279948244800 -->
<g id="node24" class="node">
<title>2823449279948244800</title>
<path fill="none" stroke="black" d="M190,-0.5C190,-0.5 326,-0.5 326,-0.5 332,-0.5 338,-6.5 338,-12.5 338,-12.5 338,-57.5 338,-57.5 338,-63.5 332,-69.5 326,-69.5 326,-69.5 190,-69.5 190,-69.5 184,-69.5 178,-63.5 178,-57.5 178,-57.5 178,-12.5 178,-12.5 178,-6.5 184,-0.5 190,-0.5"/>
<text text-anchor="middle" x="258" y="-54.3" font-family="Times,serif" font-size="14.00">MOVi32imm</text>
<polyline fill="none" stroke="black" points="178,-46.5 338,-46.5 "/>
<text text-anchor="middle" x="218" y="-31.3" font-family="Times,serif" font-size="14.00">&#45;121.000</text>
<polyline fill="none" stroke="black" points="178,-23.5 258,-23.5 "/>
<text text-anchor="middle" x="218" y="-8.3" font-family="Times,serif" font-size="14.00">1</text>
<polyline fill="none" stroke="black" points="258,-0.5 258,-46.5 "/>
<text text-anchor="middle" x="298" y="-19.8" font-family="Times,serif" font-size="14.00">&#45;121.000</text>
</g>
<!-- &#45;5307234624112361439&#45;&gt;2823449279948244800 -->
<g id="edge23" class="edge">
<title>&#45;5307234624112361439&#45;&gt;2823449279948244800</title>
<path fill="none" stroke="black" d="M378.21,-106.23C361.09,-96.23 342.21,-85.2 324.59,-74.91"/>
<polygon fill="black" stroke="black" points="325.9,-71.62 315.5,-69.6 322.37,-77.66 325.9,-71.62"/>
</g>
<!-- 4990856565316775416 -->
<g id="node25" class="node">
<title>4990856565316775416</title>
<path fill="none" stroke="black" d="M368,-0.5C368,-0.5 504,-0.5 504,-0.5 510,-0.5 516,-6.5 516,-12.5 516,-12.5 516,-57.5 516,-57.5 516,-63.5 510,-69.5 504,-69.5 504,-69.5 368,-69.5 368,-69.5 362,-69.5 356,-63.5 356,-57.5 356,-57.5 356,-12.5 356,-12.5 356,-6.5 362,-0.5 368,-0.5"/>
<text text-anchor="middle" x="436" y="-54.3" font-family="Times,serif" font-size="14.00">ADDXri</text>
<polyline fill="none" stroke="black" points="356,-46.5 516,-46.5 "/>
<text text-anchor="middle" x="396" y="-31.3" font-family="Times,serif" font-size="14.00">&#45;122.000</text>
<polyline fill="none" stroke="black" points="356,-23.5 436,-23.5 "/>
<text text-anchor="middle" x="396" y="-8.3" font-family="Times,serif" font-size="14.00">1</text>
<polyline fill="none" stroke="black" points="436,-0.5 436,-46.5 "/>
<text text-anchor="middle" x="476" y="-19.8" font-family="Times,serif" font-size="14.00">&#45;122.000</text>
</g>
<!-- &#45;5307234624112361439&#45;&gt;4990856565316775416 -->
<g id="edge24" class="edge">
<title>&#45;5307234624112361439&#45;&gt;4990856565316775416</title>
<path fill="none" stroke="black" d="M436,-106.23C436,-97.79 436,-88.62 436,-79.77"/>
<polygon fill="black" stroke="black" points="439.5,-79.6 436,-69.6 432.5,-79.6 439.5,-79.6"/>
</g>
<!-- 956382283633737301 -->
<g id="node26" class="node">
<title>956382283633737301</title>
<path fill="none" stroke="black" d="M546,-0.5C546,-0.5 682,-0.5 682,-0.5 688,-0.5 694,-6.5 694,-12.5 694,-12.5 694,-57.5 694,-57.5 694,-63.5 688,-69.5 682,-69.5 682,-69.5 546,-69.5 546,-69.5 540,-69.5 534,-63.5 534,-57.5 534,-57.5 534,-12.5 534,-12.5 534,-6.5 540,-0.5 546,-0.5"/>
<text text-anchor="middle" x="614" y="-54.3" font-family="Times,serif" font-size="14.00">ADDXri</text>
<polyline fill="none" stroke="black" points="534,-46.5 694,-46.5 "/>
<text text-anchor="middle" x="574" y="-31.3" font-family="Times,serif" font-size="14.00">&#45;131.000</text>
<polyline fill="none" stroke="black" points="534,-23.5 614,-23.5 "/>
<text text-anchor="middle" x="574" y="-8.3" font-family="Times,serif" font-size="14.00">1</text>
<polyline fill="none" stroke="black" points="614,-0.5 614,-46.5 "/>
<text text-anchor="middle" x="654" y="-19.8" font-family="Times,serif" font-size="14.00">&#45;131.000</text>
</g>
<!-- &#45;273246897603782898&#45;&gt;956382283633737301 -->
<g id="edge25" class="edge">
<title>&#45;273246897603782898&#45;&gt;956382283633737301</title>
<path fill="none" stroke="black" d="M614,-106.23C614,-97.79 614,-88.62 614,-79.77"/>
<polygon fill="black" stroke="black" points="617.5,-79.6 614,-69.6 610.5,-79.6 617.5,-79.6"/>
</g>
<!-- &#45;7012265403953197978 -->
<g id="node21" class="node">
<title>&#45;7012265403953197978</title>
<path fill="none" stroke="black" d="M724,-0.5C724,-0.5 860,-0.5 860,-0.5 866,-0.5 872,-6.5 872,-12.5 872,-12.5 872,-57.5 872,-57.5 872,-63.5 866,-69.5 860,-69.5 860,-69.5 724,-69.5 724,-69.5 718,-69.5 712,-63.5 712,-57.5 712,-57.5 712,-12.5 712,-12.5 712,-6.5 718,-0.5 724,-0.5"/>
<text text-anchor="middle" x="792" y="-54.3" font-family="Times,serif" font-size="14.00">MOVaddr</text>
<polyline fill="none" stroke="black" points="712,-46.5 872,-46.5 "/>
<text text-anchor="middle" x="752" y="-31.3" font-family="Times,serif" font-size="14.00">&#45;102.000</text>
<polyline fill="none" stroke="black" points="712,-23.5 792,-23.5 "/>
<text text-anchor="middle" x="752" y="-8.3" font-family="Times,serif" font-size="14.00">1</text>
<polyline fill="none" stroke="black" points="792,-0.5 792,-46.5 "/>
<text text-anchor="middle" x="832" y="-19.8" font-family="Times,serif" font-size="14.00">&#45;102.000</text>
</g>
<!-- &#45;6570449410455278172&#45;&gt;&#45;7012265403953197978 -->
<g id="edge20" class="edge">
<title>&#45;6570449410455278172&#45;&gt;&#45;7012265403953197978</title>
<path fill="none" stroke="black" d="M912.21,-106.23C895.09,-96.23 876.21,-85.2 858.59,-74.91"/>
<polygon fill="black" stroke="black" points="859.9,-71.62 849.5,-69.6 856.37,-77.66 859.9,-71.62"/>
</g>
<!-- &#45;6876224840248807138 -->
<g id="node22" class="node">
<title>&#45;6876224840248807138</title>
<path fill="none" stroke="black" d="M902,-0.5C902,-0.5 1038,-0.5 1038,-0.5 1044,-0.5 1050,-6.5 1050,-12.5 1050,-12.5 1050,-57.5 1050,-57.5 1050,-63.5 1044,-69.5 1038,-69.5 1038,-69.5 902,-69.5 902,-69.5 896,-69.5 890,-63.5 890,-57.5 890,-57.5 890,-12.5 890,-12.5 890,-6.5 896,-0.5 902,-0.5"/>
<text text-anchor="middle" x="970" y="-54.3" font-family="Times,serif" font-size="14.00">MOVi32imm</text>
<polyline fill="none" stroke="black" points="890,-46.5 1050,-46.5 "/>
<text text-anchor="middle" x="930" y="-31.3" font-family="Times,serif" font-size="14.00">&#45;131.000</text>
<polyline fill="none" stroke="black" points="890,-23.5 970,-23.5 "/>
<text text-anchor="middle" x="930" y="-8.3" font-family="Times,serif" font-size="14.00">1</text>
<polyline fill="none" stroke="black" points="970,-0.5 970,-46.5 "/>
<text text-anchor="middle" x="1010" y="-19.8" font-family="Times,serif" font-size="14.00">&#45;131.000</text>
</g>
<!-- &#45;6570449410455278172&#45;&gt;&#45;6876224840248807138 -->
<g id="edge21" class="edge">
<title>&#45;6570449410455278172&#45;&gt;&#45;6876224840248807138</title>
<path fill="none" stroke="black" d="M970,-106.23C970,-97.79 970,-88.62 970,-79.77"/>
<polygon fill="black" stroke="black" points="973.5,-79.6 970,-69.6 966.5,-79.6 973.5,-79.6"/>
</g>
<!-- &#45;7964731889766730868 -->
<g id="node28" class="node">
<title>&#45;7964731889766730868</title>
<path fill="none" stroke="black" d="M1080,-0.5C1080,-0.5 1216,-0.5 1216,-0.5 1222,-0.5 1228,-6.5 1228,-12.5 1228,-12.5 1228,-57.5 1228,-57.5 1228,-63.5 1222,-69.5 1216,-69.5 1216,-69.5 1080,-69.5 1080,-69.5 1074,-69.5 1068,-63.5 1068,-57.5 1068,-57.5 1068,-12.5 1068,-12.5 1068,-6.5 1074,-0.5 1080,-0.5"/>
<text text-anchor="middle" x="1148" y="-54.3" font-family="Times,serif" font-size="14.00">MOVi32imm</text>
<polyline fill="none" stroke="black" points="1068,-46.5 1228,-46.5 "/>
<text text-anchor="middle" x="1108" y="-31.3" font-family="Times,serif" font-size="14.00">&#45;131.000</text>
<polyline fill="none" stroke="black" points="1068,-23.5 1148,-23.5 "/>
<text text-anchor="middle" x="1108" y="-8.3" font-family="Times,serif" font-size="14.00">1</text>
<polyline fill="none" stroke="black" points="1148,-0.5 1148,-46.5 "/>
<text text-anchor="middle" x="1188" y="-19.8" font-family="Times,serif" font-size="14.00">&#45;131.000</text>
</g>
<!-- &#45;7268304307815808949&#45;&gt;&#45;7964731889766730868 -->
<g id="edge27" class="edge">
<title>&#45;7268304307815808949&#45;&gt;&#45;7964731889766730868</title>
<path fill="none" stroke="black" d="M1148,-106.23C1148,-97.79 1148,-88.62 1148,-79.77"/>
<polygon fill="black" stroke="black" points="1151.5,-79.6 1148,-69.6 1144.5,-79.6 1151.5,-79.6"/>
</g>
<!-- 6356162344125327522 -->
<g id="node17" class="node">
<title>6356162344125327522</title>
<path fill="none" stroke="black" d="M1258,-0.5C1258,-0.5 1394,-0.5 1394,-0.5 1400,-0.5 1406,-6.5 1406,-12.5 1406,-12.5 1406,-57.5 1406,-57.5 1406,-63.5 1400,-69.5 1394,-69.5 1394,-69.5 1258,-69.5 1258,-69.5 1252,-69.5 1246,-63.5 1246,-57.5 1246,-57.5 1246,-12.5 1246,-12.5 1246,-6.5 1252,-0.5 1258,-0.5"/>
<text text-anchor="middle" x="1326" y="-54.3" font-family="Times,serif" font-size="14.00">MOVaddr</text>
<polyline fill="none" stroke="black" points="1246,-46.5 1406,-46.5 "/>
<text text-anchor="middle" x="1286" y="-31.3" font-family="Times,serif" font-size="14.00">&#45;121.000</text>
<polyline fill="none" stroke="black" points="1246,-23.5 1326,-23.5 "/>
<text text-anchor="middle" x="1286" y="-8.3" font-family="Times,serif" font-size="14.00">1</text>
<polyline fill="none" stroke="black" points="1326,-0.5 1326,-46.5 "/>
<text text-anchor="middle" x="1366" y="-19.8" font-family="Times,serif" font-size="14.00">&#45;121.000</text>
</g>
<!-- &#45;7864447616905464693&#45;&gt;6356162344125327522 -->
<g id="edge16" class="edge">
<title>&#45;7864447616905464693&#45;&gt;6356162344125327522</title>
<path fill="none" stroke="black" d="M1326,-106.23C1326,-97.79 1326,-88.62 1326,-79.77"/>
<polygon fill="black" stroke="black" points="1329.5,-79.6 1326,-69.6 1322.5,-79.6 1329.5,-79.6"/>
</g>
<!-- 4055129436671848355 -->
<g id="node18" class="node">
<title>4055129436671848355</title>
<path fill="none" stroke="black" d="M1436,-0.5C1436,-0.5 1572,-0.5 1572,-0.5 1578,-0.5 1584,-6.5 1584,-12.5 1584,-12.5 1584,-57.5 1584,-57.5 1584,-63.5 1578,-69.5 1572,-69.5 1572,-69.5 1436,-69.5 1436,-69.5 1430,-69.5 1424,-63.5 1424,-57.5 1424,-57.5 1424,-12.5 1424,-12.5 1424,-6.5 1430,-0.5 1436,-0.5"/>
<text text-anchor="middle" x="1504" y="-54.3" font-family="Times,serif" font-size="14.00">MOVi32imm</text>
<polyline fill="none" stroke="black" points="1424,-46.5 1584,-46.5 "/>
<text text-anchor="middle" x="1464" y="-31.3" font-family="Times,serif" font-size="14.00">&#45;121.000</text>
<polyline fill="none" stroke="black" points="1424,-23.5 1504,-23.5 "/>
<text text-anchor="middle" x="1464" y="-8.3" font-family="Times,serif" font-size="14.00">1</text>
<polyline fill="none" stroke="black" points="1504,-0.5 1504,-46.5 "/>
<text text-anchor="middle" x="1544" y="-19.8" font-family="Times,serif" font-size="14.00">&#45;121.000</text>
</g>
<!-- &#45;7864447616905464693&#45;&gt;4055129436671848355 -->
<g id="edge17" class="edge">
<title>&#45;7864447616905464693&#45;&gt;4055129436671848355</title>
<path fill="none" stroke="black" d="M1383.79,-106.23C1400.91,-96.23 1419.79,-85.2 1437.41,-74.91"/>
<polygon fill="black" stroke="black" points="1439.63,-77.66 1446.5,-69.6 1436.1,-71.62 1439.63,-77.66"/>
</g>
<!-- &#45;8017636353864629874 -->
<g id="node20" class="node">
<title>&#45;8017636353864629874</title>
<path fill="none" stroke="black" d="M1614,-0.5C1614,-0.5 1750,-0.5 1750,-0.5 1756,-0.5 1762,-6.5 1762,-12.5 1762,-12.5 1762,-57.5 1762,-57.5 1762,-63.5 1756,-69.5 1750,-69.5 1750,-69.5 1614,-69.5 1614,-69.5 1608,-69.5 1602,-63.5 1602,-57.5 1602,-57.5 1602,-12.5 1602,-12.5 1602,-6.5 1608,-0.5 1614,-0.5"/>
<text text-anchor="middle" x="1682" y="-54.3" font-family="Times,serif" font-size="14.00">ADDXri</text>
<polyline fill="none" stroke="black" points="1602,-46.5 1762,-46.5 "/>
<text text-anchor="middle" x="1642" y="-31.3" font-family="Times,serif" font-size="14.00">&#45;121.000</text>
<polyline fill="none" stroke="black" points="1602,-23.5 1682,-23.5 "/>
<text text-anchor="middle" x="1642" y="-8.3" font-family="Times,serif" font-size="14.00">1</text>
<polyline fill="none" stroke="black" points="1682,-0.5 1682,-46.5 "/>
<text text-anchor="middle" x="1722" y="-19.8" font-family="Times,serif" font-size="14.00">&#45;121.000</text>
</g>
<!-- 5278239948359105238&#45;&gt;&#45;8017636353864629874 -->
<g id="edge19" class="edge">
<title>5278239948359105238&#45;&gt;&#45;8017636353864629874</title>
<path fill="none" stroke="black" d="M1561.79,-106.23C1578.91,-96.23 1597.79,-85.2 1615.41,-74.91"/>
<polygon fill="black" stroke="black" points="1617.63,-77.66 1624.5,-69.6 1614.1,-71.62 1617.63,-77.66"/>
</g>
<!-- 6866988858877371883 -->
<g id="node19" class="node">
<title>6866988858877371883</title>
<path fill="none" stroke="black" d="M1792,-0.5C1792,-0.5 1928,-0.5 1928,-0.5 1934,-0.5 1940,-6.5 1940,-12.5 1940,-12.5 1940,-57.5 1940,-57.5 1940,-63.5 1934,-69.5 1928,-69.5 1928,-69.5 1792,-69.5 1792,-69.5 1786,-69.5 1780,-63.5 1780,-57.5 1780,-57.5 1780,-12.5 1780,-12.5 1780,-6.5 1786,-0.5 1792,-0.5"/>
<text text-anchor="middle" x="1860" y="-54.3" font-family="Times,serif" font-size="14.00">ADDXri</text>
<polyline fill="none" stroke="black" points="1780,-46.5 1940,-46.5 "/>
<text text-anchor="middle" x="1820" y="-31.3" font-family="Times,serif" font-size="14.00">&#45;131.000</text>
<polyline fill="none" stroke="black" points="1780,-23.5 1860,-23.5 "/>
<text text-anchor="middle" x="1820" y="-8.3" font-family="Times,serif" font-size="14.00">1</text>
<polyline fill="none" stroke="black" points="1860,-0.5 1860,-46.5 "/>
<text text-anchor="middle" x="1900" y="-19.8" font-family="Times,serif" font-size="14.00">&#45;131.000</text>
</g>
<!-- 3707574863202732406&#45;&gt;6866988858877371883 -->
<g id="edge18" class="edge">
<title>3707574863202732406&#45;&gt;6866988858877371883</title>
<path fill="none" stroke="black" d="M1739.79,-106.23C1756.91,-96.23 1775.79,-85.2 1793.41,-74.91"/>
<polygon fill="black" stroke="black" points="1795.63,-77.66 1802.5,-69.6 1792.1,-71.62 1795.63,-77.66"/>
</g>
<!-- 6106273128649030228 -->
<g id="node29" class="node">
<title>6106273128649030228</title>
<path fill="none" stroke="black" d="M1970,-0.5C1970,-0.5 2106,-0.5 2106,-0.5 2112,-0.5 2118,-6.5 2118,-12.5 2118,-12.5 2118,-57.5 2118,-57.5 2118,-63.5 2112,-69.5 2106,-69.5 2106,-69.5 1970,-69.5 1970,-69.5 1964,-69.5 1958,-63.5 1958,-57.5 1958,-57.5 1958,-12.5 1958,-12.5 1958,-6.5 1964,-0.5 1970,-0.5"/>
<text text-anchor="middle" x="2038" y="-54.3" font-family="Times,serif" font-size="14.00">MOVi32imm</text>
<polyline fill="none" stroke="black" points="1958,-46.5 2118,-46.5 "/>
<text text-anchor="middle" x="1998" y="-31.3" font-family="Times,serif" font-size="14.00">&#45;243.000</text>
<polyline fill="none" stroke="black" points="1958,-23.5 2038,-23.5 "/>
<text text-anchor="middle" x="1998" y="-8.3" font-family="Times,serif" font-size="14.00">2</text>
<polyline fill="none" stroke="black" points="2038,-0.5 2038,-46.5 "/>
<text text-anchor="middle" x="2078" y="-19.8" font-family="Times,serif" font-size="14.00">&#45;121.500</text>
</g>
<!-- 7609415792162797617&#45;&gt;6106273128649030228 -->
<g id="edge28" class="edge">
<title>7609415792162797617&#45;&gt;6106273128649030228</title>
<path fill="none" stroke="black" d="M2038,-106.23C2038,-97.79 2038,-88.62 2038,-79.77"/>
<polygon fill="black" stroke="black" points="2041.5,-79.6 2038,-69.6 2034.5,-79.6 2041.5,-79.6"/>
</g>
<!-- &#45;915410283698818291 -->
<g id="node27" class="node">
<title>&#45;915410283698818291</title>
<path fill="none" stroke="black" d="M2148,-0.5C2148,-0.5 2284,-0.5 2284,-0.5 2290,-0.5 2296,-6.5 2296,-12.5 2296,-12.5 2296,-57.5 2296,-57.5 2296,-63.5 2290,-69.5 2284,-69.5 2284,-69.5 2148,-69.5 2148,-69.5 2142,-69.5 2136,-63.5 2136,-57.5 2136,-57.5 2136,-12.5 2136,-12.5 2136,-6.5 2142,-0.5 2148,-0.5"/>
<text text-anchor="middle" x="2216" y="-54.3" font-family="Times,serif" font-size="14.00">ADDXri</text>
<polyline fill="none" stroke="black" points="2136,-46.5 2296,-46.5 "/>
<text text-anchor="middle" x="2176" y="-31.3" font-family="Times,serif" font-size="14.00">&#45;122.000</text>
<polyline fill="none" stroke="black" points="2136,-23.5 2216,-23.5 "/>
<text text-anchor="middle" x="2176" y="-8.3" font-family="Times,serif" font-size="14.00">1</text>
<polyline fill="none" stroke="black" points="2216,-0.5 2216,-46.5 "/>
<text text-anchor="middle" x="2256" y="-19.8" font-family="Times,serif" font-size="14.00">&#45;122.000</text>
</g>
<!-- &#45;1967388781641180441&#45;&gt;&#45;915410283698818291 -->
<g id="edge26" class="edge">
<title>&#45;1967388781641180441&#45;&gt;&#45;915410283698818291</title>
<path fill="none" stroke="black" d="M2216,-106.23C2216,-97.79 2216,-88.62 2216,-79.77"/>
<polygon fill="black" stroke="black" points="2219.5,-79.6 2216,-69.6 2212.5,-79.6 2219.5,-79.6"/>
</g>
</g>
</svg>
