<?xml version="1.0" encoding="UTF-8" standalone="no"?>
<!DOCTYPE svg PUBLIC "-//W3C//DTD SVG 1.1//EN"
 "http://www.w3.org/Graphics/SVG/1.1/DTD/svg11.dtd">
<!-- Generated by graphviz version 2.43.0 (0)
 -->
<!-- Title: MCTS Tree\nmcts/1.0/tree.svg Pages: 1 -->
<svg width="880pt" height="290pt"
 viewBox="0.00 0.00 880.00 290.00" xmlns="http://www.w3.org/2000/svg" xmlns:xlink="http://www.w3.org/1999/xlink">
<g id="graph0" class="graph" transform="scale(1 1) rotate(0) translate(4 286)">
<title>MCTS Tree\nmcts/1.0/tree.svg</title>
<polygon fill="white" stroke="transparent" points="-4,4 -4,-286 876,-286 876,4 -4,4"/>
<!-- 0 -->
<g id="node1" class="node">
<title>0</title>
<path fill="none" stroke="black" d="M279,-212.5C279,-212.5 415,-212.5 415,-212.5 421,-212.5 427,-218.5 427,-224.5 427,-224.5 427,-269.5 427,-269.5 427,-275.5 421,-281.5 415,-281.5 415,-281.5 279,-281.5 279,-281.5 273,-281.5 267,-275.5 267,-269.5 267,-269.5 267,-224.5 267,-224.5 267,-218.5 273,-212.5 279,-212.5"/>
<text text-anchor="middle" x="347" y="-266.3" font-family="Times,serif" font-size="14.00"> </text>
<polyline fill="none" stroke="black" points="267,-258.5 427,-258.5 "/>
<text text-anchor="middle" x="307" y="-243.3" font-family="Times,serif" font-size="14.00">&#45;597.000</text>
<polyline fill="none" stroke="black" points="267,-235.5 347,-235.5 "/>
<text text-anchor="middle" x="307" y="-220.3" font-family="Times,serif" font-size="14.00">5</text>
<polyline fill="none" stroke="black" points="347,-212.5 347,-258.5 "/>
<text text-anchor="middle" x="387" y="-231.8" font-family="Times,serif" font-size="14.00">&#45;119.400</text>
</g>
<!-- 1742232573412513985 -->
<g id="node2" class="node">
<title>1742232573412513985</title>
<path fill="none" stroke="black" d="M12,-106.5C12,-106.5 148,-106.5 148,-106.5 154,-106.5 160,-112.5 160,-118.5 160,-118.5 160,-163.5 160,-163.5 160,-169.5 154,-175.5 148,-175.5 148,-175.5 12,-175.5 12,-175.5 6,-175.5 0,-169.5 0,-163.5 0,-163.5 0,-118.5 0,-118.5 0,-112.5 6,-106.5 12,-106.5"/>
<text text-anchor="middle" x="80" y="-160.3" font-family="Times,serif" font-size="14.00">MOVi32imm</text>
<polyline fill="none" stroke="black" points="0,-152.5 160,-152.5 "/>
<text text-anchor="middle" x="40" y="-137.3" font-family="Times,serif" font-size="14.00">&#45;131.000</text>
<polyline fill="none" stroke="black" points="0,-129.5 80,-129.5 "/>
<text text-anchor="middle" x="40" y="-114.3" font-family="Times,serif" font-size="14.00">1</text>
<polyline fill="none" stroke="black" points="80,-106.5 80,-152.5 "/>
<text text-anchor="middle" x="120" y="-125.8" font-family="Times,serif" font-size="14.00">&#45;131.000</text>
</g>
<!-- 0&#45;&gt;1742232573412513985 -->
<g id="edge1" class="edge">
<title>0&#45;&gt;1742232573412513985</title>
<path fill="none" stroke="black" d="M266.89,-214.8C236.27,-202.87 201.15,-189.19 169.69,-176.94"/>
<polygon fill="black" stroke="black" points="170.64,-173.55 160.05,-173.18 168.1,-180.07 170.64,-173.55"/>
</g>
<!-- &#45;6445743193877339190 -->
<g id="node3" class="node">
<title>&#45;6445743193877339190</title>
<path fill="none" stroke="black" d="M190,-106.5C190,-106.5 326,-106.5 326,-106.5 332,-106.5 338,-112.5 338,-118.5 338,-118.5 338,-163.5 338,-163.5 338,-169.5 332,-175.5 326,-175.5 326,-175.5 190,-175.5 190,-175.5 184,-175.5 178,-169.5 178,-163.5 178,-163.5 178,-118.5 178,-118.5 178,-112.5 184,-106.5 190,-106.5"/>
<text text-anchor="middle" x="258" y="-160.3" font-family="Times,serif" font-size="14.00">UBFMXri</text>
<polyline fill="none" stroke="black" points="178,-152.5 338,-152.5 "/>
<text text-anchor="middle" x="218" y="-137.3" font-family="Times,serif" font-size="14.00">&#45;122.000</text>
<polyline fill="none" stroke="black" points="178,-129.5 258,-129.5 "/>
<text text-anchor="middle" x="218" y="-114.3" font-family="Times,serif" font-size="14.00">1</text>
<polyline fill="none" stroke="black" points="258,-106.5 258,-152.5 "/>
<text text-anchor="middle" x="298" y="-125.8" font-family="Times,serif" font-size="14.00">&#45;122.000</text>
</g>
<!-- 0&#45;&gt;&#45;6445743193877339190 -->
<g id="edge2" class="edge">
<title>0&#45;&gt;&#45;6445743193877339190</title>
<path fill="none" stroke="black" d="M318.1,-212.23C310.25,-203.06 301.66,-193.02 293.49,-183.47"/>
<polygon fill="black" stroke="black" points="295.91,-180.92 286.75,-175.6 290.59,-185.47 295.91,-180.92"/>
</g>
<!-- &#45;6174724648440356283 -->
<g id="node4" class="node">
<title>&#45;6174724648440356283</title>
<path fill="none" stroke="black" d="M368,-106.5C368,-106.5 504,-106.5 504,-106.5 510,-106.5 516,-112.5 516,-118.5 516,-118.5 516,-163.5 516,-163.5 516,-169.5 510,-175.5 504,-175.5 504,-175.5 368,-175.5 368,-175.5 362,-175.5 356,-169.5 356,-163.5 356,-163.5 356,-118.5 356,-118.5 356,-112.5 362,-106.5 368,-106.5"/>
<text text-anchor="middle" x="436" y="-160.3" font-family="Times,serif" font-size="14.00">ADDXri</text>
<polyline fill="none" stroke="black" points="356,-152.5 516,-152.5 "/>
<text text-anchor="middle" x="396" y="-137.3" font-family="Times,serif" font-size="14.00">&#45;223.000</text>
<polyline fill="none" stroke="black" points="356,-129.5 436,-129.5 "/>
<text text-anchor="middle" x="396" y="-114.3" font-family="Times,serif" font-size="14.00">2</text>
<polyline fill="none" stroke="black" points="436,-106.5 436,-152.5 "/>
<text text-anchor="middle" x="476" y="-125.8" font-family="Times,serif" font-size="14.00">&#45;111.500</text>
</g>
<!-- 0&#45;&gt;&#45;6174724648440356283 -->
<g id="edge3" class="edge">
<title>0&#45;&gt;&#45;6174724648440356283</title>
<path fill="none" stroke="black" d="M375.9,-212.23C383.75,-203.06 392.34,-193.02 400.51,-183.47"/>
<polygon fill="black" stroke="black" points="403.41,-185.47 407.25,-175.6 398.09,-180.92 403.41,-185.47"/>
</g>
<!-- &#45;6495074947447532330 -->
<g id="node5" class="node">
<title>&#45;6495074947447532330</title>
<path fill="none" stroke="black" d="M635,-106.5C635,-106.5 771,-106.5 771,-106.5 777,-106.5 783,-112.5 783,-118.5 783,-118.5 783,-163.5 783,-163.5 783,-169.5 777,-175.5 771,-175.5 771,-175.5 635,-175.5 635,-175.5 629,-175.5 623,-169.5 623,-163.5 623,-163.5 623,-118.5 623,-118.5 623,-112.5 629,-106.5 635,-106.5"/>
<text text-anchor="middle" x="703" y="-160.3" font-family="Times,serif" font-size="14.00">MOVaddr</text>
<polyline fill="none" stroke="black" points="623,-152.5 783,-152.5 "/>
<text text-anchor="middle" x="663" y="-137.3" font-family="Times,serif" font-size="14.00">&#45;121.000</text>
<polyline fill="none" stroke="black" points="623,-129.5 703,-129.5 "/>
<text text-anchor="middle" x="663" y="-114.3" font-family="Times,serif" font-size="14.00">1</text>
<polyline fill="none" stroke="black" points="703,-106.5 703,-152.5 "/>
<text text-anchor="middle" x="743" y="-125.8" font-family="Times,serif" font-size="14.00">&#45;121.000</text>
</g>
<!-- 0&#45;&gt;&#45;6495074947447532330 -->
<g id="edge4" class="edge">
<title>0&#45;&gt;&#45;6495074947447532330</title>
<path fill="none" stroke="black" d="M427.34,-222.53C482.59,-206.39 556.02,-184.94 613.2,-168.23"/>
<polygon fill="black" stroke="black" points="614.34,-171.55 622.96,-165.38 612.37,-164.83 614.34,-171.55"/>
</g>
<!-- 510178867899968364 -->
<g id="node9" class="node">
<title>510178867899968364</title>
<path fill="none" stroke="black" d="M12,-0.5C12,-0.5 148,-0.5 148,-0.5 154,-0.5 160,-6.5 160,-12.5 160,-12.5 160,-57.5 160,-57.5 160,-63.5 154,-69.5 148,-69.5 148,-69.5 12,-69.5 12,-69.5 6,-69.5 0,-63.5 0,-57.5 0,-57.5 0,-12.5 0,-12.5 0,-6.5 6,-0.5 12,-0.5"/>
<text text-anchor="middle" x="80" y="-54.3" font-family="Times,serif" font-size="14.00">ADDXri</text>
<polyline fill="none" stroke="black" points="0,-46.5 160,-46.5 "/>
<text text-anchor="middle" x="40" y="-31.3" font-family="Times,serif" font-size="14.00">&#45;131.000</text>
<polyline fill="none" stroke="black" points="0,-23.5 80,-23.5 "/>
<text text-anchor="middle" x="40" y="-8.3" font-family="Times,serif" font-size="14.00">1</text>
<polyline fill="none" stroke="black" points="80,-0.5 80,-46.5 "/>
<text text-anchor="middle" x="120" y="-19.8" font-family="Times,serif" font-size="14.00">&#45;131.000</text>
</g>
<!-- 1742232573412513985&#45;&gt;510178867899968364 -->
<g id="edge8" class="edge">
<title>1742232573412513985&#45;&gt;510178867899968364</title>
<path fill="none" stroke="black" d="M80,-106.23C80,-97.79 80,-88.62 80,-79.77"/>
<polygon fill="black" stroke="black" points="83.5,-79.6 80,-69.6 76.5,-79.6 83.5,-79.6"/>
</g>
<!-- 4230950918757771815 -->
<g id="node10" class="node">
<title>4230950918757771815</title>
<path fill="none" stroke="black" d="M190,-0.5C190,-0.5 326,-0.5 326,-0.5 332,-0.5 338,-6.5 338,-12.5 338,-12.5 338,-57.5 338,-57.5 338,-63.5 332,-69.5 326,-69.5 326,-69.5 190,-69.5 190,-69.5 184,-69.5 178,-63.5 178,-57.5 178,-57.5 178,-12.5 178,-12.5 178,-6.5 184,-0.5 190,-0.5"/>
<text text-anchor="middle" x="258" y="-54.3" font-family="Times,serif" font-size="14.00">ADDXri</text>
<polyline fill="none" stroke="black" points="178,-46.5 338,-46.5 "/>
<text text-anchor="middle" x="218" y="-31.3" font-family="Times,serif" font-size="14.00">&#45;122.000</text>
<polyline fill="none" stroke="black" points="178,-23.5 258,-23.5 "/>
<text text-anchor="middle" x="218" y="-8.3" font-family="Times,serif" font-size="14.00">1</text>
<polyline fill="none" stroke="black" points="258,-0.5 258,-46.5 "/>
<text text-anchor="middle" x="298" y="-19.8" font-family="Times,serif" font-size="14.00">&#45;122.000</text>
</g>
<!-- &#45;6445743193877339190&#45;&gt;4230950918757771815 -->
<g id="edge9" class="edge">
<title>&#45;6445743193877339190&#45;&gt;4230950918757771815</title>
<path fill="none" stroke="black" d="M258,-106.23C258,-97.79 258,-88.62 258,-79.77"/>
<polygon fill="black" stroke="black" points="261.5,-79.6 258,-69.6 254.5,-79.6 261.5,-79.6"/>
</g>
<!-- 3311358310778249136 -->
<g id="node7" class="node">
<title>3311358310778249136</title>
<path fill="none" stroke="black" d="M368,-0.5C368,-0.5 504,-0.5 504,-0.5 510,-0.5 516,-6.5 516,-12.5 516,-12.5 516,-57.5 516,-57.5 516,-63.5 510,-69.5 504,-69.5 504,-69.5 368,-69.5 368,-69.5 362,-69.5 356,-63.5 356,-57.5 356,-57.5 356,-12.5 356,-12.5 356,-6.5 362,-0.5 368,-0.5"/>
<text text-anchor="middle" x="436" y="-54.3" font-family="Times,serif" font-size="14.00">SUBSXri</text>
<polyline fill="none" stroke="black" points="356,-46.5 516,-46.5 "/>
<text text-anchor="middle" x="396" y="-31.3" font-family="Times,serif" font-size="14.00">&#45;121.000</text>
<polyline fill="none" stroke="black" points="356,-23.5 436,-23.5 "/>
<text text-anchor="middle" x="396" y="-8.3" font-family="Times,serif" font-size="14.00">1</text>
<polyline fill="none" stroke="black" points="436,-0.5 436,-46.5 "/>
<text text-anchor="middle" x="476" y="-19.8" font-family="Times,serif" font-size="14.00">&#45;121.000</text>
</g>
<!-- &#45;6174724648440356283&#45;&gt;3311358310778249136 -->
<g id="edge6" class="edge">
<title>&#45;6174724648440356283&#45;&gt;3311358310778249136</title>
<path fill="none" stroke="black" d="M436,-106.23C436,-97.79 436,-88.62 436,-79.77"/>
<polygon fill="black" stroke="black" points="439.5,-79.6 436,-69.6 432.5,-79.6 439.5,-79.6"/>
</g>
<!-- &#45;7992364101184765987 -->
<g id="node8" class="node">
<title>&#45;7992364101184765987</title>
<path fill="none" stroke="black" d="M546,-0.5C546,-0.5 682,-0.5 682,-0.5 688,-0.5 694,-6.5 694,-12.5 694,-12.5 694,-57.5 694,-57.5 694,-63.5 688,-69.5 682,-69.5 682,-69.5 546,-69.5 546,-69.5 540,-69.5 534,-63.5 534,-57.5 534,-57.5 534,-12.5 534,-12.5 534,-6.5 540,-0.5 546,-0.5"/>
<text text-anchor="middle" x="614" y="-54.3" font-family="Times,serif" font-size="14.00">ADDXri</text>
<polyline fill="none" stroke="black" points="534,-46.5 694,-46.5 "/>
<text text-anchor="middle" x="574" y="-31.3" font-family="Times,serif" font-size="14.00">&#45;102.000</text>
<polyline fill="none" stroke="black" points="534,-23.5 614,-23.5 "/>
<text text-anchor="middle" x="574" y="-8.3" font-family="Times,serif" font-size="14.00">1</text>
<polyline fill="none" stroke="black" points="614,-0.5 614,-46.5 "/>
<text text-anchor="middle" x="654" y="-19.8" font-family="Times,serif" font-size="14.00">&#45;102.000</text>
</g>
<!-- &#45;6174724648440356283&#45;&gt;&#45;7992364101184765987 -->
<g id="edge7" class="edge">
<title>&#45;6174724648440356283&#45;&gt;&#45;7992364101184765987</title>
<path fill="none" stroke="black" d="M493.79,-106.23C510.91,-96.23 529.79,-85.2 547.41,-74.91"/>
<polygon fill="black" stroke="black" points="549.63,-77.66 556.5,-69.6 546.1,-71.62 549.63,-77.66"/>
</g>
<!-- &#45;2317834259628911639 -->
<g id="node6" class="node">
<title>&#45;2317834259628911639</title>
<path fill="none" stroke="black" d="M724,-0.5C724,-0.5 860,-0.5 860,-0.5 866,-0.5 872,-6.5 872,-12.5 872,-12.5 872,-57.5 872,-57.5 872,-63.5 866,-69.5 860,-69.5 860,-69.5 724,-69.5 724,-69.5 718,-69.5 712,-63.5 712,-57.5 712,-57.5 712,-12.5 712,-12.5 712,-6.5 718,-0.5 724,-0.5"/>
<text text-anchor="middle" x="792" y="-54.3" font-family="Times,serif" font-size="14.00">UBFMXri</text>
<polyline fill="none" stroke="black" points="712,-46.5 872,-46.5 "/>
<text text-anchor="middle" x="752" y="-31.3" font-family="Times,serif" font-size="14.00">&#45;121.000</text>
<polyline fill="none" stroke="black" points="712,-23.5 792,-23.5 "/>
<text text-anchor="middle" x="752" y="-8.3" font-family="Times,serif" font-size="14.00">1</text>
<polyline fill="none" stroke="black" points="792,-0.5 792,-46.5 "/>
<text text-anchor="middle" x="832" y="-19.8" font-family="Times,serif" font-size="14.00">&#45;121.000</text>
</g>
<!-- &#45;6495074947447532330&#45;&gt;&#45;2317834259628911639 -->
<g id="edge5" class="edge">
<title>&#45;6495074947447532330&#45;&gt;&#45;2317834259628911639</title>
<path fill="none" stroke="black" d="M731.9,-106.23C739.75,-97.06 748.34,-87.02 756.51,-77.47"/>
<polygon fill="black" stroke="black" points="759.41,-79.47 763.25,-69.6 754.09,-74.92 759.41,-79.47"/>
</g>
</g>
</svg>
