<?xml version="1.0" encoding="UTF-8" standalone="no"?>
<!DOCTYPE svg PUBLIC "-//W3C//DTD SVG 1.1//EN"
 "http://www.w3.org/Graphics/SVG/1.1/DTD/svg11.dtd">
<!-- Generated by graphviz version 2.43.0 (0)
 -->
<!-- Title: MCTS Tree\nmcts/1.0/tree.svg Pages: 1 -->
<svg width="2660pt" height="502pt"
 viewBox="0.00 0.00 2660.00 502.00" xmlns="http://www.w3.org/2000/svg" xmlns:xlink="http://www.w3.org/1999/xlink">
<g id="graph0" class="graph" transform="scale(1 1) rotate(0) translate(4 498)">
<title>MCTS Tree\nmcts/1.0/tree.svg</title>
<polygon fill="white" stroke="transparent" points="-4,4 -4,-498 2656,-498 2656,4 -4,4"/>
<!-- 0 -->
<g id="node1" class="node">
<title>0</title>
<path fill="none" stroke="black" d="M1119.5,-424.5C1119.5,-424.5 1264.5,-424.5 1264.5,-424.5 1270.5,-424.5 1276.5,-430.5 1276.5,-436.5 1276.5,-436.5 1276.5,-481.5 1276.5,-481.5 1276.5,-487.5 1270.5,-493.5 1264.5,-493.5 1264.5,-493.5 1119.5,-493.5 1119.5,-493.5 1113.5,-493.5 1107.5,-487.5 1107.5,-481.5 1107.5,-481.5 1107.5,-436.5 1107.5,-436.5 1107.5,-430.5 1113.5,-424.5 1119.5,-424.5"/>
<text text-anchor="middle" x="1192" y="-478.3" font-family="Times,serif" font-size="14.00"> </text>
<polyline fill="none" stroke="black" points="1107.5,-470.5 1276.5,-470.5 "/>
<text text-anchor="middle" x="1152" y="-455.3" font-family="Times,serif" font-size="14.00">&#45;2203.000</text>
<polyline fill="none" stroke="black" points="1107.5,-447.5 1196.5,-447.5 "/>
<text text-anchor="middle" x="1152" y="-432.3" font-family="Times,serif" font-size="14.00">18</text>
<polyline fill="none" stroke="black" points="1196.5,-424.5 1196.5,-470.5 "/>
<text text-anchor="middle" x="1236.5" y="-443.8" font-family="Times,serif" font-size="14.00">&#45;122.389</text>
</g>
<!-- &#45;2406549840255573984 -->
<g id="node2" class="node">
<title>&#45;2406549840255573984</title>
<path fill="none" stroke="black" d="M457,-318.5C457,-318.5 593,-318.5 593,-318.5 599,-318.5 605,-324.5 605,-330.5 605,-330.5 605,-375.5 605,-375.5 605,-381.5 599,-387.5 593,-387.5 593,-387.5 457,-387.5 457,-387.5 451,-387.5 445,-381.5 445,-375.5 445,-375.5 445,-330.5 445,-330.5 445,-324.5 451,-318.5 457,-318.5"/>
<text text-anchor="middle" x="525" y="-372.3" font-family="Times,serif" font-size="14.00">UBFMXri</text>
<polyline fill="none" stroke="black" points="445,-364.5 605,-364.5 "/>
<text text-anchor="middle" x="485" y="-349.3" font-family="Times,serif" font-size="14.00">&#45;719.000</text>
<polyline fill="none" stroke="black" points="445,-341.5 525,-341.5 "/>
<text text-anchor="middle" x="485" y="-326.3" font-family="Times,serif" font-size="14.00">6</text>
<polyline fill="none" stroke="black" points="525,-318.5 525,-364.5 "/>
<text text-anchor="middle" x="565" y="-337.8" font-family="Times,serif" font-size="14.00">&#45;119.833</text>
</g>
<!-- 0&#45;&gt;&#45;2406549840255573984 -->
<g id="edge1" class="edge">
<title>0&#45;&gt;&#45;2406549840255573984</title>
<path fill="none" stroke="black" d="M1107.19,-444.78C980.96,-425.09 744.68,-388.25 615.33,-368.08"/>
<polygon fill="black" stroke="black" points="615.48,-364.57 605.06,-366.48 614.4,-371.48 615.48,-364.57"/>
</g>
<!-- &#45;7842787386998302294 -->
<g id="node3" class="node">
<title>&#45;7842787386998302294</title>
<path fill="none" stroke="black" d="M857,-318.5C857,-318.5 993,-318.5 993,-318.5 999,-318.5 1005,-324.5 1005,-330.5 1005,-330.5 1005,-375.5 1005,-375.5 1005,-381.5 999,-387.5 993,-387.5 993,-387.5 857,-387.5 857,-387.5 851,-387.5 845,-381.5 845,-375.5 845,-375.5 845,-330.5 845,-330.5 845,-324.5 851,-318.5 857,-318.5"/>
<text text-anchor="middle" x="925" y="-372.3" font-family="Times,serif" font-size="14.00">MOVi32imm</text>
<polyline fill="none" stroke="black" points="845,-364.5 1005,-364.5 "/>
<text text-anchor="middle" x="885" y="-349.3" font-family="Times,serif" font-size="14.00">&#45;131.000</text>
<polyline fill="none" stroke="black" points="845,-341.5 925,-341.5 "/>
<text text-anchor="middle" x="885" y="-326.3" font-family="Times,serif" font-size="14.00">1</text>
<polyline fill="none" stroke="black" points="925,-318.5 925,-364.5 "/>
<text text-anchor="middle" x="965" y="-337.8" font-family="Times,serif" font-size="14.00">&#45;131.000</text>
</g>
<!-- 0&#45;&gt;&#45;7842787386998302294 -->
<g id="edge2" class="edge">
<title>0&#45;&gt;&#45;7842787386998302294</title>
<path fill="none" stroke="black" d="M1107.15,-424.95C1077.67,-413.47 1044.51,-400.55 1014.65,-388.92"/>
<polygon fill="black" stroke="black" points="1015.67,-385.56 1005.08,-385.19 1013.13,-392.08 1015.67,-385.56"/>
</g>
<!-- 2454396071294172899 -->
<g id="node4" class="node">
<title>2454396071294172899</title>
<path fill="none" stroke="black" d="M1191,-318.5C1191,-318.5 1327,-318.5 1327,-318.5 1333,-318.5 1339,-324.5 1339,-330.5 1339,-330.5 1339,-375.5 1339,-375.5 1339,-381.5 1333,-387.5 1327,-387.5 1327,-387.5 1191,-387.5 1191,-387.5 1185,-387.5 1179,-381.5 1179,-375.5 1179,-375.5 1179,-330.5 1179,-330.5 1179,-324.5 1185,-318.5 1191,-318.5"/>
<text text-anchor="middle" x="1259" y="-372.3" font-family="Times,serif" font-size="14.00">ADDXri</text>
<polyline fill="none" stroke="black" points="1179,-364.5 1339,-364.5 "/>
<text text-anchor="middle" x="1219" y="-349.3" font-family="Times,serif" font-size="14.00">&#45;858.000</text>
<polyline fill="none" stroke="black" points="1179,-341.5 1259,-341.5 "/>
<text text-anchor="middle" x="1219" y="-326.3" font-family="Times,serif" font-size="14.00">7</text>
<polyline fill="none" stroke="black" points="1259,-318.5 1259,-364.5 "/>
<text text-anchor="middle" x="1299" y="-337.8" font-family="Times,serif" font-size="14.00">&#45;122.571</text>
</g>
<!-- 0&#45;&gt;2454396071294172899 -->
<g id="edge3" class="edge">
<title>0&#45;&gt;2454396071294172899</title>
<path fill="none" stroke="black" d="M1213.75,-424.23C1219.55,-415.24 1225.87,-405.42 1231.91,-396.04"/>
<polygon fill="black" stroke="black" points="1234.88,-397.9 1237.36,-387.6 1229,-394.11 1234.88,-397.9"/>
</g>
<!-- &#45;355321401259394337 -->
<g id="node5" class="node">
<title>&#45;355321401259394337</title>
<path fill="none" stroke="black" d="M2059,-318.5C2059,-318.5 2195,-318.5 2195,-318.5 2201,-318.5 2207,-324.5 2207,-330.5 2207,-330.5 2207,-375.5 2207,-375.5 2207,-381.5 2201,-387.5 2195,-387.5 2195,-387.5 2059,-387.5 2059,-387.5 2053,-387.5 2047,-381.5 2047,-375.5 2047,-375.5 2047,-330.5 2047,-330.5 2047,-324.5 2053,-318.5 2059,-318.5"/>
<text text-anchor="middle" x="2127" y="-372.3" font-family="Times,serif" font-size="14.00">MOVaddr</text>
<polyline fill="none" stroke="black" points="2047,-364.5 2207,-364.5 "/>
<text text-anchor="middle" x="2087" y="-349.3" font-family="Times,serif" font-size="14.00">&#45;495.000</text>
<polyline fill="none" stroke="black" points="2047,-341.5 2127,-341.5 "/>
<text text-anchor="middle" x="2087" y="-326.3" font-family="Times,serif" font-size="14.00">4</text>
<polyline fill="none" stroke="black" points="2127,-318.5 2127,-364.5 "/>
<text text-anchor="middle" x="2167" y="-337.8" font-family="Times,serif" font-size="14.00">&#45;123.750</text>
</g>
<!-- 0&#45;&gt;&#45;355321401259394337 -->
<g id="edge4" class="edge">
<title>0&#45;&gt;&#45;355321401259394337</title>
<path fill="none" stroke="black" d="M1276.62,-448.59C1452.55,-429.02 1856.36,-384.1 2036.9,-364.02"/>
<polygon fill="black" stroke="black" points="2037.35,-367.49 2046.9,-362.91 2036.57,-360.54 2037.35,-367.49"/>
</g>
<!-- &#45;5710804462884213815 -->
<g id="node15" class="node">
<title>&#45;5710804462884213815</title>
<path fill="none" stroke="black" d="M190,-212.5C190,-212.5 326,-212.5 326,-212.5 332,-212.5 338,-218.5 338,-224.5 338,-224.5 338,-269.5 338,-269.5 338,-275.5 332,-281.5 326,-281.5 326,-281.5 190,-281.5 190,-281.5 184,-281.5 178,-275.5 178,-269.5 178,-269.5 178,-224.5 178,-224.5 178,-218.5 184,-212.5 190,-212.5"/>
<text text-anchor="middle" x="258" y="-266.3" font-family="Times,serif" font-size="14.00">MOVaddr</text>
<polyline fill="none" stroke="black" points="178,-258.5 338,-258.5 "/>
<text text-anchor="middle" x="218" y="-243.3" font-family="Times,serif" font-size="14.00">&#45;354.000</text>
<polyline fill="none" stroke="black" points="178,-235.5 258,-235.5 "/>
<text text-anchor="middle" x="218" y="-220.3" font-family="Times,serif" font-size="14.00">3</text>
<polyline fill="none" stroke="black" points="258,-212.5 258,-258.5 "/>
<text text-anchor="middle" x="298" y="-231.8" font-family="Times,serif" font-size="14.00">&#45;118.000</text>
</g>
<!-- &#45;2406549840255573984&#45;&gt;&#45;5710804462884213815 -->
<g id="edge14" class="edge">
<title>&#45;2406549840255573984&#45;&gt;&#45;5710804462884213815</title>
<path fill="none" stroke="black" d="M444.89,-320.8C414.27,-308.87 379.15,-295.19 347.69,-282.94"/>
<polygon fill="black" stroke="black" points="348.64,-279.55 338.05,-279.18 346.1,-286.07 348.64,-279.55"/>
</g>
<!-- &#45;7276268393486431013 -->
<g id="node16" class="node">
<title>&#45;7276268393486431013</title>
<path fill="none" stroke="black" d="M368,-212.5C368,-212.5 504,-212.5 504,-212.5 510,-212.5 516,-218.5 516,-224.5 516,-224.5 516,-269.5 516,-269.5 516,-275.5 510,-281.5 504,-281.5 504,-281.5 368,-281.5 368,-281.5 362,-281.5 356,-275.5 356,-269.5 356,-269.5 356,-224.5 356,-224.5 356,-218.5 362,-212.5 368,-212.5"/>
<text text-anchor="middle" x="436" y="-266.3" font-family="Times,serif" font-size="14.00">MOVi32imm</text>
<polyline fill="none" stroke="black" points="356,-258.5 516,-258.5 "/>
<text text-anchor="middle" x="396" y="-243.3" font-family="Times,serif" font-size="14.00">&#45;122.000</text>
<polyline fill="none" stroke="black" points="356,-235.5 436,-235.5 "/>
<text text-anchor="middle" x="396" y="-220.3" font-family="Times,serif" font-size="14.00">1</text>
<polyline fill="none" stroke="black" points="436,-212.5 436,-258.5 "/>
<text text-anchor="middle" x="476" y="-231.8" font-family="Times,serif" font-size="14.00">&#45;122.000</text>
</g>
<!-- &#45;2406549840255573984&#45;&gt;&#45;7276268393486431013 -->
<g id="edge15" class="edge">
<title>&#45;2406549840255573984&#45;&gt;&#45;7276268393486431013</title>
<path fill="none" stroke="black" d="M496.1,-318.23C488.25,-309.06 479.66,-299.02 471.49,-289.47"/>
<polygon fill="black" stroke="black" points="473.91,-286.92 464.75,-281.6 468.59,-291.47 473.91,-286.92"/>
</g>
<!-- &#45;86764044872202779 -->
<g id="node17" class="node">
<title>&#45;86764044872202779</title>
<path fill="none" stroke="black" d="M546,-212.5C546,-212.5 682,-212.5 682,-212.5 688,-212.5 694,-218.5 694,-224.5 694,-224.5 694,-269.5 694,-269.5 694,-275.5 688,-281.5 682,-281.5 682,-281.5 546,-281.5 546,-281.5 540,-281.5 534,-275.5 534,-269.5 534,-269.5 534,-224.5 534,-224.5 534,-218.5 540,-212.5 546,-212.5"/>
<text text-anchor="middle" x="614" y="-266.3" font-family="Times,serif" font-size="14.00">ADDXri</text>
<polyline fill="none" stroke="black" points="534,-258.5 694,-258.5 "/>
<text text-anchor="middle" x="574" y="-243.3" font-family="Times,serif" font-size="14.00">&#45;243.000</text>
<polyline fill="none" stroke="black" points="534,-235.5 614,-235.5 "/>
<text text-anchor="middle" x="574" y="-220.3" font-family="Times,serif" font-size="14.00">2</text>
<polyline fill="none" stroke="black" points="614,-212.5 614,-258.5 "/>
<text text-anchor="middle" x="654" y="-231.8" font-family="Times,serif" font-size="14.00">&#45;121.500</text>
</g>
<!-- &#45;2406549840255573984&#45;&gt;&#45;86764044872202779 -->
<g id="edge16" class="edge">
<title>&#45;2406549840255573984&#45;&gt;&#45;86764044872202779</title>
<path fill="none" stroke="black" d="M553.9,-318.23C561.75,-309.06 570.34,-299.02 578.51,-289.47"/>
<polygon fill="black" stroke="black" points="581.41,-291.47 585.25,-281.6 576.09,-286.92 581.41,-291.47"/>
</g>
<!-- 3994885347335708114 -->
<g id="node14" class="node">
<title>3994885347335708114</title>
<path fill="none" stroke="black" d="M724,-212.5C724,-212.5 860,-212.5 860,-212.5 866,-212.5 872,-218.5 872,-224.5 872,-224.5 872,-269.5 872,-269.5 872,-275.5 866,-281.5 860,-281.5 860,-281.5 724,-281.5 724,-281.5 718,-281.5 712,-275.5 712,-269.5 712,-269.5 712,-224.5 712,-224.5 712,-218.5 718,-212.5 724,-212.5"/>
<text text-anchor="middle" x="792" y="-266.3" font-family="Times,serif" font-size="14.00">ADDXri</text>
<polyline fill="none" stroke="black" points="712,-258.5 872,-258.5 "/>
<text text-anchor="middle" x="752" y="-243.3" font-family="Times,serif" font-size="14.00">&#45;131.000</text>
<polyline fill="none" stroke="black" points="712,-235.5 792,-235.5 "/>
<text text-anchor="middle" x="752" y="-220.3" font-family="Times,serif" font-size="14.00">1</text>
<polyline fill="none" stroke="black" points="792,-212.5 792,-258.5 "/>
<text text-anchor="middle" x="832" y="-231.8" font-family="Times,serif" font-size="14.00">&#45;131.000</text>
</g>
<!-- &#45;7842787386998302294&#45;&gt;3994885347335708114 -->
<g id="edge13" class="edge">
<title>&#45;7842787386998302294&#45;&gt;3994885347335708114</title>
<path fill="none" stroke="black" d="M881.82,-318.23C869.38,-308.51 855.7,-297.81 842.84,-287.76"/>
<polygon fill="black" stroke="black" points="845,-285 834.96,-281.6 840.69,-290.51 845,-285"/>
</g>
<!-- 7349036328616641500 -->
<g id="node9" class="node">
<title>7349036328616641500</title>
<path fill="none" stroke="black" d="M902,-212.5C902,-212.5 1038,-212.5 1038,-212.5 1044,-212.5 1050,-218.5 1050,-224.5 1050,-224.5 1050,-269.5 1050,-269.5 1050,-275.5 1044,-281.5 1038,-281.5 1038,-281.5 902,-281.5 902,-281.5 896,-281.5 890,-275.5 890,-269.5 890,-269.5 890,-224.5 890,-224.5 890,-218.5 896,-212.5 902,-212.5"/>
<text text-anchor="middle" x="970" y="-266.3" font-family="Times,serif" font-size="14.00">MOVaddr</text>
<polyline fill="none" stroke="black" points="890,-258.5 1050,-258.5 "/>
<text text-anchor="middle" x="930" y="-243.3" font-family="Times,serif" font-size="14.00">&#45;131.000</text>
<polyline fill="none" stroke="black" points="890,-235.5 970,-235.5 "/>
<text text-anchor="middle" x="930" y="-220.3" font-family="Times,serif" font-size="14.00">1</text>
<polyline fill="none" stroke="black" points="970,-212.5 970,-258.5 "/>
<text text-anchor="middle" x="1010" y="-231.8" font-family="Times,serif" font-size="14.00">&#45;131.000</text>
</g>
<!-- 2454396071294172899&#45;&gt;7349036328616641500 -->
<g id="edge8" class="edge">
<title>2454396071294172899&#45;&gt;7349036328616641500</title>
<path fill="none" stroke="black" d="M1178.53,-324.42C1144.39,-312.58 1103.99,-298.38 1059.56,-282.18"/>
<polygon fill="black" stroke="black" points="1060.61,-278.83 1050.01,-278.69 1058.2,-285.41 1060.61,-278.83"/>
</g>
<!-- &#45;6140617986217033935 -->
<g id="node10" class="node">
<title>&#45;6140617986217033935</title>
<path fill="none" stroke="black" d="M1080,-212.5C1080,-212.5 1216,-212.5 1216,-212.5 1222,-212.5 1228,-218.5 1228,-224.5 1228,-224.5 1228,-269.5 1228,-269.5 1228,-275.5 1222,-281.5 1216,-281.5 1216,-281.5 1080,-281.5 1080,-281.5 1074,-281.5 1068,-275.5 1068,-269.5 1068,-269.5 1068,-224.5 1068,-224.5 1068,-218.5 1074,-212.5 1080,-212.5"/>
<text text-anchor="middle" x="1148" y="-266.3" font-family="Times,serif" font-size="14.00">MOVi32imm</text>
<polyline fill="none" stroke="black" points="1068,-258.5 1228,-258.5 "/>
<text text-anchor="middle" x="1108" y="-243.3" font-family="Times,serif" font-size="14.00">&#45;131.000</text>
<polyline fill="none" stroke="black" points="1068,-235.5 1148,-235.5 "/>
<text text-anchor="middle" x="1108" y="-220.3" font-family="Times,serif" font-size="14.00">1</text>
<polyline fill="none" stroke="black" points="1148,-212.5 1148,-258.5 "/>
<text text-anchor="middle" x="1188" y="-231.8" font-family="Times,serif" font-size="14.00">&#45;131.000</text>
</g>
<!-- 2454396071294172899&#45;&gt;&#45;6140617986217033935 -->
<g id="edge9" class="edge">
<title>2454396071294172899&#45;&gt;&#45;6140617986217033935</title>
<path fill="none" stroke="black" d="M1222.96,-318.23C1212.88,-308.78 1201.81,-298.41 1191.35,-288.61"/>
<polygon fill="black" stroke="black" points="1193.55,-285.88 1183.86,-281.6 1188.76,-290.99 1193.55,-285.88"/>
</g>
<!-- &#45;1883437138245635692 -->
<g id="node11" class="node">
<title>&#45;1883437138245635692</title>
<path fill="none" stroke="black" d="M1258,-212.5C1258,-212.5 1394,-212.5 1394,-212.5 1400,-212.5 1406,-218.5 1406,-224.5 1406,-224.5 1406,-269.5 1406,-269.5 1406,-275.5 1400,-281.5 1394,-281.5 1394,-281.5 1258,-281.5 1258,-281.5 1252,-281.5 1246,-275.5 1246,-269.5 1246,-269.5 1246,-224.5 1246,-224.5 1246,-218.5 1252,-212.5 1258,-212.5"/>
<text text-anchor="middle" x="1326" y="-266.3" font-family="Times,serif" font-size="14.00">SUBSXri</text>
<polyline fill="none" stroke="black" points="1246,-258.5 1406,-258.5 "/>
<text text-anchor="middle" x="1286" y="-243.3" font-family="Times,serif" font-size="14.00">&#45;242.000</text>
<polyline fill="none" stroke="black" points="1246,-235.5 1326,-235.5 "/>
<text text-anchor="middle" x="1286" y="-220.3" font-family="Times,serif" font-size="14.00">2</text>
<polyline fill="none" stroke="black" points="1326,-212.5 1326,-258.5 "/>
<text text-anchor="middle" x="1366" y="-231.8" font-family="Times,serif" font-size="14.00">&#45;121.000</text>
</g>
<!-- 2454396071294172899&#45;&gt;&#45;1883437138245635692 -->
<g id="edge10" class="edge">
<title>2454396071294172899&#45;&gt;&#45;1883437138245635692</title>
<path fill="none" stroke="black" d="M1280.75,-318.23C1286.55,-309.24 1292.87,-299.42 1298.91,-290.04"/>
<polygon fill="black" stroke="black" points="1301.88,-291.9 1304.36,-281.6 1296,-288.11 1301.88,-291.9"/>
</g>
<!-- &#45;6332268149803408004 -->
<g id="node12" class="node">
<title>&#45;6332268149803408004</title>
<path fill="none" stroke="black" d="M1436,-212.5C1436,-212.5 1572,-212.5 1572,-212.5 1578,-212.5 1584,-218.5 1584,-224.5 1584,-224.5 1584,-269.5 1584,-269.5 1584,-275.5 1578,-281.5 1572,-281.5 1572,-281.5 1436,-281.5 1436,-281.5 1430,-281.5 1424,-275.5 1424,-269.5 1424,-269.5 1424,-224.5 1424,-224.5 1424,-218.5 1430,-212.5 1436,-212.5"/>
<text text-anchor="middle" x="1504" y="-266.3" font-family="Times,serif" font-size="14.00">UBFMXri</text>
<polyline fill="none" stroke="black" points="1424,-258.5 1584,-258.5 "/>
<text text-anchor="middle" x="1464" y="-243.3" font-family="Times,serif" font-size="14.00">&#45;121.000</text>
<polyline fill="none" stroke="black" points="1424,-235.5 1504,-235.5 "/>
<text text-anchor="middle" x="1464" y="-220.3" font-family="Times,serif" font-size="14.00">1</text>
<polyline fill="none" stroke="black" points="1504,-212.5 1504,-258.5 "/>
<text text-anchor="middle" x="1544" y="-231.8" font-family="Times,serif" font-size="14.00">&#45;121.000</text>
</g>
<!-- 2454396071294172899&#45;&gt;&#45;6332268149803408004 -->
<g id="edge11" class="edge">
<title>2454396071294172899&#45;&gt;&#45;6332268149803408004</title>
<path fill="none" stroke="black" d="M1338.21,-318.38C1362.98,-307.86 1390.47,-296.19 1415.83,-285.43"/>
<polygon fill="black" stroke="black" points="1417.23,-288.64 1425.07,-281.51 1414.49,-282.19 1417.23,-288.64"/>
</g>
<!-- 4090019634489157213 -->
<g id="node13" class="node">
<title>4090019634489157213</title>
<path fill="none" stroke="black" d="M1614,-212.5C1614,-212.5 1750,-212.5 1750,-212.5 1756,-212.5 1762,-218.5 1762,-224.5 1762,-224.5 1762,-269.5 1762,-269.5 1762,-275.5 1756,-281.5 1750,-281.5 1750,-281.5 1614,-281.5 1614,-281.5 1608,-281.5 1602,-275.5 1602,-269.5 1602,-269.5 1602,-224.5 1602,-224.5 1602,-218.5 1608,-212.5 1614,-212.5"/>
<text text-anchor="middle" x="1682" y="-266.3" font-family="Times,serif" font-size="14.00">ADDXri</text>
<polyline fill="none" stroke="black" points="1602,-258.5 1762,-258.5 "/>
<text text-anchor="middle" x="1642" y="-243.3" font-family="Times,serif" font-size="14.00">&#45;233.000</text>
<polyline fill="none" stroke="black" points="1602,-235.5 1682,-235.5 "/>
<text text-anchor="middle" x="1642" y="-220.3" font-family="Times,serif" font-size="14.00">2</text>
<polyline fill="none" stroke="black" points="1682,-212.5 1682,-258.5 "/>
<text text-anchor="middle" x="1722" y="-231.8" font-family="Times,serif" font-size="14.00">&#45;116.500</text>
</g>
<!-- 2454396071294172899&#45;&gt;4090019634489157213 -->
<g id="edge12" class="edge">
<title>2454396071294172899&#45;&gt;4090019634489157213</title>
<path fill="none" stroke="black" d="M1339.17,-338.88C1405.05,-327.25 1500.78,-308.43 1592,-282.16"/>
<polygon fill="black" stroke="black" points="1593.04,-285.5 1601.67,-279.34 1591.09,-278.78 1593.04,-285.5"/>
</g>
<!-- &#45;2744151942449446614 -->
<g id="node6" class="node">
<title>&#45;2744151942449446614</title>
<path fill="none" stroke="black" d="M1970,-212.5C1970,-212.5 2106,-212.5 2106,-212.5 2112,-212.5 2118,-218.5 2118,-224.5 2118,-224.5 2118,-269.5 2118,-269.5 2118,-275.5 2112,-281.5 2106,-281.5 2106,-281.5 1970,-281.5 1970,-281.5 1964,-281.5 1958,-275.5 1958,-269.5 1958,-269.5 1958,-224.5 1958,-224.5 1958,-218.5 1964,-212.5 1970,-212.5"/>
<text text-anchor="middle" x="2038" y="-266.3" font-family="Times,serif" font-size="14.00">ADDXri</text>
<polyline fill="none" stroke="black" points="1958,-258.5 2118,-258.5 "/>
<text text-anchor="middle" x="1998" y="-243.3" font-family="Times,serif" font-size="14.00">&#45;131.000</text>
<polyline fill="none" stroke="black" points="1958,-235.5 2038,-235.5 "/>
<text text-anchor="middle" x="1998" y="-220.3" font-family="Times,serif" font-size="14.00">1</text>
<polyline fill="none" stroke="black" points="2038,-212.5 2038,-258.5 "/>
<text text-anchor="middle" x="2078" y="-231.8" font-family="Times,serif" font-size="14.00">&#45;131.000</text>
</g>
<!-- &#45;355321401259394337&#45;&gt;&#45;2744151942449446614 -->
<g id="edge5" class="edge">
<title>&#45;355321401259394337&#45;&gt;&#45;2744151942449446614</title>
<path fill="none" stroke="black" d="M2098.1,-318.23C2090.25,-309.06 2081.66,-299.02 2073.49,-289.47"/>
<polygon fill="black" stroke="black" points="2075.91,-286.92 2066.75,-281.6 2070.59,-291.47 2075.91,-286.92"/>
</g>
<!-- &#45;5821405245560033645 -->
<g id="node7" class="node">
<title>&#45;5821405245560033645</title>
<path fill="none" stroke="black" d="M2148,-212.5C2148,-212.5 2284,-212.5 2284,-212.5 2290,-212.5 2296,-218.5 2296,-224.5 2296,-224.5 2296,-269.5 2296,-269.5 2296,-275.5 2290,-281.5 2284,-281.5 2284,-281.5 2148,-281.5 2148,-281.5 2142,-281.5 2136,-275.5 2136,-269.5 2136,-269.5 2136,-224.5 2136,-224.5 2136,-218.5 2142,-212.5 2148,-212.5"/>
<text text-anchor="middle" x="2216" y="-266.3" font-family="Times,serif" font-size="14.00">UBFMXri</text>
<polyline fill="none" stroke="black" points="2136,-258.5 2296,-258.5 "/>
<text text-anchor="middle" x="2176" y="-243.3" font-family="Times,serif" font-size="14.00">&#45;243.000</text>
<polyline fill="none" stroke="black" points="2136,-235.5 2216,-235.5 "/>
<text text-anchor="middle" x="2176" y="-220.3" font-family="Times,serif" font-size="14.00">2</text>
<polyline fill="none" stroke="black" points="2216,-212.5 2216,-258.5 "/>
<text text-anchor="middle" x="2256" y="-231.8" font-family="Times,serif" font-size="14.00">&#45;121.500</text>
</g>
<!-- &#45;355321401259394337&#45;&gt;&#45;5821405245560033645 -->
<g id="edge6" class="edge">
<title>&#45;355321401259394337&#45;&gt;&#45;5821405245560033645</title>
<path fill="none" stroke="black" d="M2155.9,-318.23C2163.75,-309.06 2172.34,-299.02 2180.51,-289.47"/>
<polygon fill="black" stroke="black" points="2183.41,-291.47 2187.25,-281.6 2178.09,-286.92 2183.41,-291.47"/>
</g>
<!-- &#45;4437488288896606859 -->
<g id="node8" class="node">
<title>&#45;4437488288896606859</title>
<path fill="none" stroke="black" d="M2415,-212.5C2415,-212.5 2551,-212.5 2551,-212.5 2557,-212.5 2563,-218.5 2563,-224.5 2563,-224.5 2563,-269.5 2563,-269.5 2563,-275.5 2557,-281.5 2551,-281.5 2551,-281.5 2415,-281.5 2415,-281.5 2409,-281.5 2403,-275.5 2403,-269.5 2403,-269.5 2403,-224.5 2403,-224.5 2403,-218.5 2409,-212.5 2415,-212.5"/>
<text text-anchor="middle" x="2483" y="-266.3" font-family="Times,serif" font-size="14.00">MOVi32imm</text>
<polyline fill="none" stroke="black" points="2403,-258.5 2563,-258.5 "/>
<text text-anchor="middle" x="2443" y="-243.3" font-family="Times,serif" font-size="14.00">&#45;121.000</text>
<polyline fill="none" stroke="black" points="2403,-235.5 2483,-235.5 "/>
<text text-anchor="middle" x="2443" y="-220.3" font-family="Times,serif" font-size="14.00">1</text>
<polyline fill="none" stroke="black" points="2483,-212.5 2483,-258.5 "/>
<text text-anchor="middle" x="2523" y="-231.8" font-family="Times,serif" font-size="14.00">&#45;121.000</text>
</g>
<!-- &#45;355321401259394337&#45;&gt;&#45;4437488288896606859 -->
<g id="edge7" class="edge">
<title>&#45;355321401259394337&#45;&gt;&#45;4437488288896606859</title>
<path fill="none" stroke="black" d="M2207.34,-328.53C2262.59,-312.39 2336.02,-290.94 2393.2,-274.23"/>
<polygon fill="black" stroke="black" points="2394.34,-277.55 2402.96,-271.38 2392.37,-270.83 2394.34,-277.55"/>
</g>
<!-- &#45;6930073428613274500 -->
<g id="node27" class="node">
<title>&#45;6930073428613274500</title>
<path fill="none" stroke="black" d="M1970,-106.5C1970,-106.5 2106,-106.5 2106,-106.5 2112,-106.5 2118,-112.5 2118,-118.5 2118,-118.5 2118,-163.5 2118,-163.5 2118,-169.5 2112,-175.5 2106,-175.5 2106,-175.5 1970,-175.5 1970,-175.5 1964,-175.5 1958,-169.5 1958,-163.5 1958,-163.5 1958,-118.5 1958,-118.5 1958,-112.5 1964,-106.5 1970,-106.5"/>
<text text-anchor="middle" x="2038" y="-160.3" font-family="Times,serif" font-size="14.00">ADDXri</text>
<polyline fill="none" stroke="black" points="1958,-152.5 2118,-152.5 "/>
<text text-anchor="middle" x="1998" y="-137.3" font-family="Times,serif" font-size="14.00">&#45;131.000</text>
<polyline fill="none" stroke="black" points="1958,-129.5 2038,-129.5 "/>
<text text-anchor="middle" x="1998" y="-114.3" font-family="Times,serif" font-size="14.00">1</text>
<polyline fill="none" stroke="black" points="2038,-106.5 2038,-152.5 "/>
<text text-anchor="middle" x="2078" y="-125.8" font-family="Times,serif" font-size="14.00">&#45;131.000</text>
</g>
<!-- &#45;2744151942449446614&#45;&gt;&#45;6930073428613274500 -->
<g id="edge26" class="edge">
<title>&#45;2744151942449446614&#45;&gt;&#45;6930073428613274500</title>
<path fill="none" stroke="black" d="M2038,-212.23C2038,-203.79 2038,-194.62 2038,-185.77"/>
<polygon fill="black" stroke="black" points="2041.5,-185.6 2038,-175.6 2034.5,-185.6 2041.5,-185.6"/>
</g>
<!-- 6508506378496650945 -->
<g id="node25" class="node">
<title>6508506378496650945</title>
<path fill="none" stroke="black" d="M2148,-106.5C2148,-106.5 2284,-106.5 2284,-106.5 2290,-106.5 2296,-112.5 2296,-118.5 2296,-118.5 2296,-163.5 2296,-163.5 2296,-169.5 2290,-175.5 2284,-175.5 2284,-175.5 2148,-175.5 2148,-175.5 2142,-175.5 2136,-169.5 2136,-163.5 2136,-163.5 2136,-118.5 2136,-118.5 2136,-112.5 2142,-106.5 2148,-106.5"/>
<text text-anchor="middle" x="2216" y="-160.3" font-family="Times,serif" font-size="14.00">ADDXri</text>
<polyline fill="none" stroke="black" points="2136,-152.5 2296,-152.5 "/>
<text text-anchor="middle" x="2176" y="-137.3" font-family="Times,serif" font-size="14.00">&#45;122.000</text>
<polyline fill="none" stroke="black" points="2136,-129.5 2216,-129.5 "/>
<text text-anchor="middle" x="2176" y="-114.3" font-family="Times,serif" font-size="14.00">1</text>
<polyline fill="none" stroke="black" points="2216,-106.5 2216,-152.5 "/>
<text text-anchor="middle" x="2256" y="-125.8" font-family="Times,serif" font-size="14.00">&#45;122.000</text>
</g>
<!-- &#45;5821405245560033645&#45;&gt;6508506378496650945 -->
<g id="edge24" class="edge">
<title>&#45;5821405245560033645&#45;&gt;6508506378496650945</title>
<path fill="none" stroke="black" d="M2216,-212.23C2216,-203.79 2216,-194.62 2216,-185.77"/>
<polygon fill="black" stroke="black" points="2219.5,-185.6 2216,-175.6 2212.5,-185.6 2219.5,-185.6"/>
</g>
<!-- &#45;2424400047154927922 -->
<g id="node26" class="node">
<title>&#45;2424400047154927922</title>
<path fill="none" stroke="black" d="M2326,-106.5C2326,-106.5 2462,-106.5 2462,-106.5 2468,-106.5 2474,-112.5 2474,-118.5 2474,-118.5 2474,-163.5 2474,-163.5 2474,-169.5 2468,-175.5 2462,-175.5 2462,-175.5 2326,-175.5 2326,-175.5 2320,-175.5 2314,-169.5 2314,-163.5 2314,-163.5 2314,-118.5 2314,-118.5 2314,-112.5 2320,-106.5 2326,-106.5"/>
<text text-anchor="middle" x="2394" y="-160.3" font-family="Times,serif" font-size="14.00">MOVi32imm</text>
<polyline fill="none" stroke="black" points="2314,-152.5 2474,-152.5 "/>
<text text-anchor="middle" x="2354" y="-137.3" font-family="Times,serif" font-size="14.00">&#45;121.000</text>
<polyline fill="none" stroke="black" points="2314,-129.5 2394,-129.5 "/>
<text text-anchor="middle" x="2354" y="-114.3" font-family="Times,serif" font-size="14.00">1</text>
<polyline fill="none" stroke="black" points="2394,-106.5 2394,-152.5 "/>
<text text-anchor="middle" x="2434" y="-125.8" font-family="Times,serif" font-size="14.00">&#45;121.000</text>
</g>
<!-- &#45;5821405245560033645&#45;&gt;&#45;2424400047154927922 -->
<g id="edge25" class="edge">
<title>&#45;5821405245560033645&#45;&gt;&#45;2424400047154927922</title>
<path fill="none" stroke="black" d="M2273.79,-212.23C2290.91,-202.23 2309.79,-191.2 2327.41,-180.91"/>
<polygon fill="black" stroke="black" points="2329.63,-183.66 2336.5,-175.6 2326.1,-177.62 2329.63,-183.66"/>
</g>
<!-- &#45;486858849737736387 -->
<g id="node24" class="node">
<title>&#45;486858849737736387</title>
<path fill="none" stroke="black" d="M2504,-106.5C2504,-106.5 2640,-106.5 2640,-106.5 2646,-106.5 2652,-112.5 2652,-118.5 2652,-118.5 2652,-163.5 2652,-163.5 2652,-169.5 2646,-175.5 2640,-175.5 2640,-175.5 2504,-175.5 2504,-175.5 2498,-175.5 2492,-169.5 2492,-163.5 2492,-163.5 2492,-118.5 2492,-118.5 2492,-112.5 2498,-106.5 2504,-106.5"/>
<text text-anchor="middle" x="2572" y="-160.3" font-family="Times,serif" font-size="14.00">ADDXri</text>
<polyline fill="none" stroke="black" points="2492,-152.5 2652,-152.5 "/>
<text text-anchor="middle" x="2532" y="-137.3" font-family="Times,serif" font-size="14.00">&#45;121.000</text>
<polyline fill="none" stroke="black" points="2492,-129.5 2572,-129.5 "/>
<text text-anchor="middle" x="2532" y="-114.3" font-family="Times,serif" font-size="14.00">1</text>
<polyline fill="none" stroke="black" points="2572,-106.5 2572,-152.5 "/>
<text text-anchor="middle" x="2612" y="-125.8" font-family="Times,serif" font-size="14.00">&#45;121.000</text>
</g>
<!-- &#45;4437488288896606859&#45;&gt;&#45;486858849737736387 -->
<g id="edge23" class="edge">
<title>&#45;4437488288896606859&#45;&gt;&#45;486858849737736387</title>
<path fill="none" stroke="black" d="M2511.9,-212.23C2519.75,-203.06 2528.34,-193.02 2536.51,-183.47"/>
<polygon fill="black" stroke="black" points="2539.41,-185.47 2543.25,-175.6 2534.09,-180.92 2539.41,-185.47"/>
</g>
<!-- 4620714000482607761 -->
<g id="node20" class="node">
<title>4620714000482607761</title>
<path fill="none" stroke="black" d="M724,-106.5C724,-106.5 860,-106.5 860,-106.5 866,-106.5 872,-112.5 872,-118.5 872,-118.5 872,-163.5 872,-163.5 872,-169.5 866,-175.5 860,-175.5 860,-175.5 724,-175.5 724,-175.5 718,-175.5 712,-169.5 712,-163.5 712,-163.5 712,-118.5 712,-118.5 712,-112.5 718,-106.5 724,-106.5"/>
<text text-anchor="middle" x="792" y="-160.3" font-family="Times,serif" font-size="14.00">ADDXri</text>
<polyline fill="none" stroke="black" points="712,-152.5 872,-152.5 "/>
<text text-anchor="middle" x="752" y="-137.3" font-family="Times,serif" font-size="14.00">&#45;131.000</text>
<polyline fill="none" stroke="black" points="712,-129.5 792,-129.5 "/>
<text text-anchor="middle" x="752" y="-114.3" font-family="Times,serif" font-size="14.00">1</text>
<polyline fill="none" stroke="black" points="792,-106.5 792,-152.5 "/>
<text text-anchor="middle" x="832" y="-125.8" font-family="Times,serif" font-size="14.00">&#45;131.000</text>
</g>
<!-- 7349036328616641500&#45;&gt;4620714000482607761 -->
<g id="edge19" class="edge">
<title>7349036328616641500&#45;&gt;4620714000482607761</title>
<path fill="none" stroke="black" d="M912.21,-212.23C895.09,-202.23 876.21,-191.2 858.59,-180.91"/>
<polygon fill="black" stroke="black" points="859.9,-177.62 849.5,-175.6 856.37,-183.66 859.9,-177.62"/>
</g>
<!-- 658084475780427222 -->
<g id="node29" class="node">
<title>658084475780427222</title>
<path fill="none" stroke="black" d="M902,-106.5C902,-106.5 1038,-106.5 1038,-106.5 1044,-106.5 1050,-112.5 1050,-118.5 1050,-118.5 1050,-163.5 1050,-163.5 1050,-169.5 1044,-175.5 1038,-175.5 1038,-175.5 902,-175.5 902,-175.5 896,-175.5 890,-169.5 890,-163.5 890,-163.5 890,-118.5 890,-118.5 890,-112.5 896,-106.5 902,-106.5"/>
<text text-anchor="middle" x="970" y="-160.3" font-family="Times,serif" font-size="14.00">MOVi32imm</text>
<polyline fill="none" stroke="black" points="890,-152.5 1050,-152.5 "/>
<text text-anchor="middle" x="930" y="-137.3" font-family="Times,serif" font-size="14.00">&#45;131.000</text>
<polyline fill="none" stroke="black" points="890,-129.5 970,-129.5 "/>
<text text-anchor="middle" x="930" y="-114.3" font-family="Times,serif" font-size="14.00">1</text>
<polyline fill="none" stroke="black" points="970,-106.5 970,-152.5 "/>
<text text-anchor="middle" x="1010" y="-125.8" font-family="Times,serif" font-size="14.00">&#45;131.000</text>
</g>
<!-- &#45;6140617986217033935&#45;&gt;658084475780427222 -->
<g id="edge28" class="edge">
<title>&#45;6140617986217033935&#45;&gt;658084475780427222</title>
<path fill="none" stroke="black" d="M1090.21,-212.23C1073.09,-202.23 1054.21,-191.2 1036.59,-180.91"/>
<polygon fill="black" stroke="black" points="1037.9,-177.62 1027.5,-175.6 1034.37,-183.66 1037.9,-177.62"/>
</g>
<!-- 8082556932317878537 -->
<g id="node18" class="node">
<title>8082556932317878537</title>
<path fill="none" stroke="black" d="M1080,-106.5C1080,-106.5 1216,-106.5 1216,-106.5 1222,-106.5 1228,-112.5 1228,-118.5 1228,-118.5 1228,-163.5 1228,-163.5 1228,-169.5 1222,-175.5 1216,-175.5 1216,-175.5 1080,-175.5 1080,-175.5 1074,-175.5 1068,-169.5 1068,-163.5 1068,-163.5 1068,-118.5 1068,-118.5 1068,-112.5 1074,-106.5 1080,-106.5"/>
<text text-anchor="middle" x="1148" y="-160.3" font-family="Times,serif" font-size="14.00">MOVaddr</text>
<polyline fill="none" stroke="black" points="1068,-152.5 1228,-152.5 "/>
<text text-anchor="middle" x="1108" y="-137.3" font-family="Times,serif" font-size="14.00">&#45;121.000</text>
<polyline fill="none" stroke="black" points="1068,-129.5 1148,-129.5 "/>
<text text-anchor="middle" x="1108" y="-114.3" font-family="Times,serif" font-size="14.00">1</text>
<polyline fill="none" stroke="black" points="1148,-106.5 1148,-152.5 "/>
<text text-anchor="middle" x="1188" y="-125.8" font-family="Times,serif" font-size="14.00">&#45;121.000</text>
</g>
<!-- &#45;1883437138245635692&#45;&gt;8082556932317878537 -->
<g id="edge17" class="edge">
<title>&#45;1883437138245635692&#45;&gt;8082556932317878537</title>
<path fill="none" stroke="black" d="M1268.21,-212.23C1251.09,-202.23 1232.21,-191.2 1214.59,-180.91"/>
<polygon fill="black" stroke="black" points="1215.9,-177.62 1205.5,-175.6 1212.37,-183.66 1215.9,-177.62"/>
</g>
<!-- &#45;7960124004573349361 -->
<g id="node19" class="node">
<title>&#45;7960124004573349361</title>
<path fill="none" stroke="black" d="M1258,-106.5C1258,-106.5 1394,-106.5 1394,-106.5 1400,-106.5 1406,-112.5 1406,-118.5 1406,-118.5 1406,-163.5 1406,-163.5 1406,-169.5 1400,-175.5 1394,-175.5 1394,-175.5 1258,-175.5 1258,-175.5 1252,-175.5 1246,-169.5 1246,-163.5 1246,-163.5 1246,-118.5 1246,-118.5 1246,-112.5 1252,-106.5 1258,-106.5"/>
<text text-anchor="middle" x="1326" y="-160.3" font-family="Times,serif" font-size="14.00">MOVi32imm</text>
<polyline fill="none" stroke="black" points="1246,-152.5 1406,-152.5 "/>
<text text-anchor="middle" x="1286" y="-137.3" font-family="Times,serif" font-size="14.00">&#45;121.000</text>
<polyline fill="none" stroke="black" points="1246,-129.5 1326,-129.5 "/>
<text text-anchor="middle" x="1286" y="-114.3" font-family="Times,serif" font-size="14.00">1</text>
<polyline fill="none" stroke="black" points="1326,-106.5 1326,-152.5 "/>
<text text-anchor="middle" x="1366" y="-125.8" font-family="Times,serif" font-size="14.00">&#45;121.000</text>
</g>
<!-- &#45;1883437138245635692&#45;&gt;&#45;7960124004573349361 -->
<g id="edge18" class="edge">
<title>&#45;1883437138245635692&#45;&gt;&#45;7960124004573349361</title>
<path fill="none" stroke="black" d="M1326,-212.23C1326,-203.79 1326,-194.62 1326,-185.77"/>
<polygon fill="black" stroke="black" points="1329.5,-185.6 1326,-175.6 1322.5,-185.6 1329.5,-185.6"/>
</g>
<!-- 7834045277709134564 -->
<g id="node21" class="node">
<title>7834045277709134564</title>
<path fill="none" stroke="black" d="M1436,-106.5C1436,-106.5 1572,-106.5 1572,-106.5 1578,-106.5 1584,-112.5 1584,-118.5 1584,-118.5 1584,-163.5 1584,-163.5 1584,-169.5 1578,-175.5 1572,-175.5 1572,-175.5 1436,-175.5 1436,-175.5 1430,-175.5 1424,-169.5 1424,-163.5 1424,-163.5 1424,-118.5 1424,-118.5 1424,-112.5 1430,-106.5 1436,-106.5"/>
<text text-anchor="middle" x="1504" y="-160.3" font-family="Times,serif" font-size="14.00">ADDXri</text>
<polyline fill="none" stroke="black" points="1424,-152.5 1584,-152.5 "/>
<text text-anchor="middle" x="1464" y="-137.3" font-family="Times,serif" font-size="14.00">&#45;121.000</text>
<polyline fill="none" stroke="black" points="1424,-129.5 1504,-129.5 "/>
<text text-anchor="middle" x="1464" y="-114.3" font-family="Times,serif" font-size="14.00">1</text>
<polyline fill="none" stroke="black" points="1504,-106.5 1504,-152.5 "/>
<text text-anchor="middle" x="1544" y="-125.8" font-family="Times,serif" font-size="14.00">&#45;121.000</text>
</g>
<!-- &#45;6332268149803408004&#45;&gt;7834045277709134564 -->
<g id="edge20" class="edge">
<title>&#45;6332268149803408004&#45;&gt;7834045277709134564</title>
<path fill="none" stroke="black" d="M1504,-212.23C1504,-203.79 1504,-194.62 1504,-185.77"/>
<polygon fill="black" stroke="black" points="1507.5,-185.6 1504,-175.6 1500.5,-185.6 1507.5,-185.6"/>
</g>
<!-- 8653446457393484996 -->
<g id="node22" class="node">
<title>8653446457393484996</title>
<path fill="none" stroke="black" d="M1614,-106.5C1614,-106.5 1750,-106.5 1750,-106.5 1756,-106.5 1762,-112.5 1762,-118.5 1762,-118.5 1762,-163.5 1762,-163.5 1762,-169.5 1756,-175.5 1750,-175.5 1750,-175.5 1614,-175.5 1614,-175.5 1608,-175.5 1602,-169.5 1602,-163.5 1602,-163.5 1602,-118.5 1602,-118.5 1602,-112.5 1608,-106.5 1614,-106.5"/>
<text text-anchor="middle" x="1682" y="-160.3" font-family="Times,serif" font-size="14.00">MOVi32imm</text>
<polyline fill="none" stroke="black" points="1602,-152.5 1762,-152.5 "/>
<text text-anchor="middle" x="1642" y="-137.3" font-family="Times,serif" font-size="14.00">&#45;131.000</text>
<polyline fill="none" stroke="black" points="1602,-129.5 1682,-129.5 "/>
<text text-anchor="middle" x="1642" y="-114.3" font-family="Times,serif" font-size="14.00">1</text>
<polyline fill="none" stroke="black" points="1682,-106.5 1682,-152.5 "/>
<text text-anchor="middle" x="1722" y="-125.8" font-family="Times,serif" font-size="14.00">&#45;131.000</text>
</g>
<!-- 4090019634489157213&#45;&gt;8653446457393484996 -->
<g id="edge21" class="edge">
<title>4090019634489157213&#45;&gt;8653446457393484996</title>
<path fill="none" stroke="black" d="M1682,-212.23C1682,-203.79 1682,-194.62 1682,-185.77"/>
<polygon fill="black" stroke="black" points="1685.5,-185.6 1682,-175.6 1678.5,-185.6 1685.5,-185.6"/>
</g>
<!-- &#45;1956401752583495001 -->
<g id="node23" class="node">
<title>&#45;1956401752583495001</title>
<path fill="none" stroke="black" d="M1792,-106.5C1792,-106.5 1928,-106.5 1928,-106.5 1934,-106.5 1940,-112.5 1940,-118.5 1940,-118.5 1940,-163.5 1940,-163.5 1940,-169.5 1934,-175.5 1928,-175.5 1928,-175.5 1792,-175.5 1792,-175.5 1786,-175.5 1780,-169.5 1780,-163.5 1780,-163.5 1780,-118.5 1780,-118.5 1780,-112.5 1786,-106.5 1792,-106.5"/>
<text text-anchor="middle" x="1860" y="-160.3" font-family="Times,serif" font-size="14.00">MOVaddr</text>
<polyline fill="none" stroke="black" points="1780,-152.5 1940,-152.5 "/>
<text text-anchor="middle" x="1820" y="-137.3" font-family="Times,serif" font-size="14.00">&#45;102.000</text>
<polyline fill="none" stroke="black" points="1780,-129.5 1860,-129.5 "/>
<text text-anchor="middle" x="1820" y="-114.3" font-family="Times,serif" font-size="14.00">1</text>
<polyline fill="none" stroke="black" points="1860,-106.5 1860,-152.5 "/>
<text text-anchor="middle" x="1900" y="-125.8" font-family="Times,serif" font-size="14.00">&#45;102.000</text>
</g>
<!-- 4090019634489157213&#45;&gt;&#45;1956401752583495001 -->
<g id="edge22" class="edge">
<title>4090019634489157213&#45;&gt;&#45;1956401752583495001</title>
<path fill="none" stroke="black" d="M1739.79,-212.23C1756.91,-202.23 1775.79,-191.2 1793.41,-180.91"/>
<polygon fill="black" stroke="black" points="1795.63,-183.66 1802.5,-175.6 1792.1,-177.62 1795.63,-183.66"/>
</g>
<!-- 7659505475197663553 -->
<g id="node31" class="node">
<title>7659505475197663553</title>
<path fill="none" stroke="black" d="M12,-106.5C12,-106.5 148,-106.5 148,-106.5 154,-106.5 160,-112.5 160,-118.5 160,-118.5 160,-163.5 160,-163.5 160,-169.5 154,-175.5 148,-175.5 148,-175.5 12,-175.5 12,-175.5 6,-175.5 0,-169.5 0,-163.5 0,-163.5 0,-118.5 0,-118.5 0,-112.5 6,-106.5 12,-106.5"/>
<text text-anchor="middle" x="80" y="-160.3" font-family="Times,serif" font-size="14.00">MOVi32imm</text>
<polyline fill="none" stroke="black" points="0,-152.5 160,-152.5 "/>
<text text-anchor="middle" x="40" y="-137.3" font-family="Times,serif" font-size="14.00">&#45;242.000</text>
<polyline fill="none" stroke="black" points="0,-129.5 80,-129.5 "/>
<text text-anchor="middle" x="40" y="-114.3" font-family="Times,serif" font-size="14.00">2</text>
<polyline fill="none" stroke="black" points="80,-106.5 80,-152.5 "/>
<text text-anchor="middle" x="120" y="-125.8" font-family="Times,serif" font-size="14.00">&#45;121.000</text>
</g>
<!-- &#45;5710804462884213815&#45;&gt;7659505475197663553 -->
<g id="edge30" class="edge">
<title>&#45;5710804462884213815&#45;&gt;7659505475197663553</title>
<path fill="none" stroke="black" d="M200.21,-212.23C183.09,-202.23 164.21,-191.2 146.59,-180.91"/>
<polygon fill="black" stroke="black" points="147.9,-177.62 137.5,-175.6 144.37,-183.66 147.9,-177.62"/>
</g>
<!-- 2683067239089575106 -->
<g id="node32" class="node">
<title>2683067239089575106</title>
<path fill="none" stroke="black" d="M190,-106.5C190,-106.5 326,-106.5 326,-106.5 332,-106.5 338,-112.5 338,-118.5 338,-118.5 338,-163.5 338,-163.5 338,-169.5 332,-175.5 326,-175.5 326,-175.5 190,-175.5 190,-175.5 184,-175.5 178,-169.5 178,-163.5 178,-163.5 178,-118.5 178,-118.5 178,-112.5 184,-106.5 190,-106.5"/>
<text text-anchor="middle" x="258" y="-160.3" font-family="Times,serif" font-size="14.00">ADDXrr</text>
<polyline fill="none" stroke="black" points="178,-152.5 338,-152.5 "/>
<text text-anchor="middle" x="218" y="-137.3" font-family="Times,serif" font-size="14.00">&#45;112.000</text>
<polyline fill="none" stroke="black" points="178,-129.5 258,-129.5 "/>
<text text-anchor="middle" x="218" y="-114.3" font-family="Times,serif" font-size="14.00">1</text>
<polyline fill="none" stroke="black" points="258,-106.5 258,-152.5 "/>
<text text-anchor="middle" x="298" y="-125.8" font-family="Times,serif" font-size="14.00">&#45;112.000</text>
</g>
<!-- &#45;5710804462884213815&#45;&gt;2683067239089575106 -->
<g id="edge31" class="edge">
<title>&#45;5710804462884213815&#45;&gt;2683067239089575106</title>
<path fill="none" stroke="black" d="M258,-212.23C258,-203.79 258,-194.62 258,-185.77"/>
<polygon fill="black" stroke="black" points="261.5,-185.6 258,-175.6 254.5,-185.6 261.5,-185.6"/>
</g>
<!-- &#45;7929561335352901985 -->
<g id="node28" class="node">
<title>&#45;7929561335352901985</title>
<path fill="none" stroke="black" d="M368,-106.5C368,-106.5 504,-106.5 504,-106.5 510,-106.5 516,-112.5 516,-118.5 516,-118.5 516,-163.5 516,-163.5 516,-169.5 510,-175.5 504,-175.5 504,-175.5 368,-175.5 368,-175.5 362,-175.5 356,-169.5 356,-163.5 356,-163.5 356,-118.5 356,-118.5 356,-112.5 362,-106.5 368,-106.5"/>
<text text-anchor="middle" x="436" y="-160.3" font-family="Times,serif" font-size="14.00">ADDXri</text>
<polyline fill="none" stroke="black" points="356,-152.5 516,-152.5 "/>
<text text-anchor="middle" x="396" y="-137.3" font-family="Times,serif" font-size="14.00">&#45;122.000</text>
<polyline fill="none" stroke="black" points="356,-129.5 436,-129.5 "/>
<text text-anchor="middle" x="396" y="-114.3" font-family="Times,serif" font-size="14.00">1</text>
<polyline fill="none" stroke="black" points="436,-106.5 436,-152.5 "/>
<text text-anchor="middle" x="476" y="-125.8" font-family="Times,serif" font-size="14.00">&#45;122.000</text>
</g>
<!-- &#45;7276268393486431013&#45;&gt;&#45;7929561335352901985 -->
<g id="edge27" class="edge">
<title>&#45;7276268393486431013&#45;&gt;&#45;7929561335352901985</title>
<path fill="none" stroke="black" d="M436,-212.23C436,-203.79 436,-194.62 436,-185.77"/>
<polygon fill="black" stroke="black" points="439.5,-185.6 436,-175.6 432.5,-185.6 439.5,-185.6"/>
</g>
<!-- &#45;3580555749273390362 -->
<g id="node30" class="node">
<title>&#45;3580555749273390362</title>
<path fill="none" stroke="black" d="M546,-106.5C546,-106.5 682,-106.5 682,-106.5 688,-106.5 694,-112.5 694,-118.5 694,-118.5 694,-163.5 694,-163.5 694,-169.5 688,-175.5 682,-175.5 682,-175.5 546,-175.5 546,-175.5 540,-175.5 534,-169.5 534,-163.5 534,-163.5 534,-118.5 534,-118.5 534,-112.5 540,-106.5 546,-106.5"/>
<text text-anchor="middle" x="614" y="-160.3" font-family="Times,serif" font-size="14.00">MOVi32imm</text>
<polyline fill="none" stroke="black" points="534,-152.5 694,-152.5 "/>
<text text-anchor="middle" x="574" y="-137.3" font-family="Times,serif" font-size="14.00">&#45;243.000</text>
<polyline fill="none" stroke="black" points="534,-129.5 614,-129.5 "/>
<text text-anchor="middle" x="574" y="-114.3" font-family="Times,serif" font-size="14.00">2</text>
<polyline fill="none" stroke="black" points="614,-106.5 614,-152.5 "/>
<text text-anchor="middle" x="654" y="-125.8" font-family="Times,serif" font-size="14.00">&#45;121.500</text>
</g>
<!-- &#45;86764044872202779&#45;&gt;&#45;3580555749273390362 -->
<g id="edge29" class="edge">
<title>&#45;86764044872202779&#45;&gt;&#45;3580555749273390362</title>
<path fill="none" stroke="black" d="M614,-212.23C614,-203.79 614,-194.62 614,-185.77"/>
<polygon fill="black" stroke="black" points="617.5,-185.6 614,-175.6 610.5,-185.6 617.5,-185.6"/>
</g>
<!-- 3869905613020664325 -->
<g id="node34" class="node">
<title>3869905613020664325</title>
<path fill="none" stroke="black" d="M12,-0.5C12,-0.5 148,-0.5 148,-0.5 154,-0.5 160,-6.5 160,-12.5 160,-12.5 160,-57.5 160,-57.5 160,-63.5 154,-69.5 148,-69.5 148,-69.5 12,-69.5 12,-69.5 6,-69.5 0,-63.5 0,-57.5 0,-57.5 0,-12.5 0,-12.5 0,-6.5 6,-0.5 12,-0.5"/>
<text text-anchor="middle" x="80" y="-54.3" font-family="Times,serif" font-size="14.00">ADDXri</text>
<polyline fill="none" stroke="black" points="0,-46.5 160,-46.5 "/>
<text text-anchor="middle" x="40" y="-31.3" font-family="Times,serif" font-size="14.00">&#45;242.000</text>
<polyline fill="none" stroke="black" points="0,-23.5 80,-23.5 "/>
<text text-anchor="middle" x="40" y="-8.3" font-family="Times,serif" font-size="14.00">2</text>
<polyline fill="none" stroke="black" points="80,-0.5 80,-46.5 "/>
<text text-anchor="middle" x="120" y="-19.8" font-family="Times,serif" font-size="14.00">&#45;121.000</text>
</g>
<!-- 7659505475197663553&#45;&gt;3869905613020664325 -->
<g id="edge33" class="edge">
<title>7659505475197663553&#45;&gt;3869905613020664325</title>
<path fill="none" stroke="black" d="M80,-106.23C80,-97.79 80,-88.62 80,-79.77"/>
<polygon fill="black" stroke="black" points="83.5,-79.6 80,-69.6 76.5,-79.6 83.5,-79.6"/>
</g>
<!-- &#45;49917276293363039 -->
<g id="node33" class="node">
<title>&#45;49917276293363039</title>
<path fill="none" stroke="black" d="M190,-0.5C190,-0.5 326,-0.5 326,-0.5 332,-0.5 338,-6.5 338,-12.5 338,-12.5 338,-57.5 338,-57.5 338,-63.5 332,-69.5 326,-69.5 326,-69.5 190,-69.5 190,-69.5 184,-69.5 178,-63.5 178,-57.5 178,-57.5 178,-12.5 178,-12.5 178,-6.5 184,-0.5 190,-0.5"/>
<text text-anchor="middle" x="258" y="-54.3" font-family="Times,serif" font-size="14.00">ADDXri</text>
<polyline fill="none" stroke="black" points="178,-46.5 338,-46.5 "/>
<text text-anchor="middle" x="218" y="-31.3" font-family="Times,serif" font-size="14.00">&#45;112.000</text>
<polyline fill="none" stroke="black" points="178,-23.5 258,-23.5 "/>
<text text-anchor="middle" x="218" y="-8.3" font-family="Times,serif" font-size="14.00">1</text>
<polyline fill="none" stroke="black" points="258,-0.5 258,-46.5 "/>
<text text-anchor="middle" x="298" y="-19.8" font-family="Times,serif" font-size="14.00">&#45;112.000</text>
</g>
<!-- 2683067239089575106&#45;&gt;&#45;49917276293363039 -->
<g id="edge32" class="edge">
<title>2683067239089575106&#45;&gt;&#45;49917276293363039</title>
<path fill="none" stroke="black" d="M258,-106.23C258,-97.79 258,-88.62 258,-79.77"/>
<polygon fill="black" stroke="black" points="261.5,-79.6 258,-69.6 254.5,-79.6 261.5,-79.6"/>
</g>
</g>
</svg>
