<?xml version="1.0" encoding="UTF-8" standalone="no"?>
<!DOCTYPE svg PUBLIC "-//W3C//DTD SVG 1.1//EN"
 "http://www.w3.org/Graphics/SVG/1.1/DTD/svg11.dtd">
<!-- Generated by graphviz version 2.43.0 (0)
 -->
<!-- Title: MCTS Tree\nmcts/1.0/tree.svg Pages: 1 -->
<svg width="2482pt" height="396pt"
 viewBox="0.00 0.00 2482.00 396.00" xmlns="http://www.w3.org/2000/svg" xmlns:xlink="http://www.w3.org/1999/xlink">
<g id="graph0" class="graph" transform="scale(1 1) rotate(0) translate(4 392)">
<title>MCTS Tree\nmcts/1.0/tree.svg</title>
<polygon fill="white" stroke="transparent" points="-4,4 -4,-392 2478,-392 2478,4 -4,4"/>
<!-- 0 -->
<g id="node1" class="node">
<title>0</title>
<path fill="none" stroke="black" d="M808.5,-318.5C808.5,-318.5 953.5,-318.5 953.5,-318.5 959.5,-318.5 965.5,-324.5 965.5,-330.5 965.5,-330.5 965.5,-375.5 965.5,-375.5 965.5,-381.5 959.5,-387.5 953.5,-387.5 953.5,-387.5 808.5,-387.5 808.5,-387.5 802.5,-387.5 796.5,-381.5 796.5,-375.5 796.5,-375.5 796.5,-330.5 796.5,-330.5 796.5,-324.5 802.5,-318.5 808.5,-318.5"/>
<text text-anchor="middle" x="881" y="-372.3" font-family="Times,serif" font-size="14.00"> </text>
<polyline fill="none" stroke="black" points="796.5,-364.5 965.5,-364.5 "/>
<text text-anchor="middle" x="841" y="-349.3" font-family="Times,serif" font-size="14.00">&#45;1970.000</text>
<polyline fill="none" stroke="black" points="796.5,-341.5 885.5,-341.5 "/>
<text text-anchor="middle" x="841" y="-326.3" font-family="Times,serif" font-size="14.00">16</text>
<polyline fill="none" stroke="black" points="885.5,-318.5 885.5,-364.5 "/>
<text text-anchor="middle" x="925.5" y="-337.8" font-family="Times,serif" font-size="14.00">&#45;123.125</text>
</g>
<!-- &#45;5433055563366803271 -->
<g id="node2" class="node">
<title>&#45;5433055563366803271</title>
<path fill="none" stroke="black" d="M279,-212.5C279,-212.5 415,-212.5 415,-212.5 421,-212.5 427,-218.5 427,-224.5 427,-224.5 427,-269.5 427,-269.5 427,-275.5 421,-281.5 415,-281.5 415,-281.5 279,-281.5 279,-281.5 273,-281.5 267,-275.5 267,-269.5 267,-269.5 267,-224.5 267,-224.5 267,-218.5 273,-212.5 279,-212.5"/>
<text text-anchor="middle" x="347" y="-266.3" font-family="Times,serif" font-size="14.00">UBFMXri</text>
<polyline fill="none" stroke="black" points="267,-258.5 427,-258.5 "/>
<text text-anchor="middle" x="307" y="-243.3" font-family="Times,serif" font-size="14.00">&#45;486.000</text>
<polyline fill="none" stroke="black" points="267,-235.5 347,-235.5 "/>
<text text-anchor="middle" x="307" y="-220.3" font-family="Times,serif" font-size="14.00">4</text>
<polyline fill="none" stroke="black" points="347,-212.5 347,-258.5 "/>
<text text-anchor="middle" x="387" y="-231.8" font-family="Times,serif" font-size="14.00">&#45;121.500</text>
</g>
<!-- 0&#45;&gt;&#45;5433055563366803271 -->
<g id="edge1" class="edge">
<title>0&#45;&gt;&#45;5433055563366803271</title>
<path fill="none" stroke="black" d="M796.39,-335.52C698.34,-316.43 537.43,-285.09 437.11,-265.55"/>
<polygon fill="black" stroke="black" points="437.77,-262.11 427.29,-263.64 436.44,-268.98 437.77,-262.11"/>
</g>
<!-- &#45;3024342693038195510 -->
<g id="node3" class="node">
<title>&#45;3024342693038195510</title>
<path fill="none" stroke="black" d="M635,-212.5C635,-212.5 771,-212.5 771,-212.5 777,-212.5 783,-218.5 783,-224.5 783,-224.5 783,-269.5 783,-269.5 783,-275.5 777,-281.5 771,-281.5 771,-281.5 635,-281.5 635,-281.5 629,-281.5 623,-275.5 623,-269.5 623,-269.5 623,-224.5 623,-224.5 623,-218.5 629,-212.5 635,-212.5"/>
<text text-anchor="middle" x="703" y="-266.3" font-family="Times,serif" font-size="14.00">MOVi32imm</text>
<polyline fill="none" stroke="black" points="623,-258.5 783,-258.5 "/>
<text text-anchor="middle" x="663" y="-243.3" font-family="Times,serif" font-size="14.00">&#45;131.000</text>
<polyline fill="none" stroke="black" points="623,-235.5 703,-235.5 "/>
<text text-anchor="middle" x="663" y="-220.3" font-family="Times,serif" font-size="14.00">1</text>
<polyline fill="none" stroke="black" points="703,-212.5 703,-258.5 "/>
<text text-anchor="middle" x="743" y="-231.8" font-family="Times,serif" font-size="14.00">&#45;131.000</text>
</g>
<!-- 0&#45;&gt;&#45;3024342693038195510 -->
<g id="edge2" class="edge">
<title>0&#45;&gt;&#45;3024342693038195510</title>
<path fill="none" stroke="black" d="M823.21,-318.23C806.09,-308.23 787.21,-297.2 769.59,-286.91"/>
<polygon fill="black" stroke="black" points="770.9,-283.62 760.5,-281.6 767.37,-289.66 770.9,-283.62"/>
</g>
<!-- 8800192825085030885 -->
<g id="node4" class="node">
<title>8800192825085030885</title>
<path fill="none" stroke="black" d="M858,-212.5C858,-212.5 994,-212.5 994,-212.5 1000,-212.5 1006,-218.5 1006,-224.5 1006,-224.5 1006,-269.5 1006,-269.5 1006,-275.5 1000,-281.5 994,-281.5 994,-281.5 858,-281.5 858,-281.5 852,-281.5 846,-275.5 846,-269.5 846,-269.5 846,-224.5 846,-224.5 846,-218.5 852,-212.5 858,-212.5"/>
<text text-anchor="middle" x="926" y="-266.3" font-family="Times,serif" font-size="14.00">MOVaddr</text>
<polyline fill="none" stroke="black" points="846,-258.5 1006,-258.5 "/>
<text text-anchor="middle" x="886" y="-243.3" font-family="Times,serif" font-size="14.00">&#45;495.000</text>
<polyline fill="none" stroke="black" points="846,-235.5 926,-235.5 "/>
<text text-anchor="middle" x="886" y="-220.3" font-family="Times,serif" font-size="14.00">4</text>
<polyline fill="none" stroke="black" points="926,-212.5 926,-258.5 "/>
<text text-anchor="middle" x="966" y="-231.8" font-family="Times,serif" font-size="14.00">&#45;123.750</text>
</g>
<!-- 0&#45;&gt;8800192825085030885 -->
<g id="edge3" class="edge">
<title>0&#45;&gt;8800192825085030885</title>
<path fill="none" stroke="black" d="M895.61,-318.23C899.38,-309.52 903.49,-300.02 907.43,-290.91"/>
<polygon fill="black" stroke="black" points="910.7,-292.16 911.46,-281.6 904.28,-289.38 910.7,-292.16"/>
</g>
<!-- 5743126076645127078 -->
<g id="node5" class="node">
<title>5743126076645127078</title>
<path fill="none" stroke="black" d="M1703,-212.5C1703,-212.5 1839,-212.5 1839,-212.5 1845,-212.5 1851,-218.5 1851,-224.5 1851,-224.5 1851,-269.5 1851,-269.5 1851,-275.5 1845,-281.5 1839,-281.5 1839,-281.5 1703,-281.5 1703,-281.5 1697,-281.5 1691,-275.5 1691,-269.5 1691,-269.5 1691,-224.5 1691,-224.5 1691,-218.5 1697,-212.5 1703,-212.5"/>
<text text-anchor="middle" x="1771" y="-266.3" font-family="Times,serif" font-size="14.00">ADDXri</text>
<polyline fill="none" stroke="black" points="1691,-258.5 1851,-258.5 "/>
<text text-anchor="middle" x="1731" y="-243.3" font-family="Times,serif" font-size="14.00">&#45;858.000</text>
<polyline fill="none" stroke="black" points="1691,-235.5 1771,-235.5 "/>
<text text-anchor="middle" x="1731" y="-220.3" font-family="Times,serif" font-size="14.00">7</text>
<polyline fill="none" stroke="black" points="1771,-212.5 1771,-258.5 "/>
<text text-anchor="middle" x="1811" y="-231.8" font-family="Times,serif" font-size="14.00">&#45;122.571</text>
</g>
<!-- 0&#45;&gt;5743126076645127078 -->
<g id="edge4" class="edge">
<title>0&#45;&gt;5743126076645127078</title>
<path fill="none" stroke="black" d="M965.53,-342.12C1133.58,-322.49 1508.26,-278.7 1680.82,-258.54"/>
<polygon fill="black" stroke="black" points="1681.36,-262 1690.89,-257.36 1680.55,-255.05 1681.36,-262"/>
</g>
<!-- &#45;2526900567925145544 -->
<g id="node15" class="node">
<title>&#45;2526900567925145544</title>
<path fill="none" stroke="black" d="M12,-106.5C12,-106.5 148,-106.5 148,-106.5 154,-106.5 160,-112.5 160,-118.5 160,-118.5 160,-163.5 160,-163.5 160,-169.5 154,-175.5 148,-175.5 148,-175.5 12,-175.5 12,-175.5 6,-175.5 0,-169.5 0,-163.5 0,-163.5 0,-118.5 0,-118.5 0,-112.5 6,-106.5 12,-106.5"/>
<text text-anchor="middle" x="80" y="-160.3" font-family="Times,serif" font-size="14.00">ADDXri</text>
<polyline fill="none" stroke="black" points="0,-152.5 160,-152.5 "/>
<text text-anchor="middle" x="40" y="-137.3" font-family="Times,serif" font-size="14.00">&#45;243.000</text>
<polyline fill="none" stroke="black" points="0,-129.5 80,-129.5 "/>
<text text-anchor="middle" x="40" y="-114.3" font-family="Times,serif" font-size="14.00">2</text>
<polyline fill="none" stroke="black" points="80,-106.5 80,-152.5 "/>
<text text-anchor="middle" x="120" y="-125.8" font-family="Times,serif" font-size="14.00">&#45;121.500</text>
</g>
<!-- &#45;5433055563366803271&#45;&gt;&#45;2526900567925145544 -->
<g id="edge14" class="edge">
<title>&#45;5433055563366803271&#45;&gt;&#45;2526900567925145544</title>
<path fill="none" stroke="black" d="M266.89,-214.8C236.27,-202.87 201.15,-189.19 169.69,-176.94"/>
<polygon fill="black" stroke="black" points="170.64,-173.55 160.05,-173.18 168.1,-180.07 170.64,-173.55"/>
</g>
<!-- &#45;2233568817616837411 -->
<g id="node16" class="node">
<title>&#45;2233568817616837411</title>
<path fill="none" stroke="black" d="M190,-106.5C190,-106.5 326,-106.5 326,-106.5 332,-106.5 338,-112.5 338,-118.5 338,-118.5 338,-163.5 338,-163.5 338,-169.5 332,-175.5 326,-175.5 326,-175.5 190,-175.5 190,-175.5 184,-175.5 178,-169.5 178,-163.5 178,-163.5 178,-118.5 178,-118.5 178,-112.5 184,-106.5 190,-106.5"/>
<text text-anchor="middle" x="258" y="-160.3" font-family="Times,serif" font-size="14.00">MOVaddr</text>
<polyline fill="none" stroke="black" points="178,-152.5 338,-152.5 "/>
<text text-anchor="middle" x="218" y="-137.3" font-family="Times,serif" font-size="14.00">&#45;121.000</text>
<polyline fill="none" stroke="black" points="178,-129.5 258,-129.5 "/>
<text text-anchor="middle" x="218" y="-114.3" font-family="Times,serif" font-size="14.00">1</text>
<polyline fill="none" stroke="black" points="258,-106.5 258,-152.5 "/>
<text text-anchor="middle" x="298" y="-125.8" font-family="Times,serif" font-size="14.00">&#45;121.000</text>
</g>
<!-- &#45;5433055563366803271&#45;&gt;&#45;2233568817616837411 -->
<g id="edge15" class="edge">
<title>&#45;5433055563366803271&#45;&gt;&#45;2233568817616837411</title>
<path fill="none" stroke="black" d="M318.1,-212.23C310.25,-203.06 301.66,-193.02 293.49,-183.47"/>
<polygon fill="black" stroke="black" points="295.91,-180.92 286.75,-175.6 290.59,-185.47 295.91,-180.92"/>
</g>
<!-- 4856010242607957462 -->
<g id="node17" class="node">
<title>4856010242607957462</title>
<path fill="none" stroke="black" d="M368,-106.5C368,-106.5 504,-106.5 504,-106.5 510,-106.5 516,-112.5 516,-118.5 516,-118.5 516,-163.5 516,-163.5 516,-169.5 510,-175.5 504,-175.5 504,-175.5 368,-175.5 368,-175.5 362,-175.5 356,-169.5 356,-163.5 356,-163.5 356,-118.5 356,-118.5 356,-112.5 362,-106.5 368,-106.5"/>
<text text-anchor="middle" x="436" y="-160.3" font-family="Times,serif" font-size="14.00">MOVi32imm</text>
<polyline fill="none" stroke="black" points="356,-152.5 516,-152.5 "/>
<text text-anchor="middle" x="396" y="-137.3" font-family="Times,serif" font-size="14.00">&#45;122.000</text>
<polyline fill="none" stroke="black" points="356,-129.5 436,-129.5 "/>
<text text-anchor="middle" x="396" y="-114.3" font-family="Times,serif" font-size="14.00">1</text>
<polyline fill="none" stroke="black" points="436,-106.5 436,-152.5 "/>
<text text-anchor="middle" x="476" y="-125.8" font-family="Times,serif" font-size="14.00">&#45;122.000</text>
</g>
<!-- &#45;5433055563366803271&#45;&gt;4856010242607957462 -->
<g id="edge16" class="edge">
<title>&#45;5433055563366803271&#45;&gt;4856010242607957462</title>
<path fill="none" stroke="black" d="M375.9,-212.23C383.75,-203.06 392.34,-193.02 400.51,-183.47"/>
<polygon fill="black" stroke="black" points="403.41,-185.47 407.25,-175.6 398.09,-180.92 403.41,-185.47"/>
</g>
<!-- &#45;1667763233145595450 -->
<g id="node14" class="node">
<title>&#45;1667763233145595450</title>
<path fill="none" stroke="black" d="M546,-106.5C546,-106.5 682,-106.5 682,-106.5 688,-106.5 694,-112.5 694,-118.5 694,-118.5 694,-163.5 694,-163.5 694,-169.5 688,-175.5 682,-175.5 682,-175.5 546,-175.5 546,-175.5 540,-175.5 534,-169.5 534,-163.5 534,-163.5 534,-118.5 534,-118.5 534,-112.5 540,-106.5 546,-106.5"/>
<text text-anchor="middle" x="614" y="-160.3" font-family="Times,serif" font-size="14.00">ADDXri</text>
<polyline fill="none" stroke="black" points="534,-152.5 694,-152.5 "/>
<text text-anchor="middle" x="574" y="-137.3" font-family="Times,serif" font-size="14.00">&#45;131.000</text>
<polyline fill="none" stroke="black" points="534,-129.5 614,-129.5 "/>
<text text-anchor="middle" x="574" y="-114.3" font-family="Times,serif" font-size="14.00">1</text>
<polyline fill="none" stroke="black" points="614,-106.5 614,-152.5 "/>
<text text-anchor="middle" x="654" y="-125.8" font-family="Times,serif" font-size="14.00">&#45;131.000</text>
</g>
<!-- &#45;3024342693038195510&#45;&gt;&#45;1667763233145595450 -->
<g id="edge13" class="edge">
<title>&#45;3024342693038195510&#45;&gt;&#45;1667763233145595450</title>
<path fill="none" stroke="black" d="M674.1,-212.23C666.25,-203.06 657.66,-193.02 649.49,-183.47"/>
<polygon fill="black" stroke="black" points="651.91,-180.92 642.75,-175.6 646.59,-185.47 651.91,-180.92"/>
</g>
<!-- 1673456329193069770 -->
<g id="node6" class="node">
<title>1673456329193069770</title>
<path fill="none" stroke="black" d="M724,-106.5C724,-106.5 860,-106.5 860,-106.5 866,-106.5 872,-112.5 872,-118.5 872,-118.5 872,-163.5 872,-163.5 872,-169.5 866,-175.5 860,-175.5 860,-175.5 724,-175.5 724,-175.5 718,-175.5 712,-169.5 712,-163.5 712,-163.5 712,-118.5 712,-118.5 712,-112.5 718,-106.5 724,-106.5"/>
<text text-anchor="middle" x="792" y="-160.3" font-family="Times,serif" font-size="14.00">ADDXri</text>
<polyline fill="none" stroke="black" points="712,-152.5 872,-152.5 "/>
<text text-anchor="middle" x="752" y="-137.3" font-family="Times,serif" font-size="14.00">&#45;131.000</text>
<polyline fill="none" stroke="black" points="712,-129.5 792,-129.5 "/>
<text text-anchor="middle" x="752" y="-114.3" font-family="Times,serif" font-size="14.00">1</text>
<polyline fill="none" stroke="black" points="792,-106.5 792,-152.5 "/>
<text text-anchor="middle" x="832" y="-125.8" font-family="Times,serif" font-size="14.00">&#45;131.000</text>
</g>
<!-- 8800192825085030885&#45;&gt;1673456329193069770 -->
<g id="edge5" class="edge">
<title>8800192825085030885&#45;&gt;1673456329193069770</title>
<path fill="none" stroke="black" d="M882.49,-212.23C869.96,-202.51 856.18,-191.81 843.23,-181.76"/>
<polygon fill="black" stroke="black" points="845.33,-178.96 835.29,-175.6 841.04,-184.49 845.33,-178.96"/>
</g>
<!-- &#45;5856804510468138939 -->
<g id="node7" class="node">
<title>&#45;5856804510468138939</title>
<path fill="none" stroke="black" d="M902,-106.5C902,-106.5 1038,-106.5 1038,-106.5 1044,-106.5 1050,-112.5 1050,-118.5 1050,-118.5 1050,-163.5 1050,-163.5 1050,-169.5 1044,-175.5 1038,-175.5 1038,-175.5 902,-175.5 902,-175.5 896,-175.5 890,-169.5 890,-163.5 890,-163.5 890,-118.5 890,-118.5 890,-112.5 896,-106.5 902,-106.5"/>
<text text-anchor="middle" x="970" y="-160.3" font-family="Times,serif" font-size="14.00">UBFMXri</text>
<polyline fill="none" stroke="black" points="890,-152.5 1050,-152.5 "/>
<text text-anchor="middle" x="930" y="-137.3" font-family="Times,serif" font-size="14.00">&#45;243.000</text>
<polyline fill="none" stroke="black" points="890,-129.5 970,-129.5 "/>
<text text-anchor="middle" x="930" y="-114.3" font-family="Times,serif" font-size="14.00">2</text>
<polyline fill="none" stroke="black" points="970,-106.5 970,-152.5 "/>
<text text-anchor="middle" x="1010" y="-125.8" font-family="Times,serif" font-size="14.00">&#45;121.500</text>
</g>
<!-- 8800192825085030885&#45;&gt;&#45;5856804510468138939 -->
<g id="edge6" class="edge">
<title>8800192825085030885&#45;&gt;&#45;5856804510468138939</title>
<path fill="none" stroke="black" d="M940.29,-212.23C943.97,-203.52 947.99,-194.02 951.85,-184.91"/>
<polygon fill="black" stroke="black" points="955.11,-186.17 955.79,-175.6 948.67,-183.44 955.11,-186.17"/>
</g>
<!-- &#45;97300412679522009 -->
<g id="node8" class="node">
<title>&#45;97300412679522009</title>
<path fill="none" stroke="black" d="M1080,-106.5C1080,-106.5 1216,-106.5 1216,-106.5 1222,-106.5 1228,-112.5 1228,-118.5 1228,-118.5 1228,-163.5 1228,-163.5 1228,-169.5 1222,-175.5 1216,-175.5 1216,-175.5 1080,-175.5 1080,-175.5 1074,-175.5 1068,-169.5 1068,-163.5 1068,-163.5 1068,-118.5 1068,-118.5 1068,-112.5 1074,-106.5 1080,-106.5"/>
<text text-anchor="middle" x="1148" y="-160.3" font-family="Times,serif" font-size="14.00">MOVi32imm</text>
<polyline fill="none" stroke="black" points="1068,-152.5 1228,-152.5 "/>
<text text-anchor="middle" x="1108" y="-137.3" font-family="Times,serif" font-size="14.00">&#45;121.000</text>
<polyline fill="none" stroke="black" points="1068,-129.5 1148,-129.5 "/>
<text text-anchor="middle" x="1108" y="-114.3" font-family="Times,serif" font-size="14.00">1</text>
<polyline fill="none" stroke="black" points="1148,-106.5 1148,-152.5 "/>
<text text-anchor="middle" x="1188" y="-125.8" font-family="Times,serif" font-size="14.00">&#45;121.000</text>
</g>
<!-- 8800192825085030885&#45;&gt;&#45;97300412679522009 -->
<g id="edge7" class="edge">
<title>8800192825085030885&#45;&gt;&#45;97300412679522009</title>
<path fill="none" stroke="black" d="M997.77,-212.38C1019.93,-202 1044.48,-190.5 1067.2,-179.85"/>
<polygon fill="black" stroke="black" points="1068.91,-182.92 1076.48,-175.51 1065.94,-176.58 1068.91,-182.92"/>
</g>
<!-- &#45;870776238982018015 -->
<g id="node9" class="node">
<title>&#45;870776238982018015</title>
<path fill="none" stroke="black" d="M1347,-106.5C1347,-106.5 1483,-106.5 1483,-106.5 1489,-106.5 1495,-112.5 1495,-118.5 1495,-118.5 1495,-163.5 1495,-163.5 1495,-169.5 1489,-175.5 1483,-175.5 1483,-175.5 1347,-175.5 1347,-175.5 1341,-175.5 1335,-169.5 1335,-163.5 1335,-163.5 1335,-118.5 1335,-118.5 1335,-112.5 1341,-106.5 1347,-106.5"/>
<text text-anchor="middle" x="1415" y="-160.3" font-family="Times,serif" font-size="14.00">UBFMXri</text>
<polyline fill="none" stroke="black" points="1335,-152.5 1495,-152.5 "/>
<text text-anchor="middle" x="1375" y="-137.3" font-family="Times,serif" font-size="14.00">&#45;121.000</text>
<polyline fill="none" stroke="black" points="1335,-129.5 1415,-129.5 "/>
<text text-anchor="middle" x="1375" y="-114.3" font-family="Times,serif" font-size="14.00">1</text>
<polyline fill="none" stroke="black" points="1415,-106.5 1415,-152.5 "/>
<text text-anchor="middle" x="1455" y="-125.8" font-family="Times,serif" font-size="14.00">&#45;121.000</text>
</g>
<!-- 5743126076645127078&#45;&gt;&#45;870776238982018015 -->
<g id="edge8" class="edge">
<title>5743126076645127078&#45;&gt;&#45;870776238982018015</title>
<path fill="none" stroke="black" d="M1690.66,-222.53C1635.41,-206.39 1561.98,-184.94 1504.8,-168.23"/>
<polygon fill="black" stroke="black" points="1505.63,-164.83 1495.04,-165.38 1503.66,-171.55 1505.63,-164.83"/>
</g>
<!-- 9160903804836795428 -->
<g id="node10" class="node">
<title>9160903804836795428</title>
<path fill="none" stroke="black" d="M1614,-106.5C1614,-106.5 1750,-106.5 1750,-106.5 1756,-106.5 1762,-112.5 1762,-118.5 1762,-118.5 1762,-163.5 1762,-163.5 1762,-169.5 1756,-175.5 1750,-175.5 1750,-175.5 1614,-175.5 1614,-175.5 1608,-175.5 1602,-169.5 1602,-163.5 1602,-163.5 1602,-118.5 1602,-118.5 1602,-112.5 1608,-106.5 1614,-106.5"/>
<text text-anchor="middle" x="1682" y="-160.3" font-family="Times,serif" font-size="14.00">SUBSXri</text>
<polyline fill="none" stroke="black" points="1602,-152.5 1762,-152.5 "/>
<text text-anchor="middle" x="1642" y="-137.3" font-family="Times,serif" font-size="14.00">&#45;242.000</text>
<polyline fill="none" stroke="black" points="1602,-129.5 1682,-129.5 "/>
<text text-anchor="middle" x="1642" y="-114.3" font-family="Times,serif" font-size="14.00">2</text>
<polyline fill="none" stroke="black" points="1682,-106.5 1682,-152.5 "/>
<text text-anchor="middle" x="1722" y="-125.8" font-family="Times,serif" font-size="14.00">&#45;121.000</text>
</g>
<!-- 5743126076645127078&#45;&gt;9160903804836795428 -->
<g id="edge9" class="edge">
<title>5743126076645127078&#45;&gt;9160903804836795428</title>
<path fill="none" stroke="black" d="M1742.1,-212.23C1734.25,-203.06 1725.66,-193.02 1717.49,-183.47"/>
<polygon fill="black" stroke="black" points="1719.91,-180.92 1710.75,-175.6 1714.59,-185.47 1719.91,-180.92"/>
</g>
<!-- 3201914571570665806 -->
<g id="node11" class="node">
<title>3201914571570665806</title>
<path fill="none" stroke="black" d="M1792,-106.5C1792,-106.5 1928,-106.5 1928,-106.5 1934,-106.5 1940,-112.5 1940,-118.5 1940,-118.5 1940,-163.5 1940,-163.5 1940,-169.5 1934,-175.5 1928,-175.5 1928,-175.5 1792,-175.5 1792,-175.5 1786,-175.5 1780,-169.5 1780,-163.5 1780,-163.5 1780,-118.5 1780,-118.5 1780,-112.5 1786,-106.5 1792,-106.5"/>
<text text-anchor="middle" x="1860" y="-160.3" font-family="Times,serif" font-size="14.00">ADDXri</text>
<polyline fill="none" stroke="black" points="1780,-152.5 1940,-152.5 "/>
<text text-anchor="middle" x="1820" y="-137.3" font-family="Times,serif" font-size="14.00">&#45;233.000</text>
<polyline fill="none" stroke="black" points="1780,-129.5 1860,-129.5 "/>
<text text-anchor="middle" x="1820" y="-114.3" font-family="Times,serif" font-size="14.00">2</text>
<polyline fill="none" stroke="black" points="1860,-106.5 1860,-152.5 "/>
<text text-anchor="middle" x="1900" y="-125.8" font-family="Times,serif" font-size="14.00">&#45;116.500</text>
</g>
<!-- 5743126076645127078&#45;&gt;3201914571570665806 -->
<g id="edge10" class="edge">
<title>5743126076645127078&#45;&gt;3201914571570665806</title>
<path fill="none" stroke="black" d="M1799.9,-212.23C1807.75,-203.06 1816.34,-193.02 1824.51,-183.47"/>
<polygon fill="black" stroke="black" points="1827.41,-185.47 1831.25,-175.6 1822.09,-180.92 1827.41,-185.47"/>
</g>
<!-- 8156097460023908948 -->
<g id="node12" class="node">
<title>8156097460023908948</title>
<path fill="none" stroke="black" d="M2014,-106.5C2014,-106.5 2150,-106.5 2150,-106.5 2156,-106.5 2162,-112.5 2162,-118.5 2162,-118.5 2162,-163.5 2162,-163.5 2162,-169.5 2156,-175.5 2150,-175.5 2150,-175.5 2014,-175.5 2014,-175.5 2008,-175.5 2002,-169.5 2002,-163.5 2002,-163.5 2002,-118.5 2002,-118.5 2002,-112.5 2008,-106.5 2014,-106.5"/>
<text text-anchor="middle" x="2082" y="-160.3" font-family="Times,serif" font-size="14.00">MOVaddr</text>
<polyline fill="none" stroke="black" points="2002,-152.5 2162,-152.5 "/>
<text text-anchor="middle" x="2042" y="-137.3" font-family="Times,serif" font-size="14.00">&#45;131.000</text>
<polyline fill="none" stroke="black" points="2002,-129.5 2082,-129.5 "/>
<text text-anchor="middle" x="2042" y="-114.3" font-family="Times,serif" font-size="14.00">1</text>
<polyline fill="none" stroke="black" points="2082,-106.5 2082,-152.5 "/>
<text text-anchor="middle" x="2122" y="-125.8" font-family="Times,serif" font-size="14.00">&#45;131.000</text>
</g>
<!-- 5743126076645127078&#45;&gt;8156097460023908948 -->
<g id="edge11" class="edge">
<title>5743126076645127078&#45;&gt;8156097460023908948</title>
<path fill="none" stroke="black" d="M1851.09,-219.22C1894.27,-204.78 1947.68,-186.92 1992.25,-172.01"/>
<polygon fill="black" stroke="black" points="1993.54,-175.27 2001.91,-168.78 1991.32,-168.63 1993.54,-175.27"/>
</g>
<!-- &#45;3940201243222295297 -->
<g id="node13" class="node">
<title>&#45;3940201243222295297</title>
<path fill="none" stroke="black" d="M2281,-106.5C2281,-106.5 2417,-106.5 2417,-106.5 2423,-106.5 2429,-112.5 2429,-118.5 2429,-118.5 2429,-163.5 2429,-163.5 2429,-169.5 2423,-175.5 2417,-175.5 2417,-175.5 2281,-175.5 2281,-175.5 2275,-175.5 2269,-169.5 2269,-163.5 2269,-163.5 2269,-118.5 2269,-118.5 2269,-112.5 2275,-106.5 2281,-106.5"/>
<text text-anchor="middle" x="2349" y="-160.3" font-family="Times,serif" font-size="14.00">MOVi32imm</text>
<polyline fill="none" stroke="black" points="2269,-152.5 2429,-152.5 "/>
<text text-anchor="middle" x="2309" y="-137.3" font-family="Times,serif" font-size="14.00">&#45;131.000</text>
<polyline fill="none" stroke="black" points="2269,-129.5 2349,-129.5 "/>
<text text-anchor="middle" x="2309" y="-114.3" font-family="Times,serif" font-size="14.00">1</text>
<polyline fill="none" stroke="black" points="2349,-106.5 2349,-152.5 "/>
<text text-anchor="middle" x="2389" y="-125.8" font-family="Times,serif" font-size="14.00">&#45;131.000</text>
</g>
<!-- 5743126076645127078&#45;&gt;&#45;3940201243222295297 -->
<g id="edge12" class="edge">
<title>5743126076645127078&#45;&gt;&#45;3940201243222295297</title>
<path fill="none" stroke="black" d="M1851.13,-232.35C1931.93,-218.5 2060.22,-196.27 2171,-176 2199.65,-170.76 2230.86,-164.86 2259.03,-159.47"/>
<polygon fill="black" stroke="black" points="2259.7,-162.9 2268.86,-157.58 2258.38,-156.03 2259.7,-162.9"/>
</g>
<!-- 2434546959647218688 -->
<g id="node27" class="node">
<title>2434546959647218688</title>
<path fill="none" stroke="black" d="M546,-0.5C546,-0.5 682,-0.5 682,-0.5 688,-0.5 694,-6.5 694,-12.5 694,-12.5 694,-57.5 694,-57.5 694,-63.5 688,-69.5 682,-69.5 682,-69.5 546,-69.5 546,-69.5 540,-69.5 534,-63.5 534,-57.5 534,-57.5 534,-12.5 534,-12.5 534,-6.5 540,-0.5 546,-0.5"/>
<text text-anchor="middle" x="614" y="-54.3" font-family="Times,serif" font-size="14.00">ADDXri</text>
<polyline fill="none" stroke="black" points="534,-46.5 694,-46.5 "/>
<text text-anchor="middle" x="574" y="-31.3" font-family="Times,serif" font-size="14.00">&#45;131.000</text>
<polyline fill="none" stroke="black" points="534,-23.5 614,-23.5 "/>
<text text-anchor="middle" x="574" y="-8.3" font-family="Times,serif" font-size="14.00">1</text>
<polyline fill="none" stroke="black" points="614,-0.5 614,-46.5 "/>
<text text-anchor="middle" x="654" y="-19.8" font-family="Times,serif" font-size="14.00">&#45;131.000</text>
</g>
<!-- 1673456329193069770&#45;&gt;2434546959647218688 -->
<g id="edge26" class="edge">
<title>1673456329193069770&#45;&gt;2434546959647218688</title>
<path fill="none" stroke="black" d="M734.21,-106.23C717.09,-96.23 698.21,-85.2 680.59,-74.91"/>
<polygon fill="black" stroke="black" points="681.9,-71.62 671.5,-69.6 678.37,-77.66 681.9,-71.62"/>
</g>
<!-- &#45;6265057828776108892 -->
<g id="node25" class="node">
<title>&#45;6265057828776108892</title>
<path fill="none" stroke="black" d="M724,-0.5C724,-0.5 860,-0.5 860,-0.5 866,-0.5 872,-6.5 872,-12.5 872,-12.5 872,-57.5 872,-57.5 872,-63.5 866,-69.5 860,-69.5 860,-69.5 724,-69.5 724,-69.5 718,-69.5 712,-63.5 712,-57.5 712,-57.5 712,-12.5 712,-12.5 712,-6.5 718,-0.5 724,-0.5"/>
<text text-anchor="middle" x="792" y="-54.3" font-family="Times,serif" font-size="14.00">ADDXri</text>
<polyline fill="none" stroke="black" points="712,-46.5 872,-46.5 "/>
<text text-anchor="middle" x="752" y="-31.3" font-family="Times,serif" font-size="14.00">&#45;122.000</text>
<polyline fill="none" stroke="black" points="712,-23.5 792,-23.5 "/>
<text text-anchor="middle" x="752" y="-8.3" font-family="Times,serif" font-size="14.00">1</text>
<polyline fill="none" stroke="black" points="792,-0.5 792,-46.5 "/>
<text text-anchor="middle" x="832" y="-19.8" font-family="Times,serif" font-size="14.00">&#45;122.000</text>
</g>
<!-- &#45;5856804510468138939&#45;&gt;&#45;6265057828776108892 -->
<g id="edge24" class="edge">
<title>&#45;5856804510468138939&#45;&gt;&#45;6265057828776108892</title>
<path fill="none" stroke="black" d="M912.21,-106.23C895.09,-96.23 876.21,-85.2 858.59,-74.91"/>
<polygon fill="black" stroke="black" points="859.9,-71.62 849.5,-69.6 856.37,-77.66 859.9,-71.62"/>
</g>
<!-- 1833532502445998823 -->
<g id="node26" class="node">
<title>1833532502445998823</title>
<path fill="none" stroke="black" d="M902,-0.5C902,-0.5 1038,-0.5 1038,-0.5 1044,-0.5 1050,-6.5 1050,-12.5 1050,-12.5 1050,-57.5 1050,-57.5 1050,-63.5 1044,-69.5 1038,-69.5 1038,-69.5 902,-69.5 902,-69.5 896,-69.5 890,-63.5 890,-57.5 890,-57.5 890,-12.5 890,-12.5 890,-6.5 896,-0.5 902,-0.5"/>
<text text-anchor="middle" x="970" y="-54.3" font-family="Times,serif" font-size="14.00">MOVi32imm</text>
<polyline fill="none" stroke="black" points="890,-46.5 1050,-46.5 "/>
<text text-anchor="middle" x="930" y="-31.3" font-family="Times,serif" font-size="14.00">&#45;121.000</text>
<polyline fill="none" stroke="black" points="890,-23.5 970,-23.5 "/>
<text text-anchor="middle" x="930" y="-8.3" font-family="Times,serif" font-size="14.00">1</text>
<polyline fill="none" stroke="black" points="970,-0.5 970,-46.5 "/>
<text text-anchor="middle" x="1010" y="-19.8" font-family="Times,serif" font-size="14.00">&#45;121.000</text>
</g>
<!-- &#45;5856804510468138939&#45;&gt;1833532502445998823 -->
<g id="edge25" class="edge">
<title>&#45;5856804510468138939&#45;&gt;1833532502445998823</title>
<path fill="none" stroke="black" d="M970,-106.23C970,-97.79 970,-88.62 970,-79.77"/>
<polygon fill="black" stroke="black" points="973.5,-79.6 970,-69.6 966.5,-79.6 973.5,-79.6"/>
</g>
<!-- 1143608366208957151 -->
<g id="node24" class="node">
<title>1143608366208957151</title>
<path fill="none" stroke="black" d="M1080,-0.5C1080,-0.5 1216,-0.5 1216,-0.5 1222,-0.5 1228,-6.5 1228,-12.5 1228,-12.5 1228,-57.5 1228,-57.5 1228,-63.5 1222,-69.5 1216,-69.5 1216,-69.5 1080,-69.5 1080,-69.5 1074,-69.5 1068,-63.5 1068,-57.5 1068,-57.5 1068,-12.5 1068,-12.5 1068,-6.5 1074,-0.5 1080,-0.5"/>
<text text-anchor="middle" x="1148" y="-54.3" font-family="Times,serif" font-size="14.00">ADDXri</text>
<polyline fill="none" stroke="black" points="1068,-46.5 1228,-46.5 "/>
<text text-anchor="middle" x="1108" y="-31.3" font-family="Times,serif" font-size="14.00">&#45;121.000</text>
<polyline fill="none" stroke="black" points="1068,-23.5 1148,-23.5 "/>
<text text-anchor="middle" x="1108" y="-8.3" font-family="Times,serif" font-size="14.00">1</text>
<polyline fill="none" stroke="black" points="1148,-0.5 1148,-46.5 "/>
<text text-anchor="middle" x="1188" y="-19.8" font-family="Times,serif" font-size="14.00">&#45;121.000</text>
</g>
<!-- &#45;97300412679522009&#45;&gt;1143608366208957151 -->
<g id="edge23" class="edge">
<title>&#45;97300412679522009&#45;&gt;1143608366208957151</title>
<path fill="none" stroke="black" d="M1148,-106.23C1148,-97.79 1148,-88.62 1148,-79.77"/>
<polygon fill="black" stroke="black" points="1151.5,-79.6 1148,-69.6 1144.5,-79.6 1151.5,-79.6"/>
</g>
<!-- 4728739218886332412 -->
<g id="node21" class="node">
<title>4728739218886332412</title>
<path fill="none" stroke="black" d="M1258,-0.5C1258,-0.5 1394,-0.5 1394,-0.5 1400,-0.5 1406,-6.5 1406,-12.5 1406,-12.5 1406,-57.5 1406,-57.5 1406,-63.5 1400,-69.5 1394,-69.5 1394,-69.5 1258,-69.5 1258,-69.5 1252,-69.5 1246,-63.5 1246,-57.5 1246,-57.5 1246,-12.5 1246,-12.5 1246,-6.5 1252,-0.5 1258,-0.5"/>
<text text-anchor="middle" x="1326" y="-54.3" font-family="Times,serif" font-size="14.00">ADDXri</text>
<polyline fill="none" stroke="black" points="1246,-46.5 1406,-46.5 "/>
<text text-anchor="middle" x="1286" y="-31.3" font-family="Times,serif" font-size="14.00">&#45;121.000</text>
<polyline fill="none" stroke="black" points="1246,-23.5 1326,-23.5 "/>
<text text-anchor="middle" x="1286" y="-8.3" font-family="Times,serif" font-size="14.00">1</text>
<polyline fill="none" stroke="black" points="1326,-0.5 1326,-46.5 "/>
<text text-anchor="middle" x="1366" y="-19.8" font-family="Times,serif" font-size="14.00">&#45;121.000</text>
</g>
<!-- &#45;870776238982018015&#45;&gt;4728739218886332412 -->
<g id="edge20" class="edge">
<title>&#45;870776238982018015&#45;&gt;4728739218886332412</title>
<path fill="none" stroke="black" d="M1386.1,-106.23C1378.25,-97.06 1369.66,-87.02 1361.49,-77.47"/>
<polygon fill="black" stroke="black" points="1363.91,-74.92 1354.75,-69.6 1358.59,-79.47 1363.91,-74.92"/>
</g>
<!-- &#45;7665953572122027844 -->
<g id="node18" class="node">
<title>&#45;7665953572122027844</title>
<path fill="none" stroke="black" d="M1436,-0.5C1436,-0.5 1572,-0.5 1572,-0.5 1578,-0.5 1584,-6.5 1584,-12.5 1584,-12.5 1584,-57.5 1584,-57.5 1584,-63.5 1578,-69.5 1572,-69.5 1572,-69.5 1436,-69.5 1436,-69.5 1430,-69.5 1424,-63.5 1424,-57.5 1424,-57.5 1424,-12.5 1424,-12.5 1424,-6.5 1430,-0.5 1436,-0.5"/>
<text text-anchor="middle" x="1504" y="-54.3" font-family="Times,serif" font-size="14.00">MOVi32imm</text>
<polyline fill="none" stroke="black" points="1424,-46.5 1584,-46.5 "/>
<text text-anchor="middle" x="1464" y="-31.3" font-family="Times,serif" font-size="14.00">&#45;121.000</text>
<polyline fill="none" stroke="black" points="1424,-23.5 1504,-23.5 "/>
<text text-anchor="middle" x="1464" y="-8.3" font-family="Times,serif" font-size="14.00">1</text>
<polyline fill="none" stroke="black" points="1504,-0.5 1504,-46.5 "/>
<text text-anchor="middle" x="1544" y="-19.8" font-family="Times,serif" font-size="14.00">&#45;121.000</text>
</g>
<!-- 9160903804836795428&#45;&gt;&#45;7665953572122027844 -->
<g id="edge17" class="edge">
<title>9160903804836795428&#45;&gt;&#45;7665953572122027844</title>
<path fill="none" stroke="black" d="M1624.21,-106.23C1607.09,-96.23 1588.21,-85.2 1570.59,-74.91"/>
<polygon fill="black" stroke="black" points="1571.9,-71.62 1561.5,-69.6 1568.37,-77.66 1571.9,-71.62"/>
</g>
<!-- 4671918823830944926 -->
<g id="node19" class="node">
<title>4671918823830944926</title>
<path fill="none" stroke="black" d="M1614,-0.5C1614,-0.5 1750,-0.5 1750,-0.5 1756,-0.5 1762,-6.5 1762,-12.5 1762,-12.5 1762,-57.5 1762,-57.5 1762,-63.5 1756,-69.5 1750,-69.5 1750,-69.5 1614,-69.5 1614,-69.5 1608,-69.5 1602,-63.5 1602,-57.5 1602,-57.5 1602,-12.5 1602,-12.5 1602,-6.5 1608,-0.5 1614,-0.5"/>
<text text-anchor="middle" x="1682" y="-54.3" font-family="Times,serif" font-size="14.00">MOVaddr</text>
<polyline fill="none" stroke="black" points="1602,-46.5 1762,-46.5 "/>
<text text-anchor="middle" x="1642" y="-31.3" font-family="Times,serif" font-size="14.00">&#45;121.000</text>
<polyline fill="none" stroke="black" points="1602,-23.5 1682,-23.5 "/>
<text text-anchor="middle" x="1642" y="-8.3" font-family="Times,serif" font-size="14.00">1</text>
<polyline fill="none" stroke="black" points="1682,-0.5 1682,-46.5 "/>
<text text-anchor="middle" x="1722" y="-19.8" font-family="Times,serif" font-size="14.00">&#45;121.000</text>
</g>
<!-- 9160903804836795428&#45;&gt;4671918823830944926 -->
<g id="edge18" class="edge">
<title>9160903804836795428&#45;&gt;4671918823830944926</title>
<path fill="none" stroke="black" d="M1682,-106.23C1682,-97.79 1682,-88.62 1682,-79.77"/>
<polygon fill="black" stroke="black" points="1685.5,-79.6 1682,-69.6 1678.5,-79.6 1685.5,-79.6"/>
</g>
<!-- 252277027111186161 -->
<g id="node22" class="node">
<title>252277027111186161</title>
<path fill="none" stroke="black" d="M1792,-0.5C1792,-0.5 1928,-0.5 1928,-0.5 1934,-0.5 1940,-6.5 1940,-12.5 1940,-12.5 1940,-57.5 1940,-57.5 1940,-63.5 1934,-69.5 1928,-69.5 1928,-69.5 1792,-69.5 1792,-69.5 1786,-69.5 1780,-63.5 1780,-57.5 1780,-57.5 1780,-12.5 1780,-12.5 1780,-6.5 1786,-0.5 1792,-0.5"/>
<text text-anchor="middle" x="1860" y="-54.3" font-family="Times,serif" font-size="14.00">MOVi32imm</text>
<polyline fill="none" stroke="black" points="1780,-46.5 1940,-46.5 "/>
<text text-anchor="middle" x="1820" y="-31.3" font-family="Times,serif" font-size="14.00">&#45;131.000</text>
<polyline fill="none" stroke="black" points="1780,-23.5 1860,-23.5 "/>
<text text-anchor="middle" x="1820" y="-8.3" font-family="Times,serif" font-size="14.00">1</text>
<polyline fill="none" stroke="black" points="1860,-0.5 1860,-46.5 "/>
<text text-anchor="middle" x="1900" y="-19.8" font-family="Times,serif" font-size="14.00">&#45;131.000</text>
</g>
<!-- 3201914571570665806&#45;&gt;252277027111186161 -->
<g id="edge21" class="edge">
<title>3201914571570665806&#45;&gt;252277027111186161</title>
<path fill="none" stroke="black" d="M1860,-106.23C1860,-97.79 1860,-88.62 1860,-79.77"/>
<polygon fill="black" stroke="black" points="1863.5,-79.6 1860,-69.6 1856.5,-79.6 1863.5,-79.6"/>
</g>
<!-- &#45;8734029972213368589 -->
<g id="node23" class="node">
<title>&#45;8734029972213368589</title>
<path fill="none" stroke="black" d="M1970,-0.5C1970,-0.5 2106,-0.5 2106,-0.5 2112,-0.5 2118,-6.5 2118,-12.5 2118,-12.5 2118,-57.5 2118,-57.5 2118,-63.5 2112,-69.5 2106,-69.5 2106,-69.5 1970,-69.5 1970,-69.5 1964,-69.5 1958,-63.5 1958,-57.5 1958,-57.5 1958,-12.5 1958,-12.5 1958,-6.5 1964,-0.5 1970,-0.5"/>
<text text-anchor="middle" x="2038" y="-54.3" font-family="Times,serif" font-size="14.00">MOVaddr</text>
<polyline fill="none" stroke="black" points="1958,-46.5 2118,-46.5 "/>
<text text-anchor="middle" x="1998" y="-31.3" font-family="Times,serif" font-size="14.00">&#45;102.000</text>
<polyline fill="none" stroke="black" points="1958,-23.5 2038,-23.5 "/>
<text text-anchor="middle" x="1998" y="-8.3" font-family="Times,serif" font-size="14.00">1</text>
<polyline fill="none" stroke="black" points="2038,-0.5 2038,-46.5 "/>
<text text-anchor="middle" x="2078" y="-19.8" font-family="Times,serif" font-size="14.00">&#45;102.000</text>
</g>
<!-- 3201914571570665806&#45;&gt;&#45;8734029972213368589 -->
<g id="edge22" class="edge">
<title>3201914571570665806&#45;&gt;&#45;8734029972213368589</title>
<path fill="none" stroke="black" d="M1917.79,-106.23C1934.91,-96.23 1953.79,-85.2 1971.41,-74.91"/>
<polygon fill="black" stroke="black" points="1973.63,-77.66 1980.5,-69.6 1970.1,-71.62 1973.63,-77.66"/>
</g>
<!-- &#45;7549111001044384075 -->
<g id="node20" class="node">
<title>&#45;7549111001044384075</title>
<path fill="none" stroke="black" d="M2148,-0.5C2148,-0.5 2284,-0.5 2284,-0.5 2290,-0.5 2296,-6.5 2296,-12.5 2296,-12.5 2296,-57.5 2296,-57.5 2296,-63.5 2290,-69.5 2284,-69.5 2284,-69.5 2148,-69.5 2148,-69.5 2142,-69.5 2136,-63.5 2136,-57.5 2136,-57.5 2136,-12.5 2136,-12.5 2136,-6.5 2142,-0.5 2148,-0.5"/>
<text text-anchor="middle" x="2216" y="-54.3" font-family="Times,serif" font-size="14.00">ADDXri</text>
<polyline fill="none" stroke="black" points="2136,-46.5 2296,-46.5 "/>
<text text-anchor="middle" x="2176" y="-31.3" font-family="Times,serif" font-size="14.00">&#45;131.000</text>
<polyline fill="none" stroke="black" points="2136,-23.5 2216,-23.5 "/>
<text text-anchor="middle" x="2176" y="-8.3" font-family="Times,serif" font-size="14.00">1</text>
<polyline fill="none" stroke="black" points="2216,-0.5 2216,-46.5 "/>
<text text-anchor="middle" x="2256" y="-19.8" font-family="Times,serif" font-size="14.00">&#45;131.000</text>
</g>
<!-- 8156097460023908948&#45;&gt;&#45;7549111001044384075 -->
<g id="edge19" class="edge">
<title>8156097460023908948&#45;&gt;&#45;7549111001044384075</title>
<path fill="none" stroke="black" d="M2125.51,-106.23C2138.04,-96.51 2151.82,-85.81 2164.77,-75.76"/>
<polygon fill="black" stroke="black" points="2166.96,-78.49 2172.71,-69.6 2162.67,-72.96 2166.96,-78.49"/>
</g>
<!-- 5987299256747915467 -->
<g id="node29" class="node">
<title>5987299256747915467</title>
<path fill="none" stroke="black" d="M2326,-0.5C2326,-0.5 2462,-0.5 2462,-0.5 2468,-0.5 2474,-6.5 2474,-12.5 2474,-12.5 2474,-57.5 2474,-57.5 2474,-63.5 2468,-69.5 2462,-69.5 2462,-69.5 2326,-69.5 2326,-69.5 2320,-69.5 2314,-63.5 2314,-57.5 2314,-57.5 2314,-12.5 2314,-12.5 2314,-6.5 2320,-0.5 2326,-0.5"/>
<text text-anchor="middle" x="2394" y="-54.3" font-family="Times,serif" font-size="14.00">MOVi32imm</text>
<polyline fill="none" stroke="black" points="2314,-46.5 2474,-46.5 "/>
<text text-anchor="middle" x="2354" y="-31.3" font-family="Times,serif" font-size="14.00">&#45;131.000</text>
<polyline fill="none" stroke="black" points="2314,-23.5 2394,-23.5 "/>
<text text-anchor="middle" x="2354" y="-8.3" font-family="Times,serif" font-size="14.00">1</text>
<polyline fill="none" stroke="black" points="2394,-0.5 2394,-46.5 "/>
<text text-anchor="middle" x="2434" y="-19.8" font-family="Times,serif" font-size="14.00">&#45;131.000</text>
</g>
<!-- &#45;3940201243222295297&#45;&gt;5987299256747915467 -->
<g id="edge28" class="edge">
<title>&#45;3940201243222295297&#45;&gt;5987299256747915467</title>
<path fill="none" stroke="black" d="M2363.61,-106.23C2367.38,-97.52 2371.49,-88.02 2375.43,-78.91"/>
<polygon fill="black" stroke="black" points="2378.7,-80.16 2379.46,-69.6 2372.28,-77.38 2378.7,-80.16"/>
</g>
<!-- &#45;4261954287207560597 -->
<g id="node30" class="node">
<title>&#45;4261954287207560597</title>
<path fill="none" stroke="black" d="M12,-0.5C12,-0.5 148,-0.5 148,-0.5 154,-0.5 160,-6.5 160,-12.5 160,-12.5 160,-57.5 160,-57.5 160,-63.5 154,-69.5 148,-69.5 148,-69.5 12,-69.5 12,-69.5 6,-69.5 0,-63.5 0,-57.5 0,-57.5 0,-12.5 0,-12.5 0,-6.5 6,-0.5 12,-0.5"/>
<text text-anchor="middle" x="80" y="-54.3" font-family="Times,serif" font-size="14.00">MOVi32imm</text>
<polyline fill="none" stroke="black" points="0,-46.5 160,-46.5 "/>
<text text-anchor="middle" x="40" y="-31.3" font-family="Times,serif" font-size="14.00">&#45;243.000</text>
<polyline fill="none" stroke="black" points="0,-23.5 80,-23.5 "/>
<text text-anchor="middle" x="40" y="-8.3" font-family="Times,serif" font-size="14.00">2</text>
<polyline fill="none" stroke="black" points="80,-0.5 80,-46.5 "/>
<text text-anchor="middle" x="120" y="-19.8" font-family="Times,serif" font-size="14.00">&#45;121.500</text>
</g>
<!-- &#45;2526900567925145544&#45;&gt;&#45;4261954287207560597 -->
<g id="edge29" class="edge">
<title>&#45;2526900567925145544&#45;&gt;&#45;4261954287207560597</title>
<path fill="none" stroke="black" d="M80,-106.23C80,-97.79 80,-88.62 80,-79.77"/>
<polygon fill="black" stroke="black" points="83.5,-79.6 80,-69.6 76.5,-79.6 83.5,-79.6"/>
</g>
<!-- &#45;7089712920215352703 -->
<g id="node31" class="node">
<title>&#45;7089712920215352703</title>
<path fill="none" stroke="black" d="M190,-0.5C190,-0.5 326,-0.5 326,-0.5 332,-0.5 338,-6.5 338,-12.5 338,-12.5 338,-57.5 338,-57.5 338,-63.5 332,-69.5 326,-69.5 326,-69.5 190,-69.5 190,-69.5 184,-69.5 178,-63.5 178,-57.5 178,-57.5 178,-12.5 178,-12.5 178,-6.5 184,-0.5 190,-0.5"/>
<text text-anchor="middle" x="258" y="-54.3" font-family="Times,serif" font-size="14.00">MOVi32imm</text>
<polyline fill="none" stroke="black" points="178,-46.5 338,-46.5 "/>
<text text-anchor="middle" x="218" y="-31.3" font-family="Times,serif" font-size="14.00">&#45;121.000</text>
<polyline fill="none" stroke="black" points="178,-23.5 258,-23.5 "/>
<text text-anchor="middle" x="218" y="-8.3" font-family="Times,serif" font-size="14.00">1</text>
<polyline fill="none" stroke="black" points="258,-0.5 258,-46.5 "/>
<text text-anchor="middle" x="298" y="-19.8" font-family="Times,serif" font-size="14.00">&#45;121.000</text>
</g>
<!-- &#45;2233568817616837411&#45;&gt;&#45;7089712920215352703 -->
<g id="edge30" class="edge">
<title>&#45;2233568817616837411&#45;&gt;&#45;7089712920215352703</title>
<path fill="none" stroke="black" d="M258,-106.23C258,-97.79 258,-88.62 258,-79.77"/>
<polygon fill="black" stroke="black" points="261.5,-79.6 258,-69.6 254.5,-79.6 261.5,-79.6"/>
</g>
<!-- 1203233546713110013 -->
<g id="node28" class="node">
<title>1203233546713110013</title>
<path fill="none" stroke="black" d="M368,-0.5C368,-0.5 504,-0.5 504,-0.5 510,-0.5 516,-6.5 516,-12.5 516,-12.5 516,-57.5 516,-57.5 516,-63.5 510,-69.5 504,-69.5 504,-69.5 368,-69.5 368,-69.5 362,-69.5 356,-63.5 356,-57.5 356,-57.5 356,-12.5 356,-12.5 356,-6.5 362,-0.5 368,-0.5"/>
<text text-anchor="middle" x="436" y="-54.3" font-family="Times,serif" font-size="14.00">ADDXri</text>
<polyline fill="none" stroke="black" points="356,-46.5 516,-46.5 "/>
<text text-anchor="middle" x="396" y="-31.3" font-family="Times,serif" font-size="14.00">&#45;122.000</text>
<polyline fill="none" stroke="black" points="356,-23.5 436,-23.5 "/>
<text text-anchor="middle" x="396" y="-8.3" font-family="Times,serif" font-size="14.00">1</text>
<polyline fill="none" stroke="black" points="436,-0.5 436,-46.5 "/>
<text text-anchor="middle" x="476" y="-19.8" font-family="Times,serif" font-size="14.00">&#45;122.000</text>
</g>
<!-- 4856010242607957462&#45;&gt;1203233546713110013 -->
<g id="edge27" class="edge">
<title>4856010242607957462&#45;&gt;1203233546713110013</title>
<path fill="none" stroke="black" d="M436,-106.23C436,-97.79 436,-88.62 436,-79.77"/>
<polygon fill="black" stroke="black" points="439.5,-79.6 436,-69.6 432.5,-79.6 439.5,-79.6"/>
</g>
</g>
</svg>
