<?xml version="1.0" encoding="UTF-8" standalone="no"?>
<!DOCTYPE svg PUBLIC "-//W3C//DTD SVG 1.1//EN"
 "http://www.w3.org/Graphics/SVG/1.1/DTD/svg11.dtd">
<!-- Generated by graphviz version 2.43.0 (0)
 -->
<!-- Title: MCTS Tree\nmcts/1.0/tree.svg Pages: 1 -->
<svg width="880pt" height="396pt"
 viewBox="0.00 0.00 880.00 396.00" xmlns="http://www.w3.org/2000/svg" xmlns:xlink="http://www.w3.org/1999/xlink">
<g id="graph0" class="graph" transform="scale(1 1) rotate(0) translate(4 392)">
<title>MCTS Tree\nmcts/1.0/tree.svg</title>
<polygon fill="white" stroke="transparent" points="-4,4 -4,-392 876,-392 876,4 -4,4"/>
<!-- 0 -->
<g id="node1" class="node">
<title>0</title>
<path fill="none" stroke="black" d="M279,-318.5C279,-318.5 415,-318.5 415,-318.5 421,-318.5 427,-324.5 427,-330.5 427,-330.5 427,-375.5 427,-375.5 427,-381.5 421,-387.5 415,-387.5 415,-387.5 279,-387.5 279,-387.5 273,-387.5 267,-381.5 267,-375.5 267,-375.5 267,-330.5 267,-330.5 267,-324.5 273,-318.5 279,-318.5"/>
<text text-anchor="middle" x="347" y="-372.3" font-family="Times,serif" font-size="14.00"> </text>
<polyline fill="none" stroke="black" points="267,-364.5 427,-364.5 "/>
<text text-anchor="middle" x="307" y="-349.3" font-family="Times,serif" font-size="14.00">&#45;718.000</text>
<polyline fill="none" stroke="black" points="267,-341.5 347,-341.5 "/>
<text text-anchor="middle" x="307" y="-326.3" font-family="Times,serif" font-size="14.00">6</text>
<polyline fill="none" stroke="black" points="347,-318.5 347,-364.5 "/>
<text text-anchor="middle" x="387" y="-337.8" font-family="Times,serif" font-size="14.00">&#45;119.667</text>
</g>
<!-- &#45;17637840614285167 -->
<g id="node2" class="node">
<title>&#45;17637840614285167</title>
<path fill="none" stroke="black" d="M12,-212.5C12,-212.5 148,-212.5 148,-212.5 154,-212.5 160,-218.5 160,-224.5 160,-224.5 160,-269.5 160,-269.5 160,-275.5 154,-281.5 148,-281.5 148,-281.5 12,-281.5 12,-281.5 6,-281.5 0,-275.5 0,-269.5 0,-269.5 0,-224.5 0,-224.5 0,-218.5 6,-212.5 12,-212.5"/>
<text text-anchor="middle" x="80" y="-266.3" font-family="Times,serif" font-size="14.00">UBFMXri</text>
<polyline fill="none" stroke="black" points="0,-258.5 160,-258.5 "/>
<text text-anchor="middle" x="40" y="-243.3" font-family="Times,serif" font-size="14.00">&#45;122.000</text>
<polyline fill="none" stroke="black" points="0,-235.5 80,-235.5 "/>
<text text-anchor="middle" x="40" y="-220.3" font-family="Times,serif" font-size="14.00">1</text>
<polyline fill="none" stroke="black" points="80,-212.5 80,-258.5 "/>
<text text-anchor="middle" x="120" y="-231.8" font-family="Times,serif" font-size="14.00">&#45;122.000</text>
</g>
<!-- 0&#45;&gt;&#45;17637840614285167 -->
<g id="edge1" class="edge">
<title>0&#45;&gt;&#45;17637840614285167</title>
<path fill="none" stroke="black" d="M266.89,-320.8C236.27,-308.87 201.15,-295.19 169.69,-282.94"/>
<polygon fill="black" stroke="black" points="170.64,-279.55 160.05,-279.18 168.1,-286.07 170.64,-279.55"/>
</g>
<!-- 3148413863160190018 -->
<g id="node3" class="node">
<title>3148413863160190018</title>
<path fill="none" stroke="black" d="M190,-212.5C190,-212.5 326,-212.5 326,-212.5 332,-212.5 338,-218.5 338,-224.5 338,-224.5 338,-269.5 338,-269.5 338,-275.5 332,-281.5 326,-281.5 326,-281.5 190,-281.5 190,-281.5 184,-281.5 178,-275.5 178,-269.5 178,-269.5 178,-224.5 178,-224.5 178,-218.5 184,-212.5 190,-212.5"/>
<text text-anchor="middle" x="258" y="-266.3" font-family="Times,serif" font-size="14.00">MOVaddr</text>
<polyline fill="none" stroke="black" points="178,-258.5 338,-258.5 "/>
<text text-anchor="middle" x="218" y="-243.3" font-family="Times,serif" font-size="14.00">&#45;121.000</text>
<polyline fill="none" stroke="black" points="178,-235.5 258,-235.5 "/>
<text text-anchor="middle" x="218" y="-220.3" font-family="Times,serif" font-size="14.00">1</text>
<polyline fill="none" stroke="black" points="258,-212.5 258,-258.5 "/>
<text text-anchor="middle" x="298" y="-231.8" font-family="Times,serif" font-size="14.00">&#45;121.000</text>
</g>
<!-- 0&#45;&gt;3148413863160190018 -->
<g id="edge2" class="edge">
<title>0&#45;&gt;3148413863160190018</title>
<path fill="none" stroke="black" d="M318.1,-318.23C310.25,-309.06 301.66,-299.02 293.49,-289.47"/>
<polygon fill="black" stroke="black" points="295.91,-286.92 286.75,-281.6 290.59,-291.47 295.91,-286.92"/>
</g>
<!-- &#45;7559665298269281922 -->
<g id="node4" class="node">
<title>&#45;7559665298269281922</title>
<path fill="none" stroke="black" d="M368,-212.5C368,-212.5 504,-212.5 504,-212.5 510,-212.5 516,-218.5 516,-224.5 516,-224.5 516,-269.5 516,-269.5 516,-275.5 510,-281.5 504,-281.5 504,-281.5 368,-281.5 368,-281.5 362,-281.5 356,-275.5 356,-269.5 356,-269.5 356,-224.5 356,-224.5 356,-218.5 362,-212.5 368,-212.5"/>
<text text-anchor="middle" x="436" y="-266.3" font-family="Times,serif" font-size="14.00">MOVi32imm</text>
<polyline fill="none" stroke="black" points="356,-258.5 516,-258.5 "/>
<text text-anchor="middle" x="396" y="-243.3" font-family="Times,serif" font-size="14.00">&#45;131.000</text>
<polyline fill="none" stroke="black" points="356,-235.5 436,-235.5 "/>
<text text-anchor="middle" x="396" y="-220.3" font-family="Times,serif" font-size="14.00">1</text>
<polyline fill="none" stroke="black" points="436,-212.5 436,-258.5 "/>
<text text-anchor="middle" x="476" y="-231.8" font-family="Times,serif" font-size="14.00">&#45;131.000</text>
</g>
<!-- 0&#45;&gt;&#45;7559665298269281922 -->
<g id="edge3" class="edge">
<title>0&#45;&gt;&#45;7559665298269281922</title>
<path fill="none" stroke="black" d="M375.9,-318.23C383.75,-309.06 392.34,-299.02 400.51,-289.47"/>
<polygon fill="black" stroke="black" points="403.41,-291.47 407.25,-281.6 398.09,-286.92 403.41,-291.47"/>
</g>
<!-- 5759685792307607207 -->
<g id="node5" class="node">
<title>5759685792307607207</title>
<path fill="none" stroke="black" d="M546,-212.5C546,-212.5 682,-212.5 682,-212.5 688,-212.5 694,-218.5 694,-224.5 694,-224.5 694,-269.5 694,-269.5 694,-275.5 688,-281.5 682,-281.5 682,-281.5 546,-281.5 546,-281.5 540,-281.5 534,-275.5 534,-269.5 534,-269.5 534,-224.5 534,-224.5 534,-218.5 540,-212.5 546,-212.5"/>
<text text-anchor="middle" x="614" y="-266.3" font-family="Times,serif" font-size="14.00">ADDXri</text>
<polyline fill="none" stroke="black" points="534,-258.5 694,-258.5 "/>
<text text-anchor="middle" x="574" y="-243.3" font-family="Times,serif" font-size="14.00">&#45;344.000</text>
<polyline fill="none" stroke="black" points="534,-235.5 614,-235.5 "/>
<text text-anchor="middle" x="574" y="-220.3" font-family="Times,serif" font-size="14.00">3</text>
<polyline fill="none" stroke="black" points="614,-212.5 614,-258.5 "/>
<text text-anchor="middle" x="654" y="-231.8" font-family="Times,serif" font-size="14.00">&#45;114.667</text>
</g>
<!-- 0&#45;&gt;5759685792307607207 -->
<g id="edge4" class="edge">
<title>0&#45;&gt;5759685792307607207</title>
<path fill="none" stroke="black" d="M427.11,-320.8C457.73,-308.87 492.85,-295.19 524.31,-282.94"/>
<polygon fill="black" stroke="black" points="525.9,-286.07 533.95,-279.18 523.36,-279.55 525.9,-286.07"/>
</g>
<!-- &#45;5466671080724096195 -->
<g id="node10" class="node">
<title>&#45;5466671080724096195</title>
<path fill="none" stroke="black" d="M12,-106.5C12,-106.5 148,-106.5 148,-106.5 154,-106.5 160,-112.5 160,-118.5 160,-118.5 160,-163.5 160,-163.5 160,-169.5 154,-175.5 148,-175.5 148,-175.5 12,-175.5 12,-175.5 6,-175.5 0,-169.5 0,-163.5 0,-163.5 0,-118.5 0,-118.5 0,-112.5 6,-106.5 12,-106.5"/>
<text text-anchor="middle" x="80" y="-160.3" font-family="Times,serif" font-size="14.00">ADDXri</text>
<polyline fill="none" stroke="black" points="0,-152.5 160,-152.5 "/>
<text text-anchor="middle" x="40" y="-137.3" font-family="Times,serif" font-size="14.00">&#45;122.000</text>
<polyline fill="none" stroke="black" points="0,-129.5 80,-129.5 "/>
<text text-anchor="middle" x="40" y="-114.3" font-family="Times,serif" font-size="14.00">1</text>
<polyline fill="none" stroke="black" points="80,-106.5 80,-152.5 "/>
<text text-anchor="middle" x="120" y="-125.8" font-family="Times,serif" font-size="14.00">&#45;122.000</text>
</g>
<!-- &#45;17637840614285167&#45;&gt;&#45;5466671080724096195 -->
<g id="edge9" class="edge">
<title>&#45;17637840614285167&#45;&gt;&#45;5466671080724096195</title>
<path fill="none" stroke="black" d="M80,-212.23C80,-203.79 80,-194.62 80,-185.77"/>
<polygon fill="black" stroke="black" points="83.5,-185.6 80,-175.6 76.5,-185.6 83.5,-185.6"/>
</g>
<!-- 5057957248033085471 -->
<g id="node6" class="node">
<title>5057957248033085471</title>
<path fill="none" stroke="black" d="M190,-106.5C190,-106.5 326,-106.5 326,-106.5 332,-106.5 338,-112.5 338,-118.5 338,-118.5 338,-163.5 338,-163.5 338,-169.5 332,-175.5 326,-175.5 326,-175.5 190,-175.5 190,-175.5 184,-175.5 178,-169.5 178,-163.5 178,-163.5 178,-118.5 178,-118.5 178,-112.5 184,-106.5 190,-106.5"/>
<text text-anchor="middle" x="258" y="-160.3" font-family="Times,serif" font-size="14.00">UBFMXri</text>
<polyline fill="none" stroke="black" points="178,-152.5 338,-152.5 "/>
<text text-anchor="middle" x="218" y="-137.3" font-family="Times,serif" font-size="14.00">&#45;121.000</text>
<polyline fill="none" stroke="black" points="178,-129.5 258,-129.5 "/>
<text text-anchor="middle" x="218" y="-114.3" font-family="Times,serif" font-size="14.00">1</text>
<polyline fill="none" stroke="black" points="258,-106.5 258,-152.5 "/>
<text text-anchor="middle" x="298" y="-125.8" font-family="Times,serif" font-size="14.00">&#45;121.000</text>
</g>
<!-- 3148413863160190018&#45;&gt;5057957248033085471 -->
<g id="edge5" class="edge">
<title>3148413863160190018&#45;&gt;5057957248033085471</title>
<path fill="none" stroke="black" d="M258,-212.23C258,-203.79 258,-194.62 258,-185.77"/>
<polygon fill="black" stroke="black" points="261.5,-185.6 258,-175.6 254.5,-185.6 261.5,-185.6"/>
</g>
<!-- &#45;4583163020744227840 -->
<g id="node9" class="node">
<title>&#45;4583163020744227840</title>
<path fill="none" stroke="black" d="M368,-106.5C368,-106.5 504,-106.5 504,-106.5 510,-106.5 516,-112.5 516,-118.5 516,-118.5 516,-163.5 516,-163.5 516,-169.5 510,-175.5 504,-175.5 504,-175.5 368,-175.5 368,-175.5 362,-175.5 356,-169.5 356,-163.5 356,-163.5 356,-118.5 356,-118.5 356,-112.5 362,-106.5 368,-106.5"/>
<text text-anchor="middle" x="436" y="-160.3" font-family="Times,serif" font-size="14.00">ADDXri</text>
<polyline fill="none" stroke="black" points="356,-152.5 516,-152.5 "/>
<text text-anchor="middle" x="396" y="-137.3" font-family="Times,serif" font-size="14.00">&#45;131.000</text>
<polyline fill="none" stroke="black" points="356,-129.5 436,-129.5 "/>
<text text-anchor="middle" x="396" y="-114.3" font-family="Times,serif" font-size="14.00">1</text>
<polyline fill="none" stroke="black" points="436,-106.5 436,-152.5 "/>
<text text-anchor="middle" x="476" y="-125.8" font-family="Times,serif" font-size="14.00">&#45;131.000</text>
</g>
<!-- &#45;7559665298269281922&#45;&gt;&#45;4583163020744227840 -->
<g id="edge8" class="edge">
<title>&#45;7559665298269281922&#45;&gt;&#45;4583163020744227840</title>
<path fill="none" stroke="black" d="M436,-212.23C436,-203.79 436,-194.62 436,-185.77"/>
<polygon fill="black" stroke="black" points="439.5,-185.6 436,-175.6 432.5,-185.6 439.5,-185.6"/>
</g>
<!-- 1802866657295327242 -->
<g id="node7" class="node">
<title>1802866657295327242</title>
<path fill="none" stroke="black" d="M546,-106.5C546,-106.5 682,-106.5 682,-106.5 688,-106.5 694,-112.5 694,-118.5 694,-118.5 694,-163.5 694,-163.5 694,-169.5 688,-175.5 682,-175.5 682,-175.5 546,-175.5 546,-175.5 540,-175.5 534,-169.5 534,-163.5 534,-163.5 534,-118.5 534,-118.5 534,-112.5 540,-106.5 546,-106.5"/>
<text text-anchor="middle" x="614" y="-160.3" font-family="Times,serif" font-size="14.00">SUBSXri</text>
<polyline fill="none" stroke="black" points="534,-152.5 694,-152.5 "/>
<text text-anchor="middle" x="574" y="-137.3" font-family="Times,serif" font-size="14.00">&#45;242.000</text>
<polyline fill="none" stroke="black" points="534,-129.5 614,-129.5 "/>
<text text-anchor="middle" x="574" y="-114.3" font-family="Times,serif" font-size="14.00">2</text>
<polyline fill="none" stroke="black" points="614,-106.5 614,-152.5 "/>
<text text-anchor="middle" x="654" y="-125.8" font-family="Times,serif" font-size="14.00">&#45;121.000</text>
</g>
<!-- 5759685792307607207&#45;&gt;1802866657295327242 -->
<g id="edge6" class="edge">
<title>5759685792307607207&#45;&gt;1802866657295327242</title>
<path fill="none" stroke="black" d="M614,-212.23C614,-203.79 614,-194.62 614,-185.77"/>
<polygon fill="black" stroke="black" points="617.5,-185.6 614,-175.6 610.5,-185.6 617.5,-185.6"/>
</g>
<!-- 4151832188382916959 -->
<g id="node8" class="node">
<title>4151832188382916959</title>
<path fill="none" stroke="black" d="M724,-106.5C724,-106.5 860,-106.5 860,-106.5 866,-106.5 872,-112.5 872,-118.5 872,-118.5 872,-163.5 872,-163.5 872,-169.5 866,-175.5 860,-175.5 860,-175.5 724,-175.5 724,-175.5 718,-175.5 712,-169.5 712,-163.5 712,-163.5 712,-118.5 712,-118.5 712,-112.5 718,-106.5 724,-106.5"/>
<text text-anchor="middle" x="792" y="-160.3" font-family="Times,serif" font-size="14.00">ADDXri</text>
<polyline fill="none" stroke="black" points="712,-152.5 872,-152.5 "/>
<text text-anchor="middle" x="752" y="-137.3" font-family="Times,serif" font-size="14.00">&#45;102.000</text>
<polyline fill="none" stroke="black" points="712,-129.5 792,-129.5 "/>
<text text-anchor="middle" x="752" y="-114.3" font-family="Times,serif" font-size="14.00">1</text>
<polyline fill="none" stroke="black" points="792,-106.5 792,-152.5 "/>
<text text-anchor="middle" x="832" y="-125.8" font-family="Times,serif" font-size="14.00">&#45;102.000</text>
</g>
<!-- 5759685792307607207&#45;&gt;4151832188382916959 -->
<g id="edge7" class="edge">
<title>5759685792307607207&#45;&gt;4151832188382916959</title>
<path fill="none" stroke="black" d="M671.79,-212.23C688.91,-202.23 707.79,-191.2 725.41,-180.91"/>
<polygon fill="black" stroke="black" points="727.63,-183.66 734.5,-175.6 724.1,-177.62 727.63,-183.66"/>
</g>
<!-- &#45;782168434556378822 -->
<g id="node11" class="node">
<title>&#45;782168434556378822</title>
<path fill="none" stroke="black" d="M457,-0.5C457,-0.5 593,-0.5 593,-0.5 599,-0.5 605,-6.5 605,-12.5 605,-12.5 605,-57.5 605,-57.5 605,-63.5 599,-69.5 593,-69.5 593,-69.5 457,-69.5 457,-69.5 451,-69.5 445,-63.5 445,-57.5 445,-57.5 445,-12.5 445,-12.5 445,-6.5 451,-0.5 457,-0.5"/>
<text text-anchor="middle" x="525" y="-54.3" font-family="Times,serif" font-size="14.00">MOVaddr</text>
<polyline fill="none" stroke="black" points="445,-46.5 605,-46.5 "/>
<text text-anchor="middle" x="485" y="-31.3" font-family="Times,serif" font-size="14.00">&#45;121.000</text>
<polyline fill="none" stroke="black" points="445,-23.5 525,-23.5 "/>
<text text-anchor="middle" x="485" y="-8.3" font-family="Times,serif" font-size="14.00">1</text>
<polyline fill="none" stroke="black" points="525,-0.5 525,-46.5 "/>
<text text-anchor="middle" x="565" y="-19.8" font-family="Times,serif" font-size="14.00">&#45;121.000</text>
</g>
<!-- 1802866657295327242&#45;&gt;&#45;782168434556378822 -->
<g id="edge10" class="edge">
<title>1802866657295327242&#45;&gt;&#45;782168434556378822</title>
<path fill="none" stroke="black" d="M585.1,-106.23C577.25,-97.06 568.66,-87.02 560.49,-77.47"/>
<polygon fill="black" stroke="black" points="562.91,-74.92 553.75,-69.6 557.59,-79.47 562.91,-74.92"/>
</g>
<!-- &#45;5161563237340502363 -->
<g id="node12" class="node">
<title>&#45;5161563237340502363</title>
<path fill="none" stroke="black" d="M635,-0.5C635,-0.5 771,-0.5 771,-0.5 777,-0.5 783,-6.5 783,-12.5 783,-12.5 783,-57.5 783,-57.5 783,-63.5 777,-69.5 771,-69.5 771,-69.5 635,-69.5 635,-69.5 629,-69.5 623,-63.5 623,-57.5 623,-57.5 623,-12.5 623,-12.5 623,-6.5 629,-0.5 635,-0.5"/>
<text text-anchor="middle" x="703" y="-54.3" font-family="Times,serif" font-size="14.00">MOVi32imm</text>
<polyline fill="none" stroke="black" points="623,-46.5 783,-46.5 "/>
<text text-anchor="middle" x="663" y="-31.3" font-family="Times,serif" font-size="14.00">&#45;121.000</text>
<polyline fill="none" stroke="black" points="623,-23.5 703,-23.5 "/>
<text text-anchor="middle" x="663" y="-8.3" font-family="Times,serif" font-size="14.00">1</text>
<polyline fill="none" stroke="black" points="703,-0.5 703,-46.5 "/>
<text text-anchor="middle" x="743" y="-19.8" font-family="Times,serif" font-size="14.00">&#45;121.000</text>
</g>
<!-- 1802866657295327242&#45;&gt;&#45;5161563237340502363 -->
<g id="edge11" class="edge">
<title>1802866657295327242&#45;&gt;&#45;5161563237340502363</title>
<path fill="none" stroke="black" d="M642.9,-106.23C650.75,-97.06 659.34,-87.02 667.51,-77.47"/>
<polygon fill="black" stroke="black" points="670.41,-79.47 674.25,-69.6 665.09,-74.92 670.41,-79.47"/>
</g>
</g>
</svg>
