<?xml version="1.0" encoding="UTF-8" standalone="no"?>
<!DOCTYPE svg PUBLIC "-//W3C//DTD SVG 1.1//EN"
 "http://www.w3.org/Graphics/SVG/1.1/DTD/svg11.dtd">
<!-- Generated by graphviz version 2.43.0 (0)
 -->
<!-- Title: MCTS Tree\nmcts/1.0/tree.svg Pages: 1 -->
<svg width="2304pt" height="396pt"
 viewBox="0.00 0.00 2304.00 396.00" xmlns="http://www.w3.org/2000/svg" xmlns:xlink="http://www.w3.org/1999/xlink">
<g id="graph0" class="graph" transform="scale(1 1) rotate(0) translate(4 392)">
<title>MCTS Tree\nmcts/1.0/tree.svg</title>
<polygon fill="white" stroke="transparent" points="-4,4 -4,-392 2300,-392 2300,4 -4,4"/>
<!-- 0 -->
<g id="node1" class="node">
<title>0</title>
<path fill="none" stroke="black" d="M1075.5,-318.5C1075.5,-318.5 1220.5,-318.5 1220.5,-318.5 1226.5,-318.5 1232.5,-324.5 1232.5,-330.5 1232.5,-330.5 1232.5,-375.5 1232.5,-375.5 1232.5,-381.5 1226.5,-387.5 1220.5,-387.5 1220.5,-387.5 1075.5,-387.5 1075.5,-387.5 1069.5,-387.5 1063.5,-381.5 1063.5,-375.5 1063.5,-375.5 1063.5,-330.5 1063.5,-330.5 1063.5,-324.5 1069.5,-318.5 1075.5,-318.5"/>
<text text-anchor="middle" x="1148" y="-372.3" font-family="Times,serif" font-size="14.00"> </text>
<polyline fill="none" stroke="black" points="1063.5,-364.5 1232.5,-364.5 "/>
<text text-anchor="middle" x="1108" y="-349.3" font-family="Times,serif" font-size="14.00">&#45;1728.000</text>
<polyline fill="none" stroke="black" points="1063.5,-341.5 1152.5,-341.5 "/>
<text text-anchor="middle" x="1108" y="-326.3" font-family="Times,serif" font-size="14.00">14</text>
<polyline fill="none" stroke="black" points="1152.5,-318.5 1152.5,-364.5 "/>
<text text-anchor="middle" x="1192.5" y="-337.8" font-family="Times,serif" font-size="14.00">&#45;123.429</text>
</g>
<!-- 1232082299203323777 -->
<g id="node2" class="node">
<title>1232082299203323777</title>
<path fill="none" stroke="black" d="M190,-212.5C190,-212.5 326,-212.5 326,-212.5 332,-212.5 338,-218.5 338,-224.5 338,-224.5 338,-269.5 338,-269.5 338,-275.5 332,-281.5 326,-281.5 326,-281.5 190,-281.5 190,-281.5 184,-281.5 178,-275.5 178,-269.5 178,-269.5 178,-224.5 178,-224.5 178,-218.5 184,-212.5 190,-212.5"/>
<text text-anchor="middle" x="258" y="-266.3" font-family="Times,serif" font-size="14.00">UBFMXri</text>
<polyline fill="none" stroke="black" points="178,-258.5 338,-258.5 "/>
<text text-anchor="middle" x="218" y="-243.3" font-family="Times,serif" font-size="14.00">&#45;244.000</text>
<polyline fill="none" stroke="black" points="178,-235.5 258,-235.5 "/>
<text text-anchor="middle" x="218" y="-220.3" font-family="Times,serif" font-size="14.00">2</text>
<polyline fill="none" stroke="black" points="258,-212.5 258,-258.5 "/>
<text text-anchor="middle" x="298" y="-231.8" font-family="Times,serif" font-size="14.00">&#45;122.000</text>
</g>
<!-- 0&#45;&gt;1232082299203323777 -->
<g id="edge1" class="edge">
<title>0&#45;&gt;1232082299203323777</title>
<path fill="none" stroke="black" d="M1063.47,-342.12C895.42,-322.49 520.74,-278.7 348.18,-258.54"/>
<polygon fill="black" stroke="black" points="348.45,-255.05 338.11,-257.36 347.64,-262 348.45,-255.05"/>
</g>
<!-- &#45;1853746468580113060 -->
<g id="node3" class="node">
<title>&#45;1853746468580113060</title>
<path fill="none" stroke="black" d="M635,-212.5C635,-212.5 771,-212.5 771,-212.5 777,-212.5 783,-218.5 783,-224.5 783,-224.5 783,-269.5 783,-269.5 783,-275.5 777,-281.5 771,-281.5 771,-281.5 635,-281.5 635,-281.5 629,-281.5 623,-275.5 623,-269.5 623,-269.5 623,-224.5 623,-224.5 623,-218.5 629,-212.5 635,-212.5"/>
<text text-anchor="middle" x="703" y="-266.3" font-family="Times,serif" font-size="14.00">MOVaddr</text>
<polyline fill="none" stroke="black" points="623,-258.5 783,-258.5 "/>
<text text-anchor="middle" x="663" y="-243.3" font-family="Times,serif" font-size="14.00">&#45;495.000</text>
<polyline fill="none" stroke="black" points="623,-235.5 703,-235.5 "/>
<text text-anchor="middle" x="663" y="-220.3" font-family="Times,serif" font-size="14.00">4</text>
<polyline fill="none" stroke="black" points="703,-212.5 703,-258.5 "/>
<text text-anchor="middle" x="743" y="-231.8" font-family="Times,serif" font-size="14.00">&#45;123.750</text>
</g>
<!-- 0&#45;&gt;&#45;1853746468580113060 -->
<g id="edge2" class="edge">
<title>0&#45;&gt;&#45;1853746468580113060</title>
<path fill="none" stroke="black" d="M1063.25,-332.19C985.99,-314.14 872.18,-287.54 793.25,-269.09"/>
<polygon fill="black" stroke="black" points="793.85,-265.64 783.31,-266.77 792.25,-272.45 793.85,-265.64"/>
</g>
<!-- &#45;1982841537401613252 -->
<g id="node4" class="node">
<title>&#45;1982841537401613252</title>
<path fill="none" stroke="black" d="M1525,-212.5C1525,-212.5 1661,-212.5 1661,-212.5 1667,-212.5 1673,-218.5 1673,-224.5 1673,-224.5 1673,-269.5 1673,-269.5 1673,-275.5 1667,-281.5 1661,-281.5 1661,-281.5 1525,-281.5 1525,-281.5 1519,-281.5 1513,-275.5 1513,-269.5 1513,-269.5 1513,-224.5 1513,-224.5 1513,-218.5 1519,-212.5 1525,-212.5"/>
<text text-anchor="middle" x="1593" y="-266.3" font-family="Times,serif" font-size="14.00">ADDXri</text>
<polyline fill="none" stroke="black" points="1513,-258.5 1673,-258.5 "/>
<text text-anchor="middle" x="1553" y="-243.3" font-family="Times,serif" font-size="14.00">&#45;858.000</text>
<polyline fill="none" stroke="black" points="1513,-235.5 1593,-235.5 "/>
<text text-anchor="middle" x="1553" y="-220.3" font-family="Times,serif" font-size="14.00">7</text>
<polyline fill="none" stroke="black" points="1593,-212.5 1593,-258.5 "/>
<text text-anchor="middle" x="1633" y="-231.8" font-family="Times,serif" font-size="14.00">&#45;122.571</text>
</g>
<!-- 0&#45;&gt;&#45;1982841537401613252 -->
<g id="edge3" class="edge">
<title>0&#45;&gt;&#45;1982841537401613252</title>
<path fill="none" stroke="black" d="M1232.75,-332.19C1310.01,-314.14 1423.82,-287.54 1502.75,-269.09"/>
<polygon fill="black" stroke="black" points="1503.75,-272.45 1512.69,-266.77 1502.15,-265.64 1503.75,-272.45"/>
</g>
<!-- 8446896087969879799 -->
<g id="node5" class="node">
<title>8446896087969879799</title>
<path fill="none" stroke="black" d="M1970,-212.5C1970,-212.5 2106,-212.5 2106,-212.5 2112,-212.5 2118,-218.5 2118,-224.5 2118,-224.5 2118,-269.5 2118,-269.5 2118,-275.5 2112,-281.5 2106,-281.5 2106,-281.5 1970,-281.5 1970,-281.5 1964,-281.5 1958,-275.5 1958,-269.5 1958,-269.5 1958,-224.5 1958,-224.5 1958,-218.5 1964,-212.5 1970,-212.5"/>
<text text-anchor="middle" x="2038" y="-266.3" font-family="Times,serif" font-size="14.00">MOVi32imm</text>
<polyline fill="none" stroke="black" points="1958,-258.5 2118,-258.5 "/>
<text text-anchor="middle" x="1998" y="-243.3" font-family="Times,serif" font-size="14.00">&#45;131.000</text>
<polyline fill="none" stroke="black" points="1958,-235.5 2038,-235.5 "/>
<text text-anchor="middle" x="1998" y="-220.3" font-family="Times,serif" font-size="14.00">1</text>
<polyline fill="none" stroke="black" points="2038,-212.5 2038,-258.5 "/>
<text text-anchor="middle" x="2078" y="-231.8" font-family="Times,serif" font-size="14.00">&#45;131.000</text>
</g>
<!-- 0&#45;&gt;8446896087969879799 -->
<g id="edge4" class="edge">
<title>0&#45;&gt;8446896087969879799</title>
<path fill="none" stroke="black" d="M1232.53,-342.12C1400.58,-322.49 1775.26,-278.7 1947.82,-258.54"/>
<polygon fill="black" stroke="black" points="1948.36,-262 1957.89,-257.36 1947.55,-255.05 1948.36,-262"/>
</g>
<!-- 6056810945876050923 -->
<g id="node15" class="node">
<title>6056810945876050923</title>
<path fill="none" stroke="black" d="M12,-106.5C12,-106.5 148,-106.5 148,-106.5 154,-106.5 160,-112.5 160,-118.5 160,-118.5 160,-163.5 160,-163.5 160,-169.5 154,-175.5 148,-175.5 148,-175.5 12,-175.5 12,-175.5 6,-175.5 0,-169.5 0,-163.5 0,-163.5 0,-118.5 0,-118.5 0,-112.5 6,-106.5 12,-106.5"/>
<text text-anchor="middle" x="80" y="-160.3" font-family="Times,serif" font-size="14.00">ADDXri</text>
<polyline fill="none" stroke="black" points="0,-152.5 160,-152.5 "/>
<text text-anchor="middle" x="40" y="-137.3" font-family="Times,serif" font-size="14.00">&#45;122.000</text>
<polyline fill="none" stroke="black" points="0,-129.5 80,-129.5 "/>
<text text-anchor="middle" x="40" y="-114.3" font-family="Times,serif" font-size="14.00">1</text>
<polyline fill="none" stroke="black" points="80,-106.5 80,-152.5 "/>
<text text-anchor="middle" x="120" y="-125.8" font-family="Times,serif" font-size="14.00">&#45;122.000</text>
</g>
<!-- 1232082299203323777&#45;&gt;6056810945876050923 -->
<g id="edge14" class="edge">
<title>1232082299203323777&#45;&gt;6056810945876050923</title>
<path fill="none" stroke="black" d="M200.21,-212.23C183.09,-202.23 164.21,-191.2 146.59,-180.91"/>
<polygon fill="black" stroke="black" points="147.9,-177.62 137.5,-175.6 144.37,-183.66 147.9,-177.62"/>
</g>
<!-- 3457944213616236892 -->
<g id="node16" class="node">
<title>3457944213616236892</title>
<path fill="none" stroke="black" d="M190,-106.5C190,-106.5 326,-106.5 326,-106.5 332,-106.5 338,-112.5 338,-118.5 338,-118.5 338,-163.5 338,-163.5 338,-169.5 332,-175.5 326,-175.5 326,-175.5 190,-175.5 190,-175.5 184,-175.5 178,-169.5 178,-163.5 178,-163.5 178,-118.5 178,-118.5 178,-112.5 184,-106.5 190,-106.5"/>
<text text-anchor="middle" x="258" y="-160.3" font-family="Times,serif" font-size="14.00">MOVi32imm</text>
<polyline fill="none" stroke="black" points="178,-152.5 338,-152.5 "/>
<text text-anchor="middle" x="218" y="-137.3" font-family="Times,serif" font-size="14.00">&#45;122.000</text>
<polyline fill="none" stroke="black" points="178,-129.5 258,-129.5 "/>
<text text-anchor="middle" x="218" y="-114.3" font-family="Times,serif" font-size="14.00">1</text>
<polyline fill="none" stroke="black" points="258,-106.5 258,-152.5 "/>
<text text-anchor="middle" x="298" y="-125.8" font-family="Times,serif" font-size="14.00">&#45;122.000</text>
</g>
<!-- 1232082299203323777&#45;&gt;3457944213616236892 -->
<g id="edge15" class="edge">
<title>1232082299203323777&#45;&gt;3457944213616236892</title>
<path fill="none" stroke="black" d="M258,-212.23C258,-203.79 258,-194.62 258,-185.77"/>
<polygon fill="black" stroke="black" points="261.5,-185.6 258,-175.6 254.5,-185.6 261.5,-185.6"/>
</g>
<!-- 6651590532089040003 -->
<g id="node6" class="node">
<title>6651590532089040003</title>
<path fill="none" stroke="black" d="M368,-106.5C368,-106.5 504,-106.5 504,-106.5 510,-106.5 516,-112.5 516,-118.5 516,-118.5 516,-163.5 516,-163.5 516,-169.5 510,-175.5 504,-175.5 504,-175.5 368,-175.5 368,-175.5 362,-175.5 356,-169.5 356,-163.5 356,-163.5 356,-118.5 356,-118.5 356,-112.5 362,-106.5 368,-106.5"/>
<text text-anchor="middle" x="436" y="-160.3" font-family="Times,serif" font-size="14.00">MOVi32imm</text>
<polyline fill="none" stroke="black" points="356,-152.5 516,-152.5 "/>
<text text-anchor="middle" x="396" y="-137.3" font-family="Times,serif" font-size="14.00">&#45;121.000</text>
<polyline fill="none" stroke="black" points="356,-129.5 436,-129.5 "/>
<text text-anchor="middle" x="396" y="-114.3" font-family="Times,serif" font-size="14.00">1</text>
<polyline fill="none" stroke="black" points="436,-106.5 436,-152.5 "/>
<text text-anchor="middle" x="476" y="-125.8" font-family="Times,serif" font-size="14.00">&#45;121.000</text>
</g>
<!-- &#45;1853746468580113060&#45;&gt;6651590532089040003 -->
<g id="edge5" class="edge">
<title>&#45;1853746468580113060&#45;&gt;6651590532089040003</title>
<path fill="none" stroke="black" d="M622.89,-214.8C592.27,-202.87 557.15,-189.19 525.69,-176.94"/>
<polygon fill="black" stroke="black" points="526.64,-173.55 516.05,-173.18 524.1,-180.07 526.64,-173.55"/>
</g>
<!-- &#45;2643280372355152914 -->
<g id="node7" class="node">
<title>&#45;2643280372355152914</title>
<path fill="none" stroke="black" d="M546,-106.5C546,-106.5 682,-106.5 682,-106.5 688,-106.5 694,-112.5 694,-118.5 694,-118.5 694,-163.5 694,-163.5 694,-169.5 688,-175.5 682,-175.5 682,-175.5 546,-175.5 546,-175.5 540,-175.5 534,-169.5 534,-163.5 534,-163.5 534,-118.5 534,-118.5 534,-112.5 540,-106.5 546,-106.5"/>
<text text-anchor="middle" x="614" y="-160.3" font-family="Times,serif" font-size="14.00">ADDXri</text>
<polyline fill="none" stroke="black" points="534,-152.5 694,-152.5 "/>
<text text-anchor="middle" x="574" y="-137.3" font-family="Times,serif" font-size="14.00">&#45;131.000</text>
<polyline fill="none" stroke="black" points="534,-129.5 614,-129.5 "/>
<text text-anchor="middle" x="574" y="-114.3" font-family="Times,serif" font-size="14.00">1</text>
<polyline fill="none" stroke="black" points="614,-106.5 614,-152.5 "/>
<text text-anchor="middle" x="654" y="-125.8" font-family="Times,serif" font-size="14.00">&#45;131.000</text>
</g>
<!-- &#45;1853746468580113060&#45;&gt;&#45;2643280372355152914 -->
<g id="edge6" class="edge">
<title>&#45;1853746468580113060&#45;&gt;&#45;2643280372355152914</title>
<path fill="none" stroke="black" d="M674.1,-212.23C666.25,-203.06 657.66,-193.02 649.49,-183.47"/>
<polygon fill="black" stroke="black" points="651.91,-180.92 642.75,-175.6 646.59,-185.47 651.91,-180.92"/>
</g>
<!-- &#45;8445620683755735657 -->
<g id="node8" class="node">
<title>&#45;8445620683755735657</title>
<path fill="none" stroke="black" d="M724,-106.5C724,-106.5 860,-106.5 860,-106.5 866,-106.5 872,-112.5 872,-118.5 872,-118.5 872,-163.5 872,-163.5 872,-169.5 866,-175.5 860,-175.5 860,-175.5 724,-175.5 724,-175.5 718,-175.5 712,-169.5 712,-163.5 712,-163.5 712,-118.5 712,-118.5 712,-112.5 718,-106.5 724,-106.5"/>
<text text-anchor="middle" x="792" y="-160.3" font-family="Times,serif" font-size="14.00">UBFMXri</text>
<polyline fill="none" stroke="black" points="712,-152.5 872,-152.5 "/>
<text text-anchor="middle" x="752" y="-137.3" font-family="Times,serif" font-size="14.00">&#45;243.000</text>
<polyline fill="none" stroke="black" points="712,-129.5 792,-129.5 "/>
<text text-anchor="middle" x="752" y="-114.3" font-family="Times,serif" font-size="14.00">2</text>
<polyline fill="none" stroke="black" points="792,-106.5 792,-152.5 "/>
<text text-anchor="middle" x="832" y="-125.8" font-family="Times,serif" font-size="14.00">&#45;121.500</text>
</g>
<!-- &#45;1853746468580113060&#45;&gt;&#45;8445620683755735657 -->
<g id="edge7" class="edge">
<title>&#45;1853746468580113060&#45;&gt;&#45;8445620683755735657</title>
<path fill="none" stroke="black" d="M731.9,-212.23C739.75,-203.06 748.34,-193.02 756.51,-183.47"/>
<polygon fill="black" stroke="black" points="759.41,-185.47 763.25,-175.6 754.09,-180.92 759.41,-185.47"/>
</g>
<!-- 8641479788573857674 -->
<g id="node9" class="node">
<title>8641479788573857674</title>
<path fill="none" stroke="black" d="M1169,-106.5C1169,-106.5 1305,-106.5 1305,-106.5 1311,-106.5 1317,-112.5 1317,-118.5 1317,-118.5 1317,-163.5 1317,-163.5 1317,-169.5 1311,-175.5 1305,-175.5 1305,-175.5 1169,-175.5 1169,-175.5 1163,-175.5 1157,-169.5 1157,-163.5 1157,-163.5 1157,-118.5 1157,-118.5 1157,-112.5 1163,-106.5 1169,-106.5"/>
<text text-anchor="middle" x="1237" y="-160.3" font-family="Times,serif" font-size="14.00">UBFMXri</text>
<polyline fill="none" stroke="black" points="1157,-152.5 1317,-152.5 "/>
<text text-anchor="middle" x="1197" y="-137.3" font-family="Times,serif" font-size="14.00">&#45;121.000</text>
<polyline fill="none" stroke="black" points="1157,-129.5 1237,-129.5 "/>
<text text-anchor="middle" x="1197" y="-114.3" font-family="Times,serif" font-size="14.00">1</text>
<polyline fill="none" stroke="black" points="1237,-106.5 1237,-152.5 "/>
<text text-anchor="middle" x="1277" y="-125.8" font-family="Times,serif" font-size="14.00">&#45;121.000</text>
</g>
<!-- &#45;1982841537401613252&#45;&gt;8641479788573857674 -->
<g id="edge8" class="edge">
<title>&#45;1982841537401613252&#45;&gt;8641479788573857674</title>
<path fill="none" stroke="black" d="M1512.66,-222.53C1457.41,-206.39 1383.98,-184.94 1326.8,-168.23"/>
<polygon fill="black" stroke="black" points="1327.63,-164.83 1317.04,-165.38 1325.66,-171.55 1327.63,-164.83"/>
</g>
<!-- 8211034093516237771 -->
<g id="node10" class="node">
<title>8211034093516237771</title>
<path fill="none" stroke="black" d="M1436,-106.5C1436,-106.5 1572,-106.5 1572,-106.5 1578,-106.5 1584,-112.5 1584,-118.5 1584,-118.5 1584,-163.5 1584,-163.5 1584,-169.5 1578,-175.5 1572,-175.5 1572,-175.5 1436,-175.5 1436,-175.5 1430,-175.5 1424,-169.5 1424,-163.5 1424,-163.5 1424,-118.5 1424,-118.5 1424,-112.5 1430,-106.5 1436,-106.5"/>
<text text-anchor="middle" x="1504" y="-160.3" font-family="Times,serif" font-size="14.00">ADDXri</text>
<polyline fill="none" stroke="black" points="1424,-152.5 1584,-152.5 "/>
<text text-anchor="middle" x="1464" y="-137.3" font-family="Times,serif" font-size="14.00">&#45;233.000</text>
<polyline fill="none" stroke="black" points="1424,-129.5 1504,-129.5 "/>
<text text-anchor="middle" x="1464" y="-114.3" font-family="Times,serif" font-size="14.00">2</text>
<polyline fill="none" stroke="black" points="1504,-106.5 1504,-152.5 "/>
<text text-anchor="middle" x="1544" y="-125.8" font-family="Times,serif" font-size="14.00">&#45;116.500</text>
</g>
<!-- &#45;1982841537401613252&#45;&gt;8211034093516237771 -->
<g id="edge9" class="edge">
<title>&#45;1982841537401613252&#45;&gt;8211034093516237771</title>
<path fill="none" stroke="black" d="M1564.1,-212.23C1556.25,-203.06 1547.66,-193.02 1539.49,-183.47"/>
<polygon fill="black" stroke="black" points="1541.91,-180.92 1532.75,-175.6 1536.59,-185.47 1541.91,-180.92"/>
</g>
<!-- 7200819691007423437 -->
<g id="node11" class="node">
<title>7200819691007423437</title>
<path fill="none" stroke="black" d="M1614,-106.5C1614,-106.5 1750,-106.5 1750,-106.5 1756,-106.5 1762,-112.5 1762,-118.5 1762,-118.5 1762,-163.5 1762,-163.5 1762,-169.5 1756,-175.5 1750,-175.5 1750,-175.5 1614,-175.5 1614,-175.5 1608,-175.5 1602,-169.5 1602,-163.5 1602,-163.5 1602,-118.5 1602,-118.5 1602,-112.5 1608,-106.5 1614,-106.5"/>
<text text-anchor="middle" x="1682" y="-160.3" font-family="Times,serif" font-size="14.00">SUBSXri</text>
<polyline fill="none" stroke="black" points="1602,-152.5 1762,-152.5 "/>
<text text-anchor="middle" x="1642" y="-137.3" font-family="Times,serif" font-size="14.00">&#45;242.000</text>
<polyline fill="none" stroke="black" points="1602,-129.5 1682,-129.5 "/>
<text text-anchor="middle" x="1642" y="-114.3" font-family="Times,serif" font-size="14.00">2</text>
<polyline fill="none" stroke="black" points="1682,-106.5 1682,-152.5 "/>
<text text-anchor="middle" x="1722" y="-125.8" font-family="Times,serif" font-size="14.00">&#45;121.000</text>
</g>
<!-- &#45;1982841537401613252&#45;&gt;7200819691007423437 -->
<g id="edge10" class="edge">
<title>&#45;1982841537401613252&#45;&gt;7200819691007423437</title>
<path fill="none" stroke="black" d="M1621.9,-212.23C1629.75,-203.06 1638.34,-193.02 1646.51,-183.47"/>
<polygon fill="black" stroke="black" points="1649.41,-185.47 1653.25,-175.6 1644.09,-180.92 1649.41,-185.47"/>
</g>
<!-- 986013511804777039 -->
<g id="node12" class="node">
<title>986013511804777039</title>
<path fill="none" stroke="black" d="M1792,-106.5C1792,-106.5 1928,-106.5 1928,-106.5 1934,-106.5 1940,-112.5 1940,-118.5 1940,-118.5 1940,-163.5 1940,-163.5 1940,-169.5 1934,-175.5 1928,-175.5 1928,-175.5 1792,-175.5 1792,-175.5 1786,-175.5 1780,-169.5 1780,-163.5 1780,-163.5 1780,-118.5 1780,-118.5 1780,-112.5 1786,-106.5 1792,-106.5"/>
<text text-anchor="middle" x="1860" y="-160.3" font-family="Times,serif" font-size="14.00">MOVi32imm</text>
<polyline fill="none" stroke="black" points="1780,-152.5 1940,-152.5 "/>
<text text-anchor="middle" x="1820" y="-137.3" font-family="Times,serif" font-size="14.00">&#45;131.000</text>
<polyline fill="none" stroke="black" points="1780,-129.5 1860,-129.5 "/>
<text text-anchor="middle" x="1820" y="-114.3" font-family="Times,serif" font-size="14.00">1</text>
<polyline fill="none" stroke="black" points="1860,-106.5 1860,-152.5 "/>
<text text-anchor="middle" x="1900" y="-125.8" font-family="Times,serif" font-size="14.00">&#45;131.000</text>
</g>
<!-- &#45;1982841537401613252&#45;&gt;986013511804777039 -->
<g id="edge11" class="edge">
<title>&#45;1982841537401613252&#45;&gt;986013511804777039</title>
<path fill="none" stroke="black" d="M1673.11,-214.8C1703.73,-202.87 1738.85,-189.19 1770.31,-176.94"/>
<polygon fill="black" stroke="black" points="1771.9,-180.07 1779.95,-173.18 1769.36,-173.55 1771.9,-180.07"/>
</g>
<!-- &#45;6295542823452967657 -->
<g id="node13" class="node">
<title>&#45;6295542823452967657</title>
<path fill="none" stroke="black" d="M1970,-106.5C1970,-106.5 2106,-106.5 2106,-106.5 2112,-106.5 2118,-112.5 2118,-118.5 2118,-118.5 2118,-163.5 2118,-163.5 2118,-169.5 2112,-175.5 2106,-175.5 2106,-175.5 1970,-175.5 1970,-175.5 1964,-175.5 1958,-169.5 1958,-163.5 1958,-163.5 1958,-118.5 1958,-118.5 1958,-112.5 1964,-106.5 1970,-106.5"/>
<text text-anchor="middle" x="2038" y="-160.3" font-family="Times,serif" font-size="14.00">MOVaddr</text>
<polyline fill="none" stroke="black" points="1958,-152.5 2118,-152.5 "/>
<text text-anchor="middle" x="1998" y="-137.3" font-family="Times,serif" font-size="14.00">&#45;131.000</text>
<polyline fill="none" stroke="black" points="1958,-129.5 2038,-129.5 "/>
<text text-anchor="middle" x="1998" y="-114.3" font-family="Times,serif" font-size="14.00">1</text>
<polyline fill="none" stroke="black" points="2038,-106.5 2038,-152.5 "/>
<text text-anchor="middle" x="2078" y="-125.8" font-family="Times,serif" font-size="14.00">&#45;131.000</text>
</g>
<!-- &#45;1982841537401613252&#45;&gt;&#45;6295542823452967657 -->
<g id="edge12" class="edge">
<title>&#45;1982841537401613252&#45;&gt;&#45;6295542823452967657</title>
<path fill="none" stroke="black" d="M1673.11,-234.26C1743.53,-223.03 1848.72,-204.04 1947.8,-176.2"/>
<polygon fill="black" stroke="black" points="1949.02,-179.49 1957.68,-173.39 1947.1,-172.76 1949.02,-179.49"/>
</g>
<!-- 5422183034899536441 -->
<g id="node14" class="node">
<title>5422183034899536441</title>
<path fill="none" stroke="black" d="M2148,-106.5C2148,-106.5 2284,-106.5 2284,-106.5 2290,-106.5 2296,-112.5 2296,-118.5 2296,-118.5 2296,-163.5 2296,-163.5 2296,-169.5 2290,-175.5 2284,-175.5 2284,-175.5 2148,-175.5 2148,-175.5 2142,-175.5 2136,-169.5 2136,-163.5 2136,-163.5 2136,-118.5 2136,-118.5 2136,-112.5 2142,-106.5 2148,-106.5"/>
<text text-anchor="middle" x="2216" y="-160.3" font-family="Times,serif" font-size="14.00">ADDXri</text>
<polyline fill="none" stroke="black" points="2136,-152.5 2296,-152.5 "/>
<text text-anchor="middle" x="2176" y="-137.3" font-family="Times,serif" font-size="14.00">&#45;131.000</text>
<polyline fill="none" stroke="black" points="2136,-129.5 2216,-129.5 "/>
<text text-anchor="middle" x="2176" y="-114.3" font-family="Times,serif" font-size="14.00">1</text>
<polyline fill="none" stroke="black" points="2216,-106.5 2216,-152.5 "/>
<text text-anchor="middle" x="2256" y="-125.8" font-family="Times,serif" font-size="14.00">&#45;131.000</text>
</g>
<!-- 8446896087969879799&#45;&gt;5422183034899536441 -->
<g id="edge13" class="edge">
<title>8446896087969879799&#45;&gt;5422183034899536441</title>
<path fill="none" stroke="black" d="M2095.79,-212.23C2112.91,-202.23 2131.79,-191.2 2149.41,-180.91"/>
<polygon fill="black" stroke="black" points="2151.63,-183.66 2158.5,-175.6 2148.1,-177.62 2151.63,-183.66"/>
</g>
<!-- &#45;479243541400246771 -->
<g id="node23" class="node">
<title>&#45;479243541400246771</title>
<path fill="none" stroke="black" d="M368,-0.5C368,-0.5 504,-0.5 504,-0.5 510,-0.5 516,-6.5 516,-12.5 516,-12.5 516,-57.5 516,-57.5 516,-63.5 510,-69.5 504,-69.5 504,-69.5 368,-69.5 368,-69.5 362,-69.5 356,-63.5 356,-57.5 356,-57.5 356,-12.5 356,-12.5 356,-6.5 362,-0.5 368,-0.5"/>
<text text-anchor="middle" x="436" y="-54.3" font-family="Times,serif" font-size="14.00">ADDXri</text>
<polyline fill="none" stroke="black" points="356,-46.5 516,-46.5 "/>
<text text-anchor="middle" x="396" y="-31.3" font-family="Times,serif" font-size="14.00">&#45;121.000</text>
<polyline fill="none" stroke="black" points="356,-23.5 436,-23.5 "/>
<text text-anchor="middle" x="396" y="-8.3" font-family="Times,serif" font-size="14.00">1</text>
<polyline fill="none" stroke="black" points="436,-0.5 436,-46.5 "/>
<text text-anchor="middle" x="476" y="-19.8" font-family="Times,serif" font-size="14.00">&#45;121.000</text>
</g>
<!-- 6651590532089040003&#45;&gt;&#45;479243541400246771 -->
<g id="edge22" class="edge">
<title>6651590532089040003&#45;&gt;&#45;479243541400246771</title>
<path fill="none" stroke="black" d="M436,-106.23C436,-97.79 436,-88.62 436,-79.77"/>
<polygon fill="black" stroke="black" points="439.5,-79.6 436,-69.6 432.5,-79.6 439.5,-79.6"/>
</g>
<!-- &#45;6213013969946020474 -->
<g id="node26" class="node">
<title>&#45;6213013969946020474</title>
<path fill="none" stroke="black" d="M546,-0.5C546,-0.5 682,-0.5 682,-0.5 688,-0.5 694,-6.5 694,-12.5 694,-12.5 694,-57.5 694,-57.5 694,-63.5 688,-69.5 682,-69.5 682,-69.5 546,-69.5 546,-69.5 540,-69.5 534,-63.5 534,-57.5 534,-57.5 534,-12.5 534,-12.5 534,-6.5 540,-0.5 546,-0.5"/>
<text text-anchor="middle" x="614" y="-54.3" font-family="Times,serif" font-size="14.00">ADDXri</text>
<polyline fill="none" stroke="black" points="534,-46.5 694,-46.5 "/>
<text text-anchor="middle" x="574" y="-31.3" font-family="Times,serif" font-size="14.00">&#45;131.000</text>
<polyline fill="none" stroke="black" points="534,-23.5 614,-23.5 "/>
<text text-anchor="middle" x="574" y="-8.3" font-family="Times,serif" font-size="14.00">1</text>
<polyline fill="none" stroke="black" points="614,-0.5 614,-46.5 "/>
<text text-anchor="middle" x="654" y="-19.8" font-family="Times,serif" font-size="14.00">&#45;131.000</text>
</g>
<!-- &#45;2643280372355152914&#45;&gt;&#45;6213013969946020474 -->
<g id="edge25" class="edge">
<title>&#45;2643280372355152914&#45;&gt;&#45;6213013969946020474</title>
<path fill="none" stroke="black" d="M614,-106.23C614,-97.79 614,-88.62 614,-79.77"/>
<polygon fill="black" stroke="black" points="617.5,-79.6 614,-69.6 610.5,-79.6 617.5,-79.6"/>
</g>
<!-- &#45;7532686428651245982 -->
<g id="node24" class="node">
<title>&#45;7532686428651245982</title>
<path fill="none" stroke="black" d="M724,-0.5C724,-0.5 860,-0.5 860,-0.5 866,-0.5 872,-6.5 872,-12.5 872,-12.5 872,-57.5 872,-57.5 872,-63.5 866,-69.5 860,-69.5 860,-69.5 724,-69.5 724,-69.5 718,-69.5 712,-63.5 712,-57.5 712,-57.5 712,-12.5 712,-12.5 712,-6.5 718,-0.5 724,-0.5"/>
<text text-anchor="middle" x="792" y="-54.3" font-family="Times,serif" font-size="14.00">MOVi32imm</text>
<polyline fill="none" stroke="black" points="712,-46.5 872,-46.5 "/>
<text text-anchor="middle" x="752" y="-31.3" font-family="Times,serif" font-size="14.00">&#45;121.000</text>
<polyline fill="none" stroke="black" points="712,-23.5 792,-23.5 "/>
<text text-anchor="middle" x="752" y="-8.3" font-family="Times,serif" font-size="14.00">1</text>
<polyline fill="none" stroke="black" points="792,-0.5 792,-46.5 "/>
<text text-anchor="middle" x="832" y="-19.8" font-family="Times,serif" font-size="14.00">&#45;121.000</text>
</g>
<!-- &#45;8445620683755735657&#45;&gt;&#45;7532686428651245982 -->
<g id="edge23" class="edge">
<title>&#45;8445620683755735657&#45;&gt;&#45;7532686428651245982</title>
<path fill="none" stroke="black" d="M792,-106.23C792,-97.79 792,-88.62 792,-79.77"/>
<polygon fill="black" stroke="black" points="795.5,-79.6 792,-69.6 788.5,-79.6 795.5,-79.6"/>
</g>
<!-- &#45;7093690841805423308 -->
<g id="node25" class="node">
<title>&#45;7093690841805423308</title>
<path fill="none" stroke="black" d="M902,-0.5C902,-0.5 1038,-0.5 1038,-0.5 1044,-0.5 1050,-6.5 1050,-12.5 1050,-12.5 1050,-57.5 1050,-57.5 1050,-63.5 1044,-69.5 1038,-69.5 1038,-69.5 902,-69.5 902,-69.5 896,-69.5 890,-63.5 890,-57.5 890,-57.5 890,-12.5 890,-12.5 890,-6.5 896,-0.5 902,-0.5"/>
<text text-anchor="middle" x="970" y="-54.3" font-family="Times,serif" font-size="14.00">ADDXri</text>
<polyline fill="none" stroke="black" points="890,-46.5 1050,-46.5 "/>
<text text-anchor="middle" x="930" y="-31.3" font-family="Times,serif" font-size="14.00">&#45;122.000</text>
<polyline fill="none" stroke="black" points="890,-23.5 970,-23.5 "/>
<text text-anchor="middle" x="930" y="-8.3" font-family="Times,serif" font-size="14.00">1</text>
<polyline fill="none" stroke="black" points="970,-0.5 970,-46.5 "/>
<text text-anchor="middle" x="1010" y="-19.8" font-family="Times,serif" font-size="14.00">&#45;122.000</text>
</g>
<!-- &#45;8445620683755735657&#45;&gt;&#45;7093690841805423308 -->
<g id="edge24" class="edge">
<title>&#45;8445620683755735657&#45;&gt;&#45;7093690841805423308</title>
<path fill="none" stroke="black" d="M849.79,-106.23C866.91,-96.23 885.79,-85.2 903.41,-74.91"/>
<polygon fill="black" stroke="black" points="905.63,-77.66 912.5,-69.6 902.1,-71.62 905.63,-77.66"/>
</g>
<!-- &#45;6166512140724456052 -->
<g id="node20" class="node">
<title>&#45;6166512140724456052</title>
<path fill="none" stroke="black" d="M1080,-0.5C1080,-0.5 1216,-0.5 1216,-0.5 1222,-0.5 1228,-6.5 1228,-12.5 1228,-12.5 1228,-57.5 1228,-57.5 1228,-63.5 1222,-69.5 1216,-69.5 1216,-69.5 1080,-69.5 1080,-69.5 1074,-69.5 1068,-63.5 1068,-57.5 1068,-57.5 1068,-12.5 1068,-12.5 1068,-6.5 1074,-0.5 1080,-0.5"/>
<text text-anchor="middle" x="1148" y="-54.3" font-family="Times,serif" font-size="14.00">ADDXri</text>
<polyline fill="none" stroke="black" points="1068,-46.5 1228,-46.5 "/>
<text text-anchor="middle" x="1108" y="-31.3" font-family="Times,serif" font-size="14.00">&#45;121.000</text>
<polyline fill="none" stroke="black" points="1068,-23.5 1148,-23.5 "/>
<text text-anchor="middle" x="1108" y="-8.3" font-family="Times,serif" font-size="14.00">1</text>
<polyline fill="none" stroke="black" points="1148,-0.5 1148,-46.5 "/>
<text text-anchor="middle" x="1188" y="-19.8" font-family="Times,serif" font-size="14.00">&#45;121.000</text>
</g>
<!-- 8641479788573857674&#45;&gt;&#45;6166512140724456052 -->
<g id="edge19" class="edge">
<title>8641479788573857674&#45;&gt;&#45;6166512140724456052</title>
<path fill="none" stroke="black" d="M1208.1,-106.23C1200.25,-97.06 1191.66,-87.02 1183.49,-77.47"/>
<polygon fill="black" stroke="black" points="1185.91,-74.92 1176.75,-69.6 1180.59,-79.47 1185.91,-74.92"/>
</g>
<!-- 5774324536337679161 -->
<g id="node21" class="node">
<title>5774324536337679161</title>
<path fill="none" stroke="black" d="M1258,-0.5C1258,-0.5 1394,-0.5 1394,-0.5 1400,-0.5 1406,-6.5 1406,-12.5 1406,-12.5 1406,-57.5 1406,-57.5 1406,-63.5 1400,-69.5 1394,-69.5 1394,-69.5 1258,-69.5 1258,-69.5 1252,-69.5 1246,-63.5 1246,-57.5 1246,-57.5 1246,-12.5 1246,-12.5 1246,-6.5 1252,-0.5 1258,-0.5"/>
<text text-anchor="middle" x="1326" y="-54.3" font-family="Times,serif" font-size="14.00">MOVi32imm</text>
<polyline fill="none" stroke="black" points="1246,-46.5 1406,-46.5 "/>
<text text-anchor="middle" x="1286" y="-31.3" font-family="Times,serif" font-size="14.00">&#45;131.000</text>
<polyline fill="none" stroke="black" points="1246,-23.5 1326,-23.5 "/>
<text text-anchor="middle" x="1286" y="-8.3" font-family="Times,serif" font-size="14.00">1</text>
<polyline fill="none" stroke="black" points="1326,-0.5 1326,-46.5 "/>
<text text-anchor="middle" x="1366" y="-19.8" font-family="Times,serif" font-size="14.00">&#45;131.000</text>
</g>
<!-- 8211034093516237771&#45;&gt;5774324536337679161 -->
<g id="edge20" class="edge">
<title>8211034093516237771&#45;&gt;5774324536337679161</title>
<path fill="none" stroke="black" d="M1446.21,-106.23C1429.09,-96.23 1410.21,-85.2 1392.59,-74.91"/>
<polygon fill="black" stroke="black" points="1393.9,-71.62 1383.5,-69.6 1390.37,-77.66 1393.9,-71.62"/>
</g>
<!-- &#45;7161619441088383618 -->
<g id="node22" class="node">
<title>&#45;7161619441088383618</title>
<path fill="none" stroke="black" d="M1436,-0.5C1436,-0.5 1572,-0.5 1572,-0.5 1578,-0.5 1584,-6.5 1584,-12.5 1584,-12.5 1584,-57.5 1584,-57.5 1584,-63.5 1578,-69.5 1572,-69.5 1572,-69.5 1436,-69.5 1436,-69.5 1430,-69.5 1424,-63.5 1424,-57.5 1424,-57.5 1424,-12.5 1424,-12.5 1424,-6.5 1430,-0.5 1436,-0.5"/>
<text text-anchor="middle" x="1504" y="-54.3" font-family="Times,serif" font-size="14.00">MOVaddr</text>
<polyline fill="none" stroke="black" points="1424,-46.5 1584,-46.5 "/>
<text text-anchor="middle" x="1464" y="-31.3" font-family="Times,serif" font-size="14.00">&#45;102.000</text>
<polyline fill="none" stroke="black" points="1424,-23.5 1504,-23.5 "/>
<text text-anchor="middle" x="1464" y="-8.3" font-family="Times,serif" font-size="14.00">1</text>
<polyline fill="none" stroke="black" points="1504,-0.5 1504,-46.5 "/>
<text text-anchor="middle" x="1544" y="-19.8" font-family="Times,serif" font-size="14.00">&#45;102.000</text>
</g>
<!-- 8211034093516237771&#45;&gt;&#45;7161619441088383618 -->
<g id="edge21" class="edge">
<title>8211034093516237771&#45;&gt;&#45;7161619441088383618</title>
<path fill="none" stroke="black" d="M1504,-106.23C1504,-97.79 1504,-88.62 1504,-79.77"/>
<polygon fill="black" stroke="black" points="1507.5,-79.6 1504,-69.6 1500.5,-79.6 1507.5,-79.6"/>
</g>
<!-- &#45;4874469454988406183 -->
<g id="node17" class="node">
<title>&#45;4874469454988406183</title>
<path fill="none" stroke="black" d="M1614,-0.5C1614,-0.5 1750,-0.5 1750,-0.5 1756,-0.5 1762,-6.5 1762,-12.5 1762,-12.5 1762,-57.5 1762,-57.5 1762,-63.5 1756,-69.5 1750,-69.5 1750,-69.5 1614,-69.5 1614,-69.5 1608,-69.5 1602,-63.5 1602,-57.5 1602,-57.5 1602,-12.5 1602,-12.5 1602,-6.5 1608,-0.5 1614,-0.5"/>
<text text-anchor="middle" x="1682" y="-54.3" font-family="Times,serif" font-size="14.00">MOVi32imm</text>
<polyline fill="none" stroke="black" points="1602,-46.5 1762,-46.5 "/>
<text text-anchor="middle" x="1642" y="-31.3" font-family="Times,serif" font-size="14.00">&#45;121.000</text>
<polyline fill="none" stroke="black" points="1602,-23.5 1682,-23.5 "/>
<text text-anchor="middle" x="1642" y="-8.3" font-family="Times,serif" font-size="14.00">1</text>
<polyline fill="none" stroke="black" points="1682,-0.5 1682,-46.5 "/>
<text text-anchor="middle" x="1722" y="-19.8" font-family="Times,serif" font-size="14.00">&#45;121.000</text>
</g>
<!-- 7200819691007423437&#45;&gt;&#45;4874469454988406183 -->
<g id="edge16" class="edge">
<title>7200819691007423437&#45;&gt;&#45;4874469454988406183</title>
<path fill="none" stroke="black" d="M1682,-106.23C1682,-97.79 1682,-88.62 1682,-79.77"/>
<polygon fill="black" stroke="black" points="1685.5,-79.6 1682,-69.6 1678.5,-79.6 1685.5,-79.6"/>
</g>
<!-- &#45;512665711646369310 -->
<g id="node18" class="node">
<title>&#45;512665711646369310</title>
<path fill="none" stroke="black" d="M1792,-0.5C1792,-0.5 1928,-0.5 1928,-0.5 1934,-0.5 1940,-6.5 1940,-12.5 1940,-12.5 1940,-57.5 1940,-57.5 1940,-63.5 1934,-69.5 1928,-69.5 1928,-69.5 1792,-69.5 1792,-69.5 1786,-69.5 1780,-63.5 1780,-57.5 1780,-57.5 1780,-12.5 1780,-12.5 1780,-6.5 1786,-0.5 1792,-0.5"/>
<text text-anchor="middle" x="1860" y="-54.3" font-family="Times,serif" font-size="14.00">MOVaddr</text>
<polyline fill="none" stroke="black" points="1780,-46.5 1940,-46.5 "/>
<text text-anchor="middle" x="1820" y="-31.3" font-family="Times,serif" font-size="14.00">&#45;121.000</text>
<polyline fill="none" stroke="black" points="1780,-23.5 1860,-23.5 "/>
<text text-anchor="middle" x="1820" y="-8.3" font-family="Times,serif" font-size="14.00">1</text>
<polyline fill="none" stroke="black" points="1860,-0.5 1860,-46.5 "/>
<text text-anchor="middle" x="1900" y="-19.8" font-family="Times,serif" font-size="14.00">&#45;121.000</text>
</g>
<!-- 7200819691007423437&#45;&gt;&#45;512665711646369310 -->
<g id="edge17" class="edge">
<title>7200819691007423437&#45;&gt;&#45;512665711646369310</title>
<path fill="none" stroke="black" d="M1739.79,-106.23C1756.91,-96.23 1775.79,-85.2 1793.41,-74.91"/>
<polygon fill="black" stroke="black" points="1795.63,-77.66 1802.5,-69.6 1792.1,-71.62 1795.63,-77.66"/>
</g>
<!-- 1468223071326052648 -->
<g id="node28" class="node">
<title>1468223071326052648</title>
<path fill="none" stroke="black" d="M1970,-0.5C1970,-0.5 2106,-0.5 2106,-0.5 2112,-0.5 2118,-6.5 2118,-12.5 2118,-12.5 2118,-57.5 2118,-57.5 2118,-63.5 2112,-69.5 2106,-69.5 2106,-69.5 1970,-69.5 1970,-69.5 1964,-69.5 1958,-63.5 1958,-57.5 1958,-57.5 1958,-12.5 1958,-12.5 1958,-6.5 1964,-0.5 1970,-0.5"/>
<text text-anchor="middle" x="2038" y="-54.3" font-family="Times,serif" font-size="14.00">MOVi32imm</text>
<polyline fill="none" stroke="black" points="1958,-46.5 2118,-46.5 "/>
<text text-anchor="middle" x="1998" y="-31.3" font-family="Times,serif" font-size="14.00">&#45;131.000</text>
<polyline fill="none" stroke="black" points="1958,-23.5 2038,-23.5 "/>
<text text-anchor="middle" x="1998" y="-8.3" font-family="Times,serif" font-size="14.00">1</text>
<polyline fill="none" stroke="black" points="2038,-0.5 2038,-46.5 "/>
<text text-anchor="middle" x="2078" y="-19.8" font-family="Times,serif" font-size="14.00">&#45;131.000</text>
</g>
<!-- 986013511804777039&#45;&gt;1468223071326052648 -->
<g id="edge27" class="edge">
<title>986013511804777039&#45;&gt;1468223071326052648</title>
<path fill="none" stroke="black" d="M1917.79,-106.23C1934.91,-96.23 1953.79,-85.2 1971.41,-74.91"/>
<polygon fill="black" stroke="black" points="1973.63,-77.66 1980.5,-69.6 1970.1,-71.62 1973.63,-77.66"/>
</g>
<!-- 3557105960774749465 -->
<g id="node19" class="node">
<title>3557105960774749465</title>
<path fill="none" stroke="black" d="M2148,-0.5C2148,-0.5 2284,-0.5 2284,-0.5 2290,-0.5 2296,-6.5 2296,-12.5 2296,-12.5 2296,-57.5 2296,-57.5 2296,-63.5 2290,-69.5 2284,-69.5 2284,-69.5 2148,-69.5 2148,-69.5 2142,-69.5 2136,-63.5 2136,-57.5 2136,-57.5 2136,-12.5 2136,-12.5 2136,-6.5 2142,-0.5 2148,-0.5"/>
<text text-anchor="middle" x="2216" y="-54.3" font-family="Times,serif" font-size="14.00">ADDXri</text>
<polyline fill="none" stroke="black" points="2136,-46.5 2296,-46.5 "/>
<text text-anchor="middle" x="2176" y="-31.3" font-family="Times,serif" font-size="14.00">&#45;131.000</text>
<polyline fill="none" stroke="black" points="2136,-23.5 2216,-23.5 "/>
<text text-anchor="middle" x="2176" y="-8.3" font-family="Times,serif" font-size="14.00">1</text>
<polyline fill="none" stroke="black" points="2216,-0.5 2216,-46.5 "/>
<text text-anchor="middle" x="2256" y="-19.8" font-family="Times,serif" font-size="14.00">&#45;131.000</text>
</g>
<!-- &#45;6295542823452967657&#45;&gt;3557105960774749465 -->
<g id="edge18" class="edge">
<title>&#45;6295542823452967657&#45;&gt;3557105960774749465</title>
<path fill="none" stroke="black" d="M2095.79,-106.23C2112.91,-96.23 2131.79,-85.2 2149.41,-74.91"/>
<polygon fill="black" stroke="black" points="2151.63,-77.66 2158.5,-69.6 2148.1,-71.62 2151.63,-77.66"/>
</g>
<!-- &#45;6729497047508225739 -->
<g id="node27" class="node">
<title>&#45;6729497047508225739</title>
<path fill="none" stroke="black" d="M190,-0.5C190,-0.5 326,-0.5 326,-0.5 332,-0.5 338,-6.5 338,-12.5 338,-12.5 338,-57.5 338,-57.5 338,-63.5 332,-69.5 326,-69.5 326,-69.5 190,-69.5 190,-69.5 184,-69.5 178,-63.5 178,-57.5 178,-57.5 178,-12.5 178,-12.5 178,-6.5 184,-0.5 190,-0.5"/>
<text text-anchor="middle" x="258" y="-54.3" font-family="Times,serif" font-size="14.00">ADDXri</text>
<polyline fill="none" stroke="black" points="178,-46.5 338,-46.5 "/>
<text text-anchor="middle" x="218" y="-31.3" font-family="Times,serif" font-size="14.00">&#45;122.000</text>
<polyline fill="none" stroke="black" points="178,-23.5 258,-23.5 "/>
<text text-anchor="middle" x="218" y="-8.3" font-family="Times,serif" font-size="14.00">1</text>
<polyline fill="none" stroke="black" points="258,-0.5 258,-46.5 "/>
<text text-anchor="middle" x="298" y="-19.8" font-family="Times,serif" font-size="14.00">&#45;122.000</text>
</g>
<!-- 3457944213616236892&#45;&gt;&#45;6729497047508225739 -->
<g id="edge26" class="edge">
<title>3457944213616236892&#45;&gt;&#45;6729497047508225739</title>
<path fill="none" stroke="black" d="M258,-106.23C258,-97.79 258,-88.62 258,-79.77"/>
<polygon fill="black" stroke="black" points="261.5,-79.6 258,-69.6 254.5,-79.6 261.5,-79.6"/>
</g>
</g>
</svg>
