<?xml version="1.0" encoding="UTF-8" standalone="no"?>
<!DOCTYPE svg PUBLIC "-//W3C//DTD SVG 1.1//EN"
 "http://www.w3.org/Graphics/SVG/1.1/DTD/svg11.dtd">
<!-- Generated by graphviz version 2.43.0 (0)
 -->
<!-- Title: MCTS Tree\nmcts/1.0/tree.svg Pages: 1 -->
<svg width="1547pt" height="396pt"
 viewBox="0.00 0.00 1547.00 396.00" xmlns="http://www.w3.org/2000/svg" xmlns:xlink="http://www.w3.org/1999/xlink">
<g id="graph0" class="graph" transform="scale(1 1) rotate(0) translate(4 392)">
<title>MCTS Tree\nmcts/1.0/tree.svg</title>
<polygon fill="white" stroke="transparent" points="-4,4 -4,-392 1543,-392 1543,4 -4,4"/>
<!-- 0 -->
<g id="node1" class="node">
<title>0</title>
<path fill="none" stroke="black" d="M963.5,-318.5C963.5,-318.5 1108.5,-318.5 1108.5,-318.5 1114.5,-318.5 1120.5,-324.5 1120.5,-330.5 1120.5,-330.5 1120.5,-375.5 1120.5,-375.5 1120.5,-381.5 1114.5,-387.5 1108.5,-387.5 1108.5,-387.5 963.5,-387.5 963.5,-387.5 957.5,-387.5 951.5,-381.5 951.5,-375.5 951.5,-375.5 951.5,-330.5 951.5,-330.5 951.5,-324.5 957.5,-318.5 963.5,-318.5"/>
<text text-anchor="middle" x="1036" y="-372.3" font-family="Times,serif" font-size="14.00"> </text>
<polyline fill="none" stroke="black" points="951.5,-364.5 1120.5,-364.5 "/>
<text text-anchor="middle" x="996" y="-349.3" font-family="Times,serif" font-size="14.00">&#45;1222.000</text>
<polyline fill="none" stroke="black" points="951.5,-341.5 1040.5,-341.5 "/>
<text text-anchor="middle" x="996" y="-326.3" font-family="Times,serif" font-size="14.00">10</text>
<polyline fill="none" stroke="black" points="1040.5,-318.5 1040.5,-364.5 "/>
<text text-anchor="middle" x="1080.5" y="-337.8" font-family="Times,serif" font-size="14.00">&#45;122.200</text>
</g>
<!-- &#45;6431769390230409528 -->
<g id="node2" class="node">
<title>&#45;6431769390230409528</title>
<path fill="none" stroke="black" d="M190,-212.5C190,-212.5 326,-212.5 326,-212.5 332,-212.5 338,-218.5 338,-224.5 338,-224.5 338,-269.5 338,-269.5 338,-275.5 332,-281.5 326,-281.5 326,-281.5 190,-281.5 190,-281.5 184,-281.5 178,-275.5 178,-269.5 178,-269.5 178,-224.5 178,-224.5 178,-218.5 184,-212.5 190,-212.5"/>
<text text-anchor="middle" x="258" y="-266.3" font-family="Times,serif" font-size="14.00">MOVaddr</text>
<polyline fill="none" stroke="black" points="178,-258.5 338,-258.5 "/>
<text text-anchor="middle" x="218" y="-243.3" font-family="Times,serif" font-size="14.00">&#45;242.000</text>
<polyline fill="none" stroke="black" points="178,-235.5 258,-235.5 "/>
<text text-anchor="middle" x="218" y="-220.3" font-family="Times,serif" font-size="14.00">2</text>
<polyline fill="none" stroke="black" points="258,-212.5 258,-258.5 "/>
<text text-anchor="middle" x="298" y="-231.8" font-family="Times,serif" font-size="14.00">&#45;121.000</text>
</g>
<!-- 0&#45;&gt;&#45;6431769390230409528 -->
<g id="edge1" class="edge">
<title>0&#45;&gt;&#45;6431769390230409528</title>
<path fill="none" stroke="black" d="M951.26,-340.67C803.52,-320.92 500.12,-280.37 348.46,-260.09"/>
<polygon fill="black" stroke="black" points="348.63,-256.58 338.25,-258.73 347.7,-263.52 348.63,-256.58"/>
</g>
<!-- 8968172367938046771 -->
<g id="node3" class="node">
<title>8968172367938046771</title>
<path fill="none" stroke="black" d="M857,-212.5C857,-212.5 993,-212.5 993,-212.5 999,-212.5 1005,-218.5 1005,-224.5 1005,-224.5 1005,-269.5 1005,-269.5 1005,-275.5 999,-281.5 993,-281.5 993,-281.5 857,-281.5 857,-281.5 851,-281.5 845,-275.5 845,-269.5 845,-269.5 845,-224.5 845,-224.5 845,-218.5 851,-212.5 857,-212.5"/>
<text text-anchor="middle" x="925" y="-266.3" font-family="Times,serif" font-size="14.00">ADDXri</text>
<polyline fill="none" stroke="black" points="845,-258.5 1005,-258.5 "/>
<text text-anchor="middle" x="885" y="-243.3" font-family="Times,serif" font-size="14.00">&#45;727.000</text>
<polyline fill="none" stroke="black" points="845,-235.5 925,-235.5 "/>
<text text-anchor="middle" x="885" y="-220.3" font-family="Times,serif" font-size="14.00">6</text>
<polyline fill="none" stroke="black" points="925,-212.5 925,-258.5 "/>
<text text-anchor="middle" x="965" y="-231.8" font-family="Times,serif" font-size="14.00">&#45;121.167</text>
</g>
<!-- 0&#45;&gt;8968172367938046771 -->
<g id="edge2" class="edge">
<title>0&#45;&gt;8968172367938046771</title>
<path fill="none" stroke="black" d="M999.96,-318.23C989.88,-308.78 978.81,-298.41 968.35,-288.61"/>
<polygon fill="black" stroke="black" points="970.55,-285.88 960.86,-281.6 965.76,-290.99 970.55,-285.88"/>
</g>
<!-- &#45;8696514429205789444 -->
<g id="node4" class="node">
<title>&#45;8696514429205789444</title>
<path fill="none" stroke="black" d="M1079,-212.5C1079,-212.5 1215,-212.5 1215,-212.5 1221,-212.5 1227,-218.5 1227,-224.5 1227,-224.5 1227,-269.5 1227,-269.5 1227,-275.5 1221,-281.5 1215,-281.5 1215,-281.5 1079,-281.5 1079,-281.5 1073,-281.5 1067,-275.5 1067,-269.5 1067,-269.5 1067,-224.5 1067,-224.5 1067,-218.5 1073,-212.5 1079,-212.5"/>
<text text-anchor="middle" x="1147" y="-266.3" font-family="Times,serif" font-size="14.00">MOVi32imm</text>
<polyline fill="none" stroke="black" points="1067,-258.5 1227,-258.5 "/>
<text text-anchor="middle" x="1107" y="-243.3" font-family="Times,serif" font-size="14.00">&#45;131.000</text>
<polyline fill="none" stroke="black" points="1067,-235.5 1147,-235.5 "/>
<text text-anchor="middle" x="1107" y="-220.3" font-family="Times,serif" font-size="14.00">1</text>
<polyline fill="none" stroke="black" points="1147,-212.5 1147,-258.5 "/>
<text text-anchor="middle" x="1187" y="-231.8" font-family="Times,serif" font-size="14.00">&#45;131.000</text>
</g>
<!-- 0&#45;&gt;&#45;8696514429205789444 -->
<g id="edge3" class="edge">
<title>0&#45;&gt;&#45;8696514429205789444</title>
<path fill="none" stroke="black" d="M1072.04,-318.23C1082.12,-308.78 1093.19,-298.41 1103.65,-288.61"/>
<polygon fill="black" stroke="black" points="1106.24,-290.99 1111.14,-281.6 1101.45,-285.88 1106.24,-290.99"/>
</g>
<!-- 5539072434801851294 -->
<g id="node5" class="node">
<title>5539072434801851294</title>
<path fill="none" stroke="black" d="M1346,-212.5C1346,-212.5 1482,-212.5 1482,-212.5 1488,-212.5 1494,-218.5 1494,-224.5 1494,-224.5 1494,-269.5 1494,-269.5 1494,-275.5 1488,-281.5 1482,-281.5 1482,-281.5 1346,-281.5 1346,-281.5 1340,-281.5 1334,-275.5 1334,-269.5 1334,-269.5 1334,-224.5 1334,-224.5 1334,-218.5 1340,-212.5 1346,-212.5"/>
<text text-anchor="middle" x="1414" y="-266.3" font-family="Times,serif" font-size="14.00">UBFMXri</text>
<polyline fill="none" stroke="black" points="1334,-258.5 1494,-258.5 "/>
<text text-anchor="middle" x="1374" y="-243.3" font-family="Times,serif" font-size="14.00">&#45;122.000</text>
<polyline fill="none" stroke="black" points="1334,-235.5 1414,-235.5 "/>
<text text-anchor="middle" x="1374" y="-220.3" font-family="Times,serif" font-size="14.00">1</text>
<polyline fill="none" stroke="black" points="1414,-212.5 1414,-258.5 "/>
<text text-anchor="middle" x="1454" y="-231.8" font-family="Times,serif" font-size="14.00">&#45;122.000</text>
</g>
<!-- 0&#45;&gt;5539072434801851294 -->
<g id="edge4" class="edge">
<title>0&#45;&gt;5539072434801851294</title>
<path fill="none" stroke="black" d="M1120.83,-328.66C1181.37,-312 1262.64,-289.64 1324.26,-272.69"/>
<polygon fill="black" stroke="black" points="1325.27,-276.04 1333.98,-270.02 1323.41,-269.29 1325.27,-276.04"/>
</g>
<!-- 5668556145476176026 -->
<g id="node6" class="node">
<title>5668556145476176026</title>
<path fill="none" stroke="black" d="M12,-106.5C12,-106.5 148,-106.5 148,-106.5 154,-106.5 160,-112.5 160,-118.5 160,-118.5 160,-163.5 160,-163.5 160,-169.5 154,-175.5 148,-175.5 148,-175.5 12,-175.5 12,-175.5 6,-175.5 0,-169.5 0,-163.5 0,-163.5 0,-118.5 0,-118.5 0,-112.5 6,-106.5 12,-106.5"/>
<text text-anchor="middle" x="80" y="-160.3" font-family="Times,serif" font-size="14.00">UBFMXri</text>
<polyline fill="none" stroke="black" points="0,-152.5 160,-152.5 "/>
<text text-anchor="middle" x="40" y="-137.3" font-family="Times,serif" font-size="14.00">&#45;121.000</text>
<polyline fill="none" stroke="black" points="0,-129.5 80,-129.5 "/>
<text text-anchor="middle" x="40" y="-114.3" font-family="Times,serif" font-size="14.00">1</text>
<polyline fill="none" stroke="black" points="80,-106.5 80,-152.5 "/>
<text text-anchor="middle" x="120" y="-125.8" font-family="Times,serif" font-size="14.00">&#45;121.000</text>
</g>
<!-- &#45;6431769390230409528&#45;&gt;5668556145476176026 -->
<g id="edge5" class="edge">
<title>&#45;6431769390230409528&#45;&gt;5668556145476176026</title>
<path fill="none" stroke="black" d="M200.21,-212.23C183.09,-202.23 164.21,-191.2 146.59,-180.91"/>
<polygon fill="black" stroke="black" points="147.9,-177.62 137.5,-175.6 144.37,-183.66 147.9,-177.62"/>
</g>
<!-- &#45;5183799162413662102 -->
<g id="node7" class="node">
<title>&#45;5183799162413662102</title>
<path fill="none" stroke="black" d="M190,-106.5C190,-106.5 326,-106.5 326,-106.5 332,-106.5 338,-112.5 338,-118.5 338,-118.5 338,-163.5 338,-163.5 338,-169.5 332,-175.5 326,-175.5 326,-175.5 190,-175.5 190,-175.5 184,-175.5 178,-169.5 178,-163.5 178,-163.5 178,-118.5 178,-118.5 178,-112.5 184,-106.5 190,-106.5"/>
<text text-anchor="middle" x="258" y="-160.3" font-family="Times,serif" font-size="14.00">MOVi32imm</text>
<polyline fill="none" stroke="black" points="178,-152.5 338,-152.5 "/>
<text text-anchor="middle" x="218" y="-137.3" font-family="Times,serif" font-size="14.00">&#45;121.000</text>
<polyline fill="none" stroke="black" points="178,-129.5 258,-129.5 "/>
<text text-anchor="middle" x="218" y="-114.3" font-family="Times,serif" font-size="14.00">1</text>
<polyline fill="none" stroke="black" points="258,-106.5 258,-152.5 "/>
<text text-anchor="middle" x="298" y="-125.8" font-family="Times,serif" font-size="14.00">&#45;121.000</text>
</g>
<!-- &#45;6431769390230409528&#45;&gt;&#45;5183799162413662102 -->
<g id="edge6" class="edge">
<title>&#45;6431769390230409528&#45;&gt;&#45;5183799162413662102</title>
<path fill="none" stroke="black" d="M258,-212.23C258,-203.79 258,-194.62 258,-185.77"/>
<polygon fill="black" stroke="black" points="261.5,-185.6 258,-175.6 254.5,-185.6 261.5,-185.6"/>
</g>
<!-- 5262775400436763424 -->
<g id="node8" class="node">
<title>5262775400436763424</title>
<path fill="none" stroke="black" d="M457,-106.5C457,-106.5 593,-106.5 593,-106.5 599,-106.5 605,-112.5 605,-118.5 605,-118.5 605,-163.5 605,-163.5 605,-169.5 599,-175.5 593,-175.5 593,-175.5 457,-175.5 457,-175.5 451,-175.5 445,-169.5 445,-163.5 445,-163.5 445,-118.5 445,-118.5 445,-112.5 451,-106.5 457,-106.5"/>
<text text-anchor="middle" x="525" y="-160.3" font-family="Times,serif" font-size="14.00">UBFMXri</text>
<polyline fill="none" stroke="black" points="445,-152.5 605,-152.5 "/>
<text text-anchor="middle" x="485" y="-137.3" font-family="Times,serif" font-size="14.00">&#45;121.000</text>
<polyline fill="none" stroke="black" points="445,-129.5 525,-129.5 "/>
<text text-anchor="middle" x="485" y="-114.3" font-family="Times,serif" font-size="14.00">1</text>
<polyline fill="none" stroke="black" points="525,-106.5 525,-152.5 "/>
<text text-anchor="middle" x="565" y="-125.8" font-family="Times,serif" font-size="14.00">&#45;121.000</text>
</g>
<!-- 8968172367938046771&#45;&gt;5262775400436763424 -->
<g id="edge7" class="edge">
<title>8968172367938046771&#45;&gt;5262775400436763424</title>
<path fill="none" stroke="black" d="M844.54,-225.08C778.21,-207.84 684.2,-183.39 615.31,-165.48"/>
<polygon fill="black" stroke="black" points="615.9,-162.02 605.34,-162.89 614.13,-168.79 615.9,-162.02"/>
</g>
<!-- &#45;8866724491492648788 -->
<g id="node9" class="node">
<title>&#45;8866724491492648788</title>
<path fill="none" stroke="black" d="M679,-106.5C679,-106.5 815,-106.5 815,-106.5 821,-106.5 827,-112.5 827,-118.5 827,-118.5 827,-163.5 827,-163.5 827,-169.5 821,-175.5 815,-175.5 815,-175.5 679,-175.5 679,-175.5 673,-175.5 667,-169.5 667,-163.5 667,-163.5 667,-118.5 667,-118.5 667,-112.5 673,-106.5 679,-106.5"/>
<text text-anchor="middle" x="747" y="-160.3" font-family="Times,serif" font-size="14.00">ADDXri</text>
<polyline fill="none" stroke="black" points="667,-152.5 827,-152.5 "/>
<text text-anchor="middle" x="707" y="-137.3" font-family="Times,serif" font-size="14.00">&#45;233.000</text>
<polyline fill="none" stroke="black" points="667,-129.5 747,-129.5 "/>
<text text-anchor="middle" x="707" y="-114.3" font-family="Times,serif" font-size="14.00">2</text>
<polyline fill="none" stroke="black" points="747,-106.5 747,-152.5 "/>
<text text-anchor="middle" x="787" y="-125.8" font-family="Times,serif" font-size="14.00">&#45;116.500</text>
</g>
<!-- 8968172367938046771&#45;&gt;&#45;8866724491492648788 -->
<g id="edge8" class="edge">
<title>8968172367938046771&#45;&gt;&#45;8866724491492648788</title>
<path fill="none" stroke="black" d="M867.21,-212.23C850.09,-202.23 831.21,-191.2 813.59,-180.91"/>
<polygon fill="black" stroke="black" points="814.9,-177.62 804.5,-175.6 811.37,-183.66 814.9,-177.62"/>
</g>
<!-- &#45;4848983816374530542 -->
<g id="node10" class="node">
<title>&#45;4848983816374530542</title>
<path fill="none" stroke="black" d="M857,-106.5C857,-106.5 993,-106.5 993,-106.5 999,-106.5 1005,-112.5 1005,-118.5 1005,-118.5 1005,-163.5 1005,-163.5 1005,-169.5 999,-175.5 993,-175.5 993,-175.5 857,-175.5 857,-175.5 851,-175.5 845,-169.5 845,-163.5 845,-163.5 845,-118.5 845,-118.5 845,-112.5 851,-106.5 857,-106.5"/>
<text text-anchor="middle" x="925" y="-160.3" font-family="Times,serif" font-size="14.00">MOVaddr</text>
<polyline fill="none" stroke="black" points="845,-152.5 1005,-152.5 "/>
<text text-anchor="middle" x="885" y="-137.3" font-family="Times,serif" font-size="14.00">&#45;131.000</text>
<polyline fill="none" stroke="black" points="845,-129.5 925,-129.5 "/>
<text text-anchor="middle" x="885" y="-114.3" font-family="Times,serif" font-size="14.00">1</text>
<polyline fill="none" stroke="black" points="925,-106.5 925,-152.5 "/>
<text text-anchor="middle" x="965" y="-125.8" font-family="Times,serif" font-size="14.00">&#45;131.000</text>
</g>
<!-- 8968172367938046771&#45;&gt;&#45;4848983816374530542 -->
<g id="edge9" class="edge">
<title>8968172367938046771&#45;&gt;&#45;4848983816374530542</title>
<path fill="none" stroke="black" d="M925,-212.23C925,-203.79 925,-194.62 925,-185.77"/>
<polygon fill="black" stroke="black" points="928.5,-185.6 925,-175.6 921.5,-185.6 928.5,-185.6"/>
</g>
<!-- 6817160862643592950 -->
<g id="node11" class="node">
<title>6817160862643592950</title>
<path fill="none" stroke="black" d="M1035,-106.5C1035,-106.5 1171,-106.5 1171,-106.5 1177,-106.5 1183,-112.5 1183,-118.5 1183,-118.5 1183,-163.5 1183,-163.5 1183,-169.5 1177,-175.5 1171,-175.5 1171,-175.5 1035,-175.5 1035,-175.5 1029,-175.5 1023,-169.5 1023,-163.5 1023,-163.5 1023,-118.5 1023,-118.5 1023,-112.5 1029,-106.5 1035,-106.5"/>
<text text-anchor="middle" x="1103" y="-160.3" font-family="Times,serif" font-size="14.00">SUBSXri</text>
<polyline fill="none" stroke="black" points="1023,-152.5 1183,-152.5 "/>
<text text-anchor="middle" x="1063" y="-137.3" font-family="Times,serif" font-size="14.00">&#45;242.000</text>
<polyline fill="none" stroke="black" points="1023,-129.5 1103,-129.5 "/>
<text text-anchor="middle" x="1063" y="-114.3" font-family="Times,serif" font-size="14.00">2</text>
<polyline fill="none" stroke="black" points="1103,-106.5 1103,-152.5 "/>
<text text-anchor="middle" x="1143" y="-125.8" font-family="Times,serif" font-size="14.00">&#45;121.000</text>
</g>
<!-- 8968172367938046771&#45;&gt;6817160862643592950 -->
<g id="edge10" class="edge">
<title>8968172367938046771&#45;&gt;6817160862643592950</title>
<path fill="none" stroke="black" d="M982.79,-212.23C999.91,-202.23 1018.79,-191.2 1036.41,-180.91"/>
<polygon fill="black" stroke="black" points="1038.63,-183.66 1045.5,-175.6 1035.1,-177.62 1038.63,-183.66"/>
</g>
<!-- &#45;4500912339433886548 -->
<g id="node12" class="node">
<title>&#45;4500912339433886548</title>
<path fill="none" stroke="black" d="M1213,-106.5C1213,-106.5 1349,-106.5 1349,-106.5 1355,-106.5 1361,-112.5 1361,-118.5 1361,-118.5 1361,-163.5 1361,-163.5 1361,-169.5 1355,-175.5 1349,-175.5 1349,-175.5 1213,-175.5 1213,-175.5 1207,-175.5 1201,-169.5 1201,-163.5 1201,-163.5 1201,-118.5 1201,-118.5 1201,-112.5 1207,-106.5 1213,-106.5"/>
<text text-anchor="middle" x="1281" y="-160.3" font-family="Times,serif" font-size="14.00">ADDXri</text>
<polyline fill="none" stroke="black" points="1201,-152.5 1361,-152.5 "/>
<text text-anchor="middle" x="1241" y="-137.3" font-family="Times,serif" font-size="14.00">&#45;131.000</text>
<polyline fill="none" stroke="black" points="1201,-129.5 1281,-129.5 "/>
<text text-anchor="middle" x="1241" y="-114.3" font-family="Times,serif" font-size="14.00">1</text>
<polyline fill="none" stroke="black" points="1281,-106.5 1281,-152.5 "/>
<text text-anchor="middle" x="1321" y="-125.8" font-family="Times,serif" font-size="14.00">&#45;131.000</text>
</g>
<!-- &#45;8696514429205789444&#45;&gt;&#45;4500912339433886548 -->
<g id="edge11" class="edge">
<title>&#45;8696514429205789444&#45;&gt;&#45;4500912339433886548</title>
<path fill="none" stroke="black" d="M1190.51,-212.23C1203.04,-202.51 1216.82,-191.81 1229.77,-181.76"/>
<polygon fill="black" stroke="black" points="1231.96,-184.49 1237.71,-175.6 1227.67,-178.96 1231.96,-184.49"/>
</g>
<!-- &#45;8668730213471292032 -->
<g id="node13" class="node">
<title>&#45;8668730213471292032</title>
<path fill="none" stroke="black" d="M1391,-106.5C1391,-106.5 1527,-106.5 1527,-106.5 1533,-106.5 1539,-112.5 1539,-118.5 1539,-118.5 1539,-163.5 1539,-163.5 1539,-169.5 1533,-175.5 1527,-175.5 1527,-175.5 1391,-175.5 1391,-175.5 1385,-175.5 1379,-169.5 1379,-163.5 1379,-163.5 1379,-118.5 1379,-118.5 1379,-112.5 1385,-106.5 1391,-106.5"/>
<text text-anchor="middle" x="1459" y="-160.3" font-family="Times,serif" font-size="14.00">ADDXri</text>
<polyline fill="none" stroke="black" points="1379,-152.5 1539,-152.5 "/>
<text text-anchor="middle" x="1419" y="-137.3" font-family="Times,serif" font-size="14.00">&#45;122.000</text>
<polyline fill="none" stroke="black" points="1379,-129.5 1459,-129.5 "/>
<text text-anchor="middle" x="1419" y="-114.3" font-family="Times,serif" font-size="14.00">1</text>
<polyline fill="none" stroke="black" points="1459,-106.5 1459,-152.5 "/>
<text text-anchor="middle" x="1499" y="-125.8" font-family="Times,serif" font-size="14.00">&#45;122.000</text>
</g>
<!-- 5539072434801851294&#45;&gt;&#45;8668730213471292032 -->
<g id="edge12" class="edge">
<title>5539072434801851294&#45;&gt;&#45;8668730213471292032</title>
<path fill="none" stroke="black" d="M1428.61,-212.23C1432.38,-203.52 1436.49,-194.02 1440.43,-184.91"/>
<polygon fill="black" stroke="black" points="1443.7,-186.16 1444.46,-175.6 1437.28,-183.38 1443.7,-186.16"/>
</g>
<!-- &#45;2506150184736699771 -->
<g id="node20" class="node">
<title>&#45;2506150184736699771</title>
<path fill="none" stroke="black" d="M145,-0.5C145,-0.5 281,-0.5 281,-0.5 287,-0.5 293,-6.5 293,-12.5 293,-12.5 293,-57.5 293,-57.5 293,-63.5 287,-69.5 281,-69.5 281,-69.5 145,-69.5 145,-69.5 139,-69.5 133,-63.5 133,-57.5 133,-57.5 133,-12.5 133,-12.5 133,-6.5 139,-0.5 145,-0.5"/>
<text text-anchor="middle" x="213" y="-54.3" font-family="Times,serif" font-size="14.00">ADDXri</text>
<polyline fill="none" stroke="black" points="133,-46.5 293,-46.5 "/>
<text text-anchor="middle" x="173" y="-31.3" font-family="Times,serif" font-size="14.00">&#45;121.000</text>
<polyline fill="none" stroke="black" points="133,-23.5 213,-23.5 "/>
<text text-anchor="middle" x="173" y="-8.3" font-family="Times,serif" font-size="14.00">1</text>
<polyline fill="none" stroke="black" points="213,-0.5 213,-46.5 "/>
<text text-anchor="middle" x="253" y="-19.8" font-family="Times,serif" font-size="14.00">&#45;121.000</text>
</g>
<!-- &#45;5183799162413662102&#45;&gt;&#45;2506150184736699771 -->
<g id="edge19" class="edge">
<title>&#45;5183799162413662102&#45;&gt;&#45;2506150184736699771</title>
<path fill="none" stroke="black" d="M243.39,-106.23C239.62,-97.52 235.51,-88.02 231.57,-78.91"/>
<polygon fill="black" stroke="black" points="234.72,-77.38 227.54,-69.6 228.3,-80.16 234.72,-77.38"/>
</g>
<!-- 869781099548783346 -->
<g id="node17" class="node">
<title>869781099548783346</title>
<path fill="none" stroke="black" d="M323,-0.5C323,-0.5 459,-0.5 459,-0.5 465,-0.5 471,-6.5 471,-12.5 471,-12.5 471,-57.5 471,-57.5 471,-63.5 465,-69.5 459,-69.5 459,-69.5 323,-69.5 323,-69.5 317,-69.5 311,-63.5 311,-57.5 311,-57.5 311,-12.5 311,-12.5 311,-6.5 317,-0.5 323,-0.5"/>
<text text-anchor="middle" x="391" y="-54.3" font-family="Times,serif" font-size="14.00">ADDXri</text>
<polyline fill="none" stroke="black" points="311,-46.5 471,-46.5 "/>
<text text-anchor="middle" x="351" y="-31.3" font-family="Times,serif" font-size="14.00">&#45;121.000</text>
<polyline fill="none" stroke="black" points="311,-23.5 391,-23.5 "/>
<text text-anchor="middle" x="351" y="-8.3" font-family="Times,serif" font-size="14.00">1</text>
<polyline fill="none" stroke="black" points="391,-0.5 391,-46.5 "/>
<text text-anchor="middle" x="431" y="-19.8" font-family="Times,serif" font-size="14.00">&#45;121.000</text>
</g>
<!-- 5262775400436763424&#45;&gt;869781099548783346 -->
<g id="edge16" class="edge">
<title>5262775400436763424&#45;&gt;869781099548783346</title>
<path fill="none" stroke="black" d="M481.49,-106.23C468.96,-96.51 455.18,-85.81 442.23,-75.76"/>
<polygon fill="black" stroke="black" points="444.33,-72.96 434.29,-69.6 440.04,-78.49 444.33,-72.96"/>
</g>
<!-- &#45;2645925511231020701 -->
<g id="node18" class="node">
<title>&#45;2645925511231020701</title>
<path fill="none" stroke="black" d="M501,-0.5C501,-0.5 637,-0.5 637,-0.5 643,-0.5 649,-6.5 649,-12.5 649,-12.5 649,-57.5 649,-57.5 649,-63.5 643,-69.5 637,-69.5 637,-69.5 501,-69.5 501,-69.5 495,-69.5 489,-63.5 489,-57.5 489,-57.5 489,-12.5 489,-12.5 489,-6.5 495,-0.5 501,-0.5"/>
<text text-anchor="middle" x="569" y="-54.3" font-family="Times,serif" font-size="14.00">MOVi32imm</text>
<polyline fill="none" stroke="black" points="489,-46.5 649,-46.5 "/>
<text text-anchor="middle" x="529" y="-31.3" font-family="Times,serif" font-size="14.00">&#45;131.000</text>
<polyline fill="none" stroke="black" points="489,-23.5 569,-23.5 "/>
<text text-anchor="middle" x="529" y="-8.3" font-family="Times,serif" font-size="14.00">1</text>
<polyline fill="none" stroke="black" points="569,-0.5 569,-46.5 "/>
<text text-anchor="middle" x="609" y="-19.8" font-family="Times,serif" font-size="14.00">&#45;131.000</text>
</g>
<!-- &#45;8866724491492648788&#45;&gt;&#45;2645925511231020701 -->
<g id="edge17" class="edge">
<title>&#45;8866724491492648788&#45;&gt;&#45;2645925511231020701</title>
<path fill="none" stroke="black" d="M689.21,-106.23C672.09,-96.23 653.21,-85.2 635.59,-74.91"/>
<polygon fill="black" stroke="black" points="636.9,-71.62 626.5,-69.6 633.37,-77.66 636.9,-71.62"/>
</g>
<!-- 7113230696165713549 -->
<g id="node19" class="node">
<title>7113230696165713549</title>
<path fill="none" stroke="black" d="M679,-0.5C679,-0.5 815,-0.5 815,-0.5 821,-0.5 827,-6.5 827,-12.5 827,-12.5 827,-57.5 827,-57.5 827,-63.5 821,-69.5 815,-69.5 815,-69.5 679,-69.5 679,-69.5 673,-69.5 667,-63.5 667,-57.5 667,-57.5 667,-12.5 667,-12.5 667,-6.5 673,-0.5 679,-0.5"/>
<text text-anchor="middle" x="747" y="-54.3" font-family="Times,serif" font-size="14.00">MOVaddr</text>
<polyline fill="none" stroke="black" points="667,-46.5 827,-46.5 "/>
<text text-anchor="middle" x="707" y="-31.3" font-family="Times,serif" font-size="14.00">&#45;102.000</text>
<polyline fill="none" stroke="black" points="667,-23.5 747,-23.5 "/>
<text text-anchor="middle" x="707" y="-8.3" font-family="Times,serif" font-size="14.00">1</text>
<polyline fill="none" stroke="black" points="747,-0.5 747,-46.5 "/>
<text text-anchor="middle" x="787" y="-19.8" font-family="Times,serif" font-size="14.00">&#45;102.000</text>
</g>
<!-- &#45;8866724491492648788&#45;&gt;7113230696165713549 -->
<g id="edge18" class="edge">
<title>&#45;8866724491492648788&#45;&gt;7113230696165713549</title>
<path fill="none" stroke="black" d="M747,-106.23C747,-97.79 747,-88.62 747,-79.77"/>
<polygon fill="black" stroke="black" points="750.5,-79.6 747,-69.6 743.5,-79.6 750.5,-79.6"/>
</g>
<!-- &#45;8688117717318824419 -->
<g id="node16" class="node">
<title>&#45;8688117717318824419</title>
<path fill="none" stroke="black" d="M857,-0.5C857,-0.5 993,-0.5 993,-0.5 999,-0.5 1005,-6.5 1005,-12.5 1005,-12.5 1005,-57.5 1005,-57.5 1005,-63.5 999,-69.5 993,-69.5 993,-69.5 857,-69.5 857,-69.5 851,-69.5 845,-63.5 845,-57.5 845,-57.5 845,-12.5 845,-12.5 845,-6.5 851,-0.5 857,-0.5"/>
<text text-anchor="middle" x="925" y="-54.3" font-family="Times,serif" font-size="14.00">ADDXri</text>
<polyline fill="none" stroke="black" points="845,-46.5 1005,-46.5 "/>
<text text-anchor="middle" x="885" y="-31.3" font-family="Times,serif" font-size="14.00">&#45;131.000</text>
<polyline fill="none" stroke="black" points="845,-23.5 925,-23.5 "/>
<text text-anchor="middle" x="885" y="-8.3" font-family="Times,serif" font-size="14.00">1</text>
<polyline fill="none" stroke="black" points="925,-0.5 925,-46.5 "/>
<text text-anchor="middle" x="965" y="-19.8" font-family="Times,serif" font-size="14.00">&#45;131.000</text>
</g>
<!-- &#45;4848983816374530542&#45;&gt;&#45;8688117717318824419 -->
<g id="edge15" class="edge">
<title>&#45;4848983816374530542&#45;&gt;&#45;8688117717318824419</title>
<path fill="none" stroke="black" d="M925,-106.23C925,-97.79 925,-88.62 925,-79.77"/>
<polygon fill="black" stroke="black" points="928.5,-79.6 925,-69.6 921.5,-79.6 928.5,-79.6"/>
</g>
<!-- &#45;1036867148700489056 -->
<g id="node14" class="node">
<title>&#45;1036867148700489056</title>
<path fill="none" stroke="black" d="M1035,-0.5C1035,-0.5 1171,-0.5 1171,-0.5 1177,-0.5 1183,-6.5 1183,-12.5 1183,-12.5 1183,-57.5 1183,-57.5 1183,-63.5 1177,-69.5 1171,-69.5 1171,-69.5 1035,-69.5 1035,-69.5 1029,-69.5 1023,-63.5 1023,-57.5 1023,-57.5 1023,-12.5 1023,-12.5 1023,-6.5 1029,-0.5 1035,-0.5"/>
<text text-anchor="middle" x="1103" y="-54.3" font-family="Times,serif" font-size="14.00">MOVi32imm</text>
<polyline fill="none" stroke="black" points="1023,-46.5 1183,-46.5 "/>
<text text-anchor="middle" x="1063" y="-31.3" font-family="Times,serif" font-size="14.00">&#45;121.000</text>
<polyline fill="none" stroke="black" points="1023,-23.5 1103,-23.5 "/>
<text text-anchor="middle" x="1063" y="-8.3" font-family="Times,serif" font-size="14.00">1</text>
<polyline fill="none" stroke="black" points="1103,-0.5 1103,-46.5 "/>
<text text-anchor="middle" x="1143" y="-19.8" font-family="Times,serif" font-size="14.00">&#45;121.000</text>
</g>
<!-- 6817160862643592950&#45;&gt;&#45;1036867148700489056 -->
<g id="edge13" class="edge">
<title>6817160862643592950&#45;&gt;&#45;1036867148700489056</title>
<path fill="none" stroke="black" d="M1103,-106.23C1103,-97.79 1103,-88.62 1103,-79.77"/>
<polygon fill="black" stroke="black" points="1106.5,-79.6 1103,-69.6 1099.5,-79.6 1106.5,-79.6"/>
</g>
<!-- &#45;1790969449097372399 -->
<g id="node15" class="node">
<title>&#45;1790969449097372399</title>
<path fill="none" stroke="black" d="M1213,-0.5C1213,-0.5 1349,-0.5 1349,-0.5 1355,-0.5 1361,-6.5 1361,-12.5 1361,-12.5 1361,-57.5 1361,-57.5 1361,-63.5 1355,-69.5 1349,-69.5 1349,-69.5 1213,-69.5 1213,-69.5 1207,-69.5 1201,-63.5 1201,-57.5 1201,-57.5 1201,-12.5 1201,-12.5 1201,-6.5 1207,-0.5 1213,-0.5"/>
<text text-anchor="middle" x="1281" y="-54.3" font-family="Times,serif" font-size="14.00">MOVaddr</text>
<polyline fill="none" stroke="black" points="1201,-46.5 1361,-46.5 "/>
<text text-anchor="middle" x="1241" y="-31.3" font-family="Times,serif" font-size="14.00">&#45;121.000</text>
<polyline fill="none" stroke="black" points="1201,-23.5 1281,-23.5 "/>
<text text-anchor="middle" x="1241" y="-8.3" font-family="Times,serif" font-size="14.00">1</text>
<polyline fill="none" stroke="black" points="1281,-0.5 1281,-46.5 "/>
<text text-anchor="middle" x="1321" y="-19.8" font-family="Times,serif" font-size="14.00">&#45;121.000</text>
</g>
<!-- 6817160862643592950&#45;&gt;&#45;1790969449097372399 -->
<g id="edge14" class="edge">
<title>6817160862643592950&#45;&gt;&#45;1790969449097372399</title>
<path fill="none" stroke="black" d="M1160.79,-106.23C1177.91,-96.23 1196.79,-85.2 1214.41,-74.91"/>
<polygon fill="black" stroke="black" points="1216.63,-77.66 1223.5,-69.6 1213.1,-71.62 1216.63,-77.66"/>
</g>
</g>
</svg>
