<?xml version="1.0" encoding="UTF-8" standalone="no"?>
<!DOCTYPE svg PUBLIC "-//W3C//DTD SVG 1.1//EN"
 "http://www.w3.org/Graphics/SVG/1.1/DTD/svg11.dtd">
<!-- Generated by graphviz version 2.43.0 (0)
 -->
<!-- Title: MCTS Tree\nmcts/1.0/tree.svg Pages: 1 -->
<svg width="168pt" height="184pt"
 viewBox="0.00 0.00 168.00 184.00" xmlns="http://www.w3.org/2000/svg" xmlns:xlink="http://www.w3.org/1999/xlink">
<g id="graph0" class="graph" transform="scale(1 1) rotate(0) translate(4 180)">
<title>MCTS Tree\nmcts/1.0/tree.svg</title>
<polygon fill="white" stroke="transparent" points="-4,4 -4,-180 164,-180 164,4 -4,4"/>
<!-- 0 -->
<g id="node1" class="node">
<title>0</title>
<path fill="none" stroke="black" d="M12,-106.5C12,-106.5 148,-106.5 148,-106.5 154,-106.5 160,-112.5 160,-118.5 160,-118.5 160,-163.5 160,-163.5 160,-169.5 154,-175.5 148,-175.5 148,-175.5 12,-175.5 12,-175.5 6,-175.5 0,-169.5 0,-163.5 0,-163.5 0,-118.5 0,-118.5 0,-112.5 6,-106.5 12,-106.5"/>
<text text-anchor="middle" x="80" y="-160.3" font-family="Times,serif" font-size="14.00"> </text>
<polyline fill="none" stroke="black" points="0,-152.5 160,-152.5 "/>
<text text-anchor="middle" x="40" y="-137.3" font-family="Times,serif" font-size="14.00">&#45;102.000</text>
<polyline fill="none" stroke="black" points="0,-129.5 80,-129.5 "/>
<text text-anchor="middle" x="40" y="-114.3" font-family="Times,serif" font-size="14.00">1</text>
<polyline fill="none" stroke="black" points="80,-106.5 80,-152.5 "/>
<text text-anchor="middle" x="120" y="-125.8" font-family="Times,serif" font-size="14.00">&#45;102.000</text>
</g>
<!-- &#45;9030445261945605655 -->
<g id="node2" class="node">
<title>&#45;9030445261945605655</title>
<path fill="none" stroke="black" d="M12,-0.5C12,-0.5 148,-0.5 148,-0.5 154,-0.5 160,-6.5 160,-12.5 160,-12.5 160,-57.5 160,-57.5 160,-63.5 154,-69.5 148,-69.5 148,-69.5 12,-69.5 12,-69.5 6,-69.5 0,-63.5 0,-57.5 0,-57.5 0,-12.5 0,-12.5 0,-6.5 6,-0.5 12,-0.5"/>
<text text-anchor="middle" x="80" y="-54.3" font-family="Times,serif" font-size="14.00">ADDXri</text>
<polyline fill="none" stroke="black" points="0,-46.5 160,-46.5 "/>
<text text-anchor="middle" x="40" y="-31.3" font-family="Times,serif" font-size="14.00">&#45;102.000</text>
<polyline fill="none" stroke="black" points="0,-23.5 80,-23.5 "/>
<text text-anchor="middle" x="40" y="-8.3" font-family="Times,serif" font-size="14.00">1</text>
<polyline fill="none" stroke="black" points="80,-0.5 80,-46.5 "/>
<text text-anchor="middle" x="120" y="-19.8" font-family="Times,serif" font-size="14.00">&#45;102.000</text>
</g>
<!-- 0&#45;&gt;&#45;9030445261945605655 -->
<g id="edge1" class="edge">
<title>0&#45;&gt;&#45;9030445261945605655</title>
<path fill="none" stroke="black" d="M80,-106.23C80,-97.79 80,-88.62 80,-79.77"/>
<polygon fill="black" stroke="black" points="83.5,-79.6 80,-69.6 76.5,-79.6 83.5,-79.6"/>
</g>
</g>
</svg>
