<?xml version="1.0" encoding="UTF-8" standalone="no"?>
<!DOCTYPE svg PUBLIC "-//W3C//DTD SVG 1.1//EN"
 "http://www.w3.org/Graphics/SVG/1.1/DTD/svg11.dtd">
<!-- Generated by graphviz version 2.43.0 (0)
 -->
<!-- Title: MCTS Tree\nmcts/1.0/tree.svg Pages: 1 -->
<svg width="1948pt" height="396pt"
 viewBox="0.00 0.00 1948.00 396.00" xmlns="http://www.w3.org/2000/svg" xmlns:xlink="http://www.w3.org/1999/xlink">
<g id="graph0" class="graph" transform="scale(1 1) rotate(0) translate(4 392)">
<title>MCTS Tree\nmcts/1.0/tree.svg</title>
<polygon fill="white" stroke="transparent" points="-4,4 -4,-392 1944,-392 1944,4 -4,4"/>
<!-- 0 -->
<g id="node1" class="node">
<title>0</title>
<path fill="none" stroke="black" d="M408.5,-318.5C408.5,-318.5 553.5,-318.5 553.5,-318.5 559.5,-318.5 565.5,-324.5 565.5,-330.5 565.5,-330.5 565.5,-375.5 565.5,-375.5 565.5,-381.5 559.5,-387.5 553.5,-387.5 553.5,-387.5 408.5,-387.5 408.5,-387.5 402.5,-387.5 396.5,-381.5 396.5,-375.5 396.5,-375.5 396.5,-330.5 396.5,-330.5 396.5,-324.5 402.5,-318.5 408.5,-318.5"/>
<text text-anchor="middle" x="481" y="-372.3" font-family="Times,serif" font-size="14.00"> </text>
<polyline fill="none" stroke="black" points="396.5,-364.5 565.5,-364.5 "/>
<text text-anchor="middle" x="441" y="-349.3" font-family="Times,serif" font-size="14.00">&#45;1475.000</text>
<polyline fill="none" stroke="black" points="396.5,-341.5 485.5,-341.5 "/>
<text text-anchor="middle" x="441" y="-326.3" font-family="Times,serif" font-size="14.00">12</text>
<polyline fill="none" stroke="black" points="485.5,-318.5 485.5,-364.5 "/>
<text text-anchor="middle" x="525.5" y="-337.8" font-family="Times,serif" font-size="14.00">&#45;122.917</text>
</g>
<!-- &#45;8896948945755684478 -->
<g id="node2" class="node">
<title>&#45;8896948945755684478</title>
<path fill="none" stroke="black" d="M57,-212.5C57,-212.5 193,-212.5 193,-212.5 199,-212.5 205,-218.5 205,-224.5 205,-224.5 205,-269.5 205,-269.5 205,-275.5 199,-281.5 193,-281.5 193,-281.5 57,-281.5 57,-281.5 51,-281.5 45,-275.5 45,-269.5 45,-269.5 45,-224.5 45,-224.5 45,-218.5 51,-212.5 57,-212.5"/>
<text text-anchor="middle" x="125" y="-266.3" font-family="Times,serif" font-size="14.00">MOVi32imm</text>
<polyline fill="none" stroke="black" points="45,-258.5 205,-258.5 "/>
<text text-anchor="middle" x="85" y="-243.3" font-family="Times,serif" font-size="14.00">&#45;131.000</text>
<polyline fill="none" stroke="black" points="45,-235.5 125,-235.5 "/>
<text text-anchor="middle" x="85" y="-220.3" font-family="Times,serif" font-size="14.00">1</text>
<polyline fill="none" stroke="black" points="125,-212.5 125,-258.5 "/>
<text text-anchor="middle" x="165" y="-231.8" font-family="Times,serif" font-size="14.00">&#45;131.000</text>
</g>
<!-- 0&#45;&gt;&#45;8896948945755684478 -->
<g id="edge1" class="edge">
<title>0&#45;&gt;&#45;8896948945755684478</title>
<path fill="none" stroke="black" d="M396.18,-327.22C341.57,-311.27 270.66,-290.55 215.04,-274.3"/>
<polygon fill="black" stroke="black" points="215.78,-270.87 205.2,-271.43 213.82,-277.59 215.78,-270.87"/>
</g>
<!-- 6909239965883512851 -->
<g id="node3" class="node">
<title>6909239965883512851</title>
<path fill="none" stroke="black" d="M324,-212.5C324,-212.5 460,-212.5 460,-212.5 466,-212.5 472,-218.5 472,-224.5 472,-224.5 472,-269.5 472,-269.5 472,-275.5 466,-281.5 460,-281.5 460,-281.5 324,-281.5 324,-281.5 318,-281.5 312,-275.5 312,-269.5 312,-269.5 312,-224.5 312,-224.5 312,-218.5 318,-212.5 324,-212.5"/>
<text text-anchor="middle" x="392" y="-266.3" font-family="Times,serif" font-size="14.00">UBFMXri</text>
<polyline fill="none" stroke="black" points="312,-258.5 472,-258.5 "/>
<text text-anchor="middle" x="352" y="-243.3" font-family="Times,serif" font-size="14.00">&#45;122.000</text>
<polyline fill="none" stroke="black" points="312,-235.5 392,-235.5 "/>
<text text-anchor="middle" x="352" y="-220.3" font-family="Times,serif" font-size="14.00">1</text>
<polyline fill="none" stroke="black" points="392,-212.5 392,-258.5 "/>
<text text-anchor="middle" x="432" y="-231.8" font-family="Times,serif" font-size="14.00">&#45;122.000</text>
</g>
<!-- 0&#45;&gt;6909239965883512851 -->
<g id="edge2" class="edge">
<title>0&#45;&gt;6909239965883512851</title>
<path fill="none" stroke="black" d="M452.1,-318.23C444.25,-309.06 435.66,-299.02 427.49,-289.47"/>
<polygon fill="black" stroke="black" points="429.91,-286.92 420.75,-281.6 424.59,-291.47 429.91,-286.92"/>
</g>
<!-- &#45;7067766851834124339 -->
<g id="node4" class="node">
<title>&#45;7067766851834124339</title>
<path fill="none" stroke="black" d="M546,-212.5C546,-212.5 682,-212.5 682,-212.5 688,-212.5 694,-218.5 694,-224.5 694,-224.5 694,-269.5 694,-269.5 694,-275.5 688,-281.5 682,-281.5 682,-281.5 546,-281.5 546,-281.5 540,-281.5 534,-275.5 534,-269.5 534,-269.5 534,-224.5 534,-224.5 534,-218.5 540,-212.5 546,-212.5"/>
<text text-anchor="middle" x="614" y="-266.3" font-family="Times,serif" font-size="14.00">ADDXri</text>
<polyline fill="none" stroke="black" points="534,-258.5 694,-258.5 "/>
<text text-anchor="middle" x="574" y="-243.3" font-family="Times,serif" font-size="14.00">&#45;727.000</text>
<polyline fill="none" stroke="black" points="534,-235.5 614,-235.5 "/>
<text text-anchor="middle" x="574" y="-220.3" font-family="Times,serif" font-size="14.00">6</text>
<polyline fill="none" stroke="black" points="614,-212.5 614,-258.5 "/>
<text text-anchor="middle" x="654" y="-231.8" font-family="Times,serif" font-size="14.00">&#45;121.167</text>
</g>
<!-- 0&#45;&gt;&#45;7067766851834124339 -->
<g id="edge3" class="edge">
<title>0&#45;&gt;&#45;7067766851834124339</title>
<path fill="none" stroke="black" d="M524.18,-318.23C536.62,-308.51 550.3,-297.81 563.16,-287.76"/>
<polygon fill="black" stroke="black" points="565.31,-290.51 571.04,-281.6 561,-285 565.31,-290.51"/>
</g>
<!-- 8707874146923115182 -->
<g id="node5" class="node">
<title>8707874146923115182</title>
<path fill="none" stroke="black" d="M1525,-212.5C1525,-212.5 1661,-212.5 1661,-212.5 1667,-212.5 1673,-218.5 1673,-224.5 1673,-224.5 1673,-269.5 1673,-269.5 1673,-275.5 1667,-281.5 1661,-281.5 1661,-281.5 1525,-281.5 1525,-281.5 1519,-281.5 1513,-275.5 1513,-269.5 1513,-269.5 1513,-224.5 1513,-224.5 1513,-218.5 1519,-212.5 1525,-212.5"/>
<text text-anchor="middle" x="1593" y="-266.3" font-family="Times,serif" font-size="14.00">MOVaddr</text>
<polyline fill="none" stroke="black" points="1513,-258.5 1673,-258.5 "/>
<text text-anchor="middle" x="1553" y="-243.3" font-family="Times,serif" font-size="14.00">&#45;495.000</text>
<polyline fill="none" stroke="black" points="1513,-235.5 1593,-235.5 "/>
<text text-anchor="middle" x="1553" y="-220.3" font-family="Times,serif" font-size="14.00">4</text>
<polyline fill="none" stroke="black" points="1593,-212.5 1593,-258.5 "/>
<text text-anchor="middle" x="1633" y="-231.8" font-family="Times,serif" font-size="14.00">&#45;123.750</text>
</g>
<!-- 0&#45;&gt;8707874146923115182 -->
<g id="edge4" class="edge">
<title>0&#45;&gt;8707874146923115182</title>
<path fill="none" stroke="black" d="M565.95,-344.05C771.13,-324.87 1292.28,-276.12 1502.77,-256.44"/>
<polygon fill="black" stroke="black" points="1503.23,-259.91 1512.86,-255.5 1502.58,-252.94 1503.23,-259.91"/>
</g>
<!-- &#45;6778909355778682554 -->
<g id="node13" class="node">
<title>&#45;6778909355778682554</title>
<path fill="none" stroke="black" d="M12,-106.5C12,-106.5 148,-106.5 148,-106.5 154,-106.5 160,-112.5 160,-118.5 160,-118.5 160,-163.5 160,-163.5 160,-169.5 154,-175.5 148,-175.5 148,-175.5 12,-175.5 12,-175.5 6,-175.5 0,-169.5 0,-163.5 0,-163.5 0,-118.5 0,-118.5 0,-112.5 6,-106.5 12,-106.5"/>
<text text-anchor="middle" x="80" y="-160.3" font-family="Times,serif" font-size="14.00">ADDXri</text>
<polyline fill="none" stroke="black" points="0,-152.5 160,-152.5 "/>
<text text-anchor="middle" x="40" y="-137.3" font-family="Times,serif" font-size="14.00">&#45;131.000</text>
<polyline fill="none" stroke="black" points="0,-129.5 80,-129.5 "/>
<text text-anchor="middle" x="40" y="-114.3" font-family="Times,serif" font-size="14.00">1</text>
<polyline fill="none" stroke="black" points="80,-106.5 80,-152.5 "/>
<text text-anchor="middle" x="120" y="-125.8" font-family="Times,serif" font-size="14.00">&#45;131.000</text>
</g>
<!-- &#45;8896948945755684478&#45;&gt;&#45;6778909355778682554 -->
<g id="edge12" class="edge">
<title>&#45;8896948945755684478&#45;&gt;&#45;6778909355778682554</title>
<path fill="none" stroke="black" d="M110.39,-212.23C106.62,-203.52 102.51,-194.02 98.57,-184.91"/>
<polygon fill="black" stroke="black" points="101.72,-183.38 94.54,-175.6 95.3,-186.16 101.72,-183.38"/>
</g>
<!-- &#45;6728673565740675427 -->
<g id="node14" class="node">
<title>&#45;6728673565740675427</title>
<path fill="none" stroke="black" d="M190,-106.5C190,-106.5 326,-106.5 326,-106.5 332,-106.5 338,-112.5 338,-118.5 338,-118.5 338,-163.5 338,-163.5 338,-169.5 332,-175.5 326,-175.5 326,-175.5 190,-175.5 190,-175.5 184,-175.5 178,-169.5 178,-163.5 178,-163.5 178,-118.5 178,-118.5 178,-112.5 184,-106.5 190,-106.5"/>
<text text-anchor="middle" x="258" y="-160.3" font-family="Times,serif" font-size="14.00">ADDXri</text>
<polyline fill="none" stroke="black" points="178,-152.5 338,-152.5 "/>
<text text-anchor="middle" x="218" y="-137.3" font-family="Times,serif" font-size="14.00">&#45;122.000</text>
<polyline fill="none" stroke="black" points="178,-129.5 258,-129.5 "/>
<text text-anchor="middle" x="218" y="-114.3" font-family="Times,serif" font-size="14.00">1</text>
<polyline fill="none" stroke="black" points="258,-106.5 258,-152.5 "/>
<text text-anchor="middle" x="298" y="-125.8" font-family="Times,serif" font-size="14.00">&#45;122.000</text>
</g>
<!-- 6909239965883512851&#45;&gt;&#45;6728673565740675427 -->
<g id="edge13" class="edge">
<title>6909239965883512851&#45;&gt;&#45;6728673565740675427</title>
<path fill="none" stroke="black" d="M348.49,-212.23C335.96,-202.51 322.18,-191.81 309.23,-181.76"/>
<polygon fill="black" stroke="black" points="311.33,-178.96 301.29,-175.6 307.04,-184.49 311.33,-178.96"/>
</g>
<!-- &#45;7845962417271233114 -->
<g id="node9" class="node">
<title>&#45;7845962417271233114</title>
<path fill="none" stroke="black" d="M368,-106.5C368,-106.5 504,-106.5 504,-106.5 510,-106.5 516,-112.5 516,-118.5 516,-118.5 516,-163.5 516,-163.5 516,-169.5 510,-175.5 504,-175.5 504,-175.5 368,-175.5 368,-175.5 362,-175.5 356,-169.5 356,-163.5 356,-163.5 356,-118.5 356,-118.5 356,-112.5 362,-106.5 368,-106.5"/>
<text text-anchor="middle" x="436" y="-160.3" font-family="Times,serif" font-size="14.00">ADDXri</text>
<polyline fill="none" stroke="black" points="356,-152.5 516,-152.5 "/>
<text text-anchor="middle" x="396" y="-137.3" font-family="Times,serif" font-size="14.00">&#45;233.000</text>
<polyline fill="none" stroke="black" points="356,-129.5 436,-129.5 "/>
<text text-anchor="middle" x="396" y="-114.3" font-family="Times,serif" font-size="14.00">2</text>
<polyline fill="none" stroke="black" points="436,-106.5 436,-152.5 "/>
<text text-anchor="middle" x="476" y="-125.8" font-family="Times,serif" font-size="14.00">&#45;116.500</text>
</g>
<!-- &#45;7067766851834124339&#45;&gt;&#45;7845962417271233114 -->
<g id="edge8" class="edge">
<title>&#45;7067766851834124339&#45;&gt;&#45;7845962417271233114</title>
<path fill="none" stroke="black" d="M556.21,-212.23C539.09,-202.23 520.21,-191.2 502.59,-180.91"/>
<polygon fill="black" stroke="black" points="503.9,-177.62 493.5,-175.6 500.37,-183.66 503.9,-177.62"/>
</g>
<!-- 3195997352452139721 -->
<g id="node10" class="node">
<title>3195997352452139721</title>
<path fill="none" stroke="black" d="M546,-106.5C546,-106.5 682,-106.5 682,-106.5 688,-106.5 694,-112.5 694,-118.5 694,-118.5 694,-163.5 694,-163.5 694,-169.5 688,-175.5 682,-175.5 682,-175.5 546,-175.5 546,-175.5 540,-175.5 534,-169.5 534,-163.5 534,-163.5 534,-118.5 534,-118.5 534,-112.5 540,-106.5 546,-106.5"/>
<text text-anchor="middle" x="614" y="-160.3" font-family="Times,serif" font-size="14.00">UBFMXri</text>
<polyline fill="none" stroke="black" points="534,-152.5 694,-152.5 "/>
<text text-anchor="middle" x="574" y="-137.3" font-family="Times,serif" font-size="14.00">&#45;121.000</text>
<polyline fill="none" stroke="black" points="534,-129.5 614,-129.5 "/>
<text text-anchor="middle" x="574" y="-114.3" font-family="Times,serif" font-size="14.00">1</text>
<polyline fill="none" stroke="black" points="614,-106.5 614,-152.5 "/>
<text text-anchor="middle" x="654" y="-125.8" font-family="Times,serif" font-size="14.00">&#45;121.000</text>
</g>
<!-- &#45;7067766851834124339&#45;&gt;3195997352452139721 -->
<g id="edge9" class="edge">
<title>&#45;7067766851834124339&#45;&gt;3195997352452139721</title>
<path fill="none" stroke="black" d="M614,-212.23C614,-203.79 614,-194.62 614,-185.77"/>
<polygon fill="black" stroke="black" points="617.5,-185.6 614,-175.6 610.5,-185.6 617.5,-185.6"/>
</g>
<!-- 4236127762744456212 -->
<g id="node11" class="node">
<title>4236127762744456212</title>
<path fill="none" stroke="black" d="M724,-106.5C724,-106.5 860,-106.5 860,-106.5 866,-106.5 872,-112.5 872,-118.5 872,-118.5 872,-163.5 872,-163.5 872,-169.5 866,-175.5 860,-175.5 860,-175.5 724,-175.5 724,-175.5 718,-175.5 712,-169.5 712,-163.5 712,-163.5 712,-118.5 712,-118.5 712,-112.5 718,-106.5 724,-106.5"/>
<text text-anchor="middle" x="792" y="-160.3" font-family="Times,serif" font-size="14.00">SUBSXri</text>
<polyline fill="none" stroke="black" points="712,-152.5 872,-152.5 "/>
<text text-anchor="middle" x="752" y="-137.3" font-family="Times,serif" font-size="14.00">&#45;242.000</text>
<polyline fill="none" stroke="black" points="712,-129.5 792,-129.5 "/>
<text text-anchor="middle" x="752" y="-114.3" font-family="Times,serif" font-size="14.00">2</text>
<polyline fill="none" stroke="black" points="792,-106.5 792,-152.5 "/>
<text text-anchor="middle" x="832" y="-125.8" font-family="Times,serif" font-size="14.00">&#45;121.000</text>
</g>
<!-- &#45;7067766851834124339&#45;&gt;4236127762744456212 -->
<g id="edge10" class="edge">
<title>&#45;7067766851834124339&#45;&gt;4236127762744456212</title>
<path fill="none" stroke="black" d="M671.79,-212.23C688.91,-202.23 707.79,-191.2 725.41,-180.91"/>
<polygon fill="black" stroke="black" points="727.63,-183.66 734.5,-175.6 724.1,-177.62 727.63,-183.66"/>
</g>
<!-- 3549615838287310360 -->
<g id="node12" class="node">
<title>3549615838287310360</title>
<path fill="none" stroke="black" d="M991,-106.5C991,-106.5 1127,-106.5 1127,-106.5 1133,-106.5 1139,-112.5 1139,-118.5 1139,-118.5 1139,-163.5 1139,-163.5 1139,-169.5 1133,-175.5 1127,-175.5 1127,-175.5 991,-175.5 991,-175.5 985,-175.5 979,-169.5 979,-163.5 979,-163.5 979,-118.5 979,-118.5 979,-112.5 985,-106.5 991,-106.5"/>
<text text-anchor="middle" x="1059" y="-160.3" font-family="Times,serif" font-size="14.00">MOVaddr</text>
<polyline fill="none" stroke="black" points="979,-152.5 1139,-152.5 "/>
<text text-anchor="middle" x="1019" y="-137.3" font-family="Times,serif" font-size="14.00">&#45;131.000</text>
<polyline fill="none" stroke="black" points="979,-129.5 1059,-129.5 "/>
<text text-anchor="middle" x="1019" y="-114.3" font-family="Times,serif" font-size="14.00">1</text>
<polyline fill="none" stroke="black" points="1059,-106.5 1059,-152.5 "/>
<text text-anchor="middle" x="1099" y="-125.8" font-family="Times,serif" font-size="14.00">&#45;131.000</text>
</g>
<!-- &#45;7067766851834124339&#45;&gt;3549615838287310360 -->
<g id="edge11" class="edge">
<title>&#45;7067766851834124339&#45;&gt;3549615838287310360</title>
<path fill="none" stroke="black" d="M694.07,-227.29C771.34,-209.23 888.15,-181.93 968.69,-163.11"/>
<polygon fill="black" stroke="black" points="969.88,-166.42 978.82,-160.74 968.29,-159.61 969.88,-166.42"/>
</g>
<!-- &#45;1469803609926915462 -->
<g id="node6" class="node">
<title>&#45;1469803609926915462</title>
<path fill="none" stroke="black" d="M1436,-106.5C1436,-106.5 1572,-106.5 1572,-106.5 1578,-106.5 1584,-112.5 1584,-118.5 1584,-118.5 1584,-163.5 1584,-163.5 1584,-169.5 1578,-175.5 1572,-175.5 1572,-175.5 1436,-175.5 1436,-175.5 1430,-175.5 1424,-169.5 1424,-163.5 1424,-163.5 1424,-118.5 1424,-118.5 1424,-112.5 1430,-106.5 1436,-106.5"/>
<text text-anchor="middle" x="1504" y="-160.3" font-family="Times,serif" font-size="14.00">UBFMXri</text>
<polyline fill="none" stroke="black" points="1424,-152.5 1584,-152.5 "/>
<text text-anchor="middle" x="1464" y="-137.3" font-family="Times,serif" font-size="14.00">&#45;243.000</text>
<polyline fill="none" stroke="black" points="1424,-129.5 1504,-129.5 "/>
<text text-anchor="middle" x="1464" y="-114.3" font-family="Times,serif" font-size="14.00">2</text>
<polyline fill="none" stroke="black" points="1504,-106.5 1504,-152.5 "/>
<text text-anchor="middle" x="1544" y="-125.8" font-family="Times,serif" font-size="14.00">&#45;121.500</text>
</g>
<!-- 8707874146923115182&#45;&gt;&#45;1469803609926915462 -->
<g id="edge5" class="edge">
<title>8707874146923115182&#45;&gt;&#45;1469803609926915462</title>
<path fill="none" stroke="black" d="M1564.1,-212.23C1556.25,-203.06 1547.66,-193.02 1539.49,-183.47"/>
<polygon fill="black" stroke="black" points="1541.91,-180.92 1532.75,-175.6 1536.59,-185.47 1541.91,-180.92"/>
</g>
<!-- &#45;5635444928613870957 -->
<g id="node7" class="node">
<title>&#45;5635444928613870957</title>
<path fill="none" stroke="black" d="M1614,-106.5C1614,-106.5 1750,-106.5 1750,-106.5 1756,-106.5 1762,-112.5 1762,-118.5 1762,-118.5 1762,-163.5 1762,-163.5 1762,-169.5 1756,-175.5 1750,-175.5 1750,-175.5 1614,-175.5 1614,-175.5 1608,-175.5 1602,-169.5 1602,-163.5 1602,-163.5 1602,-118.5 1602,-118.5 1602,-112.5 1608,-106.5 1614,-106.5"/>
<text text-anchor="middle" x="1682" y="-160.3" font-family="Times,serif" font-size="14.00">ADDXri</text>
<polyline fill="none" stroke="black" points="1602,-152.5 1762,-152.5 "/>
<text text-anchor="middle" x="1642" y="-137.3" font-family="Times,serif" font-size="14.00">&#45;131.000</text>
<polyline fill="none" stroke="black" points="1602,-129.5 1682,-129.5 "/>
<text text-anchor="middle" x="1642" y="-114.3" font-family="Times,serif" font-size="14.00">1</text>
<polyline fill="none" stroke="black" points="1682,-106.5 1682,-152.5 "/>
<text text-anchor="middle" x="1722" y="-125.8" font-family="Times,serif" font-size="14.00">&#45;131.000</text>
</g>
<!-- 8707874146923115182&#45;&gt;&#45;5635444928613870957 -->
<g id="edge6" class="edge">
<title>8707874146923115182&#45;&gt;&#45;5635444928613870957</title>
<path fill="none" stroke="black" d="M1621.9,-212.23C1629.75,-203.06 1638.34,-193.02 1646.51,-183.47"/>
<polygon fill="black" stroke="black" points="1649.41,-185.47 1653.25,-175.6 1644.09,-180.92 1649.41,-185.47"/>
</g>
<!-- 8586680067035096205 -->
<g id="node8" class="node">
<title>8586680067035096205</title>
<path fill="none" stroke="black" d="M1792,-106.5C1792,-106.5 1928,-106.5 1928,-106.5 1934,-106.5 1940,-112.5 1940,-118.5 1940,-118.5 1940,-163.5 1940,-163.5 1940,-169.5 1934,-175.5 1928,-175.5 1928,-175.5 1792,-175.5 1792,-175.5 1786,-175.5 1780,-169.5 1780,-163.5 1780,-163.5 1780,-118.5 1780,-118.5 1780,-112.5 1786,-106.5 1792,-106.5"/>
<text text-anchor="middle" x="1860" y="-160.3" font-family="Times,serif" font-size="14.00">MOVi32imm</text>
<polyline fill="none" stroke="black" points="1780,-152.5 1940,-152.5 "/>
<text text-anchor="middle" x="1820" y="-137.3" font-family="Times,serif" font-size="14.00">&#45;121.000</text>
<polyline fill="none" stroke="black" points="1780,-129.5 1860,-129.5 "/>
<text text-anchor="middle" x="1820" y="-114.3" font-family="Times,serif" font-size="14.00">1</text>
<polyline fill="none" stroke="black" points="1860,-106.5 1860,-152.5 "/>
<text text-anchor="middle" x="1900" y="-125.8" font-family="Times,serif" font-size="14.00">&#45;121.000</text>
</g>
<!-- 8707874146923115182&#45;&gt;8586680067035096205 -->
<g id="edge7" class="edge">
<title>8707874146923115182&#45;&gt;8586680067035096205</title>
<path fill="none" stroke="black" d="M1673.11,-214.8C1703.73,-202.87 1738.85,-189.19 1770.31,-176.94"/>
<polygon fill="black" stroke="black" points="1771.9,-180.07 1779.95,-173.18 1769.36,-173.55 1771.9,-180.07"/>
</g>
<!-- &#45;2474380123800247480 -->
<g id="node22" class="node">
<title>&#45;2474380123800247480</title>
<path fill="none" stroke="black" d="M1258,-0.5C1258,-0.5 1394,-0.5 1394,-0.5 1400,-0.5 1406,-6.5 1406,-12.5 1406,-12.5 1406,-57.5 1406,-57.5 1406,-63.5 1400,-69.5 1394,-69.5 1394,-69.5 1258,-69.5 1258,-69.5 1252,-69.5 1246,-63.5 1246,-57.5 1246,-57.5 1246,-12.5 1246,-12.5 1246,-6.5 1252,-0.5 1258,-0.5"/>
<text text-anchor="middle" x="1326" y="-54.3" font-family="Times,serif" font-size="14.00">ADDXri</text>
<polyline fill="none" stroke="black" points="1246,-46.5 1406,-46.5 "/>
<text text-anchor="middle" x="1286" y="-31.3" font-family="Times,serif" font-size="14.00">&#45;122.000</text>
<polyline fill="none" stroke="black" points="1246,-23.5 1326,-23.5 "/>
<text text-anchor="middle" x="1286" y="-8.3" font-family="Times,serif" font-size="14.00">1</text>
<polyline fill="none" stroke="black" points="1326,-0.5 1326,-46.5 "/>
<text text-anchor="middle" x="1366" y="-19.8" font-family="Times,serif" font-size="14.00">&#45;122.000</text>
</g>
<!-- &#45;1469803609926915462&#45;&gt;&#45;2474380123800247480 -->
<g id="edge21" class="edge">
<title>&#45;1469803609926915462&#45;&gt;&#45;2474380123800247480</title>
<path fill="none" stroke="black" d="M1446.21,-106.23C1429.09,-96.23 1410.21,-85.2 1392.59,-74.91"/>
<polygon fill="black" stroke="black" points="1393.9,-71.62 1383.5,-69.6 1390.37,-77.66 1393.9,-71.62"/>
</g>
<!-- &#45;6276114575606698867 -->
<g id="node23" class="node">
<title>&#45;6276114575606698867</title>
<path fill="none" stroke="black" d="M1436,-0.5C1436,-0.5 1572,-0.5 1572,-0.5 1578,-0.5 1584,-6.5 1584,-12.5 1584,-12.5 1584,-57.5 1584,-57.5 1584,-63.5 1578,-69.5 1572,-69.5 1572,-69.5 1436,-69.5 1436,-69.5 1430,-69.5 1424,-63.5 1424,-57.5 1424,-57.5 1424,-12.5 1424,-12.5 1424,-6.5 1430,-0.5 1436,-0.5"/>
<text text-anchor="middle" x="1504" y="-54.3" font-family="Times,serif" font-size="14.00">MOVi32imm</text>
<polyline fill="none" stroke="black" points="1424,-46.5 1584,-46.5 "/>
<text text-anchor="middle" x="1464" y="-31.3" font-family="Times,serif" font-size="14.00">&#45;121.000</text>
<polyline fill="none" stroke="black" points="1424,-23.5 1504,-23.5 "/>
<text text-anchor="middle" x="1464" y="-8.3" font-family="Times,serif" font-size="14.00">1</text>
<polyline fill="none" stroke="black" points="1504,-0.5 1504,-46.5 "/>
<text text-anchor="middle" x="1544" y="-19.8" font-family="Times,serif" font-size="14.00">&#45;121.000</text>
</g>
<!-- &#45;1469803609926915462&#45;&gt;&#45;6276114575606698867 -->
<g id="edge22" class="edge">
<title>&#45;1469803609926915462&#45;&gt;&#45;6276114575606698867</title>
<path fill="none" stroke="black" d="M1504,-106.23C1504,-97.79 1504,-88.62 1504,-79.77"/>
<polygon fill="black" stroke="black" points="1507.5,-79.6 1504,-69.6 1500.5,-79.6 1507.5,-79.6"/>
</g>
<!-- 1409596912557558578 -->
<g id="node24" class="node">
<title>1409596912557558578</title>
<path fill="none" stroke="black" d="M1614,-0.5C1614,-0.5 1750,-0.5 1750,-0.5 1756,-0.5 1762,-6.5 1762,-12.5 1762,-12.5 1762,-57.5 1762,-57.5 1762,-63.5 1756,-69.5 1750,-69.5 1750,-69.5 1614,-69.5 1614,-69.5 1608,-69.5 1602,-63.5 1602,-57.5 1602,-57.5 1602,-12.5 1602,-12.5 1602,-6.5 1608,-0.5 1614,-0.5"/>
<text text-anchor="middle" x="1682" y="-54.3" font-family="Times,serif" font-size="14.00">ADDXri</text>
<polyline fill="none" stroke="black" points="1602,-46.5 1762,-46.5 "/>
<text text-anchor="middle" x="1642" y="-31.3" font-family="Times,serif" font-size="14.00">&#45;131.000</text>
<polyline fill="none" stroke="black" points="1602,-23.5 1682,-23.5 "/>
<text text-anchor="middle" x="1642" y="-8.3" font-family="Times,serif" font-size="14.00">1</text>
<polyline fill="none" stroke="black" points="1682,-0.5 1682,-46.5 "/>
<text text-anchor="middle" x="1722" y="-19.8" font-family="Times,serif" font-size="14.00">&#45;131.000</text>
</g>
<!-- &#45;5635444928613870957&#45;&gt;1409596912557558578 -->
<g id="edge23" class="edge">
<title>&#45;5635444928613870957&#45;&gt;1409596912557558578</title>
<path fill="none" stroke="black" d="M1682,-106.23C1682,-97.79 1682,-88.62 1682,-79.77"/>
<polygon fill="black" stroke="black" points="1685.5,-79.6 1682,-69.6 1678.5,-79.6 1685.5,-79.6"/>
</g>
<!-- &#45;8818735216154280316 -->
<g id="node21" class="node">
<title>&#45;8818735216154280316</title>
<path fill="none" stroke="black" d="M1792,-0.5C1792,-0.5 1928,-0.5 1928,-0.5 1934,-0.5 1940,-6.5 1940,-12.5 1940,-12.5 1940,-57.5 1940,-57.5 1940,-63.5 1934,-69.5 1928,-69.5 1928,-69.5 1792,-69.5 1792,-69.5 1786,-69.5 1780,-63.5 1780,-57.5 1780,-57.5 1780,-12.5 1780,-12.5 1780,-6.5 1786,-0.5 1792,-0.5"/>
<text text-anchor="middle" x="1860" y="-54.3" font-family="Times,serif" font-size="14.00">ADDXri</text>
<polyline fill="none" stroke="black" points="1780,-46.5 1940,-46.5 "/>
<text text-anchor="middle" x="1820" y="-31.3" font-family="Times,serif" font-size="14.00">&#45;121.000</text>
<polyline fill="none" stroke="black" points="1780,-23.5 1860,-23.5 "/>
<text text-anchor="middle" x="1820" y="-8.3" font-family="Times,serif" font-size="14.00">1</text>
<polyline fill="none" stroke="black" points="1860,-0.5 1860,-46.5 "/>
<text text-anchor="middle" x="1900" y="-19.8" font-family="Times,serif" font-size="14.00">&#45;121.000</text>
</g>
<!-- 8586680067035096205&#45;&gt;&#45;8818735216154280316 -->
<g id="edge20" class="edge">
<title>8586680067035096205&#45;&gt;&#45;8818735216154280316</title>
<path fill="none" stroke="black" d="M1860,-106.23C1860,-97.79 1860,-88.62 1860,-79.77"/>
<polygon fill="black" stroke="black" points="1863.5,-79.6 1860,-69.6 1856.5,-79.6 1863.5,-79.6"/>
</g>
<!-- &#45;7891369253291993452 -->
<g id="node19" class="node">
<title>&#45;7891369253291993452</title>
<path fill="none" stroke="black" d="M190,-0.5C190,-0.5 326,-0.5 326,-0.5 332,-0.5 338,-6.5 338,-12.5 338,-12.5 338,-57.5 338,-57.5 338,-63.5 332,-69.5 326,-69.5 326,-69.5 190,-69.5 190,-69.5 184,-69.5 178,-63.5 178,-57.5 178,-57.5 178,-12.5 178,-12.5 178,-6.5 184,-0.5 190,-0.5"/>
<text text-anchor="middle" x="258" y="-54.3" font-family="Times,serif" font-size="14.00">MOVi32imm</text>
<polyline fill="none" stroke="black" points="178,-46.5 338,-46.5 "/>
<text text-anchor="middle" x="218" y="-31.3" font-family="Times,serif" font-size="14.00">&#45;131.000</text>
<polyline fill="none" stroke="black" points="178,-23.5 258,-23.5 "/>
<text text-anchor="middle" x="218" y="-8.3" font-family="Times,serif" font-size="14.00">1</text>
<polyline fill="none" stroke="black" points="258,-0.5 258,-46.5 "/>
<text text-anchor="middle" x="298" y="-19.8" font-family="Times,serif" font-size="14.00">&#45;131.000</text>
</g>
<!-- &#45;7845962417271233114&#45;&gt;&#45;7891369253291993452 -->
<g id="edge18" class="edge">
<title>&#45;7845962417271233114&#45;&gt;&#45;7891369253291993452</title>
<path fill="none" stroke="black" d="M378.21,-106.23C361.09,-96.23 342.21,-85.2 324.59,-74.91"/>
<polygon fill="black" stroke="black" points="325.9,-71.62 315.5,-69.6 322.37,-77.66 325.9,-71.62"/>
</g>
<!-- &#45;5343414536106964963 -->
<g id="node20" class="node">
<title>&#45;5343414536106964963</title>
<path fill="none" stroke="black" d="M368,-0.5C368,-0.5 504,-0.5 504,-0.5 510,-0.5 516,-6.5 516,-12.5 516,-12.5 516,-57.5 516,-57.5 516,-63.5 510,-69.5 504,-69.5 504,-69.5 368,-69.5 368,-69.5 362,-69.5 356,-63.5 356,-57.5 356,-57.5 356,-12.5 356,-12.5 356,-6.5 362,-0.5 368,-0.5"/>
<text text-anchor="middle" x="436" y="-54.3" font-family="Times,serif" font-size="14.00">MOVaddr</text>
<polyline fill="none" stroke="black" points="356,-46.5 516,-46.5 "/>
<text text-anchor="middle" x="396" y="-31.3" font-family="Times,serif" font-size="14.00">&#45;102.000</text>
<polyline fill="none" stroke="black" points="356,-23.5 436,-23.5 "/>
<text text-anchor="middle" x="396" y="-8.3" font-family="Times,serif" font-size="14.00">1</text>
<polyline fill="none" stroke="black" points="436,-0.5 436,-46.5 "/>
<text text-anchor="middle" x="476" y="-19.8" font-family="Times,serif" font-size="14.00">&#45;102.000</text>
</g>
<!-- &#45;7845962417271233114&#45;&gt;&#45;5343414536106964963 -->
<g id="edge19" class="edge">
<title>&#45;7845962417271233114&#45;&gt;&#45;5343414536106964963</title>
<path fill="none" stroke="black" d="M436,-106.23C436,-97.79 436,-88.62 436,-79.77"/>
<polygon fill="black" stroke="black" points="439.5,-79.6 436,-69.6 432.5,-79.6 439.5,-79.6"/>
</g>
<!-- 2467854070738471470 -->
<g id="node18" class="node">
<title>2467854070738471470</title>
<path fill="none" stroke="black" d="M546,-0.5C546,-0.5 682,-0.5 682,-0.5 688,-0.5 694,-6.5 694,-12.5 694,-12.5 694,-57.5 694,-57.5 694,-63.5 688,-69.5 682,-69.5 682,-69.5 546,-69.5 546,-69.5 540,-69.5 534,-63.5 534,-57.5 534,-57.5 534,-12.5 534,-12.5 534,-6.5 540,-0.5 546,-0.5"/>
<text text-anchor="middle" x="614" y="-54.3" font-family="Times,serif" font-size="14.00">ADDXri</text>
<polyline fill="none" stroke="black" points="534,-46.5 694,-46.5 "/>
<text text-anchor="middle" x="574" y="-31.3" font-family="Times,serif" font-size="14.00">&#45;121.000</text>
<polyline fill="none" stroke="black" points="534,-23.5 614,-23.5 "/>
<text text-anchor="middle" x="574" y="-8.3" font-family="Times,serif" font-size="14.00">1</text>
<polyline fill="none" stroke="black" points="614,-0.5 614,-46.5 "/>
<text text-anchor="middle" x="654" y="-19.8" font-family="Times,serif" font-size="14.00">&#45;121.000</text>
</g>
<!-- 3195997352452139721&#45;&gt;2467854070738471470 -->
<g id="edge17" class="edge">
<title>3195997352452139721&#45;&gt;2467854070738471470</title>
<path fill="none" stroke="black" d="M614,-106.23C614,-97.79 614,-88.62 614,-79.77"/>
<polygon fill="black" stroke="black" points="617.5,-79.6 614,-69.6 610.5,-79.6 617.5,-79.6"/>
</g>
<!-- 4820028636645674658 -->
<g id="node15" class="node">
<title>4820028636645674658</title>
<path fill="none" stroke="black" d="M724,-0.5C724,-0.5 860,-0.5 860,-0.5 866,-0.5 872,-6.5 872,-12.5 872,-12.5 872,-57.5 872,-57.5 872,-63.5 866,-69.5 860,-69.5 860,-69.5 724,-69.5 724,-69.5 718,-69.5 712,-63.5 712,-57.5 712,-57.5 712,-12.5 712,-12.5 712,-6.5 718,-0.5 724,-0.5"/>
<text text-anchor="middle" x="792" y="-54.3" font-family="Times,serif" font-size="14.00">MOVi32imm</text>
<polyline fill="none" stroke="black" points="712,-46.5 872,-46.5 "/>
<text text-anchor="middle" x="752" y="-31.3" font-family="Times,serif" font-size="14.00">&#45;121.000</text>
<polyline fill="none" stroke="black" points="712,-23.5 792,-23.5 "/>
<text text-anchor="middle" x="752" y="-8.3" font-family="Times,serif" font-size="14.00">1</text>
<polyline fill="none" stroke="black" points="792,-0.5 792,-46.5 "/>
<text text-anchor="middle" x="832" y="-19.8" font-family="Times,serif" font-size="14.00">&#45;121.000</text>
</g>
<!-- 4236127762744456212&#45;&gt;4820028636645674658 -->
<g id="edge14" class="edge">
<title>4236127762744456212&#45;&gt;4820028636645674658</title>
<path fill="none" stroke="black" d="M792,-106.23C792,-97.79 792,-88.62 792,-79.77"/>
<polygon fill="black" stroke="black" points="795.5,-79.6 792,-69.6 788.5,-79.6 795.5,-79.6"/>
</g>
<!-- 9093970949268139335 -->
<g id="node16" class="node">
<title>9093970949268139335</title>
<path fill="none" stroke="black" d="M902,-0.5C902,-0.5 1038,-0.5 1038,-0.5 1044,-0.5 1050,-6.5 1050,-12.5 1050,-12.5 1050,-57.5 1050,-57.5 1050,-63.5 1044,-69.5 1038,-69.5 1038,-69.5 902,-69.5 902,-69.5 896,-69.5 890,-63.5 890,-57.5 890,-57.5 890,-12.5 890,-12.5 890,-6.5 896,-0.5 902,-0.5"/>
<text text-anchor="middle" x="970" y="-54.3" font-family="Times,serif" font-size="14.00">MOVaddr</text>
<polyline fill="none" stroke="black" points="890,-46.5 1050,-46.5 "/>
<text text-anchor="middle" x="930" y="-31.3" font-family="Times,serif" font-size="14.00">&#45;121.000</text>
<polyline fill="none" stroke="black" points="890,-23.5 970,-23.5 "/>
<text text-anchor="middle" x="930" y="-8.3" font-family="Times,serif" font-size="14.00">1</text>
<polyline fill="none" stroke="black" points="970,-0.5 970,-46.5 "/>
<text text-anchor="middle" x="1010" y="-19.8" font-family="Times,serif" font-size="14.00">&#45;121.000</text>
</g>
<!-- 4236127762744456212&#45;&gt;9093970949268139335 -->
<g id="edge15" class="edge">
<title>4236127762744456212&#45;&gt;9093970949268139335</title>
<path fill="none" stroke="black" d="M849.79,-106.23C866.91,-96.23 885.79,-85.2 903.41,-74.91"/>
<polygon fill="black" stroke="black" points="905.63,-77.66 912.5,-69.6 902.1,-71.62 905.63,-77.66"/>
</g>
<!-- 2598267891230240018 -->
<g id="node17" class="node">
<title>2598267891230240018</title>
<path fill="none" stroke="black" d="M1080,-0.5C1080,-0.5 1216,-0.5 1216,-0.5 1222,-0.5 1228,-6.5 1228,-12.5 1228,-12.5 1228,-57.5 1228,-57.5 1228,-63.5 1222,-69.5 1216,-69.5 1216,-69.5 1080,-69.5 1080,-69.5 1074,-69.5 1068,-63.5 1068,-57.5 1068,-57.5 1068,-12.5 1068,-12.5 1068,-6.5 1074,-0.5 1080,-0.5"/>
<text text-anchor="middle" x="1148" y="-54.3" font-family="Times,serif" font-size="14.00">ADDXri</text>
<polyline fill="none" stroke="black" points="1068,-46.5 1228,-46.5 "/>
<text text-anchor="middle" x="1108" y="-31.3" font-family="Times,serif" font-size="14.00">&#45;131.000</text>
<polyline fill="none" stroke="black" points="1068,-23.5 1148,-23.5 "/>
<text text-anchor="middle" x="1108" y="-8.3" font-family="Times,serif" font-size="14.00">1</text>
<polyline fill="none" stroke="black" points="1148,-0.5 1148,-46.5 "/>
<text text-anchor="middle" x="1188" y="-19.8" font-family="Times,serif" font-size="14.00">&#45;131.000</text>
</g>
<!-- 3549615838287310360&#45;&gt;2598267891230240018 -->
<g id="edge16" class="edge">
<title>3549615838287310360&#45;&gt;2598267891230240018</title>
<path fill="none" stroke="black" d="M1087.9,-106.23C1095.75,-97.06 1104.34,-87.02 1112.51,-77.47"/>
<polygon fill="black" stroke="black" points="1115.41,-79.47 1119.25,-69.6 1110.09,-74.92 1115.41,-79.47"/>
</g>
</g>
</svg>
