<?xml version="1.0" encoding="UTF-8" standalone="no"?>
<!DOCTYPE svg PUBLIC "-//W3C//DTD SVG 1.1//EN"
 "http://www.w3.org/Graphics/SVG/1.1/DTD/svg11.dtd">
<!-- Generated by graphviz version 2.43.0 (0)
 -->
<!-- Title: MCTS Tree\nmcts/1.0/tree.svg Pages: 1 -->
<svg width="2749pt" height="502pt"
 viewBox="0.00 0.00 2749.00 502.00" xmlns="http://www.w3.org/2000/svg" xmlns:xlink="http://www.w3.org/1999/xlink">
<g id="graph0" class="graph" transform="scale(1 1) rotate(0) translate(4 498)">
<title>MCTS Tree\nmcts/1.0/tree.svg</title>
<polygon fill="white" stroke="transparent" points="-4,4 -4,-498 2745,-498 2745,4 -4,4"/>
<!-- 0 -->
<g id="node1" class="node">
<title>0</title>
<path fill="none" stroke="black" d="M1030.5,-424.5C1030.5,-424.5 1175.5,-424.5 1175.5,-424.5 1181.5,-424.5 1187.5,-430.5 1187.5,-436.5 1187.5,-436.5 1187.5,-481.5 1187.5,-481.5 1187.5,-487.5 1181.5,-493.5 1175.5,-493.5 1175.5,-493.5 1030.5,-493.5 1030.5,-493.5 1024.5,-493.5 1018.5,-487.5 1018.5,-481.5 1018.5,-481.5 1018.5,-436.5 1018.5,-436.5 1018.5,-430.5 1024.5,-424.5 1030.5,-424.5"/>
<text text-anchor="middle" x="1103" y="-478.3" font-family="Times,serif" font-size="14.00"> </text>
<polyline fill="none" stroke="black" points="1018.5,-470.5 1187.5,-470.5 "/>
<text text-anchor="middle" x="1063" y="-455.3" font-family="Times,serif" font-size="14.00">&#45;2082.000</text>
<polyline fill="none" stroke="black" points="1018.5,-447.5 1107.5,-447.5 "/>
<text text-anchor="middle" x="1063" y="-432.3" font-family="Times,serif" font-size="14.00">17</text>
<polyline fill="none" stroke="black" points="1107.5,-424.5 1107.5,-470.5 "/>
<text text-anchor="middle" x="1147.5" y="-443.8" font-family="Times,serif" font-size="14.00">&#45;122.471</text>
</g>
<!-- 1092854990758198018 -->
<g id="node2" class="node">
<title>1092854990758198018</title>
<path fill="none" stroke="black" d="M190,-318.5C190,-318.5 326,-318.5 326,-318.5 332,-318.5 338,-324.5 338,-330.5 338,-330.5 338,-375.5 338,-375.5 338,-381.5 332,-387.5 326,-387.5 326,-387.5 190,-387.5 190,-387.5 184,-387.5 178,-381.5 178,-375.5 178,-375.5 178,-330.5 178,-330.5 178,-324.5 184,-318.5 190,-318.5"/>
<text text-anchor="middle" x="258" y="-372.3" font-family="Times,serif" font-size="14.00">MOVi32imm</text>
<polyline fill="none" stroke="black" points="178,-364.5 338,-364.5 "/>
<text text-anchor="middle" x="218" y="-349.3" font-family="Times,serif" font-size="14.00">&#45;131.000</text>
<polyline fill="none" stroke="black" points="178,-341.5 258,-341.5 "/>
<text text-anchor="middle" x="218" y="-326.3" font-family="Times,serif" font-size="14.00">1</text>
<polyline fill="none" stroke="black" points="258,-318.5 258,-364.5 "/>
<text text-anchor="middle" x="298" y="-337.8" font-family="Times,serif" font-size="14.00">&#45;131.000</text>
</g>
<!-- 0&#45;&gt;1092854990758198018 -->
<g id="edge1" class="edge">
<title>0&#45;&gt;1092854990758198018</title>
<path fill="none" stroke="black" d="M1018.5,-447.6C858.52,-427.91 512.75,-385.35 348.36,-365.12"/>
<polygon fill="black" stroke="black" points="348.62,-361.63 338.27,-363.88 347.77,-368.57 348.62,-361.63"/>
</g>
<!-- &#45;5751341714610639805 -->
<g id="node3" class="node">
<title>&#45;5751341714610639805</title>
<path fill="none" stroke="black" d="M635,-318.5C635,-318.5 771,-318.5 771,-318.5 777,-318.5 783,-324.5 783,-330.5 783,-330.5 783,-375.5 783,-375.5 783,-381.5 777,-387.5 771,-387.5 771,-387.5 635,-387.5 635,-387.5 629,-387.5 623,-381.5 623,-375.5 623,-375.5 623,-330.5 623,-330.5 623,-324.5 629,-318.5 635,-318.5"/>
<text text-anchor="middle" x="703" y="-372.3" font-family="Times,serif" font-size="14.00">ADDXri</text>
<polyline fill="none" stroke="black" points="623,-364.5 783,-364.5 "/>
<text text-anchor="middle" x="663" y="-349.3" font-family="Times,serif" font-size="14.00">&#45;858.000</text>
<polyline fill="none" stroke="black" points="623,-341.5 703,-341.5 "/>
<text text-anchor="middle" x="663" y="-326.3" font-family="Times,serif" font-size="14.00">7</text>
<polyline fill="none" stroke="black" points="703,-318.5 703,-364.5 "/>
<text text-anchor="middle" x="743" y="-337.8" font-family="Times,serif" font-size="14.00">&#45;122.571</text>
</g>
<!-- 0&#45;&gt;&#45;5751341714610639805 -->
<g id="edge2" class="edge">
<title>0&#45;&gt;&#45;5751341714610639805</title>
<path fill="none" stroke="black" d="M1018.17,-435.94C952.05,-418.75 860.45,-394.94 793.04,-377.41"/>
<polygon fill="black" stroke="black" points="793.84,-374 783.28,-374.87 792.07,-380.78 793.84,-374"/>
</g>
<!-- 5278063433778252476 -->
<g id="node4" class="node">
<title>5278063433778252476</title>
<path fill="none" stroke="black" d="M1436,-318.5C1436,-318.5 1572,-318.5 1572,-318.5 1578,-318.5 1584,-324.5 1584,-330.5 1584,-330.5 1584,-375.5 1584,-375.5 1584,-381.5 1578,-387.5 1572,-387.5 1572,-387.5 1436,-387.5 1436,-387.5 1430,-387.5 1424,-381.5 1424,-375.5 1424,-375.5 1424,-330.5 1424,-330.5 1424,-324.5 1430,-318.5 1436,-318.5"/>
<text text-anchor="middle" x="1504" y="-372.3" font-family="Times,serif" font-size="14.00">MOVaddr</text>
<polyline fill="none" stroke="black" points="1424,-364.5 1584,-364.5 "/>
<text text-anchor="middle" x="1464" y="-349.3" font-family="Times,serif" font-size="14.00">&#45;495.000</text>
<polyline fill="none" stroke="black" points="1424,-341.5 1504,-341.5 "/>
<text text-anchor="middle" x="1464" y="-326.3" font-family="Times,serif" font-size="14.00">4</text>
<polyline fill="none" stroke="black" points="1504,-318.5 1504,-364.5 "/>
<text text-anchor="middle" x="1544" y="-337.8" font-family="Times,serif" font-size="14.00">&#45;123.750</text>
</g>
<!-- 0&#45;&gt;5278063433778252476 -->
<g id="edge3" class="edge">
<title>0&#45;&gt;5278063433778252476</title>
<path fill="none" stroke="black" d="M1187.55,-436.07C1253.91,-418.86 1346.09,-394.95 1413.85,-377.38"/>
<polygon fill="black" stroke="black" points="1414.86,-380.73 1423.66,-374.84 1413.11,-373.96 1414.86,-380.73"/>
</g>
<!-- 6803445754674768853 -->
<g id="node5" class="node">
<title>6803445754674768853</title>
<path fill="none" stroke="black" d="M2148,-318.5C2148,-318.5 2284,-318.5 2284,-318.5 2290,-318.5 2296,-324.5 2296,-330.5 2296,-330.5 2296,-375.5 2296,-375.5 2296,-381.5 2290,-387.5 2284,-387.5 2284,-387.5 2148,-387.5 2148,-387.5 2142,-387.5 2136,-381.5 2136,-375.5 2136,-375.5 2136,-330.5 2136,-330.5 2136,-324.5 2142,-318.5 2148,-318.5"/>
<text text-anchor="middle" x="2216" y="-372.3" font-family="Times,serif" font-size="14.00">UBFMXri</text>
<polyline fill="none" stroke="black" points="2136,-364.5 2296,-364.5 "/>
<text text-anchor="middle" x="2176" y="-349.3" font-family="Times,serif" font-size="14.00">&#45;598.000</text>
<polyline fill="none" stroke="black" points="2136,-341.5 2216,-341.5 "/>
<text text-anchor="middle" x="2176" y="-326.3" font-family="Times,serif" font-size="14.00">5</text>
<polyline fill="none" stroke="black" points="2216,-318.5 2216,-364.5 "/>
<text text-anchor="middle" x="2256" y="-337.8" font-family="Times,serif" font-size="14.00">&#45;119.600</text>
</g>
<!-- 0&#45;&gt;6803445754674768853 -->
<g id="edge4" class="edge">
<title>0&#45;&gt;6803445754674768853</title>
<path fill="none" stroke="black" d="M1187.57,-450.1C1392.58,-430.94 1914.69,-382.15 2125.59,-362.45"/>
<polygon fill="black" stroke="black" points="2126.07,-365.92 2135.7,-361.5 2125.42,-358.95 2126.07,-365.92"/>
</g>
<!-- &#45;6064726585475495056 -->
<g id="node14" class="node">
<title>&#45;6064726585475495056</title>
<path fill="none" stroke="black" d="M12,-212.5C12,-212.5 148,-212.5 148,-212.5 154,-212.5 160,-218.5 160,-224.5 160,-224.5 160,-269.5 160,-269.5 160,-275.5 154,-281.5 148,-281.5 148,-281.5 12,-281.5 12,-281.5 6,-281.5 0,-275.5 0,-269.5 0,-269.5 0,-224.5 0,-224.5 0,-218.5 6,-212.5 12,-212.5"/>
<text text-anchor="middle" x="80" y="-266.3" font-family="Times,serif" font-size="14.00">ADDXri</text>
<polyline fill="none" stroke="black" points="0,-258.5 160,-258.5 "/>
<text text-anchor="middle" x="40" y="-243.3" font-family="Times,serif" font-size="14.00">&#45;131.000</text>
<polyline fill="none" stroke="black" points="0,-235.5 80,-235.5 "/>
<text text-anchor="middle" x="40" y="-220.3" font-family="Times,serif" font-size="14.00">1</text>
<polyline fill="none" stroke="black" points="80,-212.5 80,-258.5 "/>
<text text-anchor="middle" x="120" y="-231.8" font-family="Times,serif" font-size="14.00">&#45;131.000</text>
</g>
<!-- 1092854990758198018&#45;&gt;&#45;6064726585475495056 -->
<g id="edge13" class="edge">
<title>1092854990758198018&#45;&gt;&#45;6064726585475495056</title>
<path fill="none" stroke="black" d="M200.21,-318.23C183.09,-308.23 164.21,-297.2 146.59,-286.91"/>
<polygon fill="black" stroke="black" points="147.9,-283.62 137.5,-281.6 144.37,-289.66 147.9,-283.62"/>
</g>
<!-- &#45;3968964597251653856 -->
<g id="node9" class="node">
<title>&#45;3968964597251653856</title>
<path fill="none" stroke="black" d="M190,-212.5C190,-212.5 326,-212.5 326,-212.5 332,-212.5 338,-218.5 338,-224.5 338,-224.5 338,-269.5 338,-269.5 338,-275.5 332,-281.5 326,-281.5 326,-281.5 190,-281.5 190,-281.5 184,-281.5 178,-275.5 178,-269.5 178,-269.5 178,-224.5 178,-224.5 178,-218.5 184,-212.5 190,-212.5"/>
<text text-anchor="middle" x="258" y="-266.3" font-family="Times,serif" font-size="14.00">MOVi32imm</text>
<polyline fill="none" stroke="black" points="178,-258.5 338,-258.5 "/>
<text text-anchor="middle" x="218" y="-243.3" font-family="Times,serif" font-size="14.00">&#45;131.000</text>
<polyline fill="none" stroke="black" points="178,-235.5 258,-235.5 "/>
<text text-anchor="middle" x="218" y="-220.3" font-family="Times,serif" font-size="14.00">1</text>
<polyline fill="none" stroke="black" points="258,-212.5 258,-258.5 "/>
<text text-anchor="middle" x="298" y="-231.8" font-family="Times,serif" font-size="14.00">&#45;131.000</text>
</g>
<!-- &#45;5751341714610639805&#45;&gt;&#45;3968964597251653856 -->
<g id="edge8" class="edge">
<title>&#45;5751341714610639805&#45;&gt;&#45;3968964597251653856</title>
<path fill="none" stroke="black" d="M622.89,-340.26C552.47,-329.03 447.28,-310.04 348.2,-282.2"/>
<polygon fill="black" stroke="black" points="348.9,-278.76 338.32,-279.39 346.98,-285.49 348.9,-278.76"/>
</g>
<!-- &#45;2266959085850915744 -->
<g id="node10" class="node">
<title>&#45;2266959085850915744</title>
<path fill="none" stroke="black" d="M368,-212.5C368,-212.5 504,-212.5 504,-212.5 510,-212.5 516,-218.5 516,-224.5 516,-224.5 516,-269.5 516,-269.5 516,-275.5 510,-281.5 504,-281.5 504,-281.5 368,-281.5 368,-281.5 362,-281.5 356,-275.5 356,-269.5 356,-269.5 356,-224.5 356,-224.5 356,-218.5 362,-212.5 368,-212.5"/>
<text text-anchor="middle" x="436" y="-266.3" font-family="Times,serif" font-size="14.00">MOVaddr</text>
<polyline fill="none" stroke="black" points="356,-258.5 516,-258.5 "/>
<text text-anchor="middle" x="396" y="-243.3" font-family="Times,serif" font-size="14.00">&#45;131.000</text>
<polyline fill="none" stroke="black" points="356,-235.5 436,-235.5 "/>
<text text-anchor="middle" x="396" y="-220.3" font-family="Times,serif" font-size="14.00">1</text>
<polyline fill="none" stroke="black" points="436,-212.5 436,-258.5 "/>
<text text-anchor="middle" x="476" y="-231.8" font-family="Times,serif" font-size="14.00">&#45;131.000</text>
</g>
<!-- &#45;5751341714610639805&#45;&gt;&#45;2266959085850915744 -->
<g id="edge9" class="edge">
<title>&#45;5751341714610639805&#45;&gt;&#45;2266959085850915744</title>
<path fill="none" stroke="black" d="M622.89,-320.8C592.27,-308.87 557.15,-295.19 525.69,-282.94"/>
<polygon fill="black" stroke="black" points="526.64,-279.55 516.05,-279.18 524.1,-286.07 526.64,-279.55"/>
</g>
<!-- &#45;1619051318737454031 -->
<g id="node11" class="node">
<title>&#45;1619051318737454031</title>
<path fill="none" stroke="black" d="M546,-212.5C546,-212.5 682,-212.5 682,-212.5 688,-212.5 694,-218.5 694,-224.5 694,-224.5 694,-269.5 694,-269.5 694,-275.5 688,-281.5 682,-281.5 682,-281.5 546,-281.5 546,-281.5 540,-281.5 534,-275.5 534,-269.5 534,-269.5 534,-224.5 534,-224.5 534,-218.5 540,-212.5 546,-212.5"/>
<text text-anchor="middle" x="614" y="-266.3" font-family="Times,serif" font-size="14.00">UBFMXri</text>
<polyline fill="none" stroke="black" points="534,-258.5 694,-258.5 "/>
<text text-anchor="middle" x="574" y="-243.3" font-family="Times,serif" font-size="14.00">&#45;121.000</text>
<polyline fill="none" stroke="black" points="534,-235.5 614,-235.5 "/>
<text text-anchor="middle" x="574" y="-220.3" font-family="Times,serif" font-size="14.00">1</text>
<polyline fill="none" stroke="black" points="614,-212.5 614,-258.5 "/>
<text text-anchor="middle" x="654" y="-231.8" font-family="Times,serif" font-size="14.00">&#45;121.000</text>
</g>
<!-- &#45;5751341714610639805&#45;&gt;&#45;1619051318737454031 -->
<g id="edge10" class="edge">
<title>&#45;5751341714610639805&#45;&gt;&#45;1619051318737454031</title>
<path fill="none" stroke="black" d="M674.1,-318.23C666.25,-309.06 657.66,-299.02 649.49,-289.47"/>
<polygon fill="black" stroke="black" points="651.91,-286.92 642.75,-281.6 646.59,-291.47 651.91,-286.92"/>
</g>
<!-- &#45;240070657434397551 -->
<g id="node12" class="node">
<title>&#45;240070657434397551</title>
<path fill="none" stroke="black" d="M724,-212.5C724,-212.5 860,-212.5 860,-212.5 866,-212.5 872,-218.5 872,-224.5 872,-224.5 872,-269.5 872,-269.5 872,-275.5 866,-281.5 860,-281.5 860,-281.5 724,-281.5 724,-281.5 718,-281.5 712,-275.5 712,-269.5 712,-269.5 712,-224.5 712,-224.5 712,-218.5 718,-212.5 724,-212.5"/>
<text text-anchor="middle" x="792" y="-266.3" font-family="Times,serif" font-size="14.00">ADDXri</text>
<polyline fill="none" stroke="black" points="712,-258.5 872,-258.5 "/>
<text text-anchor="middle" x="752" y="-243.3" font-family="Times,serif" font-size="14.00">&#45;233.000</text>
<polyline fill="none" stroke="black" points="712,-235.5 792,-235.5 "/>
<text text-anchor="middle" x="752" y="-220.3" font-family="Times,serif" font-size="14.00">2</text>
<polyline fill="none" stroke="black" points="792,-212.5 792,-258.5 "/>
<text text-anchor="middle" x="832" y="-231.8" font-family="Times,serif" font-size="14.00">&#45;116.500</text>
</g>
<!-- &#45;5751341714610639805&#45;&gt;&#45;240070657434397551 -->
<g id="edge11" class="edge">
<title>&#45;5751341714610639805&#45;&gt;&#45;240070657434397551</title>
<path fill="none" stroke="black" d="M731.9,-318.23C739.75,-309.06 748.34,-299.02 756.51,-289.47"/>
<polygon fill="black" stroke="black" points="759.41,-291.47 763.25,-281.6 754.09,-286.92 759.41,-291.47"/>
</g>
<!-- &#45;1819878632942483272 -->
<g id="node13" class="node">
<title>&#45;1819878632942483272</title>
<path fill="none" stroke="black" d="M991,-212.5C991,-212.5 1127,-212.5 1127,-212.5 1133,-212.5 1139,-218.5 1139,-224.5 1139,-224.5 1139,-269.5 1139,-269.5 1139,-275.5 1133,-281.5 1127,-281.5 1127,-281.5 991,-281.5 991,-281.5 985,-281.5 979,-275.5 979,-269.5 979,-269.5 979,-224.5 979,-224.5 979,-218.5 985,-212.5 991,-212.5"/>
<text text-anchor="middle" x="1059" y="-266.3" font-family="Times,serif" font-size="14.00">SUBSXri</text>
<polyline fill="none" stroke="black" points="979,-258.5 1139,-258.5 "/>
<text text-anchor="middle" x="1019" y="-243.3" font-family="Times,serif" font-size="14.00">&#45;242.000</text>
<polyline fill="none" stroke="black" points="979,-235.5 1059,-235.5 "/>
<text text-anchor="middle" x="1019" y="-220.3" font-family="Times,serif" font-size="14.00">2</text>
<polyline fill="none" stroke="black" points="1059,-212.5 1059,-258.5 "/>
<text text-anchor="middle" x="1099" y="-231.8" font-family="Times,serif" font-size="14.00">&#45;121.000</text>
</g>
<!-- &#45;5751341714610639805&#45;&gt;&#45;1819878632942483272 -->
<g id="edge12" class="edge">
<title>&#45;5751341714610639805&#45;&gt;&#45;1819878632942483272</title>
<path fill="none" stroke="black" d="M783.34,-328.53C838.59,-312.39 912.02,-290.94 969.2,-274.23"/>
<polygon fill="black" stroke="black" points="970.34,-277.55 978.96,-271.38 968.37,-270.83 970.34,-277.55"/>
</g>
<!-- 8016226663915575504 -->
<g id="node6" class="node">
<title>8016226663915575504</title>
<path fill="none" stroke="black" d="M1347,-212.5C1347,-212.5 1483,-212.5 1483,-212.5 1489,-212.5 1495,-218.5 1495,-224.5 1495,-224.5 1495,-269.5 1495,-269.5 1495,-275.5 1489,-281.5 1483,-281.5 1483,-281.5 1347,-281.5 1347,-281.5 1341,-281.5 1335,-275.5 1335,-269.5 1335,-269.5 1335,-224.5 1335,-224.5 1335,-218.5 1341,-212.5 1347,-212.5"/>
<text text-anchor="middle" x="1415" y="-266.3" font-family="Times,serif" font-size="14.00">MOVi32imm</text>
<polyline fill="none" stroke="black" points="1335,-258.5 1495,-258.5 "/>
<text text-anchor="middle" x="1375" y="-243.3" font-family="Times,serif" font-size="14.00">&#45;121.000</text>
<polyline fill="none" stroke="black" points="1335,-235.5 1415,-235.5 "/>
<text text-anchor="middle" x="1375" y="-220.3" font-family="Times,serif" font-size="14.00">1</text>
<polyline fill="none" stroke="black" points="1415,-212.5 1415,-258.5 "/>
<text text-anchor="middle" x="1455" y="-231.8" font-family="Times,serif" font-size="14.00">&#45;121.000</text>
</g>
<!-- 5278063433778252476&#45;&gt;8016226663915575504 -->
<g id="edge5" class="edge">
<title>5278063433778252476&#45;&gt;8016226663915575504</title>
<path fill="none" stroke="black" d="M1475.1,-318.23C1467.25,-309.06 1458.66,-299.02 1450.49,-289.47"/>
<polygon fill="black" stroke="black" points="1452.91,-286.92 1443.75,-281.6 1447.59,-291.47 1452.91,-286.92"/>
</g>
<!-- &#45;3294127009705154278 -->
<g id="node7" class="node">
<title>&#45;3294127009705154278</title>
<path fill="none" stroke="black" d="M1525,-212.5C1525,-212.5 1661,-212.5 1661,-212.5 1667,-212.5 1673,-218.5 1673,-224.5 1673,-224.5 1673,-269.5 1673,-269.5 1673,-275.5 1667,-281.5 1661,-281.5 1661,-281.5 1525,-281.5 1525,-281.5 1519,-281.5 1513,-275.5 1513,-269.5 1513,-269.5 1513,-224.5 1513,-224.5 1513,-218.5 1519,-212.5 1525,-212.5"/>
<text text-anchor="middle" x="1593" y="-266.3" font-family="Times,serif" font-size="14.00">UBFMXri</text>
<polyline fill="none" stroke="black" points="1513,-258.5 1673,-258.5 "/>
<text text-anchor="middle" x="1553" y="-243.3" font-family="Times,serif" font-size="14.00">&#45;243.000</text>
<polyline fill="none" stroke="black" points="1513,-235.5 1593,-235.5 "/>
<text text-anchor="middle" x="1553" y="-220.3" font-family="Times,serif" font-size="14.00">2</text>
<polyline fill="none" stroke="black" points="1593,-212.5 1593,-258.5 "/>
<text text-anchor="middle" x="1633" y="-231.8" font-family="Times,serif" font-size="14.00">&#45;121.500</text>
</g>
<!-- 5278063433778252476&#45;&gt;&#45;3294127009705154278 -->
<g id="edge6" class="edge">
<title>5278063433778252476&#45;&gt;&#45;3294127009705154278</title>
<path fill="none" stroke="black" d="M1532.9,-318.23C1540.75,-309.06 1549.34,-299.02 1557.51,-289.47"/>
<polygon fill="black" stroke="black" points="1560.41,-291.47 1564.25,-281.6 1555.09,-286.92 1560.41,-291.47"/>
</g>
<!-- &#45;2440040730288523972 -->
<g id="node8" class="node">
<title>&#45;2440040730288523972</title>
<path fill="none" stroke="black" d="M1792,-212.5C1792,-212.5 1928,-212.5 1928,-212.5 1934,-212.5 1940,-218.5 1940,-224.5 1940,-224.5 1940,-269.5 1940,-269.5 1940,-275.5 1934,-281.5 1928,-281.5 1928,-281.5 1792,-281.5 1792,-281.5 1786,-281.5 1780,-275.5 1780,-269.5 1780,-269.5 1780,-224.5 1780,-224.5 1780,-218.5 1786,-212.5 1792,-212.5"/>
<text text-anchor="middle" x="1860" y="-266.3" font-family="Times,serif" font-size="14.00">ADDXri</text>
<polyline fill="none" stroke="black" points="1780,-258.5 1940,-258.5 "/>
<text text-anchor="middle" x="1820" y="-243.3" font-family="Times,serif" font-size="14.00">&#45;131.000</text>
<polyline fill="none" stroke="black" points="1780,-235.5 1860,-235.5 "/>
<text text-anchor="middle" x="1820" y="-220.3" font-family="Times,serif" font-size="14.00">1</text>
<polyline fill="none" stroke="black" points="1860,-212.5 1860,-258.5 "/>
<text text-anchor="middle" x="1900" y="-231.8" font-family="Times,serif" font-size="14.00">&#45;131.000</text>
</g>
<!-- 5278063433778252476&#45;&gt;&#45;2440040730288523972 -->
<g id="edge7" class="edge">
<title>5278063433778252476&#45;&gt;&#45;2440040730288523972</title>
<path fill="none" stroke="black" d="M1584.34,-328.53C1639.59,-312.39 1713.02,-290.94 1770.2,-274.23"/>
<polygon fill="black" stroke="black" points="1771.34,-277.55 1779.96,-271.38 1769.37,-270.83 1771.34,-277.55"/>
</g>
<!-- 2798370247994558492 -->
<g id="node15" class="node">
<title>2798370247994558492</title>
<path fill="none" stroke="black" d="M2059,-212.5C2059,-212.5 2195,-212.5 2195,-212.5 2201,-212.5 2207,-218.5 2207,-224.5 2207,-224.5 2207,-269.5 2207,-269.5 2207,-275.5 2201,-281.5 2195,-281.5 2195,-281.5 2059,-281.5 2059,-281.5 2053,-281.5 2047,-275.5 2047,-269.5 2047,-269.5 2047,-224.5 2047,-224.5 2047,-218.5 2053,-212.5 2059,-212.5"/>
<text text-anchor="middle" x="2127" y="-266.3" font-family="Times,serif" font-size="14.00">MOVi32imm</text>
<polyline fill="none" stroke="black" points="2047,-258.5 2207,-258.5 "/>
<text text-anchor="middle" x="2087" y="-243.3" font-family="Times,serif" font-size="14.00">&#45;122.000</text>
<polyline fill="none" stroke="black" points="2047,-235.5 2127,-235.5 "/>
<text text-anchor="middle" x="2087" y="-220.3" font-family="Times,serif" font-size="14.00">1</text>
<polyline fill="none" stroke="black" points="2127,-212.5 2127,-258.5 "/>
<text text-anchor="middle" x="2167" y="-231.8" font-family="Times,serif" font-size="14.00">&#45;122.000</text>
</g>
<!-- 6803445754674768853&#45;&gt;2798370247994558492 -->
<g id="edge14" class="edge">
<title>6803445754674768853&#45;&gt;2798370247994558492</title>
<path fill="none" stroke="black" d="M2187.1,-318.23C2179.25,-309.06 2170.66,-299.02 2162.49,-289.47"/>
<polygon fill="black" stroke="black" points="2164.91,-286.92 2155.75,-281.6 2159.59,-291.47 2164.91,-286.92"/>
</g>
<!-- 4004055268270297877 -->
<g id="node16" class="node">
<title>4004055268270297877</title>
<path fill="none" stroke="black" d="M2237,-212.5C2237,-212.5 2373,-212.5 2373,-212.5 2379,-212.5 2385,-218.5 2385,-224.5 2385,-224.5 2385,-269.5 2385,-269.5 2385,-275.5 2379,-281.5 2373,-281.5 2373,-281.5 2237,-281.5 2237,-281.5 2231,-281.5 2225,-275.5 2225,-269.5 2225,-269.5 2225,-224.5 2225,-224.5 2225,-218.5 2231,-212.5 2237,-212.5"/>
<text text-anchor="middle" x="2305" y="-266.3" font-family="Times,serif" font-size="14.00">MOVaddr</text>
<polyline fill="none" stroke="black" points="2225,-258.5 2385,-258.5 "/>
<text text-anchor="middle" x="2265" y="-243.3" font-family="Times,serif" font-size="14.00">&#45;233.000</text>
<polyline fill="none" stroke="black" points="2225,-235.5 2305,-235.5 "/>
<text text-anchor="middle" x="2265" y="-220.3" font-family="Times,serif" font-size="14.00">2</text>
<polyline fill="none" stroke="black" points="2305,-212.5 2305,-258.5 "/>
<text text-anchor="middle" x="2345" y="-231.8" font-family="Times,serif" font-size="14.00">&#45;116.500</text>
</g>
<!-- 6803445754674768853&#45;&gt;4004055268270297877 -->
<g id="edge15" class="edge">
<title>6803445754674768853&#45;&gt;4004055268270297877</title>
<path fill="none" stroke="black" d="M2244.9,-318.23C2252.75,-309.06 2261.34,-299.02 2269.51,-289.47"/>
<polygon fill="black" stroke="black" points="2272.41,-291.47 2276.25,-281.6 2267.09,-286.92 2272.41,-291.47"/>
</g>
<!-- 2856450699926469542 -->
<g id="node17" class="node">
<title>2856450699926469542</title>
<path fill="none" stroke="black" d="M2504,-212.5C2504,-212.5 2640,-212.5 2640,-212.5 2646,-212.5 2652,-218.5 2652,-224.5 2652,-224.5 2652,-269.5 2652,-269.5 2652,-275.5 2646,-281.5 2640,-281.5 2640,-281.5 2504,-281.5 2504,-281.5 2498,-281.5 2492,-275.5 2492,-269.5 2492,-269.5 2492,-224.5 2492,-224.5 2492,-218.5 2498,-212.5 2504,-212.5"/>
<text text-anchor="middle" x="2572" y="-266.3" font-family="Times,serif" font-size="14.00">ADDXri</text>
<polyline fill="none" stroke="black" points="2492,-258.5 2652,-258.5 "/>
<text text-anchor="middle" x="2532" y="-243.3" font-family="Times,serif" font-size="14.00">&#45;243.000</text>
<polyline fill="none" stroke="black" points="2492,-235.5 2572,-235.5 "/>
<text text-anchor="middle" x="2532" y="-220.3" font-family="Times,serif" font-size="14.00">2</text>
<polyline fill="none" stroke="black" points="2572,-212.5 2572,-258.5 "/>
<text text-anchor="middle" x="2612" y="-231.8" font-family="Times,serif" font-size="14.00">&#45;121.500</text>
</g>
<!-- 6803445754674768853&#45;&gt;2856450699926469542 -->
<g id="edge16" class="edge">
<title>6803445754674768853&#45;&gt;2856450699926469542</title>
<path fill="none" stroke="black" d="M2296.34,-328.53C2351.59,-312.39 2425.02,-290.94 2482.2,-274.23"/>
<polygon fill="black" stroke="black" points="2483.34,-277.55 2491.96,-271.38 2481.37,-270.83 2483.34,-277.55"/>
</g>
<!-- &#45;8982216001177640296 -->
<g id="node24" class="node">
<title>&#45;8982216001177640296</title>
<path fill="none" stroke="black" d="M1347,-106.5C1347,-106.5 1483,-106.5 1483,-106.5 1489,-106.5 1495,-112.5 1495,-118.5 1495,-118.5 1495,-163.5 1495,-163.5 1495,-169.5 1489,-175.5 1483,-175.5 1483,-175.5 1347,-175.5 1347,-175.5 1341,-175.5 1335,-169.5 1335,-163.5 1335,-163.5 1335,-118.5 1335,-118.5 1335,-112.5 1341,-106.5 1347,-106.5"/>
<text text-anchor="middle" x="1415" y="-160.3" font-family="Times,serif" font-size="14.00">ADDXri</text>
<polyline fill="none" stroke="black" points="1335,-152.5 1495,-152.5 "/>
<text text-anchor="middle" x="1375" y="-137.3" font-family="Times,serif" font-size="14.00">&#45;121.000</text>
<polyline fill="none" stroke="black" points="1335,-129.5 1415,-129.5 "/>
<text text-anchor="middle" x="1375" y="-114.3" font-family="Times,serif" font-size="14.00">1</text>
<polyline fill="none" stroke="black" points="1415,-106.5 1415,-152.5 "/>
<text text-anchor="middle" x="1455" y="-125.8" font-family="Times,serif" font-size="14.00">&#45;121.000</text>
</g>
<!-- 8016226663915575504&#45;&gt;&#45;8982216001177640296 -->
<g id="edge23" class="edge">
<title>8016226663915575504&#45;&gt;&#45;8982216001177640296</title>
<path fill="none" stroke="black" d="M1415,-212.23C1415,-203.79 1415,-194.62 1415,-185.77"/>
<polygon fill="black" stroke="black" points="1418.5,-185.6 1415,-175.6 1411.5,-185.6 1418.5,-185.6"/>
</g>
<!-- 3988942187196721328 -->
<g id="node25" class="node">
<title>3988942187196721328</title>
<path fill="none" stroke="black" d="M1525,-106.5C1525,-106.5 1661,-106.5 1661,-106.5 1667,-106.5 1673,-112.5 1673,-118.5 1673,-118.5 1673,-163.5 1673,-163.5 1673,-169.5 1667,-175.5 1661,-175.5 1661,-175.5 1525,-175.5 1525,-175.5 1519,-175.5 1513,-169.5 1513,-163.5 1513,-163.5 1513,-118.5 1513,-118.5 1513,-112.5 1519,-106.5 1525,-106.5"/>
<text text-anchor="middle" x="1593" y="-160.3" font-family="Times,serif" font-size="14.00">MOVi32imm</text>
<polyline fill="none" stroke="black" points="1513,-152.5 1673,-152.5 "/>
<text text-anchor="middle" x="1553" y="-137.3" font-family="Times,serif" font-size="14.00">&#45;121.000</text>
<polyline fill="none" stroke="black" points="1513,-129.5 1593,-129.5 "/>
<text text-anchor="middle" x="1553" y="-114.3" font-family="Times,serif" font-size="14.00">1</text>
<polyline fill="none" stroke="black" points="1593,-106.5 1593,-152.5 "/>
<text text-anchor="middle" x="1633" y="-125.8" font-family="Times,serif" font-size="14.00">&#45;121.000</text>
</g>
<!-- &#45;3294127009705154278&#45;&gt;3988942187196721328 -->
<g id="edge24" class="edge">
<title>&#45;3294127009705154278&#45;&gt;3988942187196721328</title>
<path fill="none" stroke="black" d="M1593,-212.23C1593,-203.79 1593,-194.62 1593,-185.77"/>
<polygon fill="black" stroke="black" points="1596.5,-185.6 1593,-175.6 1589.5,-185.6 1596.5,-185.6"/>
</g>
<!-- &#45;4868054823259677326 -->
<g id="node26" class="node">
<title>&#45;4868054823259677326</title>
<path fill="none" stroke="black" d="M1703,-106.5C1703,-106.5 1839,-106.5 1839,-106.5 1845,-106.5 1851,-112.5 1851,-118.5 1851,-118.5 1851,-163.5 1851,-163.5 1851,-169.5 1845,-175.5 1839,-175.5 1839,-175.5 1703,-175.5 1703,-175.5 1697,-175.5 1691,-169.5 1691,-163.5 1691,-163.5 1691,-118.5 1691,-118.5 1691,-112.5 1697,-106.5 1703,-106.5"/>
<text text-anchor="middle" x="1771" y="-160.3" font-family="Times,serif" font-size="14.00">ADDXri</text>
<polyline fill="none" stroke="black" points="1691,-152.5 1851,-152.5 "/>
<text text-anchor="middle" x="1731" y="-137.3" font-family="Times,serif" font-size="14.00">&#45;122.000</text>
<polyline fill="none" stroke="black" points="1691,-129.5 1771,-129.5 "/>
<text text-anchor="middle" x="1731" y="-114.3" font-family="Times,serif" font-size="14.00">1</text>
<polyline fill="none" stroke="black" points="1771,-106.5 1771,-152.5 "/>
<text text-anchor="middle" x="1811" y="-125.8" font-family="Times,serif" font-size="14.00">&#45;122.000</text>
</g>
<!-- &#45;3294127009705154278&#45;&gt;&#45;4868054823259677326 -->
<g id="edge25" class="edge">
<title>&#45;3294127009705154278&#45;&gt;&#45;4868054823259677326</title>
<path fill="none" stroke="black" d="M1650.79,-212.23C1667.91,-202.23 1686.79,-191.2 1704.41,-180.91"/>
<polygon fill="black" stroke="black" points="1706.63,-183.66 1713.5,-175.6 1703.1,-177.62 1706.63,-183.66"/>
</g>
<!-- &#45;1727418281573680656 -->
<g id="node27" class="node">
<title>&#45;1727418281573680656</title>
<path fill="none" stroke="black" d="M1881,-106.5C1881,-106.5 2017,-106.5 2017,-106.5 2023,-106.5 2029,-112.5 2029,-118.5 2029,-118.5 2029,-163.5 2029,-163.5 2029,-169.5 2023,-175.5 2017,-175.5 2017,-175.5 1881,-175.5 1881,-175.5 1875,-175.5 1869,-169.5 1869,-163.5 1869,-163.5 1869,-118.5 1869,-118.5 1869,-112.5 1875,-106.5 1881,-106.5"/>
<text text-anchor="middle" x="1949" y="-160.3" font-family="Times,serif" font-size="14.00">ADDXri</text>
<polyline fill="none" stroke="black" points="1869,-152.5 2029,-152.5 "/>
<text text-anchor="middle" x="1909" y="-137.3" font-family="Times,serif" font-size="14.00">&#45;131.000</text>
<polyline fill="none" stroke="black" points="1869,-129.5 1949,-129.5 "/>
<text text-anchor="middle" x="1909" y="-114.3" font-family="Times,serif" font-size="14.00">1</text>
<polyline fill="none" stroke="black" points="1949,-106.5 1949,-152.5 "/>
<text text-anchor="middle" x="1989" y="-125.8" font-family="Times,serif" font-size="14.00">&#45;131.000</text>
</g>
<!-- &#45;2440040730288523972&#45;&gt;&#45;1727418281573680656 -->
<g id="edge26" class="edge">
<title>&#45;2440040730288523972&#45;&gt;&#45;1727418281573680656</title>
<path fill="none" stroke="black" d="M1888.9,-212.23C1896.75,-203.06 1905.34,-193.02 1913.51,-183.47"/>
<polygon fill="black" stroke="black" points="1916.41,-185.47 1920.25,-175.6 1911.09,-180.92 1916.41,-185.47"/>
</g>
<!-- 3928779774407405449 -->
<g id="node29" class="node">
<title>3928779774407405449</title>
<path fill="none" stroke="black" d="M101,-106.5C101,-106.5 237,-106.5 237,-106.5 243,-106.5 249,-112.5 249,-118.5 249,-118.5 249,-163.5 249,-163.5 249,-169.5 243,-175.5 237,-175.5 237,-175.5 101,-175.5 101,-175.5 95,-175.5 89,-169.5 89,-163.5 89,-163.5 89,-118.5 89,-118.5 89,-112.5 95,-106.5 101,-106.5"/>
<text text-anchor="middle" x="169" y="-160.3" font-family="Times,serif" font-size="14.00">MOVi32imm</text>
<polyline fill="none" stroke="black" points="89,-152.5 249,-152.5 "/>
<text text-anchor="middle" x="129" y="-137.3" font-family="Times,serif" font-size="14.00">&#45;131.000</text>
<polyline fill="none" stroke="black" points="89,-129.5 169,-129.5 "/>
<text text-anchor="middle" x="129" y="-114.3" font-family="Times,serif" font-size="14.00">1</text>
<polyline fill="none" stroke="black" points="169,-106.5 169,-152.5 "/>
<text text-anchor="middle" x="209" y="-125.8" font-family="Times,serif" font-size="14.00">&#45;131.000</text>
</g>
<!-- &#45;3968964597251653856&#45;&gt;3928779774407405449 -->
<g id="edge28" class="edge">
<title>&#45;3968964597251653856&#45;&gt;3928779774407405449</title>
<path fill="none" stroke="black" d="M229.1,-212.23C221.25,-203.06 212.66,-193.02 204.49,-183.47"/>
<polygon fill="black" stroke="black" points="206.91,-180.92 197.75,-175.6 201.59,-185.47 206.91,-180.92"/>
</g>
<!-- 5489504786607668387 -->
<g id="node20" class="node">
<title>5489504786607668387</title>
<path fill="none" stroke="black" d="M279,-106.5C279,-106.5 415,-106.5 415,-106.5 421,-106.5 427,-112.5 427,-118.5 427,-118.5 427,-163.5 427,-163.5 427,-169.5 421,-175.5 415,-175.5 415,-175.5 279,-175.5 279,-175.5 273,-175.5 267,-169.5 267,-163.5 267,-163.5 267,-118.5 267,-118.5 267,-112.5 273,-106.5 279,-106.5"/>
<text text-anchor="middle" x="347" y="-160.3" font-family="Times,serif" font-size="14.00">ADDXri</text>
<polyline fill="none" stroke="black" points="267,-152.5 427,-152.5 "/>
<text text-anchor="middle" x="307" y="-137.3" font-family="Times,serif" font-size="14.00">&#45;131.000</text>
<polyline fill="none" stroke="black" points="267,-129.5 347,-129.5 "/>
<text text-anchor="middle" x="307" y="-114.3" font-family="Times,serif" font-size="14.00">1</text>
<polyline fill="none" stroke="black" points="347,-106.5 347,-152.5 "/>
<text text-anchor="middle" x="387" y="-125.8" font-family="Times,serif" font-size="14.00">&#45;131.000</text>
</g>
<!-- &#45;2266959085850915744&#45;&gt;5489504786607668387 -->
<g id="edge19" class="edge">
<title>&#45;2266959085850915744&#45;&gt;5489504786607668387</title>
<path fill="none" stroke="black" d="M407.1,-212.23C399.25,-203.06 390.66,-193.02 382.49,-183.47"/>
<polygon fill="black" stroke="black" points="384.91,-180.92 375.75,-175.6 379.59,-185.47 384.91,-180.92"/>
</g>
<!-- 1783055809084818596 -->
<g id="node21" class="node">
<title>1783055809084818596</title>
<path fill="none" stroke="black" d="M457,-106.5C457,-106.5 593,-106.5 593,-106.5 599,-106.5 605,-112.5 605,-118.5 605,-118.5 605,-163.5 605,-163.5 605,-169.5 599,-175.5 593,-175.5 593,-175.5 457,-175.5 457,-175.5 451,-175.5 445,-169.5 445,-163.5 445,-163.5 445,-118.5 445,-118.5 445,-112.5 451,-106.5 457,-106.5"/>
<text text-anchor="middle" x="525" y="-160.3" font-family="Times,serif" font-size="14.00">ADDXri</text>
<polyline fill="none" stroke="black" points="445,-152.5 605,-152.5 "/>
<text text-anchor="middle" x="485" y="-137.3" font-family="Times,serif" font-size="14.00">&#45;121.000</text>
<polyline fill="none" stroke="black" points="445,-129.5 525,-129.5 "/>
<text text-anchor="middle" x="485" y="-114.3" font-family="Times,serif" font-size="14.00">1</text>
<polyline fill="none" stroke="black" points="525,-106.5 525,-152.5 "/>
<text text-anchor="middle" x="565" y="-125.8" font-family="Times,serif" font-size="14.00">&#45;121.000</text>
</g>
<!-- &#45;1619051318737454031&#45;&gt;1783055809084818596 -->
<g id="edge20" class="edge">
<title>&#45;1619051318737454031&#45;&gt;1783055809084818596</title>
<path fill="none" stroke="black" d="M585.1,-212.23C577.25,-203.06 568.66,-193.02 560.49,-183.47"/>
<polygon fill="black" stroke="black" points="562.91,-180.92 553.75,-175.6 557.59,-185.47 562.91,-180.92"/>
</g>
<!-- 400849157947705937 -->
<g id="node22" class="node">
<title>400849157947705937</title>
<path fill="none" stroke="black" d="M635,-106.5C635,-106.5 771,-106.5 771,-106.5 777,-106.5 783,-112.5 783,-118.5 783,-118.5 783,-163.5 783,-163.5 783,-169.5 777,-175.5 771,-175.5 771,-175.5 635,-175.5 635,-175.5 629,-175.5 623,-169.5 623,-163.5 623,-163.5 623,-118.5 623,-118.5 623,-112.5 629,-106.5 635,-106.5"/>
<text text-anchor="middle" x="703" y="-160.3" font-family="Times,serif" font-size="14.00">MOVi32imm</text>
<polyline fill="none" stroke="black" points="623,-152.5 783,-152.5 "/>
<text text-anchor="middle" x="663" y="-137.3" font-family="Times,serif" font-size="14.00">&#45;131.000</text>
<polyline fill="none" stroke="black" points="623,-129.5 703,-129.5 "/>
<text text-anchor="middle" x="663" y="-114.3" font-family="Times,serif" font-size="14.00">1</text>
<polyline fill="none" stroke="black" points="703,-106.5 703,-152.5 "/>
<text text-anchor="middle" x="743" y="-125.8" font-family="Times,serif" font-size="14.00">&#45;131.000</text>
</g>
<!-- &#45;240070657434397551&#45;&gt;400849157947705937 -->
<g id="edge21" class="edge">
<title>&#45;240070657434397551&#45;&gt;400849157947705937</title>
<path fill="none" stroke="black" d="M763.1,-212.23C755.25,-203.06 746.66,-193.02 738.49,-183.47"/>
<polygon fill="black" stroke="black" points="740.91,-180.92 731.75,-175.6 735.59,-185.47 740.91,-180.92"/>
</g>
<!-- &#45;2083287015167565219 -->
<g id="node23" class="node">
<title>&#45;2083287015167565219</title>
<path fill="none" stroke="black" d="M813,-106.5C813,-106.5 949,-106.5 949,-106.5 955,-106.5 961,-112.5 961,-118.5 961,-118.5 961,-163.5 961,-163.5 961,-169.5 955,-175.5 949,-175.5 949,-175.5 813,-175.5 813,-175.5 807,-175.5 801,-169.5 801,-163.5 801,-163.5 801,-118.5 801,-118.5 801,-112.5 807,-106.5 813,-106.5"/>
<text text-anchor="middle" x="881" y="-160.3" font-family="Times,serif" font-size="14.00">MOVaddr</text>
<polyline fill="none" stroke="black" points="801,-152.5 961,-152.5 "/>
<text text-anchor="middle" x="841" y="-137.3" font-family="Times,serif" font-size="14.00">&#45;102.000</text>
<polyline fill="none" stroke="black" points="801,-129.5 881,-129.5 "/>
<text text-anchor="middle" x="841" y="-114.3" font-family="Times,serif" font-size="14.00">1</text>
<polyline fill="none" stroke="black" points="881,-106.5 881,-152.5 "/>
<text text-anchor="middle" x="921" y="-125.8" font-family="Times,serif" font-size="14.00">&#45;102.000</text>
</g>
<!-- &#45;240070657434397551&#45;&gt;&#45;2083287015167565219 -->
<g id="edge22" class="edge">
<title>&#45;240070657434397551&#45;&gt;&#45;2083287015167565219</title>
<path fill="none" stroke="black" d="M820.9,-212.23C828.75,-203.06 837.34,-193.02 845.51,-183.47"/>
<polygon fill="black" stroke="black" points="848.41,-185.47 852.25,-175.6 843.09,-180.92 848.41,-185.47"/>
</g>
<!-- &#45;8563966079782223178 -->
<g id="node18" class="node">
<title>&#45;8563966079782223178</title>
<path fill="none" stroke="black" d="M991,-106.5C991,-106.5 1127,-106.5 1127,-106.5 1133,-106.5 1139,-112.5 1139,-118.5 1139,-118.5 1139,-163.5 1139,-163.5 1139,-169.5 1133,-175.5 1127,-175.5 1127,-175.5 991,-175.5 991,-175.5 985,-175.5 979,-169.5 979,-163.5 979,-163.5 979,-118.5 979,-118.5 979,-112.5 985,-106.5 991,-106.5"/>
<text text-anchor="middle" x="1059" y="-160.3" font-family="Times,serif" font-size="14.00">MOVi32imm</text>
<polyline fill="none" stroke="black" points="979,-152.5 1139,-152.5 "/>
<text text-anchor="middle" x="1019" y="-137.3" font-family="Times,serif" font-size="14.00">&#45;121.000</text>
<polyline fill="none" stroke="black" points="979,-129.5 1059,-129.5 "/>
<text text-anchor="middle" x="1019" y="-114.3" font-family="Times,serif" font-size="14.00">1</text>
<polyline fill="none" stroke="black" points="1059,-106.5 1059,-152.5 "/>
<text text-anchor="middle" x="1099" y="-125.8" font-family="Times,serif" font-size="14.00">&#45;121.000</text>
</g>
<!-- &#45;1819878632942483272&#45;&gt;&#45;8563966079782223178 -->
<g id="edge17" class="edge">
<title>&#45;1819878632942483272&#45;&gt;&#45;8563966079782223178</title>
<path fill="none" stroke="black" d="M1059,-212.23C1059,-203.79 1059,-194.62 1059,-185.77"/>
<polygon fill="black" stroke="black" points="1062.5,-185.6 1059,-175.6 1055.5,-185.6 1062.5,-185.6"/>
</g>
<!-- &#45;4051831903934514945 -->
<g id="node19" class="node">
<title>&#45;4051831903934514945</title>
<path fill="none" stroke="black" d="M1169,-106.5C1169,-106.5 1305,-106.5 1305,-106.5 1311,-106.5 1317,-112.5 1317,-118.5 1317,-118.5 1317,-163.5 1317,-163.5 1317,-169.5 1311,-175.5 1305,-175.5 1305,-175.5 1169,-175.5 1169,-175.5 1163,-175.5 1157,-169.5 1157,-163.5 1157,-163.5 1157,-118.5 1157,-118.5 1157,-112.5 1163,-106.5 1169,-106.5"/>
<text text-anchor="middle" x="1237" y="-160.3" font-family="Times,serif" font-size="14.00">MOVaddr</text>
<polyline fill="none" stroke="black" points="1157,-152.5 1317,-152.5 "/>
<text text-anchor="middle" x="1197" y="-137.3" font-family="Times,serif" font-size="14.00">&#45;121.000</text>
<polyline fill="none" stroke="black" points="1157,-129.5 1237,-129.5 "/>
<text text-anchor="middle" x="1197" y="-114.3" font-family="Times,serif" font-size="14.00">1</text>
<polyline fill="none" stroke="black" points="1237,-106.5 1237,-152.5 "/>
<text text-anchor="middle" x="1277" y="-125.8" font-family="Times,serif" font-size="14.00">&#45;121.000</text>
</g>
<!-- &#45;1819878632942483272&#45;&gt;&#45;4051831903934514945 -->
<g id="edge18" class="edge">
<title>&#45;1819878632942483272&#45;&gt;&#45;4051831903934514945</title>
<path fill="none" stroke="black" d="M1116.79,-212.23C1133.91,-202.23 1152.79,-191.2 1170.41,-180.91"/>
<polygon fill="black" stroke="black" points="1172.63,-183.66 1179.5,-175.6 1169.1,-177.62 1172.63,-183.66"/>
</g>
<!-- 2692748392838528292 -->
<g id="node28" class="node">
<title>2692748392838528292</title>
<path fill="none" stroke="black" d="M2059,-106.5C2059,-106.5 2195,-106.5 2195,-106.5 2201,-106.5 2207,-112.5 2207,-118.5 2207,-118.5 2207,-163.5 2207,-163.5 2207,-169.5 2201,-175.5 2195,-175.5 2195,-175.5 2059,-175.5 2059,-175.5 2053,-175.5 2047,-169.5 2047,-163.5 2047,-163.5 2047,-118.5 2047,-118.5 2047,-112.5 2053,-106.5 2059,-106.5"/>
<text text-anchor="middle" x="2127" y="-160.3" font-family="Times,serif" font-size="14.00">ADDXri</text>
<polyline fill="none" stroke="black" points="2047,-152.5 2207,-152.5 "/>
<text text-anchor="middle" x="2087" y="-137.3" font-family="Times,serif" font-size="14.00">&#45;122.000</text>
<polyline fill="none" stroke="black" points="2047,-129.5 2127,-129.5 "/>
<text text-anchor="middle" x="2087" y="-114.3" font-family="Times,serif" font-size="14.00">1</text>
<polyline fill="none" stroke="black" points="2127,-106.5 2127,-152.5 "/>
<text text-anchor="middle" x="2167" y="-125.8" font-family="Times,serif" font-size="14.00">&#45;122.000</text>
</g>
<!-- 2798370247994558492&#45;&gt;2692748392838528292 -->
<g id="edge27" class="edge">
<title>2798370247994558492&#45;&gt;2692748392838528292</title>
<path fill="none" stroke="black" d="M2127,-212.23C2127,-203.79 2127,-194.62 2127,-185.77"/>
<polygon fill="black" stroke="black" points="2130.5,-185.6 2127,-175.6 2123.5,-185.6 2130.5,-185.6"/>
</g>
<!-- &#45;5590978556645952259 -->
<g id="node31" class="node">
<title>&#45;5590978556645952259</title>
<path fill="none" stroke="black" d="M2237,-106.5C2237,-106.5 2373,-106.5 2373,-106.5 2379,-106.5 2385,-112.5 2385,-118.5 2385,-118.5 2385,-163.5 2385,-163.5 2385,-169.5 2379,-175.5 2373,-175.5 2373,-175.5 2237,-175.5 2237,-175.5 2231,-175.5 2225,-169.5 2225,-163.5 2225,-163.5 2225,-118.5 2225,-118.5 2225,-112.5 2231,-106.5 2237,-106.5"/>
<text text-anchor="middle" x="2305" y="-160.3" font-family="Times,serif" font-size="14.00">MOVi32imm</text>
<polyline fill="none" stroke="black" points="2225,-152.5 2385,-152.5 "/>
<text text-anchor="middle" x="2265" y="-137.3" font-family="Times,serif" font-size="14.00">&#45;121.000</text>
<polyline fill="none" stroke="black" points="2225,-129.5 2305,-129.5 "/>
<text text-anchor="middle" x="2265" y="-114.3" font-family="Times,serif" font-size="14.00">1</text>
<polyline fill="none" stroke="black" points="2305,-106.5 2305,-152.5 "/>
<text text-anchor="middle" x="2345" y="-125.8" font-family="Times,serif" font-size="14.00">&#45;121.000</text>
</g>
<!-- 4004055268270297877&#45;&gt;&#45;5590978556645952259 -->
<g id="edge30" class="edge">
<title>4004055268270297877&#45;&gt;&#45;5590978556645952259</title>
<path fill="none" stroke="black" d="M2305,-212.23C2305,-203.79 2305,-194.62 2305,-185.77"/>
<polygon fill="black" stroke="black" points="2308.5,-185.6 2305,-175.6 2301.5,-185.6 2308.5,-185.6"/>
</g>
<!-- 6924725004398953310 -->
<g id="node32" class="node">
<title>6924725004398953310</title>
<path fill="none" stroke="black" d="M2415,-106.5C2415,-106.5 2551,-106.5 2551,-106.5 2557,-106.5 2563,-112.5 2563,-118.5 2563,-118.5 2563,-163.5 2563,-163.5 2563,-169.5 2557,-175.5 2551,-175.5 2551,-175.5 2415,-175.5 2415,-175.5 2409,-175.5 2403,-169.5 2403,-163.5 2403,-163.5 2403,-118.5 2403,-118.5 2403,-112.5 2409,-106.5 2415,-106.5"/>
<text text-anchor="middle" x="2483" y="-160.3" font-family="Times,serif" font-size="14.00">ADDXrr</text>
<polyline fill="none" stroke="black" points="2403,-152.5 2563,-152.5 "/>
<text text-anchor="middle" x="2443" y="-137.3" font-family="Times,serif" font-size="14.00">&#45;112.000</text>
<polyline fill="none" stroke="black" points="2403,-129.5 2483,-129.5 "/>
<text text-anchor="middle" x="2443" y="-114.3" font-family="Times,serif" font-size="14.00">1</text>
<polyline fill="none" stroke="black" points="2483,-106.5 2483,-152.5 "/>
<text text-anchor="middle" x="2523" y="-125.8" font-family="Times,serif" font-size="14.00">&#45;112.000</text>
</g>
<!-- 4004055268270297877&#45;&gt;6924725004398953310 -->
<g id="edge31" class="edge">
<title>4004055268270297877&#45;&gt;6924725004398953310</title>
<path fill="none" stroke="black" d="M2362.79,-212.23C2379.91,-202.23 2398.79,-191.2 2416.41,-180.91"/>
<polygon fill="black" stroke="black" points="2418.63,-183.66 2425.5,-175.6 2415.1,-177.62 2418.63,-183.66"/>
</g>
<!-- &#45;5007580072841630932 -->
<g id="node30" class="node">
<title>&#45;5007580072841630932</title>
<path fill="none" stroke="black" d="M2593,-106.5C2593,-106.5 2729,-106.5 2729,-106.5 2735,-106.5 2741,-112.5 2741,-118.5 2741,-118.5 2741,-163.5 2741,-163.5 2741,-169.5 2735,-175.5 2729,-175.5 2729,-175.5 2593,-175.5 2593,-175.5 2587,-175.5 2581,-169.5 2581,-163.5 2581,-163.5 2581,-118.5 2581,-118.5 2581,-112.5 2587,-106.5 2593,-106.5"/>
<text text-anchor="middle" x="2661" y="-160.3" font-family="Times,serif" font-size="14.00">MOVi32imm</text>
<polyline fill="none" stroke="black" points="2581,-152.5 2741,-152.5 "/>
<text text-anchor="middle" x="2621" y="-137.3" font-family="Times,serif" font-size="14.00">&#45;243.000</text>
<polyline fill="none" stroke="black" points="2581,-129.5 2661,-129.5 "/>
<text text-anchor="middle" x="2621" y="-114.3" font-family="Times,serif" font-size="14.00">2</text>
<polyline fill="none" stroke="black" points="2661,-106.5 2661,-152.5 "/>
<text text-anchor="middle" x="2701" y="-125.8" font-family="Times,serif" font-size="14.00">&#45;121.500</text>
</g>
<!-- 2856450699926469542&#45;&gt;&#45;5007580072841630932 -->
<g id="edge29" class="edge">
<title>2856450699926469542&#45;&gt;&#45;5007580072841630932</title>
<path fill="none" stroke="black" d="M2600.9,-212.23C2608.75,-203.06 2617.34,-193.02 2625.51,-183.47"/>
<polygon fill="black" stroke="black" points="2628.41,-185.47 2632.25,-175.6 2623.09,-180.92 2628.41,-185.47"/>
</g>
<!-- &#45;2945324993744836988 -->
<g id="node33" class="node">
<title>&#45;2945324993744836988</title>
<path fill="none" stroke="black" d="M2415,-0.5C2415,-0.5 2551,-0.5 2551,-0.5 2557,-0.5 2563,-6.5 2563,-12.5 2563,-12.5 2563,-57.5 2563,-57.5 2563,-63.5 2557,-69.5 2551,-69.5 2551,-69.5 2415,-69.5 2415,-69.5 2409,-69.5 2403,-63.5 2403,-57.5 2403,-57.5 2403,-12.5 2403,-12.5 2403,-6.5 2409,-0.5 2415,-0.5"/>
<text text-anchor="middle" x="2483" y="-54.3" font-family="Times,serif" font-size="14.00">ADDXri</text>
<polyline fill="none" stroke="black" points="2403,-46.5 2563,-46.5 "/>
<text text-anchor="middle" x="2443" y="-31.3" font-family="Times,serif" font-size="14.00">&#45;112.000</text>
<polyline fill="none" stroke="black" points="2403,-23.5 2483,-23.5 "/>
<text text-anchor="middle" x="2443" y="-8.3" font-family="Times,serif" font-size="14.00">1</text>
<polyline fill="none" stroke="black" points="2483,-0.5 2483,-46.5 "/>
<text text-anchor="middle" x="2523" y="-19.8" font-family="Times,serif" font-size="14.00">&#45;112.000</text>
</g>
<!-- 6924725004398953310&#45;&gt;&#45;2945324993744836988 -->
<g id="edge32" class="edge">
<title>6924725004398953310&#45;&gt;&#45;2945324993744836988</title>
<path fill="none" stroke="black" d="M2483,-106.23C2483,-97.79 2483,-88.62 2483,-79.77"/>
<polygon fill="black" stroke="black" points="2486.5,-79.6 2483,-69.6 2479.5,-79.6 2486.5,-79.6"/>
</g>
</g>
</svg>
