<?xml version="1.0" encoding="UTF-8" standalone="no"?>
<!DOCTYPE svg PUBLIC "-//W3C//DTD SVG 1.1//EN"
 "http://www.w3.org/Graphics/SVG/1.1/DTD/svg11.dtd">
<!-- Generated by graphviz version 2.43.0 (0)
 -->
<!-- Title: MCTS Tree\nmcts/1.0/tree.svg Pages: 1 -->
<svg width="346pt" height="290pt"
 viewBox="0.00 0.00 346.00 290.00" xmlns="http://www.w3.org/2000/svg" xmlns:xlink="http://www.w3.org/1999/xlink">
<g id="graph0" class="graph" transform="scale(1 1) rotate(0) translate(4 286)">
<title>MCTS Tree\nmcts/1.0/tree.svg</title>
<polygon fill="white" stroke="transparent" points="-4,4 -4,-286 342,-286 342,4 -4,4"/>
<!-- 0 -->
<g id="node1" class="node">
<title>0</title>
<path fill="none" stroke="black" d="M101,-212.5C101,-212.5 237,-212.5 237,-212.5 243,-212.5 249,-218.5 249,-224.5 249,-224.5 249,-269.5 249,-269.5 249,-275.5 243,-281.5 237,-281.5 237,-281.5 101,-281.5 101,-281.5 95,-281.5 89,-275.5 89,-269.5 89,-269.5 89,-224.5 89,-224.5 89,-218.5 95,-212.5 101,-212.5"/>
<text text-anchor="middle" x="169" y="-266.3" font-family="Times,serif" font-size="14.00"> </text>
<polyline fill="none" stroke="black" points="89,-258.5 249,-258.5 "/>
<text text-anchor="middle" x="129" y="-243.3" font-family="Times,serif" font-size="14.00">&#45;223.000</text>
<polyline fill="none" stroke="black" points="89,-235.5 169,-235.5 "/>
<text text-anchor="middle" x="129" y="-220.3" font-family="Times,serif" font-size="14.00">2</text>
<polyline fill="none" stroke="black" points="169,-212.5 169,-258.5 "/>
<text text-anchor="middle" x="209" y="-231.8" font-family="Times,serif" font-size="14.00">&#45;111.500</text>
</g>
<!-- 5532906353399041609 -->
<g id="node2" class="node">
<title>5532906353399041609</title>
<path fill="none" stroke="black" d="M12,-106.5C12,-106.5 148,-106.5 148,-106.5 154,-106.5 160,-112.5 160,-118.5 160,-118.5 160,-163.5 160,-163.5 160,-169.5 154,-175.5 148,-175.5 148,-175.5 12,-175.5 12,-175.5 6,-175.5 0,-169.5 0,-163.5 0,-163.5 0,-118.5 0,-118.5 0,-112.5 6,-106.5 12,-106.5"/>
<text text-anchor="middle" x="80" y="-160.3" font-family="Times,serif" font-size="14.00">ADDXri</text>
<polyline fill="none" stroke="black" points="0,-152.5 160,-152.5 "/>
<text text-anchor="middle" x="40" y="-137.3" font-family="Times,serif" font-size="14.00">&#45;102.000</text>
<polyline fill="none" stroke="black" points="0,-129.5 80,-129.5 "/>
<text text-anchor="middle" x="40" y="-114.3" font-family="Times,serif" font-size="14.00">1</text>
<polyline fill="none" stroke="black" points="80,-106.5 80,-152.5 "/>
<text text-anchor="middle" x="120" y="-125.8" font-family="Times,serif" font-size="14.00">&#45;102.000</text>
</g>
<!-- 0&#45;&gt;5532906353399041609 -->
<g id="edge1" class="edge">
<title>0&#45;&gt;5532906353399041609</title>
<path fill="none" stroke="black" d="M140.1,-212.23C132.25,-203.06 123.66,-193.02 115.49,-183.47"/>
<polygon fill="black" stroke="black" points="117.91,-180.92 108.75,-175.6 112.59,-185.47 117.91,-180.92"/>
</g>
<!-- &#45;6851534936229594970 -->
<g id="node3" class="node">
<title>&#45;6851534936229594970</title>
<path fill="none" stroke="black" d="M190,-106.5C190,-106.5 326,-106.5 326,-106.5 332,-106.5 338,-112.5 338,-118.5 338,-118.5 338,-163.5 338,-163.5 338,-169.5 332,-175.5 326,-175.5 326,-175.5 190,-175.5 190,-175.5 184,-175.5 178,-169.5 178,-163.5 178,-163.5 178,-118.5 178,-118.5 178,-112.5 184,-106.5 190,-106.5"/>
<text text-anchor="middle" x="258" y="-160.3" font-family="Times,serif" font-size="14.00">MOVaddr</text>
<polyline fill="none" stroke="black" points="178,-152.5 338,-152.5 "/>
<text text-anchor="middle" x="218" y="-137.3" font-family="Times,serif" font-size="14.00">&#45;121.000</text>
<polyline fill="none" stroke="black" points="178,-129.5 258,-129.5 "/>
<text text-anchor="middle" x="218" y="-114.3" font-family="Times,serif" font-size="14.00">1</text>
<polyline fill="none" stroke="black" points="258,-106.5 258,-152.5 "/>
<text text-anchor="middle" x="298" y="-125.8" font-family="Times,serif" font-size="14.00">&#45;121.000</text>
</g>
<!-- 0&#45;&gt;&#45;6851534936229594970 -->
<g id="edge2" class="edge">
<title>0&#45;&gt;&#45;6851534936229594970</title>
<path fill="none" stroke="black" d="M197.9,-212.23C205.75,-203.06 214.34,-193.02 222.51,-183.47"/>
<polygon fill="black" stroke="black" points="225.41,-185.47 229.25,-175.6 220.09,-180.92 225.41,-185.47"/>
</g>
<!-- &#45;1855878982595233275 -->
<g id="node4" class="node">
<title>&#45;1855878982595233275</title>
<path fill="none" stroke="black" d="M190,-0.5C190,-0.5 326,-0.5 326,-0.5 332,-0.5 338,-6.5 338,-12.5 338,-12.5 338,-57.5 338,-57.5 338,-63.5 332,-69.5 326,-69.5 326,-69.5 190,-69.5 190,-69.5 184,-69.5 178,-63.5 178,-57.5 178,-57.5 178,-12.5 178,-12.5 178,-6.5 184,-0.5 190,-0.5"/>
<text text-anchor="middle" x="258" y="-54.3" font-family="Times,serif" font-size="14.00">UBFMXri</text>
<polyline fill="none" stroke="black" points="178,-46.5 338,-46.5 "/>
<text text-anchor="middle" x="218" y="-31.3" font-family="Times,serif" font-size="14.00">&#45;121.000</text>
<polyline fill="none" stroke="black" points="178,-23.5 258,-23.5 "/>
<text text-anchor="middle" x="218" y="-8.3" font-family="Times,serif" font-size="14.00">1</text>
<polyline fill="none" stroke="black" points="258,-0.5 258,-46.5 "/>
<text text-anchor="middle" x="298" y="-19.8" font-family="Times,serif" font-size="14.00">&#45;121.000</text>
</g>
<!-- &#45;6851534936229594970&#45;&gt;&#45;1855878982595233275 -->
<g id="edge3" class="edge">
<title>&#45;6851534936229594970&#45;&gt;&#45;1855878982595233275</title>
<path fill="none" stroke="black" d="M258,-106.23C258,-97.79 258,-88.62 258,-79.77"/>
<polygon fill="black" stroke="black" points="261.5,-79.6 258,-69.6 254.5,-79.6 261.5,-79.6"/>
</g>
</g>
</svg>
