<?xml version="1.0" encoding="UTF-8" standalone="no"?>
<!DOCTYPE svg PUBLIC "-//W3C//DTD SVG 1.1//EN"
 "http://www.w3.org/Graphics/SVG/1.1/DTD/svg11.dtd">
<!-- Generated by graphviz version 2.43.0 (0)
 -->
<!-- Title: MCTS Tree\nmcts/1.0/tree.svg Pages: 1 -->
<svg width="1058pt" height="396pt"
 viewBox="0.00 0.00 1058.00 396.00" xmlns="http://www.w3.org/2000/svg" xmlns:xlink="http://www.w3.org/1999/xlink">
<g id="graph0" class="graph" transform="scale(1 1) rotate(0) translate(4 392)">
<title>MCTS Tree\nmcts/1.0/tree.svg</title>
<polygon fill="white" stroke="transparent" points="-4,4 -4,-392 1054,-392 1054,4 -4,4"/>
<!-- 0 -->
<g id="node1" class="node">
<title>0</title>
<path fill="none" stroke="black" d="M501,-318.5C501,-318.5 637,-318.5 637,-318.5 643,-318.5 649,-324.5 649,-330.5 649,-330.5 649,-375.5 649,-375.5 649,-381.5 643,-387.5 637,-387.5 637,-387.5 501,-387.5 501,-387.5 495,-387.5 489,-381.5 489,-375.5 489,-375.5 489,-330.5 489,-330.5 489,-324.5 495,-318.5 501,-318.5"/>
<text text-anchor="middle" x="569" y="-372.3" font-family="Times,serif" font-size="14.00"> </text>
<polyline fill="none" stroke="black" points="489,-364.5 649,-364.5 "/>
<text text-anchor="middle" x="529" y="-349.3" font-family="Times,serif" font-size="14.00">&#45;849.000</text>
<polyline fill="none" stroke="black" points="489,-341.5 569,-341.5 "/>
<text text-anchor="middle" x="529" y="-326.3" font-family="Times,serif" font-size="14.00">7</text>
<polyline fill="none" stroke="black" points="569,-318.5 569,-364.5 "/>
<text text-anchor="middle" x="609" y="-337.8" font-family="Times,serif" font-size="14.00">&#45;121.286</text>
</g>
<!-- 6406315134021567074 -->
<g id="node2" class="node">
<title>6406315134021567074</title>
<path fill="none" stroke="black" d="M101,-212.5C101,-212.5 237,-212.5 237,-212.5 243,-212.5 249,-218.5 249,-224.5 249,-224.5 249,-269.5 249,-269.5 249,-275.5 243,-281.5 237,-281.5 237,-281.5 101,-281.5 101,-281.5 95,-281.5 89,-275.5 89,-269.5 89,-269.5 89,-224.5 89,-224.5 89,-218.5 95,-212.5 101,-212.5"/>
<text text-anchor="middle" x="169" y="-266.3" font-family="Times,serif" font-size="14.00">UBFMXri</text>
<polyline fill="none" stroke="black" points="89,-258.5 249,-258.5 "/>
<text text-anchor="middle" x="129" y="-243.3" font-family="Times,serif" font-size="14.00">&#45;122.000</text>
<polyline fill="none" stroke="black" points="89,-235.5 169,-235.5 "/>
<text text-anchor="middle" x="129" y="-220.3" font-family="Times,serif" font-size="14.00">1</text>
<polyline fill="none" stroke="black" points="169,-212.5 169,-258.5 "/>
<text text-anchor="middle" x="209" y="-231.8" font-family="Times,serif" font-size="14.00">&#45;122.000</text>
</g>
<!-- 0&#45;&gt;6406315134021567074 -->
<g id="edge1" class="edge">
<title>0&#45;&gt;6406315134021567074</title>
<path fill="none" stroke="black" d="M488.54,-331.08C422.21,-313.84 328.2,-289.39 259.31,-271.48"/>
<polygon fill="black" stroke="black" points="259.9,-268.02 249.34,-268.89 258.13,-274.79 259.9,-268.02"/>
</g>
<!-- &#45;6383035038909691317 -->
<g id="node3" class="node">
<title>&#45;6383035038909691317</title>
<path fill="none" stroke="black" d="M390,-212.5C390,-212.5 526,-212.5 526,-212.5 532,-212.5 538,-218.5 538,-224.5 538,-224.5 538,-269.5 538,-269.5 538,-275.5 532,-281.5 526,-281.5 526,-281.5 390,-281.5 390,-281.5 384,-281.5 378,-275.5 378,-269.5 378,-269.5 378,-224.5 378,-224.5 378,-218.5 384,-212.5 390,-212.5"/>
<text text-anchor="middle" x="458" y="-266.3" font-family="Times,serif" font-size="14.00">ADDXri</text>
<polyline fill="none" stroke="black" points="378,-258.5 538,-258.5 "/>
<text text-anchor="middle" x="418" y="-243.3" font-family="Times,serif" font-size="14.00">&#45;475.000</text>
<polyline fill="none" stroke="black" points="378,-235.5 458,-235.5 "/>
<text text-anchor="middle" x="418" y="-220.3" font-family="Times,serif" font-size="14.00">4</text>
<polyline fill="none" stroke="black" points="458,-212.5 458,-258.5 "/>
<text text-anchor="middle" x="498" y="-231.8" font-family="Times,serif" font-size="14.00">&#45;118.750</text>
</g>
<!-- 0&#45;&gt;&#45;6383035038909691317 -->
<g id="edge2" class="edge">
<title>0&#45;&gt;&#45;6383035038909691317</title>
<path fill="none" stroke="black" d="M532.96,-318.23C522.88,-308.78 511.81,-298.41 501.35,-288.61"/>
<polygon fill="black" stroke="black" points="503.55,-285.88 493.86,-281.6 498.76,-290.99 503.55,-285.88"/>
</g>
<!-- 5718341923618055555 -->
<g id="node4" class="node">
<title>5718341923618055555</title>
<path fill="none" stroke="black" d="M612,-212.5C612,-212.5 748,-212.5 748,-212.5 754,-212.5 760,-218.5 760,-224.5 760,-224.5 760,-269.5 760,-269.5 760,-275.5 754,-281.5 748,-281.5 748,-281.5 612,-281.5 612,-281.5 606,-281.5 600,-275.5 600,-269.5 600,-269.5 600,-224.5 600,-224.5 600,-218.5 606,-212.5 612,-212.5"/>
<text text-anchor="middle" x="680" y="-266.3" font-family="Times,serif" font-size="14.00">MOVi32imm</text>
<polyline fill="none" stroke="black" points="600,-258.5 760,-258.5 "/>
<text text-anchor="middle" x="640" y="-243.3" font-family="Times,serif" font-size="14.00">&#45;131.000</text>
<polyline fill="none" stroke="black" points="600,-235.5 680,-235.5 "/>
<text text-anchor="middle" x="640" y="-220.3" font-family="Times,serif" font-size="14.00">1</text>
<polyline fill="none" stroke="black" points="680,-212.5 680,-258.5 "/>
<text text-anchor="middle" x="720" y="-231.8" font-family="Times,serif" font-size="14.00">&#45;131.000</text>
</g>
<!-- 0&#45;&gt;5718341923618055555 -->
<g id="edge3" class="edge">
<title>0&#45;&gt;5718341923618055555</title>
<path fill="none" stroke="black" d="M605.04,-318.23C615.12,-308.78 626.19,-298.41 636.65,-288.61"/>
<polygon fill="black" stroke="black" points="639.24,-290.99 644.14,-281.6 634.45,-285.88 639.24,-290.99"/>
</g>
<!-- 6440769211678935252 -->
<g id="node5" class="node">
<title>6440769211678935252</title>
<path fill="none" stroke="black" d="M879,-212.5C879,-212.5 1015,-212.5 1015,-212.5 1021,-212.5 1027,-218.5 1027,-224.5 1027,-224.5 1027,-269.5 1027,-269.5 1027,-275.5 1021,-281.5 1015,-281.5 1015,-281.5 879,-281.5 879,-281.5 873,-281.5 867,-275.5 867,-269.5 867,-269.5 867,-224.5 867,-224.5 867,-218.5 873,-212.5 879,-212.5"/>
<text text-anchor="middle" x="947" y="-266.3" font-family="Times,serif" font-size="14.00">MOVaddr</text>
<polyline fill="none" stroke="black" points="867,-258.5 1027,-258.5 "/>
<text text-anchor="middle" x="907" y="-243.3" font-family="Times,serif" font-size="14.00">&#45;121.000</text>
<polyline fill="none" stroke="black" points="867,-235.5 947,-235.5 "/>
<text text-anchor="middle" x="907" y="-220.3" font-family="Times,serif" font-size="14.00">1</text>
<polyline fill="none" stroke="black" points="947,-212.5 947,-258.5 "/>
<text text-anchor="middle" x="987" y="-231.8" font-family="Times,serif" font-size="14.00">&#45;121.000</text>
</g>
<!-- 0&#45;&gt;6440769211678935252 -->
<g id="edge4" class="edge">
<title>0&#45;&gt;6440769211678935252</title>
<path fill="none" stroke="black" d="M649.16,-329.94C710.05,-313.19 793.81,-290.15 856.99,-272.76"/>
<polygon fill="black" stroke="black" points="858.24,-276.05 866.95,-270.02 856.38,-269.3 858.24,-276.05"/>
</g>
<!-- &#45;4206584510097515281 -->
<g id="node11" class="node">
<title>&#45;4206584510097515281</title>
<path fill="none" stroke="black" d="M12,-106.5C12,-106.5 148,-106.5 148,-106.5 154,-106.5 160,-112.5 160,-118.5 160,-118.5 160,-163.5 160,-163.5 160,-169.5 154,-175.5 148,-175.5 148,-175.5 12,-175.5 12,-175.5 6,-175.5 0,-169.5 0,-163.5 0,-163.5 0,-118.5 0,-118.5 0,-112.5 6,-106.5 12,-106.5"/>
<text text-anchor="middle" x="80" y="-160.3" font-family="Times,serif" font-size="14.00">ADDXri</text>
<polyline fill="none" stroke="black" points="0,-152.5 160,-152.5 "/>
<text text-anchor="middle" x="40" y="-137.3" font-family="Times,serif" font-size="14.00">&#45;122.000</text>
<polyline fill="none" stroke="black" points="0,-129.5 80,-129.5 "/>
<text text-anchor="middle" x="40" y="-114.3" font-family="Times,serif" font-size="14.00">1</text>
<polyline fill="none" stroke="black" points="80,-106.5 80,-152.5 "/>
<text text-anchor="middle" x="120" y="-125.8" font-family="Times,serif" font-size="14.00">&#45;122.000</text>
</g>
<!-- 6406315134021567074&#45;&gt;&#45;4206584510097515281 -->
<g id="edge10" class="edge">
<title>6406315134021567074&#45;&gt;&#45;4206584510097515281</title>
<path fill="none" stroke="black" d="M140.1,-212.23C132.25,-203.06 123.66,-193.02 115.49,-183.47"/>
<polygon fill="black" stroke="black" points="117.91,-180.92 108.75,-175.6 112.59,-185.47 117.91,-180.92"/>
</g>
<!-- &#45;4654573764113397455 -->
<g id="node7" class="node">
<title>&#45;4654573764113397455</title>
<path fill="none" stroke="black" d="M190,-106.5C190,-106.5 326,-106.5 326,-106.5 332,-106.5 338,-112.5 338,-118.5 338,-118.5 338,-163.5 338,-163.5 338,-169.5 332,-175.5 326,-175.5 326,-175.5 190,-175.5 190,-175.5 184,-175.5 178,-169.5 178,-163.5 178,-163.5 178,-118.5 178,-118.5 178,-112.5 184,-106.5 190,-106.5"/>
<text text-anchor="middle" x="258" y="-160.3" font-family="Times,serif" font-size="14.00">MOVaddr</text>
<polyline fill="none" stroke="black" points="178,-152.5 338,-152.5 "/>
<text text-anchor="middle" x="218" y="-137.3" font-family="Times,serif" font-size="14.00">&#45;131.000</text>
<polyline fill="none" stroke="black" points="178,-129.5 258,-129.5 "/>
<text text-anchor="middle" x="218" y="-114.3" font-family="Times,serif" font-size="14.00">1</text>
<polyline fill="none" stroke="black" points="258,-106.5 258,-152.5 "/>
<text text-anchor="middle" x="298" y="-125.8" font-family="Times,serif" font-size="14.00">&#45;131.000</text>
</g>
<!-- &#45;6383035038909691317&#45;&gt;&#45;4654573764113397455 -->
<g id="edge6" class="edge">
<title>&#45;6383035038909691317&#45;&gt;&#45;4654573764113397455</title>
<path fill="none" stroke="black" d="M393.34,-212.38C373.56,-202.09 351.66,-190.7 331.34,-180.14"/>
<polygon fill="black" stroke="black" points="332.92,-177.01 322.44,-175.51 329.69,-183.23 332.92,-177.01"/>
</g>
<!-- 6918376526707165170 -->
<g id="node8" class="node">
<title>6918376526707165170</title>
<path fill="none" stroke="black" d="M368,-106.5C368,-106.5 504,-106.5 504,-106.5 510,-106.5 516,-112.5 516,-118.5 516,-118.5 516,-163.5 516,-163.5 516,-169.5 510,-175.5 504,-175.5 504,-175.5 368,-175.5 368,-175.5 362,-175.5 356,-169.5 356,-163.5 356,-163.5 356,-118.5 356,-118.5 356,-112.5 362,-106.5 368,-106.5"/>
<text text-anchor="middle" x="436" y="-160.3" font-family="Times,serif" font-size="14.00">SUBSXri</text>
<polyline fill="none" stroke="black" points="356,-152.5 516,-152.5 "/>
<text text-anchor="middle" x="396" y="-137.3" font-family="Times,serif" font-size="14.00">&#45;242.000</text>
<polyline fill="none" stroke="black" points="356,-129.5 436,-129.5 "/>
<text text-anchor="middle" x="396" y="-114.3" font-family="Times,serif" font-size="14.00">2</text>
<polyline fill="none" stroke="black" points="436,-106.5 436,-152.5 "/>
<text text-anchor="middle" x="476" y="-125.8" font-family="Times,serif" font-size="14.00">&#45;121.000</text>
</g>
<!-- &#45;6383035038909691317&#45;&gt;6918376526707165170 -->
<g id="edge7" class="edge">
<title>&#45;6383035038909691317&#45;&gt;6918376526707165170</title>
<path fill="none" stroke="black" d="M450.86,-212.23C449.05,-203.7 447.09,-194.42 445.2,-185.48"/>
<polygon fill="black" stroke="black" points="448.6,-184.66 443.11,-175.6 441.75,-186.1 448.6,-184.66"/>
</g>
<!-- 5633286878478869980 -->
<g id="node9" class="node">
<title>5633286878478869980</title>
<path fill="none" stroke="black" d="M546,-106.5C546,-106.5 682,-106.5 682,-106.5 688,-106.5 694,-112.5 694,-118.5 694,-118.5 694,-163.5 694,-163.5 694,-169.5 688,-175.5 682,-175.5 682,-175.5 546,-175.5 546,-175.5 540,-175.5 534,-169.5 534,-163.5 534,-163.5 534,-118.5 534,-118.5 534,-112.5 540,-106.5 546,-106.5"/>
<text text-anchor="middle" x="614" y="-160.3" font-family="Times,serif" font-size="14.00">ADDXri</text>
<polyline fill="none" stroke="black" points="534,-152.5 694,-152.5 "/>
<text text-anchor="middle" x="574" y="-137.3" font-family="Times,serif" font-size="14.00">&#45;102.000</text>
<polyline fill="none" stroke="black" points="534,-129.5 614,-129.5 "/>
<text text-anchor="middle" x="574" y="-114.3" font-family="Times,serif" font-size="14.00">1</text>
<polyline fill="none" stroke="black" points="614,-106.5 614,-152.5 "/>
<text text-anchor="middle" x="654" y="-125.8" font-family="Times,serif" font-size="14.00">&#45;102.000</text>
</g>
<!-- &#45;6383035038909691317&#45;&gt;5633286878478869980 -->
<g id="edge8" class="edge">
<title>&#45;6383035038909691317&#45;&gt;5633286878478869980</title>
<path fill="none" stroke="black" d="M508.65,-212.23C523.51,-202.33 539.89,-191.41 555.22,-181.19"/>
<polygon fill="black" stroke="black" points="557.23,-184.06 563.61,-175.6 553.34,-178.23 557.23,-184.06"/>
</g>
<!-- 208316428736500818 -->
<g id="node10" class="node">
<title>208316428736500818</title>
<path fill="none" stroke="black" d="M724,-106.5C724,-106.5 860,-106.5 860,-106.5 866,-106.5 872,-112.5 872,-118.5 872,-118.5 872,-163.5 872,-163.5 872,-169.5 866,-175.5 860,-175.5 860,-175.5 724,-175.5 724,-175.5 718,-175.5 712,-169.5 712,-163.5 712,-163.5 712,-118.5 712,-118.5 712,-112.5 718,-106.5 724,-106.5"/>
<text text-anchor="middle" x="792" y="-160.3" font-family="Times,serif" font-size="14.00">ADDXri</text>
<polyline fill="none" stroke="black" points="712,-152.5 872,-152.5 "/>
<text text-anchor="middle" x="752" y="-137.3" font-family="Times,serif" font-size="14.00">&#45;131.000</text>
<polyline fill="none" stroke="black" points="712,-129.5 792,-129.5 "/>
<text text-anchor="middle" x="752" y="-114.3" font-family="Times,serif" font-size="14.00">1</text>
<polyline fill="none" stroke="black" points="792,-106.5 792,-152.5 "/>
<text text-anchor="middle" x="832" y="-125.8" font-family="Times,serif" font-size="14.00">&#45;131.000</text>
</g>
<!-- 5718341923618055555&#45;&gt;208316428736500818 -->
<g id="edge9" class="edge">
<title>5718341923618055555&#45;&gt;208316428736500818</title>
<path fill="none" stroke="black" d="M716.36,-212.23C726.54,-202.78 737.71,-192.41 748.26,-182.61"/>
<polygon fill="black" stroke="black" points="750.87,-184.97 755.82,-175.6 746.11,-179.84 750.87,-184.97"/>
</g>
<!-- &#45;1398825515419624115 -->
<g id="node6" class="node">
<title>&#45;1398825515419624115</title>
<path fill="none" stroke="black" d="M902,-106.5C902,-106.5 1038,-106.5 1038,-106.5 1044,-106.5 1050,-112.5 1050,-118.5 1050,-118.5 1050,-163.5 1050,-163.5 1050,-169.5 1044,-175.5 1038,-175.5 1038,-175.5 902,-175.5 902,-175.5 896,-175.5 890,-169.5 890,-163.5 890,-163.5 890,-118.5 890,-118.5 890,-112.5 896,-106.5 902,-106.5"/>
<text text-anchor="middle" x="970" y="-160.3" font-family="Times,serif" font-size="14.00">UBFMXri</text>
<polyline fill="none" stroke="black" points="890,-152.5 1050,-152.5 "/>
<text text-anchor="middle" x="930" y="-137.3" font-family="Times,serif" font-size="14.00">&#45;121.000</text>
<polyline fill="none" stroke="black" points="890,-129.5 970,-129.5 "/>
<text text-anchor="middle" x="930" y="-114.3" font-family="Times,serif" font-size="14.00">1</text>
<polyline fill="none" stroke="black" points="970,-106.5 970,-152.5 "/>
<text text-anchor="middle" x="1010" y="-125.8" font-family="Times,serif" font-size="14.00">&#45;121.000</text>
</g>
<!-- 6440769211678935252&#45;&gt;&#45;1398825515419624115 -->
<g id="edge5" class="edge">
<title>6440769211678935252&#45;&gt;&#45;1398825515419624115</title>
<path fill="none" stroke="black" d="M954.47,-212.23C956.35,-203.7 958.41,-194.42 960.38,-185.48"/>
<polygon fill="black" stroke="black" points="963.83,-186.12 962.57,-175.6 956.99,-184.6 963.83,-186.12"/>
</g>
<!-- &#45;7905523009061291027 -->
<g id="node14" class="node">
<title>&#45;7905523009061291027</title>
<path fill="none" stroke="black" d="M190,-0.5C190,-0.5 326,-0.5 326,-0.5 332,-0.5 338,-6.5 338,-12.5 338,-12.5 338,-57.5 338,-57.5 338,-63.5 332,-69.5 326,-69.5 326,-69.5 190,-69.5 190,-69.5 184,-69.5 178,-63.5 178,-57.5 178,-57.5 178,-12.5 178,-12.5 178,-6.5 184,-0.5 190,-0.5"/>
<text text-anchor="middle" x="258" y="-54.3" font-family="Times,serif" font-size="14.00">ADDXri</text>
<polyline fill="none" stroke="black" points="178,-46.5 338,-46.5 "/>
<text text-anchor="middle" x="218" y="-31.3" font-family="Times,serif" font-size="14.00">&#45;131.000</text>
<polyline fill="none" stroke="black" points="178,-23.5 258,-23.5 "/>
<text text-anchor="middle" x="218" y="-8.3" font-family="Times,serif" font-size="14.00">1</text>
<polyline fill="none" stroke="black" points="258,-0.5 258,-46.5 "/>
<text text-anchor="middle" x="298" y="-19.8" font-family="Times,serif" font-size="14.00">&#45;131.000</text>
</g>
<!-- &#45;4654573764113397455&#45;&gt;&#45;7905523009061291027 -->
<g id="edge13" class="edge">
<title>&#45;4654573764113397455&#45;&gt;&#45;7905523009061291027</title>
<path fill="none" stroke="black" d="M258,-106.23C258,-97.79 258,-88.62 258,-79.77"/>
<polygon fill="black" stroke="black" points="261.5,-79.6 258,-69.6 254.5,-79.6 261.5,-79.6"/>
</g>
<!-- &#45;2383940386771698655 -->
<g id="node12" class="node">
<title>&#45;2383940386771698655</title>
<path fill="none" stroke="black" d="M368,-0.5C368,-0.5 504,-0.5 504,-0.5 510,-0.5 516,-6.5 516,-12.5 516,-12.5 516,-57.5 516,-57.5 516,-63.5 510,-69.5 504,-69.5 504,-69.5 368,-69.5 368,-69.5 362,-69.5 356,-63.5 356,-57.5 356,-57.5 356,-12.5 356,-12.5 356,-6.5 362,-0.5 368,-0.5"/>
<text text-anchor="middle" x="436" y="-54.3" font-family="Times,serif" font-size="14.00">MOVaddr</text>
<polyline fill="none" stroke="black" points="356,-46.5 516,-46.5 "/>
<text text-anchor="middle" x="396" y="-31.3" font-family="Times,serif" font-size="14.00">&#45;121.000</text>
<polyline fill="none" stroke="black" points="356,-23.5 436,-23.5 "/>
<text text-anchor="middle" x="396" y="-8.3" font-family="Times,serif" font-size="14.00">1</text>
<polyline fill="none" stroke="black" points="436,-0.5 436,-46.5 "/>
<text text-anchor="middle" x="476" y="-19.8" font-family="Times,serif" font-size="14.00">&#45;121.000</text>
</g>
<!-- 6918376526707165170&#45;&gt;&#45;2383940386771698655 -->
<g id="edge11" class="edge">
<title>6918376526707165170&#45;&gt;&#45;2383940386771698655</title>
<path fill="none" stroke="black" d="M436,-106.23C436,-97.79 436,-88.62 436,-79.77"/>
<polygon fill="black" stroke="black" points="439.5,-79.6 436,-69.6 432.5,-79.6 439.5,-79.6"/>
</g>
<!-- 7227292113102728185 -->
<g id="node13" class="node">
<title>7227292113102728185</title>
<path fill="none" stroke="black" d="M546,-0.5C546,-0.5 682,-0.5 682,-0.5 688,-0.5 694,-6.5 694,-12.5 694,-12.5 694,-57.5 694,-57.5 694,-63.5 688,-69.5 682,-69.5 682,-69.5 546,-69.5 546,-69.5 540,-69.5 534,-63.5 534,-57.5 534,-57.5 534,-12.5 534,-12.5 534,-6.5 540,-0.5 546,-0.5"/>
<text text-anchor="middle" x="614" y="-54.3" font-family="Times,serif" font-size="14.00">MOVi32imm</text>
<polyline fill="none" stroke="black" points="534,-46.5 694,-46.5 "/>
<text text-anchor="middle" x="574" y="-31.3" font-family="Times,serif" font-size="14.00">&#45;121.000</text>
<polyline fill="none" stroke="black" points="534,-23.5 614,-23.5 "/>
<text text-anchor="middle" x="574" y="-8.3" font-family="Times,serif" font-size="14.00">1</text>
<polyline fill="none" stroke="black" points="614,-0.5 614,-46.5 "/>
<text text-anchor="middle" x="654" y="-19.8" font-family="Times,serif" font-size="14.00">&#45;121.000</text>
</g>
<!-- 6918376526707165170&#45;&gt;7227292113102728185 -->
<g id="edge12" class="edge">
<title>6918376526707165170&#45;&gt;7227292113102728185</title>
<path fill="none" stroke="black" d="M493.79,-106.23C510.91,-96.23 529.79,-85.2 547.41,-74.91"/>
<polygon fill="black" stroke="black" points="549.63,-77.66 556.5,-69.6 546.1,-71.62 549.63,-77.66"/>
</g>
</g>
</svg>
