<?xml version="1.0" encoding="UTF-8" standalone="no"?>
<!DOCTYPE svg PUBLIC "-//W3C//DTD SVG 1.1//EN"
 "http://www.w3.org/Graphics/SVG/1.1/DTD/svg11.dtd">
<!-- Generated by graphviz version 2.43.0 (0)
 -->
<!-- Title: MCTS Tree\nmcts/1.0/tree.svg Pages: 1 -->
<svg width="1592pt" height="396pt"
 viewBox="0.00 0.00 1592.00 396.00" xmlns="http://www.w3.org/2000/svg" xmlns:xlink="http://www.w3.org/1999/xlink">
<g id="graph0" class="graph" transform="scale(1 1) rotate(0) translate(4 392)">
<title>MCTS Tree\nmcts/1.0/tree.svg</title>
<polygon fill="white" stroke="transparent" points="-4,4 -4,-392 1588,-392 1588,4 -4,4"/>
<!-- 0 -->
<g id="node1" class="node">
<title>0</title>
<path fill="none" stroke="black" d="M274.5,-318.5C274.5,-318.5 419.5,-318.5 419.5,-318.5 425.5,-318.5 431.5,-324.5 431.5,-330.5 431.5,-330.5 431.5,-375.5 431.5,-375.5 431.5,-381.5 425.5,-387.5 419.5,-387.5 419.5,-387.5 274.5,-387.5 274.5,-387.5 268.5,-387.5 262.5,-381.5 262.5,-375.5 262.5,-375.5 262.5,-330.5 262.5,-330.5 262.5,-324.5 268.5,-318.5 274.5,-318.5"/>
<text text-anchor="middle" x="347" y="-372.3" font-family="Times,serif" font-size="14.00"> </text>
<polyline fill="none" stroke="black" points="262.5,-364.5 431.5,-364.5 "/>
<text text-anchor="middle" x="307" y="-349.3" font-family="Times,serif" font-size="14.00">&#45;1101.000</text>
<polyline fill="none" stroke="black" points="262.5,-341.5 351.5,-341.5 "/>
<text text-anchor="middle" x="307" y="-326.3" font-family="Times,serif" font-size="14.00">9</text>
<polyline fill="none" stroke="black" points="351.5,-318.5 351.5,-364.5 "/>
<text text-anchor="middle" x="391.5" y="-337.8" font-family="Times,serif" font-size="14.00">&#45;122.333</text>
</g>
<!-- &#45;6231211807220273720 -->
<g id="node2" class="node">
<title>&#45;6231211807220273720</title>
<path fill="none" stroke="black" d="M12,-212.5C12,-212.5 148,-212.5 148,-212.5 154,-212.5 160,-218.5 160,-224.5 160,-224.5 160,-269.5 160,-269.5 160,-275.5 154,-281.5 148,-281.5 148,-281.5 12,-281.5 12,-281.5 6,-281.5 0,-275.5 0,-269.5 0,-269.5 0,-224.5 0,-224.5 0,-218.5 6,-212.5 12,-212.5"/>
<text text-anchor="middle" x="80" y="-266.3" font-family="Times,serif" font-size="14.00">UBFMXri</text>
<polyline fill="none" stroke="black" points="0,-258.5 160,-258.5 "/>
<text text-anchor="middle" x="40" y="-243.3" font-family="Times,serif" font-size="14.00">&#45;122.000</text>
<polyline fill="none" stroke="black" points="0,-235.5 80,-235.5 "/>
<text text-anchor="middle" x="40" y="-220.3" font-family="Times,serif" font-size="14.00">1</text>
<polyline fill="none" stroke="black" points="80,-212.5 80,-258.5 "/>
<text text-anchor="middle" x="120" y="-231.8" font-family="Times,serif" font-size="14.00">&#45;122.000</text>
</g>
<!-- 0&#45;&gt;&#45;6231211807220273720 -->
<g id="edge1" class="edge">
<title>0&#45;&gt;&#45;6231211807220273720</title>
<path fill="none" stroke="black" d="M262.15,-318.95C232.67,-307.47 199.51,-294.55 169.65,-282.92"/>
<polygon fill="black" stroke="black" points="170.67,-279.56 160.08,-279.19 168.13,-286.08 170.67,-279.56"/>
</g>
<!-- &#45;2682627675465260806 -->
<g id="node3" class="node">
<title>&#45;2682627675465260806</title>
<path fill="none" stroke="black" d="M190,-212.5C190,-212.5 326,-212.5 326,-212.5 332,-212.5 338,-218.5 338,-224.5 338,-224.5 338,-269.5 338,-269.5 338,-275.5 332,-281.5 326,-281.5 326,-281.5 190,-281.5 190,-281.5 184,-281.5 178,-275.5 178,-269.5 178,-269.5 178,-224.5 178,-224.5 178,-218.5 184,-212.5 190,-212.5"/>
<text text-anchor="middle" x="258" y="-266.3" font-family="Times,serif" font-size="14.00">MOVi32imm</text>
<polyline fill="none" stroke="black" points="178,-258.5 338,-258.5 "/>
<text text-anchor="middle" x="218" y="-243.3" font-family="Times,serif" font-size="14.00">&#45;131.000</text>
<polyline fill="none" stroke="black" points="178,-235.5 258,-235.5 "/>
<text text-anchor="middle" x="218" y="-220.3" font-family="Times,serif" font-size="14.00">1</text>
<polyline fill="none" stroke="black" points="258,-212.5 258,-258.5 "/>
<text text-anchor="middle" x="298" y="-231.8" font-family="Times,serif" font-size="14.00">&#45;131.000</text>
</g>
<!-- 0&#45;&gt;&#45;2682627675465260806 -->
<g id="edge2" class="edge">
<title>0&#45;&gt;&#45;2682627675465260806</title>
<path fill="none" stroke="black" d="M318.1,-318.23C310.25,-309.06 301.66,-299.02 293.49,-289.47"/>
<polygon fill="black" stroke="black" points="295.91,-286.92 286.75,-281.6 290.59,-291.47 295.91,-286.92"/>
</g>
<!-- 4831903506831481310 -->
<g id="node4" class="node">
<title>4831903506831481310</title>
<path fill="none" stroke="black" d="M368,-212.5C368,-212.5 504,-212.5 504,-212.5 510,-212.5 516,-218.5 516,-224.5 516,-224.5 516,-269.5 516,-269.5 516,-275.5 510,-281.5 504,-281.5 504,-281.5 368,-281.5 368,-281.5 362,-281.5 356,-275.5 356,-269.5 356,-269.5 356,-224.5 356,-224.5 356,-218.5 362,-212.5 368,-212.5"/>
<text text-anchor="middle" x="436" y="-266.3" font-family="Times,serif" font-size="14.00">MOVaddr</text>
<polyline fill="none" stroke="black" points="356,-258.5 516,-258.5 "/>
<text text-anchor="middle" x="396" y="-243.3" font-family="Times,serif" font-size="14.00">&#45;121.000</text>
<polyline fill="none" stroke="black" points="356,-235.5 436,-235.5 "/>
<text text-anchor="middle" x="396" y="-220.3" font-family="Times,serif" font-size="14.00">1</text>
<polyline fill="none" stroke="black" points="436,-212.5 436,-258.5 "/>
<text text-anchor="middle" x="476" y="-231.8" font-family="Times,serif" font-size="14.00">&#45;121.000</text>
</g>
<!-- 0&#45;&gt;4831903506831481310 -->
<g id="edge3" class="edge">
<title>0&#45;&gt;4831903506831481310</title>
<path fill="none" stroke="black" d="M375.9,-318.23C383.75,-309.06 392.34,-299.02 400.51,-289.47"/>
<polygon fill="black" stroke="black" points="403.41,-291.47 407.25,-281.6 398.09,-286.92 403.41,-291.47"/>
</g>
<!-- &#45;6262293253594408200 -->
<g id="node5" class="node">
<title>&#45;6262293253594408200</title>
<path fill="none" stroke="black" d="M724,-212.5C724,-212.5 860,-212.5 860,-212.5 866,-212.5 872,-218.5 872,-224.5 872,-224.5 872,-269.5 872,-269.5 872,-275.5 866,-281.5 860,-281.5 860,-281.5 724,-281.5 724,-281.5 718,-281.5 712,-275.5 712,-269.5 712,-269.5 712,-224.5 712,-224.5 712,-218.5 718,-212.5 724,-212.5"/>
<text text-anchor="middle" x="792" y="-266.3" font-family="Times,serif" font-size="14.00">ADDXri</text>
<polyline fill="none" stroke="black" points="712,-258.5 872,-258.5 "/>
<text text-anchor="middle" x="752" y="-243.3" font-family="Times,serif" font-size="14.00">&#45;727.000</text>
<polyline fill="none" stroke="black" points="712,-235.5 792,-235.5 "/>
<text text-anchor="middle" x="752" y="-220.3" font-family="Times,serif" font-size="14.00">6</text>
<polyline fill="none" stroke="black" points="792,-212.5 792,-258.5 "/>
<text text-anchor="middle" x="832" y="-231.8" font-family="Times,serif" font-size="14.00">&#45;121.167</text>
</g>
<!-- 0&#45;&gt;&#45;6262293253594408200 -->
<g id="edge4" class="edge">
<title>0&#45;&gt;&#45;6262293253594408200</title>
<path fill="none" stroke="black" d="M431.75,-332.19C509.01,-314.14 622.82,-287.54 701.75,-269.09"/>
<polygon fill="black" stroke="black" points="702.75,-272.45 711.69,-266.77 701.15,-265.64 702.75,-272.45"/>
</g>
<!-- 1589372575793299722 -->
<g id="node12" class="node">
<title>1589372575793299722</title>
<path fill="none" stroke="black" d="M12,-106.5C12,-106.5 148,-106.5 148,-106.5 154,-106.5 160,-112.5 160,-118.5 160,-118.5 160,-163.5 160,-163.5 160,-169.5 154,-175.5 148,-175.5 148,-175.5 12,-175.5 12,-175.5 6,-175.5 0,-169.5 0,-163.5 0,-163.5 0,-118.5 0,-118.5 0,-112.5 6,-106.5 12,-106.5"/>
<text text-anchor="middle" x="80" y="-160.3" font-family="Times,serif" font-size="14.00">ADDXri</text>
<polyline fill="none" stroke="black" points="0,-152.5 160,-152.5 "/>
<text text-anchor="middle" x="40" y="-137.3" font-family="Times,serif" font-size="14.00">&#45;122.000</text>
<polyline fill="none" stroke="black" points="0,-129.5 80,-129.5 "/>
<text text-anchor="middle" x="40" y="-114.3" font-family="Times,serif" font-size="14.00">1</text>
<polyline fill="none" stroke="black" points="80,-106.5 80,-152.5 "/>
<text text-anchor="middle" x="120" y="-125.8" font-family="Times,serif" font-size="14.00">&#45;122.000</text>
</g>
<!-- &#45;6231211807220273720&#45;&gt;1589372575793299722 -->
<g id="edge11" class="edge">
<title>&#45;6231211807220273720&#45;&gt;1589372575793299722</title>
<path fill="none" stroke="black" d="M80,-212.23C80,-203.79 80,-194.62 80,-185.77"/>
<polygon fill="black" stroke="black" points="83.5,-185.6 80,-175.6 76.5,-185.6 83.5,-185.6"/>
</g>
<!-- &#45;7595860599647683833 -->
<g id="node11" class="node">
<title>&#45;7595860599647683833</title>
<path fill="none" stroke="black" d="M190,-106.5C190,-106.5 326,-106.5 326,-106.5 332,-106.5 338,-112.5 338,-118.5 338,-118.5 338,-163.5 338,-163.5 338,-169.5 332,-175.5 326,-175.5 326,-175.5 190,-175.5 190,-175.5 184,-175.5 178,-169.5 178,-163.5 178,-163.5 178,-118.5 178,-118.5 178,-112.5 184,-106.5 190,-106.5"/>
<text text-anchor="middle" x="258" y="-160.3" font-family="Times,serif" font-size="14.00">ADDXri</text>
<polyline fill="none" stroke="black" points="178,-152.5 338,-152.5 "/>
<text text-anchor="middle" x="218" y="-137.3" font-family="Times,serif" font-size="14.00">&#45;131.000</text>
<polyline fill="none" stroke="black" points="178,-129.5 258,-129.5 "/>
<text text-anchor="middle" x="218" y="-114.3" font-family="Times,serif" font-size="14.00">1</text>
<polyline fill="none" stroke="black" points="258,-106.5 258,-152.5 "/>
<text text-anchor="middle" x="298" y="-125.8" font-family="Times,serif" font-size="14.00">&#45;131.000</text>
</g>
<!-- &#45;2682627675465260806&#45;&gt;&#45;7595860599647683833 -->
<g id="edge10" class="edge">
<title>&#45;2682627675465260806&#45;&gt;&#45;7595860599647683833</title>
<path fill="none" stroke="black" d="M258,-212.23C258,-203.79 258,-194.62 258,-185.77"/>
<polygon fill="black" stroke="black" points="261.5,-185.6 258,-175.6 254.5,-185.6 261.5,-185.6"/>
</g>
<!-- &#45;2754067019723941971 -->
<g id="node6" class="node">
<title>&#45;2754067019723941971</title>
<path fill="none" stroke="black" d="M368,-106.5C368,-106.5 504,-106.5 504,-106.5 510,-106.5 516,-112.5 516,-118.5 516,-118.5 516,-163.5 516,-163.5 516,-169.5 510,-175.5 504,-175.5 504,-175.5 368,-175.5 368,-175.5 362,-175.5 356,-169.5 356,-163.5 356,-163.5 356,-118.5 356,-118.5 356,-112.5 362,-106.5 368,-106.5"/>
<text text-anchor="middle" x="436" y="-160.3" font-family="Times,serif" font-size="14.00">UBFMXri</text>
<polyline fill="none" stroke="black" points="356,-152.5 516,-152.5 "/>
<text text-anchor="middle" x="396" y="-137.3" font-family="Times,serif" font-size="14.00">&#45;121.000</text>
<polyline fill="none" stroke="black" points="356,-129.5 436,-129.5 "/>
<text text-anchor="middle" x="396" y="-114.3" font-family="Times,serif" font-size="14.00">1</text>
<polyline fill="none" stroke="black" points="436,-106.5 436,-152.5 "/>
<text text-anchor="middle" x="476" y="-125.8" font-family="Times,serif" font-size="14.00">&#45;121.000</text>
</g>
<!-- 4831903506831481310&#45;&gt;&#45;2754067019723941971 -->
<g id="edge5" class="edge">
<title>4831903506831481310&#45;&gt;&#45;2754067019723941971</title>
<path fill="none" stroke="black" d="M436,-212.23C436,-203.79 436,-194.62 436,-185.77"/>
<polygon fill="black" stroke="black" points="439.5,-185.6 436,-175.6 432.5,-185.6 439.5,-185.6"/>
</g>
<!-- 291351216265646208 -->
<g id="node7" class="node">
<title>291351216265646208</title>
<path fill="none" stroke="black" d="M546,-106.5C546,-106.5 682,-106.5 682,-106.5 688,-106.5 694,-112.5 694,-118.5 694,-118.5 694,-163.5 694,-163.5 694,-169.5 688,-175.5 682,-175.5 682,-175.5 546,-175.5 546,-175.5 540,-175.5 534,-169.5 534,-163.5 534,-163.5 534,-118.5 534,-118.5 534,-112.5 540,-106.5 546,-106.5"/>
<text text-anchor="middle" x="614" y="-160.3" font-family="Times,serif" font-size="14.00">MOVaddr</text>
<polyline fill="none" stroke="black" points="534,-152.5 694,-152.5 "/>
<text text-anchor="middle" x="574" y="-137.3" font-family="Times,serif" font-size="14.00">&#45;131.000</text>
<polyline fill="none" stroke="black" points="534,-129.5 614,-129.5 "/>
<text text-anchor="middle" x="574" y="-114.3" font-family="Times,serif" font-size="14.00">1</text>
<polyline fill="none" stroke="black" points="614,-106.5 614,-152.5 "/>
<text text-anchor="middle" x="654" y="-125.8" font-family="Times,serif" font-size="14.00">&#45;131.000</text>
</g>
<!-- &#45;6262293253594408200&#45;&gt;291351216265646208 -->
<g id="edge6" class="edge">
<title>&#45;6262293253594408200&#45;&gt;291351216265646208</title>
<path fill="none" stroke="black" d="M734.21,-212.23C717.09,-202.23 698.21,-191.2 680.59,-180.91"/>
<polygon fill="black" stroke="black" points="681.9,-177.62 671.5,-175.6 678.37,-183.66 681.9,-177.62"/>
</g>
<!-- &#45;1355556062150875358 -->
<g id="node8" class="node">
<title>&#45;1355556062150875358</title>
<path fill="none" stroke="black" d="M724,-106.5C724,-106.5 860,-106.5 860,-106.5 866,-106.5 872,-112.5 872,-118.5 872,-118.5 872,-163.5 872,-163.5 872,-169.5 866,-175.5 860,-175.5 860,-175.5 724,-175.5 724,-175.5 718,-175.5 712,-169.5 712,-163.5 712,-163.5 712,-118.5 712,-118.5 712,-112.5 718,-106.5 724,-106.5"/>
<text text-anchor="middle" x="792" y="-160.3" font-family="Times,serif" font-size="14.00">UBFMXri</text>
<polyline fill="none" stroke="black" points="712,-152.5 872,-152.5 "/>
<text text-anchor="middle" x="752" y="-137.3" font-family="Times,serif" font-size="14.00">&#45;121.000</text>
<polyline fill="none" stroke="black" points="712,-129.5 792,-129.5 "/>
<text text-anchor="middle" x="752" y="-114.3" font-family="Times,serif" font-size="14.00">1</text>
<polyline fill="none" stroke="black" points="792,-106.5 792,-152.5 "/>
<text text-anchor="middle" x="832" y="-125.8" font-family="Times,serif" font-size="14.00">&#45;121.000</text>
</g>
<!-- &#45;6262293253594408200&#45;&gt;&#45;1355556062150875358 -->
<g id="edge7" class="edge">
<title>&#45;6262293253594408200&#45;&gt;&#45;1355556062150875358</title>
<path fill="none" stroke="black" d="M792,-212.23C792,-203.79 792,-194.62 792,-185.77"/>
<polygon fill="black" stroke="black" points="795.5,-185.6 792,-175.6 788.5,-185.6 795.5,-185.6"/>
</g>
<!-- 1039263280140108690 -->
<g id="node9" class="node">
<title>1039263280140108690</title>
<path fill="none" stroke="black" d="M902,-106.5C902,-106.5 1038,-106.5 1038,-106.5 1044,-106.5 1050,-112.5 1050,-118.5 1050,-118.5 1050,-163.5 1050,-163.5 1050,-169.5 1044,-175.5 1038,-175.5 1038,-175.5 902,-175.5 902,-175.5 896,-175.5 890,-169.5 890,-163.5 890,-163.5 890,-118.5 890,-118.5 890,-112.5 896,-106.5 902,-106.5"/>
<text text-anchor="middle" x="970" y="-160.3" font-family="Times,serif" font-size="14.00">ADDXri</text>
<polyline fill="none" stroke="black" points="890,-152.5 1050,-152.5 "/>
<text text-anchor="middle" x="930" y="-137.3" font-family="Times,serif" font-size="14.00">&#45;233.000</text>
<polyline fill="none" stroke="black" points="890,-129.5 970,-129.5 "/>
<text text-anchor="middle" x="930" y="-114.3" font-family="Times,serif" font-size="14.00">2</text>
<polyline fill="none" stroke="black" points="970,-106.5 970,-152.5 "/>
<text text-anchor="middle" x="1010" y="-125.8" font-family="Times,serif" font-size="14.00">&#45;116.500</text>
</g>
<!-- &#45;6262293253594408200&#45;&gt;1039263280140108690 -->
<g id="edge8" class="edge">
<title>&#45;6262293253594408200&#45;&gt;1039263280140108690</title>
<path fill="none" stroke="black" d="M849.79,-212.23C866.91,-202.23 885.79,-191.2 903.41,-180.91"/>
<polygon fill="black" stroke="black" points="905.63,-183.66 912.5,-175.6 902.1,-177.62 905.63,-183.66"/>
</g>
<!-- &#45;6767692467493730637 -->
<g id="node10" class="node">
<title>&#45;6767692467493730637</title>
<path fill="none" stroke="black" d="M1258,-106.5C1258,-106.5 1394,-106.5 1394,-106.5 1400,-106.5 1406,-112.5 1406,-118.5 1406,-118.5 1406,-163.5 1406,-163.5 1406,-169.5 1400,-175.5 1394,-175.5 1394,-175.5 1258,-175.5 1258,-175.5 1252,-175.5 1246,-169.5 1246,-163.5 1246,-163.5 1246,-118.5 1246,-118.5 1246,-112.5 1252,-106.5 1258,-106.5"/>
<text text-anchor="middle" x="1326" y="-160.3" font-family="Times,serif" font-size="14.00">SUBSXri</text>
<polyline fill="none" stroke="black" points="1246,-152.5 1406,-152.5 "/>
<text text-anchor="middle" x="1286" y="-137.3" font-family="Times,serif" font-size="14.00">&#45;242.000</text>
<polyline fill="none" stroke="black" points="1246,-129.5 1326,-129.5 "/>
<text text-anchor="middle" x="1286" y="-114.3" font-family="Times,serif" font-size="14.00">2</text>
<polyline fill="none" stroke="black" points="1326,-106.5 1326,-152.5 "/>
<text text-anchor="middle" x="1366" y="-125.8" font-family="Times,serif" font-size="14.00">&#45;121.000</text>
</g>
<!-- &#45;6262293253594408200&#45;&gt;&#45;6767692467493730637 -->
<g id="edge9" class="edge">
<title>&#45;6262293253594408200&#45;&gt;&#45;6767692467493730637</title>
<path fill="none" stroke="black" d="M872.23,-230.37C969.73,-211.39 1133.78,-179.44 1235.64,-159.6"/>
<polygon fill="black" stroke="black" points="1236.46,-163.01 1245.6,-157.66 1235.12,-156.13 1236.46,-163.01"/>
</g>
<!-- &#45;1318557279401112957 -->
<g id="node15" class="node">
<title>&#45;1318557279401112957</title>
<path fill="none" stroke="black" d="M546,-0.5C546,-0.5 682,-0.5 682,-0.5 688,-0.5 694,-6.5 694,-12.5 694,-12.5 694,-57.5 694,-57.5 694,-63.5 688,-69.5 682,-69.5 682,-69.5 546,-69.5 546,-69.5 540,-69.5 534,-63.5 534,-57.5 534,-57.5 534,-12.5 534,-12.5 534,-6.5 540,-0.5 546,-0.5"/>
<text text-anchor="middle" x="614" y="-54.3" font-family="Times,serif" font-size="14.00">ADDXri</text>
<polyline fill="none" stroke="black" points="534,-46.5 694,-46.5 "/>
<text text-anchor="middle" x="574" y="-31.3" font-family="Times,serif" font-size="14.00">&#45;131.000</text>
<polyline fill="none" stroke="black" points="534,-23.5 614,-23.5 "/>
<text text-anchor="middle" x="574" y="-8.3" font-family="Times,serif" font-size="14.00">1</text>
<polyline fill="none" stroke="black" points="614,-0.5 614,-46.5 "/>
<text text-anchor="middle" x="654" y="-19.8" font-family="Times,serif" font-size="14.00">&#45;131.000</text>
</g>
<!-- 291351216265646208&#45;&gt;&#45;1318557279401112957 -->
<g id="edge14" class="edge">
<title>291351216265646208&#45;&gt;&#45;1318557279401112957</title>
<path fill="none" stroke="black" d="M614,-106.23C614,-97.79 614,-88.62 614,-79.77"/>
<polygon fill="black" stroke="black" points="617.5,-79.6 614,-69.6 610.5,-79.6 617.5,-79.6"/>
</g>
<!-- 4672078238657405292 -->
<g id="node16" class="node">
<title>4672078238657405292</title>
<path fill="none" stroke="black" d="M724,-0.5C724,-0.5 860,-0.5 860,-0.5 866,-0.5 872,-6.5 872,-12.5 872,-12.5 872,-57.5 872,-57.5 872,-63.5 866,-69.5 860,-69.5 860,-69.5 724,-69.5 724,-69.5 718,-69.5 712,-63.5 712,-57.5 712,-57.5 712,-12.5 712,-12.5 712,-6.5 718,-0.5 724,-0.5"/>
<text text-anchor="middle" x="792" y="-54.3" font-family="Times,serif" font-size="14.00">ADDXri</text>
<polyline fill="none" stroke="black" points="712,-46.5 872,-46.5 "/>
<text text-anchor="middle" x="752" y="-31.3" font-family="Times,serif" font-size="14.00">&#45;121.000</text>
<polyline fill="none" stroke="black" points="712,-23.5 792,-23.5 "/>
<text text-anchor="middle" x="752" y="-8.3" font-family="Times,serif" font-size="14.00">1</text>
<polyline fill="none" stroke="black" points="792,-0.5 792,-46.5 "/>
<text text-anchor="middle" x="832" y="-19.8" font-family="Times,serif" font-size="14.00">&#45;121.000</text>
</g>
<!-- &#45;1355556062150875358&#45;&gt;4672078238657405292 -->
<g id="edge15" class="edge">
<title>&#45;1355556062150875358&#45;&gt;4672078238657405292</title>
<path fill="none" stroke="black" d="M792,-106.23C792,-97.79 792,-88.62 792,-79.77"/>
<polygon fill="black" stroke="black" points="795.5,-79.6 792,-69.6 788.5,-79.6 795.5,-79.6"/>
</g>
<!-- &#45;1433350034137259126 -->
<g id="node17" class="node">
<title>&#45;1433350034137259126</title>
<path fill="none" stroke="black" d="M902,-0.5C902,-0.5 1038,-0.5 1038,-0.5 1044,-0.5 1050,-6.5 1050,-12.5 1050,-12.5 1050,-57.5 1050,-57.5 1050,-63.5 1044,-69.5 1038,-69.5 1038,-69.5 902,-69.5 902,-69.5 896,-69.5 890,-63.5 890,-57.5 890,-57.5 890,-12.5 890,-12.5 890,-6.5 896,-0.5 902,-0.5"/>
<text text-anchor="middle" x="970" y="-54.3" font-family="Times,serif" font-size="14.00">MOVi32imm</text>
<polyline fill="none" stroke="black" points="890,-46.5 1050,-46.5 "/>
<text text-anchor="middle" x="930" y="-31.3" font-family="Times,serif" font-size="14.00">&#45;131.000</text>
<polyline fill="none" stroke="black" points="890,-23.5 970,-23.5 "/>
<text text-anchor="middle" x="930" y="-8.3" font-family="Times,serif" font-size="14.00">1</text>
<polyline fill="none" stroke="black" points="970,-0.5 970,-46.5 "/>
<text text-anchor="middle" x="1010" y="-19.8" font-family="Times,serif" font-size="14.00">&#45;131.000</text>
</g>
<!-- 1039263280140108690&#45;&gt;&#45;1433350034137259126 -->
<g id="edge16" class="edge">
<title>1039263280140108690&#45;&gt;&#45;1433350034137259126</title>
<path fill="none" stroke="black" d="M970,-106.23C970,-97.79 970,-88.62 970,-79.77"/>
<polygon fill="black" stroke="black" points="973.5,-79.6 970,-69.6 966.5,-79.6 973.5,-79.6"/>
</g>
<!-- 8120382587805256668 -->
<g id="node18" class="node">
<title>8120382587805256668</title>
<path fill="none" stroke="black" d="M1080,-0.5C1080,-0.5 1216,-0.5 1216,-0.5 1222,-0.5 1228,-6.5 1228,-12.5 1228,-12.5 1228,-57.5 1228,-57.5 1228,-63.5 1222,-69.5 1216,-69.5 1216,-69.5 1080,-69.5 1080,-69.5 1074,-69.5 1068,-63.5 1068,-57.5 1068,-57.5 1068,-12.5 1068,-12.5 1068,-6.5 1074,-0.5 1080,-0.5"/>
<text text-anchor="middle" x="1148" y="-54.3" font-family="Times,serif" font-size="14.00">MOVaddr</text>
<polyline fill="none" stroke="black" points="1068,-46.5 1228,-46.5 "/>
<text text-anchor="middle" x="1108" y="-31.3" font-family="Times,serif" font-size="14.00">&#45;102.000</text>
<polyline fill="none" stroke="black" points="1068,-23.5 1148,-23.5 "/>
<text text-anchor="middle" x="1108" y="-8.3" font-family="Times,serif" font-size="14.00">1</text>
<polyline fill="none" stroke="black" points="1148,-0.5 1148,-46.5 "/>
<text text-anchor="middle" x="1188" y="-19.8" font-family="Times,serif" font-size="14.00">&#45;102.000</text>
</g>
<!-- 1039263280140108690&#45;&gt;8120382587805256668 -->
<g id="edge17" class="edge">
<title>1039263280140108690&#45;&gt;8120382587805256668</title>
<path fill="none" stroke="black" d="M1027.79,-106.23C1044.91,-96.23 1063.79,-85.2 1081.41,-74.91"/>
<polygon fill="black" stroke="black" points="1083.63,-77.66 1090.5,-69.6 1080.1,-71.62 1083.63,-77.66"/>
</g>
<!-- 3441831158215025259 -->
<g id="node13" class="node">
<title>3441831158215025259</title>
<path fill="none" stroke="black" d="M1258,-0.5C1258,-0.5 1394,-0.5 1394,-0.5 1400,-0.5 1406,-6.5 1406,-12.5 1406,-12.5 1406,-57.5 1406,-57.5 1406,-63.5 1400,-69.5 1394,-69.5 1394,-69.5 1258,-69.5 1258,-69.5 1252,-69.5 1246,-63.5 1246,-57.5 1246,-57.5 1246,-12.5 1246,-12.5 1246,-6.5 1252,-0.5 1258,-0.5"/>
<text text-anchor="middle" x="1326" y="-54.3" font-family="Times,serif" font-size="14.00">MOVi32imm</text>
<polyline fill="none" stroke="black" points="1246,-46.5 1406,-46.5 "/>
<text text-anchor="middle" x="1286" y="-31.3" font-family="Times,serif" font-size="14.00">&#45;121.000</text>
<polyline fill="none" stroke="black" points="1246,-23.5 1326,-23.5 "/>
<text text-anchor="middle" x="1286" y="-8.3" font-family="Times,serif" font-size="14.00">1</text>
<polyline fill="none" stroke="black" points="1326,-0.5 1326,-46.5 "/>
<text text-anchor="middle" x="1366" y="-19.8" font-family="Times,serif" font-size="14.00">&#45;121.000</text>
</g>
<!-- &#45;6767692467493730637&#45;&gt;3441831158215025259 -->
<g id="edge12" class="edge">
<title>&#45;6767692467493730637&#45;&gt;3441831158215025259</title>
<path fill="none" stroke="black" d="M1326,-106.23C1326,-97.79 1326,-88.62 1326,-79.77"/>
<polygon fill="black" stroke="black" points="1329.5,-79.6 1326,-69.6 1322.5,-79.6 1329.5,-79.6"/>
</g>
<!-- 4740526353734910253 -->
<g id="node14" class="node">
<title>4740526353734910253</title>
<path fill="none" stroke="black" d="M1436,-0.5C1436,-0.5 1572,-0.5 1572,-0.5 1578,-0.5 1584,-6.5 1584,-12.5 1584,-12.5 1584,-57.5 1584,-57.5 1584,-63.5 1578,-69.5 1572,-69.5 1572,-69.5 1436,-69.5 1436,-69.5 1430,-69.5 1424,-63.5 1424,-57.5 1424,-57.5 1424,-12.5 1424,-12.5 1424,-6.5 1430,-0.5 1436,-0.5"/>
<text text-anchor="middle" x="1504" y="-54.3" font-family="Times,serif" font-size="14.00">MOVaddr</text>
<polyline fill="none" stroke="black" points="1424,-46.5 1584,-46.5 "/>
<text text-anchor="middle" x="1464" y="-31.3" font-family="Times,serif" font-size="14.00">&#45;121.000</text>
<polyline fill="none" stroke="black" points="1424,-23.5 1504,-23.5 "/>
<text text-anchor="middle" x="1464" y="-8.3" font-family="Times,serif" font-size="14.00">1</text>
<polyline fill="none" stroke="black" points="1504,-0.5 1504,-46.5 "/>
<text text-anchor="middle" x="1544" y="-19.8" font-family="Times,serif" font-size="14.00">&#45;121.000</text>
</g>
<!-- &#45;6767692467493730637&#45;&gt;4740526353734910253 -->
<g id="edge13" class="edge">
<title>&#45;6767692467493730637&#45;&gt;4740526353734910253</title>
<path fill="none" stroke="black" d="M1383.79,-106.23C1400.91,-96.23 1419.79,-85.2 1437.41,-74.91"/>
<polygon fill="black" stroke="black" points="1439.63,-77.66 1446.5,-69.6 1436.1,-71.62 1439.63,-77.66"/>
</g>
</g>
</svg>
