<?xml version="1.0" encoding="UTF-8" standalone="no"?>
<!DOCTYPE svg PUBLIC "-//W3C//DTD SVG 1.1//EN"
 "http://www.w3.org/Graphics/SVG/1.1/DTD/svg11.dtd">
<!-- Generated by graphviz version 2.43.0 (0)
 -->
<!-- Title: MCTS Tree\nmcts/1.0/tree.svg Pages: 1 -->
<svg width="1325pt" height="396pt"
 viewBox="0.00 0.00 1325.00 396.00" xmlns="http://www.w3.org/2000/svg" xmlns:xlink="http://www.w3.org/1999/xlink">
<g id="graph0" class="graph" transform="scale(1 1) rotate(0) translate(4 392)">
<title>MCTS Tree\nmcts/1.0/tree.svg</title>
<polygon fill="white" stroke="transparent" points="-4,4 -4,-392 1321,-392 1321,4 -4,4"/>
<!-- 0 -->
<g id="node1" class="node">
<title>0</title>
<path fill="none" stroke="black" d="M902,-318.5C902,-318.5 1038,-318.5 1038,-318.5 1044,-318.5 1050,-324.5 1050,-330.5 1050,-330.5 1050,-375.5 1050,-375.5 1050,-381.5 1044,-387.5 1038,-387.5 1038,-387.5 902,-387.5 902,-387.5 896,-387.5 890,-381.5 890,-375.5 890,-375.5 890,-330.5 890,-330.5 890,-324.5 896,-318.5 902,-318.5"/>
<text text-anchor="middle" x="970" y="-372.3" font-family="Times,serif" font-size="14.00"> </text>
<polyline fill="none" stroke="black" points="890,-364.5 1050,-364.5 "/>
<text text-anchor="middle" x="930" y="-349.3" font-family="Times,serif" font-size="14.00">&#45;970.000</text>
<polyline fill="none" stroke="black" points="890,-341.5 970,-341.5 "/>
<text text-anchor="middle" x="930" y="-326.3" font-family="Times,serif" font-size="14.00">8</text>
<polyline fill="none" stroke="black" points="970,-318.5 970,-364.5 "/>
<text text-anchor="middle" x="1010" y="-337.8" font-family="Times,serif" font-size="14.00">&#45;121.250</text>
</g>
<!-- 936878234231701208 -->
<g id="node2" class="node">
<title>936878234231701208</title>
<path fill="none" stroke="black" d="M457,-212.5C457,-212.5 593,-212.5 593,-212.5 599,-212.5 605,-218.5 605,-224.5 605,-224.5 605,-269.5 605,-269.5 605,-275.5 599,-281.5 593,-281.5 593,-281.5 457,-281.5 457,-281.5 451,-281.5 445,-275.5 445,-269.5 445,-269.5 445,-224.5 445,-224.5 445,-218.5 451,-212.5 457,-212.5"/>
<text text-anchor="middle" x="525" y="-266.3" font-family="Times,serif" font-size="14.00">ADDXri</text>
<polyline fill="none" stroke="black" points="445,-258.5 605,-258.5 "/>
<text text-anchor="middle" x="485" y="-243.3" font-family="Times,serif" font-size="14.00">&#45;596.000</text>
<polyline fill="none" stroke="black" points="445,-235.5 525,-235.5 "/>
<text text-anchor="middle" x="485" y="-220.3" font-family="Times,serif" font-size="14.00">5</text>
<polyline fill="none" stroke="black" points="525,-212.5 525,-258.5 "/>
<text text-anchor="middle" x="565" y="-231.8" font-family="Times,serif" font-size="14.00">&#45;119.200</text>
</g>
<!-- 0&#45;&gt;936878234231701208 -->
<g id="edge1" class="edge">
<title>0&#45;&gt;936878234231701208</title>
<path fill="none" stroke="black" d="M889.93,-333.29C812.66,-315.23 695.85,-287.93 615.31,-269.11"/>
<polygon fill="black" stroke="black" points="615.71,-265.61 605.18,-266.74 614.12,-272.42 615.71,-265.61"/>
</g>
<!-- 4180114333390735121 -->
<g id="node3" class="node">
<title>4180114333390735121</title>
<path fill="none" stroke="black" d="M813,-212.5C813,-212.5 949,-212.5 949,-212.5 955,-212.5 961,-218.5 961,-224.5 961,-224.5 961,-269.5 961,-269.5 961,-275.5 955,-281.5 949,-281.5 949,-281.5 813,-281.5 813,-281.5 807,-281.5 801,-275.5 801,-269.5 801,-269.5 801,-224.5 801,-224.5 801,-218.5 807,-212.5 813,-212.5"/>
<text text-anchor="middle" x="881" y="-266.3" font-family="Times,serif" font-size="14.00">MOVaddr</text>
<polyline fill="none" stroke="black" points="801,-258.5 961,-258.5 "/>
<text text-anchor="middle" x="841" y="-243.3" font-family="Times,serif" font-size="14.00">&#45;121.000</text>
<polyline fill="none" stroke="black" points="801,-235.5 881,-235.5 "/>
<text text-anchor="middle" x="841" y="-220.3" font-family="Times,serif" font-size="14.00">1</text>
<polyline fill="none" stroke="black" points="881,-212.5 881,-258.5 "/>
<text text-anchor="middle" x="921" y="-231.8" font-family="Times,serif" font-size="14.00">&#45;121.000</text>
</g>
<!-- 0&#45;&gt;4180114333390735121 -->
<g id="edge2" class="edge">
<title>0&#45;&gt;4180114333390735121</title>
<path fill="none" stroke="black" d="M941.1,-318.23C933.25,-309.06 924.66,-299.02 916.49,-289.47"/>
<polygon fill="black" stroke="black" points="918.91,-286.92 909.75,-281.6 913.59,-291.47 918.91,-286.92"/>
</g>
<!-- 7684186074857986051 -->
<g id="node4" class="node">
<title>7684186074857986051</title>
<path fill="none" stroke="black" d="M991,-212.5C991,-212.5 1127,-212.5 1127,-212.5 1133,-212.5 1139,-218.5 1139,-224.5 1139,-224.5 1139,-269.5 1139,-269.5 1139,-275.5 1133,-281.5 1127,-281.5 1127,-281.5 991,-281.5 991,-281.5 985,-281.5 979,-275.5 979,-269.5 979,-269.5 979,-224.5 979,-224.5 979,-218.5 985,-212.5 991,-212.5"/>
<text text-anchor="middle" x="1059" y="-266.3" font-family="Times,serif" font-size="14.00">MOVi32imm</text>
<polyline fill="none" stroke="black" points="979,-258.5 1139,-258.5 "/>
<text text-anchor="middle" x="1019" y="-243.3" font-family="Times,serif" font-size="14.00">&#45;131.000</text>
<polyline fill="none" stroke="black" points="979,-235.5 1059,-235.5 "/>
<text text-anchor="middle" x="1019" y="-220.3" font-family="Times,serif" font-size="14.00">1</text>
<polyline fill="none" stroke="black" points="1059,-212.5 1059,-258.5 "/>
<text text-anchor="middle" x="1099" y="-231.8" font-family="Times,serif" font-size="14.00">&#45;131.000</text>
</g>
<!-- 0&#45;&gt;7684186074857986051 -->
<g id="edge3" class="edge">
<title>0&#45;&gt;7684186074857986051</title>
<path fill="none" stroke="black" d="M998.9,-318.23C1006.75,-309.06 1015.34,-299.02 1023.51,-289.47"/>
<polygon fill="black" stroke="black" points="1026.41,-291.47 1030.25,-281.6 1021.09,-286.92 1026.41,-291.47"/>
</g>
<!-- &#45;7432224897934492297 -->
<g id="node5" class="node">
<title>&#45;7432224897934492297</title>
<path fill="none" stroke="black" d="M1169,-212.5C1169,-212.5 1305,-212.5 1305,-212.5 1311,-212.5 1317,-218.5 1317,-224.5 1317,-224.5 1317,-269.5 1317,-269.5 1317,-275.5 1311,-281.5 1305,-281.5 1305,-281.5 1169,-281.5 1169,-281.5 1163,-281.5 1157,-275.5 1157,-269.5 1157,-269.5 1157,-224.5 1157,-224.5 1157,-218.5 1163,-212.5 1169,-212.5"/>
<text text-anchor="middle" x="1237" y="-266.3" font-family="Times,serif" font-size="14.00">UBFMXri</text>
<polyline fill="none" stroke="black" points="1157,-258.5 1317,-258.5 "/>
<text text-anchor="middle" x="1197" y="-243.3" font-family="Times,serif" font-size="14.00">&#45;122.000</text>
<polyline fill="none" stroke="black" points="1157,-235.5 1237,-235.5 "/>
<text text-anchor="middle" x="1197" y="-220.3" font-family="Times,serif" font-size="14.00">1</text>
<polyline fill="none" stroke="black" points="1237,-212.5 1237,-258.5 "/>
<text text-anchor="middle" x="1277" y="-231.8" font-family="Times,serif" font-size="14.00">&#45;122.000</text>
</g>
<!-- 0&#45;&gt;&#45;7432224897934492297 -->
<g id="edge4" class="edge">
<title>0&#45;&gt;&#45;7432224897934492297</title>
<path fill="none" stroke="black" d="M1050.11,-320.8C1080.73,-308.87 1115.85,-295.19 1147.31,-282.94"/>
<polygon fill="black" stroke="black" points="1148.9,-286.07 1156.95,-279.18 1146.36,-279.55 1148.9,-286.07"/>
</g>
<!-- &#45;3394062606731097595 -->
<g id="node7" class="node">
<title>&#45;3394062606731097595</title>
<path fill="none" stroke="black" d="M101,-106.5C101,-106.5 237,-106.5 237,-106.5 243,-106.5 249,-112.5 249,-118.5 249,-118.5 249,-163.5 249,-163.5 249,-169.5 243,-175.5 237,-175.5 237,-175.5 101,-175.5 101,-175.5 95,-175.5 89,-169.5 89,-163.5 89,-163.5 89,-118.5 89,-118.5 89,-112.5 95,-106.5 101,-106.5"/>
<text text-anchor="middle" x="169" y="-160.3" font-family="Times,serif" font-size="14.00">SUBSXri</text>
<polyline fill="none" stroke="black" points="89,-152.5 249,-152.5 "/>
<text text-anchor="middle" x="129" y="-137.3" font-family="Times,serif" font-size="14.00">&#45;242.000</text>
<polyline fill="none" stroke="black" points="89,-129.5 169,-129.5 "/>
<text text-anchor="middle" x="129" y="-114.3" font-family="Times,serif" font-size="14.00">2</text>
<polyline fill="none" stroke="black" points="169,-106.5 169,-152.5 "/>
<text text-anchor="middle" x="209" y="-125.8" font-family="Times,serif" font-size="14.00">&#45;121.000</text>
</g>
<!-- 936878234231701208&#45;&gt;&#45;3394062606731097595 -->
<g id="edge6" class="edge">
<title>936878234231701208&#45;&gt;&#45;3394062606731097595</title>
<path fill="none" stroke="black" d="M444.9,-227.41C394.03,-215.04 326.71,-197.65 259.33,-176.33"/>
<polygon fill="black" stroke="black" points="259.98,-172.87 249.39,-173.16 257.85,-179.53 259.98,-172.87"/>
</g>
<!-- &#45;7131455547371939348 -->
<g id="node8" class="node">
<title>&#45;7131455547371939348</title>
<path fill="none" stroke="black" d="M279,-106.5C279,-106.5 415,-106.5 415,-106.5 421,-106.5 427,-112.5 427,-118.5 427,-118.5 427,-163.5 427,-163.5 427,-169.5 421,-175.5 415,-175.5 415,-175.5 279,-175.5 279,-175.5 273,-175.5 267,-169.5 267,-163.5 267,-163.5 267,-118.5 267,-118.5 267,-112.5 273,-106.5 279,-106.5"/>
<text text-anchor="middle" x="347" y="-160.3" font-family="Times,serif" font-size="14.00">ADDXri</text>
<polyline fill="none" stroke="black" points="267,-152.5 427,-152.5 "/>
<text text-anchor="middle" x="307" y="-137.3" font-family="Times,serif" font-size="14.00">&#45;102.000</text>
<polyline fill="none" stroke="black" points="267,-129.5 347,-129.5 "/>
<text text-anchor="middle" x="307" y="-114.3" font-family="Times,serif" font-size="14.00">1</text>
<polyline fill="none" stroke="black" points="347,-106.5 347,-152.5 "/>
<text text-anchor="middle" x="387" y="-125.8" font-family="Times,serif" font-size="14.00">&#45;102.000</text>
</g>
<!-- 936878234231701208&#45;&gt;&#45;7131455547371939348 -->
<g id="edge7" class="edge">
<title>936878234231701208&#45;&gt;&#45;7131455547371939348</title>
<path fill="none" stroke="black" d="M467.21,-212.23C450.09,-202.23 431.21,-191.2 413.59,-180.91"/>
<polygon fill="black" stroke="black" points="414.9,-177.62 404.5,-175.6 411.37,-183.66 414.9,-177.62"/>
</g>
<!-- &#45;3627351078187610820 -->
<g id="node9" class="node">
<title>&#45;3627351078187610820</title>
<path fill="none" stroke="black" d="M457,-106.5C457,-106.5 593,-106.5 593,-106.5 599,-106.5 605,-112.5 605,-118.5 605,-118.5 605,-163.5 605,-163.5 605,-169.5 599,-175.5 593,-175.5 593,-175.5 457,-175.5 457,-175.5 451,-175.5 445,-169.5 445,-163.5 445,-163.5 445,-118.5 445,-118.5 445,-112.5 451,-106.5 457,-106.5"/>
<text text-anchor="middle" x="525" y="-160.3" font-family="Times,serif" font-size="14.00">MOVaddr</text>
<polyline fill="none" stroke="black" points="445,-152.5 605,-152.5 "/>
<text text-anchor="middle" x="485" y="-137.3" font-family="Times,serif" font-size="14.00">&#45;131.000</text>
<polyline fill="none" stroke="black" points="445,-129.5 525,-129.5 "/>
<text text-anchor="middle" x="485" y="-114.3" font-family="Times,serif" font-size="14.00">1</text>
<polyline fill="none" stroke="black" points="525,-106.5 525,-152.5 "/>
<text text-anchor="middle" x="565" y="-125.8" font-family="Times,serif" font-size="14.00">&#45;131.000</text>
</g>
<!-- 936878234231701208&#45;&gt;&#45;3627351078187610820 -->
<g id="edge8" class="edge">
<title>936878234231701208&#45;&gt;&#45;3627351078187610820</title>
<path fill="none" stroke="black" d="M525,-212.23C525,-203.79 525,-194.62 525,-185.77"/>
<polygon fill="black" stroke="black" points="528.5,-185.6 525,-175.6 521.5,-185.6 528.5,-185.6"/>
</g>
<!-- &#45;7116244018521018659 -->
<g id="node10" class="node">
<title>&#45;7116244018521018659</title>
<path fill="none" stroke="black" d="M635,-106.5C635,-106.5 771,-106.5 771,-106.5 777,-106.5 783,-112.5 783,-118.5 783,-118.5 783,-163.5 783,-163.5 783,-169.5 777,-175.5 771,-175.5 771,-175.5 635,-175.5 635,-175.5 629,-175.5 623,-169.5 623,-163.5 623,-163.5 623,-118.5 623,-118.5 623,-112.5 629,-106.5 635,-106.5"/>
<text text-anchor="middle" x="703" y="-160.3" font-family="Times,serif" font-size="14.00">UBFMXri</text>
<polyline fill="none" stroke="black" points="623,-152.5 783,-152.5 "/>
<text text-anchor="middle" x="663" y="-137.3" font-family="Times,serif" font-size="14.00">&#45;121.000</text>
<polyline fill="none" stroke="black" points="623,-129.5 703,-129.5 "/>
<text text-anchor="middle" x="663" y="-114.3" font-family="Times,serif" font-size="14.00">1</text>
<polyline fill="none" stroke="black" points="703,-106.5 703,-152.5 "/>
<text text-anchor="middle" x="743" y="-125.8" font-family="Times,serif" font-size="14.00">&#45;121.000</text>
</g>
<!-- 936878234231701208&#45;&gt;&#45;7116244018521018659 -->
<g id="edge9" class="edge">
<title>936878234231701208&#45;&gt;&#45;7116244018521018659</title>
<path fill="none" stroke="black" d="M582.79,-212.23C599.91,-202.23 618.79,-191.2 636.41,-180.91"/>
<polygon fill="black" stroke="black" points="638.63,-183.66 645.5,-175.6 635.1,-177.62 638.63,-183.66"/>
</g>
<!-- &#45;4046759260003674456 -->
<g id="node6" class="node">
<title>&#45;4046759260003674456</title>
<path fill="none" stroke="black" d="M813,-106.5C813,-106.5 949,-106.5 949,-106.5 955,-106.5 961,-112.5 961,-118.5 961,-118.5 961,-163.5 961,-163.5 961,-169.5 955,-175.5 949,-175.5 949,-175.5 813,-175.5 813,-175.5 807,-175.5 801,-169.5 801,-163.5 801,-163.5 801,-118.5 801,-118.5 801,-112.5 807,-106.5 813,-106.5"/>
<text text-anchor="middle" x="881" y="-160.3" font-family="Times,serif" font-size="14.00">UBFMXri</text>
<polyline fill="none" stroke="black" points="801,-152.5 961,-152.5 "/>
<text text-anchor="middle" x="841" y="-137.3" font-family="Times,serif" font-size="14.00">&#45;121.000</text>
<polyline fill="none" stroke="black" points="801,-129.5 881,-129.5 "/>
<text text-anchor="middle" x="841" y="-114.3" font-family="Times,serif" font-size="14.00">1</text>
<polyline fill="none" stroke="black" points="881,-106.5 881,-152.5 "/>
<text text-anchor="middle" x="921" y="-125.8" font-family="Times,serif" font-size="14.00">&#45;121.000</text>
</g>
<!-- 4180114333390735121&#45;&gt;&#45;4046759260003674456 -->
<g id="edge5" class="edge">
<title>4180114333390735121&#45;&gt;&#45;4046759260003674456</title>
<path fill="none" stroke="black" d="M881,-212.23C881,-203.79 881,-194.62 881,-185.77"/>
<polygon fill="black" stroke="black" points="884.5,-185.6 881,-175.6 877.5,-185.6 884.5,-185.6"/>
</g>
<!-- 4753969576490489205 -->
<g id="node11" class="node">
<title>4753969576490489205</title>
<path fill="none" stroke="black" d="M991,-106.5C991,-106.5 1127,-106.5 1127,-106.5 1133,-106.5 1139,-112.5 1139,-118.5 1139,-118.5 1139,-163.5 1139,-163.5 1139,-169.5 1133,-175.5 1127,-175.5 1127,-175.5 991,-175.5 991,-175.5 985,-175.5 979,-169.5 979,-163.5 979,-163.5 979,-118.5 979,-118.5 979,-112.5 985,-106.5 991,-106.5"/>
<text text-anchor="middle" x="1059" y="-160.3" font-family="Times,serif" font-size="14.00">ADDXri</text>
<polyline fill="none" stroke="black" points="979,-152.5 1139,-152.5 "/>
<text text-anchor="middle" x="1019" y="-137.3" font-family="Times,serif" font-size="14.00">&#45;131.000</text>
<polyline fill="none" stroke="black" points="979,-129.5 1059,-129.5 "/>
<text text-anchor="middle" x="1019" y="-114.3" font-family="Times,serif" font-size="14.00">1</text>
<polyline fill="none" stroke="black" points="1059,-106.5 1059,-152.5 "/>
<text text-anchor="middle" x="1099" y="-125.8" font-family="Times,serif" font-size="14.00">&#45;131.000</text>
</g>
<!-- 7684186074857986051&#45;&gt;4753969576490489205 -->
<g id="edge10" class="edge">
<title>7684186074857986051&#45;&gt;4753969576490489205</title>
<path fill="none" stroke="black" d="M1059,-212.23C1059,-203.79 1059,-194.62 1059,-185.77"/>
<polygon fill="black" stroke="black" points="1062.5,-185.6 1059,-175.6 1055.5,-185.6 1062.5,-185.6"/>
</g>
<!-- 2804684796998159040 -->
<g id="node12" class="node">
<title>2804684796998159040</title>
<path fill="none" stroke="black" d="M1169,-106.5C1169,-106.5 1305,-106.5 1305,-106.5 1311,-106.5 1317,-112.5 1317,-118.5 1317,-118.5 1317,-163.5 1317,-163.5 1317,-169.5 1311,-175.5 1305,-175.5 1305,-175.5 1169,-175.5 1169,-175.5 1163,-175.5 1157,-169.5 1157,-163.5 1157,-163.5 1157,-118.5 1157,-118.5 1157,-112.5 1163,-106.5 1169,-106.5"/>
<text text-anchor="middle" x="1237" y="-160.3" font-family="Times,serif" font-size="14.00">ADDXri</text>
<polyline fill="none" stroke="black" points="1157,-152.5 1317,-152.5 "/>
<text text-anchor="middle" x="1197" y="-137.3" font-family="Times,serif" font-size="14.00">&#45;122.000</text>
<polyline fill="none" stroke="black" points="1157,-129.5 1237,-129.5 "/>
<text text-anchor="middle" x="1197" y="-114.3" font-family="Times,serif" font-size="14.00">1</text>
<polyline fill="none" stroke="black" points="1237,-106.5 1237,-152.5 "/>
<text text-anchor="middle" x="1277" y="-125.8" font-family="Times,serif" font-size="14.00">&#45;122.000</text>
</g>
<!-- &#45;7432224897934492297&#45;&gt;2804684796998159040 -->
<g id="edge11" class="edge">
<title>&#45;7432224897934492297&#45;&gt;2804684796998159040</title>
<path fill="none" stroke="black" d="M1237,-212.23C1237,-203.79 1237,-194.62 1237,-185.77"/>
<polygon fill="black" stroke="black" points="1240.5,-185.6 1237,-175.6 1233.5,-185.6 1240.5,-185.6"/>
</g>
<!-- &#45;2614837626518260831 -->
<g id="node13" class="node">
<title>&#45;2614837626518260831</title>
<path fill="none" stroke="black" d="M12,-0.5C12,-0.5 148,-0.5 148,-0.5 154,-0.5 160,-6.5 160,-12.5 160,-12.5 160,-57.5 160,-57.5 160,-63.5 154,-69.5 148,-69.5 148,-69.5 12,-69.5 12,-69.5 6,-69.5 0,-63.5 0,-57.5 0,-57.5 0,-12.5 0,-12.5 0,-6.5 6,-0.5 12,-0.5"/>
<text text-anchor="middle" x="80" y="-54.3" font-family="Times,serif" font-size="14.00">MOVi32imm</text>
<polyline fill="none" stroke="black" points="0,-46.5 160,-46.5 "/>
<text text-anchor="middle" x="40" y="-31.3" font-family="Times,serif" font-size="14.00">&#45;121.000</text>
<polyline fill="none" stroke="black" points="0,-23.5 80,-23.5 "/>
<text text-anchor="middle" x="40" y="-8.3" font-family="Times,serif" font-size="14.00">1</text>
<polyline fill="none" stroke="black" points="80,-0.5 80,-46.5 "/>
<text text-anchor="middle" x="120" y="-19.8" font-family="Times,serif" font-size="14.00">&#45;121.000</text>
</g>
<!-- &#45;3394062606731097595&#45;&gt;&#45;2614837626518260831 -->
<g id="edge12" class="edge">
<title>&#45;3394062606731097595&#45;&gt;&#45;2614837626518260831</title>
<path fill="none" stroke="black" d="M140.1,-106.23C132.25,-97.06 123.66,-87.02 115.49,-77.47"/>
<polygon fill="black" stroke="black" points="117.91,-74.92 108.75,-69.6 112.59,-79.47 117.91,-74.92"/>
</g>
<!-- &#45;1226928026243151923 -->
<g id="node14" class="node">
<title>&#45;1226928026243151923</title>
<path fill="none" stroke="black" d="M190,-0.5C190,-0.5 326,-0.5 326,-0.5 332,-0.5 338,-6.5 338,-12.5 338,-12.5 338,-57.5 338,-57.5 338,-63.5 332,-69.5 326,-69.5 326,-69.5 190,-69.5 190,-69.5 184,-69.5 178,-63.5 178,-57.5 178,-57.5 178,-12.5 178,-12.5 178,-6.5 184,-0.5 190,-0.5"/>
<text text-anchor="middle" x="258" y="-54.3" font-family="Times,serif" font-size="14.00">MOVaddr</text>
<polyline fill="none" stroke="black" points="178,-46.5 338,-46.5 "/>
<text text-anchor="middle" x="218" y="-31.3" font-family="Times,serif" font-size="14.00">&#45;121.000</text>
<polyline fill="none" stroke="black" points="178,-23.5 258,-23.5 "/>
<text text-anchor="middle" x="218" y="-8.3" font-family="Times,serif" font-size="14.00">1</text>
<polyline fill="none" stroke="black" points="258,-0.5 258,-46.5 "/>
<text text-anchor="middle" x="298" y="-19.8" font-family="Times,serif" font-size="14.00">&#45;121.000</text>
</g>
<!-- &#45;3394062606731097595&#45;&gt;&#45;1226928026243151923 -->
<g id="edge13" class="edge">
<title>&#45;3394062606731097595&#45;&gt;&#45;1226928026243151923</title>
<path fill="none" stroke="black" d="M197.9,-106.23C205.75,-97.06 214.34,-87.02 222.51,-77.47"/>
<polygon fill="black" stroke="black" points="225.41,-79.47 229.25,-69.6 220.09,-74.92 225.41,-79.47"/>
</g>
<!-- 5213880938507964816 -->
<g id="node15" class="node">
<title>5213880938507964816</title>
<path fill="none" stroke="black" d="M457,-0.5C457,-0.5 593,-0.5 593,-0.5 599,-0.5 605,-6.5 605,-12.5 605,-12.5 605,-57.5 605,-57.5 605,-63.5 599,-69.5 593,-69.5 593,-69.5 457,-69.5 457,-69.5 451,-69.5 445,-63.5 445,-57.5 445,-57.5 445,-12.5 445,-12.5 445,-6.5 451,-0.5 457,-0.5"/>
<text text-anchor="middle" x="525" y="-54.3" font-family="Times,serif" font-size="14.00">ADDXri</text>
<polyline fill="none" stroke="black" points="445,-46.5 605,-46.5 "/>
<text text-anchor="middle" x="485" y="-31.3" font-family="Times,serif" font-size="14.00">&#45;131.000</text>
<polyline fill="none" stroke="black" points="445,-23.5 525,-23.5 "/>
<text text-anchor="middle" x="485" y="-8.3" font-family="Times,serif" font-size="14.00">1</text>
<polyline fill="none" stroke="black" points="525,-0.5 525,-46.5 "/>
<text text-anchor="middle" x="565" y="-19.8" font-family="Times,serif" font-size="14.00">&#45;131.000</text>
</g>
<!-- &#45;3627351078187610820&#45;&gt;5213880938507964816 -->
<g id="edge14" class="edge">
<title>&#45;3627351078187610820&#45;&gt;5213880938507964816</title>
<path fill="none" stroke="black" d="M525,-106.23C525,-97.79 525,-88.62 525,-79.77"/>
<polygon fill="black" stroke="black" points="528.5,-79.6 525,-69.6 521.5,-79.6 528.5,-79.6"/>
</g>
<!-- &#45;7899167543234468293 -->
<g id="node16" class="node">
<title>&#45;7899167543234468293</title>
<path fill="none" stroke="black" d="M635,-0.5C635,-0.5 771,-0.5 771,-0.5 777,-0.5 783,-6.5 783,-12.5 783,-12.5 783,-57.5 783,-57.5 783,-63.5 777,-69.5 771,-69.5 771,-69.5 635,-69.5 635,-69.5 629,-69.5 623,-63.5 623,-57.5 623,-57.5 623,-12.5 623,-12.5 623,-6.5 629,-0.5 635,-0.5"/>
<text text-anchor="middle" x="703" y="-54.3" font-family="Times,serif" font-size="14.00">ADDXri</text>
<polyline fill="none" stroke="black" points="623,-46.5 783,-46.5 "/>
<text text-anchor="middle" x="663" y="-31.3" font-family="Times,serif" font-size="14.00">&#45;121.000</text>
<polyline fill="none" stroke="black" points="623,-23.5 703,-23.5 "/>
<text text-anchor="middle" x="663" y="-8.3" font-family="Times,serif" font-size="14.00">1</text>
<polyline fill="none" stroke="black" points="703,-0.5 703,-46.5 "/>
<text text-anchor="middle" x="743" y="-19.8" font-family="Times,serif" font-size="14.00">&#45;121.000</text>
</g>
<!-- &#45;7116244018521018659&#45;&gt;&#45;7899167543234468293 -->
<g id="edge15" class="edge">
<title>&#45;7116244018521018659&#45;&gt;&#45;7899167543234468293</title>
<path fill="none" stroke="black" d="M703,-106.23C703,-97.79 703,-88.62 703,-79.77"/>
<polygon fill="black" stroke="black" points="706.5,-79.6 703,-69.6 699.5,-79.6 706.5,-79.6"/>
</g>
</g>
</svg>
