<?xml version="1.0" encoding="UTF-8" standalone="no"?>
<!DOCTYPE svg PUBLIC "-//W3C//DTD SVG 1.1//EN"
 "http://www.w3.org/Graphics/SVG/1.1/DTD/svg11.dtd">
<!-- Generated by graphviz version 2.43.0 (0)
 -->
<!-- Title: MCTS Tree\nmcts/1.0/tree.svg Pages: 1 -->
<svg width="2126pt" height="396pt"
 viewBox="0.00 0.00 2126.00 396.00" xmlns="http://www.w3.org/2000/svg" xmlns:xlink="http://www.w3.org/1999/xlink">
<g id="graph0" class="graph" transform="scale(1 1) rotate(0) translate(4 392)">
<title>MCTS Tree\nmcts/1.0/tree.svg</title>
<polygon fill="white" stroke="transparent" points="-4,4 -4,-392 2122,-392 2122,4 -4,4"/>
<!-- 0 -->
<g id="node1" class="node">
<title>0</title>
<path fill="none" stroke="black" d="M1387.5,-318.5C1387.5,-318.5 1532.5,-318.5 1532.5,-318.5 1538.5,-318.5 1544.5,-324.5 1544.5,-330.5 1544.5,-330.5 1544.5,-375.5 1544.5,-375.5 1544.5,-381.5 1538.5,-387.5 1532.5,-387.5 1532.5,-387.5 1387.5,-387.5 1387.5,-387.5 1381.5,-387.5 1375.5,-381.5 1375.5,-375.5 1375.5,-375.5 1375.5,-330.5 1375.5,-330.5 1375.5,-324.5 1381.5,-318.5 1387.5,-318.5"/>
<text text-anchor="middle" x="1460" y="-372.3" font-family="Times,serif" font-size="14.00"> </text>
<polyline fill="none" stroke="black" points="1375.5,-364.5 1544.5,-364.5 "/>
<text text-anchor="middle" x="1420" y="-349.3" font-family="Times,serif" font-size="14.00">&#45;1597.000</text>
<polyline fill="none" stroke="black" points="1375.5,-341.5 1464.5,-341.5 "/>
<text text-anchor="middle" x="1420" y="-326.3" font-family="Times,serif" font-size="14.00">13</text>
<polyline fill="none" stroke="black" points="1464.5,-318.5 1464.5,-364.5 "/>
<text text-anchor="middle" x="1504.5" y="-337.8" font-family="Times,serif" font-size="14.00">&#45;122.846</text>
</g>
<!-- &#45;7474290340993640056 -->
<g id="node2" class="node">
<title>&#45;7474290340993640056</title>
<path fill="none" stroke="black" d="M724,-212.5C724,-212.5 860,-212.5 860,-212.5 866,-212.5 872,-218.5 872,-224.5 872,-224.5 872,-269.5 872,-269.5 872,-275.5 866,-281.5 860,-281.5 860,-281.5 724,-281.5 724,-281.5 718,-281.5 712,-275.5 712,-269.5 712,-269.5 712,-224.5 712,-224.5 712,-218.5 718,-212.5 724,-212.5"/>
<text text-anchor="middle" x="792" y="-266.3" font-family="Times,serif" font-size="14.00">ADDXri</text>
<polyline fill="none" stroke="black" points="712,-258.5 872,-258.5 "/>
<text text-anchor="middle" x="752" y="-243.3" font-family="Times,serif" font-size="14.00">&#45;727.000</text>
<polyline fill="none" stroke="black" points="712,-235.5 792,-235.5 "/>
<text text-anchor="middle" x="752" y="-220.3" font-family="Times,serif" font-size="14.00">6</text>
<polyline fill="none" stroke="black" points="792,-212.5 792,-258.5 "/>
<text text-anchor="middle" x="832" y="-231.8" font-family="Times,serif" font-size="14.00">&#45;121.167</text>
</g>
<!-- 0&#45;&gt;&#45;7474290340993640056 -->
<g id="edge1" class="edge">
<title>0&#45;&gt;&#45;7474290340993640056</title>
<path fill="none" stroke="black" d="M1375.4,-338.83C1248.88,-319.13 1011.46,-282.17 881.92,-262"/>
<polygon fill="black" stroke="black" points="882.43,-258.54 872.02,-260.46 881.36,-265.45 882.43,-258.54"/>
</g>
<!-- 6259456898336081562 -->
<g id="node3" class="node">
<title>6259456898336081562</title>
<path fill="none" stroke="black" d="M1303,-212.5C1303,-212.5 1439,-212.5 1439,-212.5 1445,-212.5 1451,-218.5 1451,-224.5 1451,-224.5 1451,-269.5 1451,-269.5 1451,-275.5 1445,-281.5 1439,-281.5 1439,-281.5 1303,-281.5 1303,-281.5 1297,-281.5 1291,-275.5 1291,-269.5 1291,-269.5 1291,-224.5 1291,-224.5 1291,-218.5 1297,-212.5 1303,-212.5"/>
<text text-anchor="middle" x="1371" y="-266.3" font-family="Times,serif" font-size="14.00">MOVaddr</text>
<polyline fill="none" stroke="black" points="1291,-258.5 1451,-258.5 "/>
<text text-anchor="middle" x="1331" y="-243.3" font-family="Times,serif" font-size="14.00">&#45;495.000</text>
<polyline fill="none" stroke="black" points="1291,-235.5 1371,-235.5 "/>
<text text-anchor="middle" x="1331" y="-220.3" font-family="Times,serif" font-size="14.00">4</text>
<polyline fill="none" stroke="black" points="1371,-212.5 1371,-258.5 "/>
<text text-anchor="middle" x="1411" y="-231.8" font-family="Times,serif" font-size="14.00">&#45;123.750</text>
</g>
<!-- 0&#45;&gt;6259456898336081562 -->
<g id="edge2" class="edge">
<title>0&#45;&gt;6259456898336081562</title>
<path fill="none" stroke="black" d="M1431.1,-318.23C1423.25,-309.06 1414.66,-299.02 1406.49,-289.47"/>
<polygon fill="black" stroke="black" points="1408.91,-286.92 1399.75,-281.6 1403.59,-291.47 1408.91,-286.92"/>
</g>
<!-- 965258767250752702 -->
<g id="node4" class="node">
<title>965258767250752702</title>
<path fill="none" stroke="black" d="M1570,-212.5C1570,-212.5 1706,-212.5 1706,-212.5 1712,-212.5 1718,-218.5 1718,-224.5 1718,-224.5 1718,-269.5 1718,-269.5 1718,-275.5 1712,-281.5 1706,-281.5 1706,-281.5 1570,-281.5 1570,-281.5 1564,-281.5 1558,-275.5 1558,-269.5 1558,-269.5 1558,-224.5 1558,-224.5 1558,-218.5 1564,-212.5 1570,-212.5"/>
<text text-anchor="middle" x="1638" y="-266.3" font-family="Times,serif" font-size="14.00">MOVi32imm</text>
<polyline fill="none" stroke="black" points="1558,-258.5 1718,-258.5 "/>
<text text-anchor="middle" x="1598" y="-243.3" font-family="Times,serif" font-size="14.00">&#45;131.000</text>
<polyline fill="none" stroke="black" points="1558,-235.5 1638,-235.5 "/>
<text text-anchor="middle" x="1598" y="-220.3" font-family="Times,serif" font-size="14.00">1</text>
<polyline fill="none" stroke="black" points="1638,-212.5 1638,-258.5 "/>
<text text-anchor="middle" x="1678" y="-231.8" font-family="Times,serif" font-size="14.00">&#45;131.000</text>
</g>
<!-- 0&#45;&gt;965258767250752702 -->
<g id="edge3" class="edge">
<title>0&#45;&gt;965258767250752702</title>
<path fill="none" stroke="black" d="M1517.79,-318.23C1534.91,-308.23 1553.79,-297.2 1571.41,-286.91"/>
<polygon fill="black" stroke="black" points="1573.63,-289.66 1580.5,-281.6 1570.1,-283.62 1573.63,-289.66"/>
</g>
<!-- &#45;5824930674912727154 -->
<g id="node5" class="node">
<title>&#45;5824930674912727154</title>
<path fill="none" stroke="black" d="M1792,-212.5C1792,-212.5 1928,-212.5 1928,-212.5 1934,-212.5 1940,-218.5 1940,-224.5 1940,-224.5 1940,-269.5 1940,-269.5 1940,-275.5 1934,-281.5 1928,-281.5 1928,-281.5 1792,-281.5 1792,-281.5 1786,-281.5 1780,-275.5 1780,-269.5 1780,-269.5 1780,-224.5 1780,-224.5 1780,-218.5 1786,-212.5 1792,-212.5"/>
<text text-anchor="middle" x="1860" y="-266.3" font-family="Times,serif" font-size="14.00">UBFMXri</text>
<polyline fill="none" stroke="black" points="1780,-258.5 1940,-258.5 "/>
<text text-anchor="middle" x="1820" y="-243.3" font-family="Times,serif" font-size="14.00">&#45;244.000</text>
<polyline fill="none" stroke="black" points="1780,-235.5 1860,-235.5 "/>
<text text-anchor="middle" x="1820" y="-220.3" font-family="Times,serif" font-size="14.00">2</text>
<polyline fill="none" stroke="black" points="1860,-212.5 1860,-258.5 "/>
<text text-anchor="middle" x="1900" y="-231.8" font-family="Times,serif" font-size="14.00">&#45;122.000</text>
</g>
<!-- 0&#45;&gt;&#45;5824930674912727154 -->
<g id="edge4" class="edge">
<title>0&#45;&gt;&#45;5824930674912727154</title>
<path fill="none" stroke="black" d="M1544.83,-329.94C1610.95,-312.75 1702.55,-288.94 1769.96,-271.41"/>
<polygon fill="black" stroke="black" points="1770.93,-274.78 1779.72,-268.87 1769.16,-268 1770.93,-274.78"/>
</g>
<!-- 279606635724200327 -->
<g id="node9" class="node">
<title>279606635724200327</title>
<path fill="none" stroke="black" d="M190,-106.5C190,-106.5 326,-106.5 326,-106.5 332,-106.5 338,-112.5 338,-118.5 338,-118.5 338,-163.5 338,-163.5 338,-169.5 332,-175.5 326,-175.5 326,-175.5 190,-175.5 190,-175.5 184,-175.5 178,-169.5 178,-163.5 178,-163.5 178,-118.5 178,-118.5 178,-112.5 184,-106.5 190,-106.5"/>
<text text-anchor="middle" x="258" y="-160.3" font-family="Times,serif" font-size="14.00">SUBSXri</text>
<polyline fill="none" stroke="black" points="178,-152.5 338,-152.5 "/>
<text text-anchor="middle" x="218" y="-137.3" font-family="Times,serif" font-size="14.00">&#45;242.000</text>
<polyline fill="none" stroke="black" points="178,-129.5 258,-129.5 "/>
<text text-anchor="middle" x="218" y="-114.3" font-family="Times,serif" font-size="14.00">2</text>
<polyline fill="none" stroke="black" points="258,-106.5 258,-152.5 "/>
<text text-anchor="middle" x="298" y="-125.8" font-family="Times,serif" font-size="14.00">&#45;121.000</text>
</g>
<!-- &#45;7474290340993640056&#45;&gt;279606635724200327 -->
<g id="edge8" class="edge">
<title>&#45;7474290340993640056&#45;&gt;279606635724200327</title>
<path fill="none" stroke="black" d="M711.77,-230.37C614.27,-211.39 450.22,-179.44 348.36,-159.6"/>
<polygon fill="black" stroke="black" points="348.88,-156.13 338.4,-157.66 347.54,-163.01 348.88,-156.13"/>
</g>
<!-- &#45;4394848455096562805 -->
<g id="node10" class="node">
<title>&#45;4394848455096562805</title>
<path fill="none" stroke="black" d="M546,-106.5C546,-106.5 682,-106.5 682,-106.5 688,-106.5 694,-112.5 694,-118.5 694,-118.5 694,-163.5 694,-163.5 694,-169.5 688,-175.5 682,-175.5 682,-175.5 546,-175.5 546,-175.5 540,-175.5 534,-169.5 534,-163.5 534,-163.5 534,-118.5 534,-118.5 534,-112.5 540,-106.5 546,-106.5"/>
<text text-anchor="middle" x="614" y="-160.3" font-family="Times,serif" font-size="14.00">ADDXri</text>
<polyline fill="none" stroke="black" points="534,-152.5 694,-152.5 "/>
<text text-anchor="middle" x="574" y="-137.3" font-family="Times,serif" font-size="14.00">&#45;233.000</text>
<polyline fill="none" stroke="black" points="534,-129.5 614,-129.5 "/>
<text text-anchor="middle" x="574" y="-114.3" font-family="Times,serif" font-size="14.00">2</text>
<polyline fill="none" stroke="black" points="614,-106.5 614,-152.5 "/>
<text text-anchor="middle" x="654" y="-125.8" font-family="Times,serif" font-size="14.00">&#45;116.500</text>
</g>
<!-- &#45;7474290340993640056&#45;&gt;&#45;4394848455096562805 -->
<g id="edge9" class="edge">
<title>&#45;7474290340993640056&#45;&gt;&#45;4394848455096562805</title>
<path fill="none" stroke="black" d="M734.21,-212.23C717.09,-202.23 698.21,-191.2 680.59,-180.91"/>
<polygon fill="black" stroke="black" points="681.9,-177.62 671.5,-175.6 678.37,-183.66 681.9,-177.62"/>
</g>
<!-- 8818071943633219542 -->
<g id="node11" class="node">
<title>8818071943633219542</title>
<path fill="none" stroke="black" d="M724,-106.5C724,-106.5 860,-106.5 860,-106.5 866,-106.5 872,-112.5 872,-118.5 872,-118.5 872,-163.5 872,-163.5 872,-169.5 866,-175.5 860,-175.5 860,-175.5 724,-175.5 724,-175.5 718,-175.5 712,-169.5 712,-163.5 712,-163.5 712,-118.5 712,-118.5 712,-112.5 718,-106.5 724,-106.5"/>
<text text-anchor="middle" x="792" y="-160.3" font-family="Times,serif" font-size="14.00">UBFMXri</text>
<polyline fill="none" stroke="black" points="712,-152.5 872,-152.5 "/>
<text text-anchor="middle" x="752" y="-137.3" font-family="Times,serif" font-size="14.00">&#45;121.000</text>
<polyline fill="none" stroke="black" points="712,-129.5 792,-129.5 "/>
<text text-anchor="middle" x="752" y="-114.3" font-family="Times,serif" font-size="14.00">1</text>
<polyline fill="none" stroke="black" points="792,-106.5 792,-152.5 "/>
<text text-anchor="middle" x="832" y="-125.8" font-family="Times,serif" font-size="14.00">&#45;121.000</text>
</g>
<!-- &#45;7474290340993640056&#45;&gt;8818071943633219542 -->
<g id="edge10" class="edge">
<title>&#45;7474290340993640056&#45;&gt;8818071943633219542</title>
<path fill="none" stroke="black" d="M792,-212.23C792,-203.79 792,-194.62 792,-185.77"/>
<polygon fill="black" stroke="black" points="795.5,-185.6 792,-175.6 788.5,-185.6 795.5,-185.6"/>
</g>
<!-- &#45;923891665051681313 -->
<g id="node12" class="node">
<title>&#45;923891665051681313</title>
<path fill="none" stroke="black" d="M902,-106.5C902,-106.5 1038,-106.5 1038,-106.5 1044,-106.5 1050,-112.5 1050,-118.5 1050,-118.5 1050,-163.5 1050,-163.5 1050,-169.5 1044,-175.5 1038,-175.5 1038,-175.5 902,-175.5 902,-175.5 896,-175.5 890,-169.5 890,-163.5 890,-163.5 890,-118.5 890,-118.5 890,-112.5 896,-106.5 902,-106.5"/>
<text text-anchor="middle" x="970" y="-160.3" font-family="Times,serif" font-size="14.00">MOVaddr</text>
<polyline fill="none" stroke="black" points="890,-152.5 1050,-152.5 "/>
<text text-anchor="middle" x="930" y="-137.3" font-family="Times,serif" font-size="14.00">&#45;131.000</text>
<polyline fill="none" stroke="black" points="890,-129.5 970,-129.5 "/>
<text text-anchor="middle" x="930" y="-114.3" font-family="Times,serif" font-size="14.00">1</text>
<polyline fill="none" stroke="black" points="970,-106.5 970,-152.5 "/>
<text text-anchor="middle" x="1010" y="-125.8" font-family="Times,serif" font-size="14.00">&#45;131.000</text>
</g>
<!-- &#45;7474290340993640056&#45;&gt;&#45;923891665051681313 -->
<g id="edge11" class="edge">
<title>&#45;7474290340993640056&#45;&gt;&#45;923891665051681313</title>
<path fill="none" stroke="black" d="M849.79,-212.23C866.91,-202.23 885.79,-191.2 903.41,-180.91"/>
<polygon fill="black" stroke="black" points="905.63,-183.66 912.5,-175.6 902.1,-177.62 905.63,-183.66"/>
</g>
<!-- 188450112701693980 -->
<g id="node6" class="node">
<title>188450112701693980</title>
<path fill="none" stroke="black" d="M1080,-106.5C1080,-106.5 1216,-106.5 1216,-106.5 1222,-106.5 1228,-112.5 1228,-118.5 1228,-118.5 1228,-163.5 1228,-163.5 1228,-169.5 1222,-175.5 1216,-175.5 1216,-175.5 1080,-175.5 1080,-175.5 1074,-175.5 1068,-169.5 1068,-163.5 1068,-163.5 1068,-118.5 1068,-118.5 1068,-112.5 1074,-106.5 1080,-106.5"/>
<text text-anchor="middle" x="1148" y="-160.3" font-family="Times,serif" font-size="14.00">ADDXri</text>
<polyline fill="none" stroke="black" points="1068,-152.5 1228,-152.5 "/>
<text text-anchor="middle" x="1108" y="-137.3" font-family="Times,serif" font-size="14.00">&#45;131.000</text>
<polyline fill="none" stroke="black" points="1068,-129.5 1148,-129.5 "/>
<text text-anchor="middle" x="1108" y="-114.3" font-family="Times,serif" font-size="14.00">1</text>
<polyline fill="none" stroke="black" points="1148,-106.5 1148,-152.5 "/>
<text text-anchor="middle" x="1188" y="-125.8" font-family="Times,serif" font-size="14.00">&#45;131.000</text>
</g>
<!-- 6259456898336081562&#45;&gt;188450112701693980 -->
<g id="edge5" class="edge">
<title>6259456898336081562&#45;&gt;188450112701693980</title>
<path fill="none" stroke="black" d="M1298.91,-212.38C1276.65,-202 1251.99,-190.5 1229.16,-179.85"/>
<polygon fill="black" stroke="black" points="1230.39,-176.56 1219.85,-175.51 1227.43,-182.91 1230.39,-176.56"/>
</g>
<!-- &#45;4341432592721005483 -->
<g id="node7" class="node">
<title>&#45;4341432592721005483</title>
<path fill="none" stroke="black" d="M1258,-106.5C1258,-106.5 1394,-106.5 1394,-106.5 1400,-106.5 1406,-112.5 1406,-118.5 1406,-118.5 1406,-163.5 1406,-163.5 1406,-169.5 1400,-175.5 1394,-175.5 1394,-175.5 1258,-175.5 1258,-175.5 1252,-175.5 1246,-169.5 1246,-163.5 1246,-163.5 1246,-118.5 1246,-118.5 1246,-112.5 1252,-106.5 1258,-106.5"/>
<text text-anchor="middle" x="1326" y="-160.3" font-family="Times,serif" font-size="14.00">MOVi32imm</text>
<polyline fill="none" stroke="black" points="1246,-152.5 1406,-152.5 "/>
<text text-anchor="middle" x="1286" y="-137.3" font-family="Times,serif" font-size="14.00">&#45;121.000</text>
<polyline fill="none" stroke="black" points="1246,-129.5 1326,-129.5 "/>
<text text-anchor="middle" x="1286" y="-114.3" font-family="Times,serif" font-size="14.00">1</text>
<polyline fill="none" stroke="black" points="1326,-106.5 1326,-152.5 "/>
<text text-anchor="middle" x="1366" y="-125.8" font-family="Times,serif" font-size="14.00">&#45;121.000</text>
</g>
<!-- 6259456898336081562&#45;&gt;&#45;4341432592721005483 -->
<g id="edge6" class="edge">
<title>6259456898336081562&#45;&gt;&#45;4341432592721005483</title>
<path fill="none" stroke="black" d="M1356.39,-212.23C1352.62,-203.52 1348.51,-194.02 1344.57,-184.91"/>
<polygon fill="black" stroke="black" points="1347.72,-183.38 1340.54,-175.6 1341.3,-186.16 1347.72,-183.38"/>
</g>
<!-- 6963023501228827335 -->
<g id="node8" class="node">
<title>6963023501228827335</title>
<path fill="none" stroke="black" d="M1436,-106.5C1436,-106.5 1572,-106.5 1572,-106.5 1578,-106.5 1584,-112.5 1584,-118.5 1584,-118.5 1584,-163.5 1584,-163.5 1584,-169.5 1578,-175.5 1572,-175.5 1572,-175.5 1436,-175.5 1436,-175.5 1430,-175.5 1424,-169.5 1424,-163.5 1424,-163.5 1424,-118.5 1424,-118.5 1424,-112.5 1430,-106.5 1436,-106.5"/>
<text text-anchor="middle" x="1504" y="-160.3" font-family="Times,serif" font-size="14.00">UBFMXri</text>
<polyline fill="none" stroke="black" points="1424,-152.5 1584,-152.5 "/>
<text text-anchor="middle" x="1464" y="-137.3" font-family="Times,serif" font-size="14.00">&#45;243.000</text>
<polyline fill="none" stroke="black" points="1424,-129.5 1504,-129.5 "/>
<text text-anchor="middle" x="1464" y="-114.3" font-family="Times,serif" font-size="14.00">2</text>
<polyline fill="none" stroke="black" points="1504,-106.5 1504,-152.5 "/>
<text text-anchor="middle" x="1544" y="-125.8" font-family="Times,serif" font-size="14.00">&#45;121.500</text>
</g>
<!-- 6259456898336081562&#45;&gt;6963023501228827335 -->
<g id="edge7" class="edge">
<title>6259456898336081562&#45;&gt;6963023501228827335</title>
<path fill="none" stroke="black" d="M1414.18,-212.23C1426.62,-202.51 1440.3,-191.81 1453.16,-181.76"/>
<polygon fill="black" stroke="black" points="1455.31,-184.51 1461.04,-175.6 1451,-179 1455.31,-184.51"/>
</g>
<!-- 626819315833784260 -->
<g id="node13" class="node">
<title>626819315833784260</title>
<path fill="none" stroke="black" d="M1614,-106.5C1614,-106.5 1750,-106.5 1750,-106.5 1756,-106.5 1762,-112.5 1762,-118.5 1762,-118.5 1762,-163.5 1762,-163.5 1762,-169.5 1756,-175.5 1750,-175.5 1750,-175.5 1614,-175.5 1614,-175.5 1608,-175.5 1602,-169.5 1602,-163.5 1602,-163.5 1602,-118.5 1602,-118.5 1602,-112.5 1608,-106.5 1614,-106.5"/>
<text text-anchor="middle" x="1682" y="-160.3" font-family="Times,serif" font-size="14.00">ADDXri</text>
<polyline fill="none" stroke="black" points="1602,-152.5 1762,-152.5 "/>
<text text-anchor="middle" x="1642" y="-137.3" font-family="Times,serif" font-size="14.00">&#45;131.000</text>
<polyline fill="none" stroke="black" points="1602,-129.5 1682,-129.5 "/>
<text text-anchor="middle" x="1642" y="-114.3" font-family="Times,serif" font-size="14.00">1</text>
<polyline fill="none" stroke="black" points="1682,-106.5 1682,-152.5 "/>
<text text-anchor="middle" x="1722" y="-125.8" font-family="Times,serif" font-size="14.00">&#45;131.000</text>
</g>
<!-- 965258767250752702&#45;&gt;626819315833784260 -->
<g id="edge12" class="edge">
<title>965258767250752702&#45;&gt;626819315833784260</title>
<path fill="none" stroke="black" d="M1652.29,-212.23C1655.97,-203.52 1659.99,-194.02 1663.85,-184.91"/>
<polygon fill="black" stroke="black" points="1667.11,-186.17 1667.79,-175.6 1660.67,-183.44 1667.11,-186.17"/>
</g>
<!-- 8197011488445926409 -->
<g id="node14" class="node">
<title>8197011488445926409</title>
<path fill="none" stroke="black" d="M1792,-106.5C1792,-106.5 1928,-106.5 1928,-106.5 1934,-106.5 1940,-112.5 1940,-118.5 1940,-118.5 1940,-163.5 1940,-163.5 1940,-169.5 1934,-175.5 1928,-175.5 1928,-175.5 1792,-175.5 1792,-175.5 1786,-175.5 1780,-169.5 1780,-163.5 1780,-163.5 1780,-118.5 1780,-118.5 1780,-112.5 1786,-106.5 1792,-106.5"/>
<text text-anchor="middle" x="1860" y="-160.3" font-family="Times,serif" font-size="14.00">ADDXri</text>
<polyline fill="none" stroke="black" points="1780,-152.5 1940,-152.5 "/>
<text text-anchor="middle" x="1820" y="-137.3" font-family="Times,serif" font-size="14.00">&#45;122.000</text>
<polyline fill="none" stroke="black" points="1780,-129.5 1860,-129.5 "/>
<text text-anchor="middle" x="1820" y="-114.3" font-family="Times,serif" font-size="14.00">1</text>
<polyline fill="none" stroke="black" points="1860,-106.5 1860,-152.5 "/>
<text text-anchor="middle" x="1900" y="-125.8" font-family="Times,serif" font-size="14.00">&#45;122.000</text>
</g>
<!-- &#45;5824930674912727154&#45;&gt;8197011488445926409 -->
<g id="edge13" class="edge">
<title>&#45;5824930674912727154&#45;&gt;8197011488445926409</title>
<path fill="none" stroke="black" d="M1860,-212.23C1860,-203.79 1860,-194.62 1860,-185.77"/>
<polygon fill="black" stroke="black" points="1863.5,-185.6 1860,-175.6 1856.5,-185.6 1863.5,-185.6"/>
</g>
<!-- &#45;2940246615928611482 -->
<g id="node15" class="node">
<title>&#45;2940246615928611482</title>
<path fill="none" stroke="black" d="M1970,-106.5C1970,-106.5 2106,-106.5 2106,-106.5 2112,-106.5 2118,-112.5 2118,-118.5 2118,-118.5 2118,-163.5 2118,-163.5 2118,-169.5 2112,-175.5 2106,-175.5 2106,-175.5 1970,-175.5 1970,-175.5 1964,-175.5 1958,-169.5 1958,-163.5 1958,-163.5 1958,-118.5 1958,-118.5 1958,-112.5 1964,-106.5 1970,-106.5"/>
<text text-anchor="middle" x="2038" y="-160.3" font-family="Times,serif" font-size="14.00">MOVi32imm</text>
<polyline fill="none" stroke="black" points="1958,-152.5 2118,-152.5 "/>
<text text-anchor="middle" x="1998" y="-137.3" font-family="Times,serif" font-size="14.00">&#45;122.000</text>
<polyline fill="none" stroke="black" points="1958,-129.5 2038,-129.5 "/>
<text text-anchor="middle" x="1998" y="-114.3" font-family="Times,serif" font-size="14.00">1</text>
<polyline fill="none" stroke="black" points="2038,-106.5 2038,-152.5 "/>
<text text-anchor="middle" x="2078" y="-125.8" font-family="Times,serif" font-size="14.00">&#45;122.000</text>
</g>
<!-- &#45;5824930674912727154&#45;&gt;&#45;2940246615928611482 -->
<g id="edge14" class="edge">
<title>&#45;5824930674912727154&#45;&gt;&#45;2940246615928611482</title>
<path fill="none" stroke="black" d="M1917.79,-212.23C1934.91,-202.23 1953.79,-191.2 1971.41,-180.91"/>
<polygon fill="black" stroke="black" points="1973.63,-183.66 1980.5,-175.6 1970.1,-177.62 1973.63,-183.66"/>
</g>
<!-- 9011884177834818335 -->
<g id="node25" class="node">
<title>9011884177834818335</title>
<path fill="none" stroke="black" d="M1080,-0.5C1080,-0.5 1216,-0.5 1216,-0.5 1222,-0.5 1228,-6.5 1228,-12.5 1228,-12.5 1228,-57.5 1228,-57.5 1228,-63.5 1222,-69.5 1216,-69.5 1216,-69.5 1080,-69.5 1080,-69.5 1074,-69.5 1068,-63.5 1068,-57.5 1068,-57.5 1068,-12.5 1068,-12.5 1068,-6.5 1074,-0.5 1080,-0.5"/>
<text text-anchor="middle" x="1148" y="-54.3" font-family="Times,serif" font-size="14.00">ADDXri</text>
<polyline fill="none" stroke="black" points="1068,-46.5 1228,-46.5 "/>
<text text-anchor="middle" x="1108" y="-31.3" font-family="Times,serif" font-size="14.00">&#45;131.000</text>
<polyline fill="none" stroke="black" points="1068,-23.5 1148,-23.5 "/>
<text text-anchor="middle" x="1108" y="-8.3" font-family="Times,serif" font-size="14.00">1</text>
<polyline fill="none" stroke="black" points="1148,-0.5 1148,-46.5 "/>
<text text-anchor="middle" x="1188" y="-19.8" font-family="Times,serif" font-size="14.00">&#45;131.000</text>
</g>
<!-- 188450112701693980&#45;&gt;9011884177834818335 -->
<g id="edge24" class="edge">
<title>188450112701693980&#45;&gt;9011884177834818335</title>
<path fill="none" stroke="black" d="M1148,-106.23C1148,-97.79 1148,-88.62 1148,-79.77"/>
<polygon fill="black" stroke="black" points="1151.5,-79.6 1148,-69.6 1144.5,-79.6 1151.5,-79.6"/>
</g>
<!-- 96684026511846947 -->
<g id="node22" class="node">
<title>96684026511846947</title>
<path fill="none" stroke="black" d="M1258,-0.5C1258,-0.5 1394,-0.5 1394,-0.5 1400,-0.5 1406,-6.5 1406,-12.5 1406,-12.5 1406,-57.5 1406,-57.5 1406,-63.5 1400,-69.5 1394,-69.5 1394,-69.5 1258,-69.5 1258,-69.5 1252,-69.5 1246,-63.5 1246,-57.5 1246,-57.5 1246,-12.5 1246,-12.5 1246,-6.5 1252,-0.5 1258,-0.5"/>
<text text-anchor="middle" x="1326" y="-54.3" font-family="Times,serif" font-size="14.00">ADDXri</text>
<polyline fill="none" stroke="black" points="1246,-46.5 1406,-46.5 "/>
<text text-anchor="middle" x="1286" y="-31.3" font-family="Times,serif" font-size="14.00">&#45;121.000</text>
<polyline fill="none" stroke="black" points="1246,-23.5 1326,-23.5 "/>
<text text-anchor="middle" x="1286" y="-8.3" font-family="Times,serif" font-size="14.00">1</text>
<polyline fill="none" stroke="black" points="1326,-0.5 1326,-46.5 "/>
<text text-anchor="middle" x="1366" y="-19.8" font-family="Times,serif" font-size="14.00">&#45;121.000</text>
</g>
<!-- &#45;4341432592721005483&#45;&gt;96684026511846947 -->
<g id="edge21" class="edge">
<title>&#45;4341432592721005483&#45;&gt;96684026511846947</title>
<path fill="none" stroke="black" d="M1326,-106.23C1326,-97.79 1326,-88.62 1326,-79.77"/>
<polygon fill="black" stroke="black" points="1329.5,-79.6 1326,-69.6 1322.5,-79.6 1329.5,-79.6"/>
</g>
<!-- 5178228415464021979 -->
<g id="node23" class="node">
<title>5178228415464021979</title>
<path fill="none" stroke="black" d="M1436,-0.5C1436,-0.5 1572,-0.5 1572,-0.5 1578,-0.5 1584,-6.5 1584,-12.5 1584,-12.5 1584,-57.5 1584,-57.5 1584,-63.5 1578,-69.5 1572,-69.5 1572,-69.5 1436,-69.5 1436,-69.5 1430,-69.5 1424,-63.5 1424,-57.5 1424,-57.5 1424,-12.5 1424,-12.5 1424,-6.5 1430,-0.5 1436,-0.5"/>
<text text-anchor="middle" x="1504" y="-54.3" font-family="Times,serif" font-size="14.00">ADDXri</text>
<polyline fill="none" stroke="black" points="1424,-46.5 1584,-46.5 "/>
<text text-anchor="middle" x="1464" y="-31.3" font-family="Times,serif" font-size="14.00">&#45;122.000</text>
<polyline fill="none" stroke="black" points="1424,-23.5 1504,-23.5 "/>
<text text-anchor="middle" x="1464" y="-8.3" font-family="Times,serif" font-size="14.00">1</text>
<polyline fill="none" stroke="black" points="1504,-0.5 1504,-46.5 "/>
<text text-anchor="middle" x="1544" y="-19.8" font-family="Times,serif" font-size="14.00">&#45;122.000</text>
</g>
<!-- 6963023501228827335&#45;&gt;5178228415464021979 -->
<g id="edge22" class="edge">
<title>6963023501228827335&#45;&gt;5178228415464021979</title>
<path fill="none" stroke="black" d="M1504,-106.23C1504,-97.79 1504,-88.62 1504,-79.77"/>
<polygon fill="black" stroke="black" points="1507.5,-79.6 1504,-69.6 1500.5,-79.6 1507.5,-79.6"/>
</g>
<!-- 733977597430838076 -->
<g id="node24" class="node">
<title>733977597430838076</title>
<path fill="none" stroke="black" d="M1614,-0.5C1614,-0.5 1750,-0.5 1750,-0.5 1756,-0.5 1762,-6.5 1762,-12.5 1762,-12.5 1762,-57.5 1762,-57.5 1762,-63.5 1756,-69.5 1750,-69.5 1750,-69.5 1614,-69.5 1614,-69.5 1608,-69.5 1602,-63.5 1602,-57.5 1602,-57.5 1602,-12.5 1602,-12.5 1602,-6.5 1608,-0.5 1614,-0.5"/>
<text text-anchor="middle" x="1682" y="-54.3" font-family="Times,serif" font-size="14.00">MOVi32imm</text>
<polyline fill="none" stroke="black" points="1602,-46.5 1762,-46.5 "/>
<text text-anchor="middle" x="1642" y="-31.3" font-family="Times,serif" font-size="14.00">&#45;121.000</text>
<polyline fill="none" stroke="black" points="1602,-23.5 1682,-23.5 "/>
<text text-anchor="middle" x="1642" y="-8.3" font-family="Times,serif" font-size="14.00">1</text>
<polyline fill="none" stroke="black" points="1682,-0.5 1682,-46.5 "/>
<text text-anchor="middle" x="1722" y="-19.8" font-family="Times,serif" font-size="14.00">&#45;121.000</text>
</g>
<!-- 6963023501228827335&#45;&gt;733977597430838076 -->
<g id="edge23" class="edge">
<title>6963023501228827335&#45;&gt;733977597430838076</title>
<path fill="none" stroke="black" d="M1561.79,-106.23C1578.91,-96.23 1597.79,-85.2 1615.41,-74.91"/>
<polygon fill="black" stroke="black" points="1617.63,-77.66 1624.5,-69.6 1614.1,-71.62 1617.63,-77.66"/>
</g>
<!-- 5310909827184512288 -->
<g id="node16" class="node">
<title>5310909827184512288</title>
<path fill="none" stroke="black" d="M12,-0.5C12,-0.5 148,-0.5 148,-0.5 154,-0.5 160,-6.5 160,-12.5 160,-12.5 160,-57.5 160,-57.5 160,-63.5 154,-69.5 148,-69.5 148,-69.5 12,-69.5 12,-69.5 6,-69.5 0,-63.5 0,-57.5 0,-57.5 0,-12.5 0,-12.5 0,-6.5 6,-0.5 12,-0.5"/>
<text text-anchor="middle" x="80" y="-54.3" font-family="Times,serif" font-size="14.00">MOVaddr</text>
<polyline fill="none" stroke="black" points="0,-46.5 160,-46.5 "/>
<text text-anchor="middle" x="40" y="-31.3" font-family="Times,serif" font-size="14.00">&#45;121.000</text>
<polyline fill="none" stroke="black" points="0,-23.5 80,-23.5 "/>
<text text-anchor="middle" x="40" y="-8.3" font-family="Times,serif" font-size="14.00">1</text>
<polyline fill="none" stroke="black" points="80,-0.5 80,-46.5 "/>
<text text-anchor="middle" x="120" y="-19.8" font-family="Times,serif" font-size="14.00">&#45;121.000</text>
</g>
<!-- 279606635724200327&#45;&gt;5310909827184512288 -->
<g id="edge15" class="edge">
<title>279606635724200327&#45;&gt;5310909827184512288</title>
<path fill="none" stroke="black" d="M200.21,-106.23C183.09,-96.23 164.21,-85.2 146.59,-74.91"/>
<polygon fill="black" stroke="black" points="147.9,-71.62 137.5,-69.6 144.37,-77.66 147.9,-71.62"/>
</g>
<!-- &#45;5903715632567366593 -->
<g id="node17" class="node">
<title>&#45;5903715632567366593</title>
<path fill="none" stroke="black" d="M190,-0.5C190,-0.5 326,-0.5 326,-0.5 332,-0.5 338,-6.5 338,-12.5 338,-12.5 338,-57.5 338,-57.5 338,-63.5 332,-69.5 326,-69.5 326,-69.5 190,-69.5 190,-69.5 184,-69.5 178,-63.5 178,-57.5 178,-57.5 178,-12.5 178,-12.5 178,-6.5 184,-0.5 190,-0.5"/>
<text text-anchor="middle" x="258" y="-54.3" font-family="Times,serif" font-size="14.00">MOVi32imm</text>
<polyline fill="none" stroke="black" points="178,-46.5 338,-46.5 "/>
<text text-anchor="middle" x="218" y="-31.3" font-family="Times,serif" font-size="14.00">&#45;121.000</text>
<polyline fill="none" stroke="black" points="178,-23.5 258,-23.5 "/>
<text text-anchor="middle" x="218" y="-8.3" font-family="Times,serif" font-size="14.00">1</text>
<polyline fill="none" stroke="black" points="258,-0.5 258,-46.5 "/>
<text text-anchor="middle" x="298" y="-19.8" font-family="Times,serif" font-size="14.00">&#45;121.000</text>
</g>
<!-- 279606635724200327&#45;&gt;&#45;5903715632567366593 -->
<g id="edge16" class="edge">
<title>279606635724200327&#45;&gt;&#45;5903715632567366593</title>
<path fill="none" stroke="black" d="M258,-106.23C258,-97.79 258,-88.62 258,-79.77"/>
<polygon fill="black" stroke="black" points="261.5,-79.6 258,-69.6 254.5,-79.6 261.5,-79.6"/>
</g>
<!-- 666891234178160101 -->
<g id="node20" class="node">
<title>666891234178160101</title>
<path fill="none" stroke="black" d="M368,-0.5C368,-0.5 504,-0.5 504,-0.5 510,-0.5 516,-6.5 516,-12.5 516,-12.5 516,-57.5 516,-57.5 516,-63.5 510,-69.5 504,-69.5 504,-69.5 368,-69.5 368,-69.5 362,-69.5 356,-63.5 356,-57.5 356,-57.5 356,-12.5 356,-12.5 356,-6.5 362,-0.5 368,-0.5"/>
<text text-anchor="middle" x="436" y="-54.3" font-family="Times,serif" font-size="14.00">MOVi32imm</text>
<polyline fill="none" stroke="black" points="356,-46.5 516,-46.5 "/>
<text text-anchor="middle" x="396" y="-31.3" font-family="Times,serif" font-size="14.00">&#45;131.000</text>
<polyline fill="none" stroke="black" points="356,-23.5 436,-23.5 "/>
<text text-anchor="middle" x="396" y="-8.3" font-family="Times,serif" font-size="14.00">1</text>
<polyline fill="none" stroke="black" points="436,-0.5 436,-46.5 "/>
<text text-anchor="middle" x="476" y="-19.8" font-family="Times,serif" font-size="14.00">&#45;131.000</text>
</g>
<!-- &#45;4394848455096562805&#45;&gt;666891234178160101 -->
<g id="edge19" class="edge">
<title>&#45;4394848455096562805&#45;&gt;666891234178160101</title>
<path fill="none" stroke="black" d="M556.21,-106.23C539.09,-96.23 520.21,-85.2 502.59,-74.91"/>
<polygon fill="black" stroke="black" points="503.9,-71.62 493.5,-69.6 500.37,-77.66 503.9,-71.62"/>
</g>
<!-- 7886751902858251356 -->
<g id="node21" class="node">
<title>7886751902858251356</title>
<path fill="none" stroke="black" d="M546,-0.5C546,-0.5 682,-0.5 682,-0.5 688,-0.5 694,-6.5 694,-12.5 694,-12.5 694,-57.5 694,-57.5 694,-63.5 688,-69.5 682,-69.5 682,-69.5 546,-69.5 546,-69.5 540,-69.5 534,-63.5 534,-57.5 534,-57.5 534,-12.5 534,-12.5 534,-6.5 540,-0.5 546,-0.5"/>
<text text-anchor="middle" x="614" y="-54.3" font-family="Times,serif" font-size="14.00">MOVaddr</text>
<polyline fill="none" stroke="black" points="534,-46.5 694,-46.5 "/>
<text text-anchor="middle" x="574" y="-31.3" font-family="Times,serif" font-size="14.00">&#45;102.000</text>
<polyline fill="none" stroke="black" points="534,-23.5 614,-23.5 "/>
<text text-anchor="middle" x="574" y="-8.3" font-family="Times,serif" font-size="14.00">1</text>
<polyline fill="none" stroke="black" points="614,-0.5 614,-46.5 "/>
<text text-anchor="middle" x="654" y="-19.8" font-family="Times,serif" font-size="14.00">&#45;102.000</text>
</g>
<!-- &#45;4394848455096562805&#45;&gt;7886751902858251356 -->
<g id="edge20" class="edge">
<title>&#45;4394848455096562805&#45;&gt;7886751902858251356</title>
<path fill="none" stroke="black" d="M614,-106.23C614,-97.79 614,-88.62 614,-79.77"/>
<polygon fill="black" stroke="black" points="617.5,-79.6 614,-69.6 610.5,-79.6 617.5,-79.6"/>
</g>
<!-- 6584948146131480953 -->
<g id="node19" class="node">
<title>6584948146131480953</title>
<path fill="none" stroke="black" d="M724,-0.5C724,-0.5 860,-0.5 860,-0.5 866,-0.5 872,-6.5 872,-12.5 872,-12.5 872,-57.5 872,-57.5 872,-63.5 866,-69.5 860,-69.5 860,-69.5 724,-69.5 724,-69.5 718,-69.5 712,-63.5 712,-57.5 712,-57.5 712,-12.5 712,-12.5 712,-6.5 718,-0.5 724,-0.5"/>
<text text-anchor="middle" x="792" y="-54.3" font-family="Times,serif" font-size="14.00">ADDXri</text>
<polyline fill="none" stroke="black" points="712,-46.5 872,-46.5 "/>
<text text-anchor="middle" x="752" y="-31.3" font-family="Times,serif" font-size="14.00">&#45;121.000</text>
<polyline fill="none" stroke="black" points="712,-23.5 792,-23.5 "/>
<text text-anchor="middle" x="752" y="-8.3" font-family="Times,serif" font-size="14.00">1</text>
<polyline fill="none" stroke="black" points="792,-0.5 792,-46.5 "/>
<text text-anchor="middle" x="832" y="-19.8" font-family="Times,serif" font-size="14.00">&#45;121.000</text>
</g>
<!-- 8818071943633219542&#45;&gt;6584948146131480953 -->
<g id="edge18" class="edge">
<title>8818071943633219542&#45;&gt;6584948146131480953</title>
<path fill="none" stroke="black" d="M792,-106.23C792,-97.79 792,-88.62 792,-79.77"/>
<polygon fill="black" stroke="black" points="795.5,-79.6 792,-69.6 788.5,-79.6 795.5,-79.6"/>
</g>
<!-- 6719004584683256795 -->
<g id="node18" class="node">
<title>6719004584683256795</title>
<path fill="none" stroke="black" d="M902,-0.5C902,-0.5 1038,-0.5 1038,-0.5 1044,-0.5 1050,-6.5 1050,-12.5 1050,-12.5 1050,-57.5 1050,-57.5 1050,-63.5 1044,-69.5 1038,-69.5 1038,-69.5 902,-69.5 902,-69.5 896,-69.5 890,-63.5 890,-57.5 890,-57.5 890,-12.5 890,-12.5 890,-6.5 896,-0.5 902,-0.5"/>
<text text-anchor="middle" x="970" y="-54.3" font-family="Times,serif" font-size="14.00">ADDXri</text>
<polyline fill="none" stroke="black" points="890,-46.5 1050,-46.5 "/>
<text text-anchor="middle" x="930" y="-31.3" font-family="Times,serif" font-size="14.00">&#45;131.000</text>
<polyline fill="none" stroke="black" points="890,-23.5 970,-23.5 "/>
<text text-anchor="middle" x="930" y="-8.3" font-family="Times,serif" font-size="14.00">1</text>
<polyline fill="none" stroke="black" points="970,-0.5 970,-46.5 "/>
<text text-anchor="middle" x="1010" y="-19.8" font-family="Times,serif" font-size="14.00">&#45;131.000</text>
</g>
<!-- &#45;923891665051681313&#45;&gt;6719004584683256795 -->
<g id="edge17" class="edge">
<title>&#45;923891665051681313&#45;&gt;6719004584683256795</title>
<path fill="none" stroke="black" d="M970,-106.23C970,-97.79 970,-88.62 970,-79.77"/>
<polygon fill="black" stroke="black" points="973.5,-79.6 970,-69.6 966.5,-79.6 973.5,-79.6"/>
</g>
<!-- 8422306527812370489 -->
<g id="node26" class="node">
<title>8422306527812370489</title>
<path fill="none" stroke="black" d="M1970,-0.5C1970,-0.5 2106,-0.5 2106,-0.5 2112,-0.5 2118,-6.5 2118,-12.5 2118,-12.5 2118,-57.5 2118,-57.5 2118,-63.5 2112,-69.5 2106,-69.5 2106,-69.5 1970,-69.5 1970,-69.5 1964,-69.5 1958,-63.5 1958,-57.5 1958,-57.5 1958,-12.5 1958,-12.5 1958,-6.5 1964,-0.5 1970,-0.5"/>
<text text-anchor="middle" x="2038" y="-54.3" font-family="Times,serif" font-size="14.00">ADDXri</text>
<polyline fill="none" stroke="black" points="1958,-46.5 2118,-46.5 "/>
<text text-anchor="middle" x="1998" y="-31.3" font-family="Times,serif" font-size="14.00">&#45;122.000</text>
<polyline fill="none" stroke="black" points="1958,-23.5 2038,-23.5 "/>
<text text-anchor="middle" x="1998" y="-8.3" font-family="Times,serif" font-size="14.00">1</text>
<polyline fill="none" stroke="black" points="2038,-0.5 2038,-46.5 "/>
<text text-anchor="middle" x="2078" y="-19.8" font-family="Times,serif" font-size="14.00">&#45;122.000</text>
</g>
<!-- &#45;2940246615928611482&#45;&gt;8422306527812370489 -->
<g id="edge25" class="edge">
<title>&#45;2940246615928611482&#45;&gt;8422306527812370489</title>
<path fill="none" stroke="black" d="M2038,-106.23C2038,-97.79 2038,-88.62 2038,-79.77"/>
<polygon fill="black" stroke="black" points="2041.5,-79.6 2038,-69.6 2034.5,-79.6 2041.5,-79.6"/>
</g>
</g>
</svg>
