<?xml version="1.0" encoding="UTF-8" standalone="no"?>
<!DOCTYPE svg PUBLIC "-//W3C//DTD SVG 1.1//EN"
 "http://www.w3.org/Graphics/SVG/1.1/DTD/svg11.dtd">
<!-- Generated by graphviz version 2.43.0 (0)
 -->
<!-- Title: MCTS Tree\nmcts/1.0/tree.svg Pages: 1 -->
<svg width="702pt" height="290pt"
 viewBox="0.00 0.00 702.00 290.00" xmlns="http://www.w3.org/2000/svg" xmlns:xlink="http://www.w3.org/1999/xlink">
<g id="graph0" class="graph" transform="scale(1 1) rotate(0) translate(4 286)">
<title>MCTS Tree\nmcts/1.0/tree.svg</title>
<polygon fill="white" stroke="transparent" points="-4,4 -4,-286 698,-286 698,4 -4,4"/>
<!-- 0 -->
<g id="node1" class="node">
<title>0</title>
<path fill="none" stroke="black" d="M368,-212.5C368,-212.5 504,-212.5 504,-212.5 510,-212.5 516,-218.5 516,-224.5 516,-224.5 516,-269.5 516,-269.5 516,-275.5 510,-281.5 504,-281.5 504,-281.5 368,-281.5 368,-281.5 362,-281.5 356,-275.5 356,-269.5 356,-269.5 356,-224.5 356,-224.5 356,-218.5 362,-212.5 368,-212.5"/>
<text text-anchor="middle" x="436" y="-266.3" font-family="Times,serif" font-size="14.00"> </text>
<polyline fill="none" stroke="black" points="356,-258.5 516,-258.5 "/>
<text text-anchor="middle" x="396" y="-243.3" font-family="Times,serif" font-size="14.00">&#45;475.000</text>
<polyline fill="none" stroke="black" points="356,-235.5 436,-235.5 "/>
<text text-anchor="middle" x="396" y="-220.3" font-family="Times,serif" font-size="14.00">4</text>
<polyline fill="none" stroke="black" points="436,-212.5 436,-258.5 "/>
<text text-anchor="middle" x="476" y="-231.8" font-family="Times,serif" font-size="14.00">&#45;118.750</text>
</g>
<!-- 1317871303405355091 -->
<g id="node2" class="node">
<title>1317871303405355091</title>
<path fill="none" stroke="black" d="M190,-106.5C190,-106.5 326,-106.5 326,-106.5 332,-106.5 338,-112.5 338,-118.5 338,-118.5 338,-163.5 338,-163.5 338,-169.5 332,-175.5 326,-175.5 326,-175.5 190,-175.5 190,-175.5 184,-175.5 178,-169.5 178,-163.5 178,-163.5 178,-118.5 178,-118.5 178,-112.5 184,-106.5 190,-106.5"/>
<text text-anchor="middle" x="258" y="-160.3" font-family="Times,serif" font-size="14.00">ADDXri</text>
<polyline fill="none" stroke="black" points="178,-152.5 338,-152.5 "/>
<text text-anchor="middle" x="218" y="-137.3" font-family="Times,serif" font-size="14.00">&#45;223.000</text>
<polyline fill="none" stroke="black" points="178,-129.5 258,-129.5 "/>
<text text-anchor="middle" x="218" y="-114.3" font-family="Times,serif" font-size="14.00">2</text>
<polyline fill="none" stroke="black" points="258,-106.5 258,-152.5 "/>
<text text-anchor="middle" x="298" y="-125.8" font-family="Times,serif" font-size="14.00">&#45;111.500</text>
</g>
<!-- 0&#45;&gt;1317871303405355091 -->
<g id="edge1" class="edge">
<title>0&#45;&gt;1317871303405355091</title>
<path fill="none" stroke="black" d="M378.21,-212.23C361.09,-202.23 342.21,-191.2 324.59,-180.91"/>
<polygon fill="black" stroke="black" points="325.9,-177.62 315.5,-175.6 322.37,-183.66 325.9,-177.62"/>
</g>
<!-- &#45;7216548928710871556 -->
<g id="node3" class="node">
<title>&#45;7216548928710871556</title>
<path fill="none" stroke="black" d="M368,-106.5C368,-106.5 504,-106.5 504,-106.5 510,-106.5 516,-112.5 516,-118.5 516,-118.5 516,-163.5 516,-163.5 516,-169.5 510,-175.5 504,-175.5 504,-175.5 368,-175.5 368,-175.5 362,-175.5 356,-169.5 356,-163.5 356,-163.5 356,-118.5 356,-118.5 356,-112.5 362,-106.5 368,-106.5"/>
<text text-anchor="middle" x="436" y="-160.3" font-family="Times,serif" font-size="14.00">MOVaddr</text>
<polyline fill="none" stroke="black" points="356,-152.5 516,-152.5 "/>
<text text-anchor="middle" x="396" y="-137.3" font-family="Times,serif" font-size="14.00">&#45;121.000</text>
<polyline fill="none" stroke="black" points="356,-129.5 436,-129.5 "/>
<text text-anchor="middle" x="396" y="-114.3" font-family="Times,serif" font-size="14.00">1</text>
<polyline fill="none" stroke="black" points="436,-106.5 436,-152.5 "/>
<text text-anchor="middle" x="476" y="-125.8" font-family="Times,serif" font-size="14.00">&#45;121.000</text>
</g>
<!-- 0&#45;&gt;&#45;7216548928710871556 -->
<g id="edge2" class="edge">
<title>0&#45;&gt;&#45;7216548928710871556</title>
<path fill="none" stroke="black" d="M436,-212.23C436,-203.79 436,-194.62 436,-185.77"/>
<polygon fill="black" stroke="black" points="439.5,-185.6 436,-175.6 432.5,-185.6 439.5,-185.6"/>
</g>
<!-- 5879491820264793887 -->
<g id="node4" class="node">
<title>5879491820264793887</title>
<path fill="none" stroke="black" d="M546,-106.5C546,-106.5 682,-106.5 682,-106.5 688,-106.5 694,-112.5 694,-118.5 694,-118.5 694,-163.5 694,-163.5 694,-169.5 688,-175.5 682,-175.5 682,-175.5 546,-175.5 546,-175.5 540,-175.5 534,-169.5 534,-163.5 534,-163.5 534,-118.5 534,-118.5 534,-112.5 540,-106.5 546,-106.5"/>
<text text-anchor="middle" x="614" y="-160.3" font-family="Times,serif" font-size="14.00">MOVi32imm</text>
<polyline fill="none" stroke="black" points="534,-152.5 694,-152.5 "/>
<text text-anchor="middle" x="574" y="-137.3" font-family="Times,serif" font-size="14.00">&#45;131.000</text>
<polyline fill="none" stroke="black" points="534,-129.5 614,-129.5 "/>
<text text-anchor="middle" x="574" y="-114.3" font-family="Times,serif" font-size="14.00">1</text>
<polyline fill="none" stroke="black" points="614,-106.5 614,-152.5 "/>
<text text-anchor="middle" x="654" y="-125.8" font-family="Times,serif" font-size="14.00">&#45;131.000</text>
</g>
<!-- 0&#45;&gt;5879491820264793887 -->
<g id="edge3" class="edge">
<title>0&#45;&gt;5879491820264793887</title>
<path fill="none" stroke="black" d="M493.79,-212.23C510.91,-202.23 529.79,-191.2 547.41,-180.91"/>
<polygon fill="black" stroke="black" points="549.63,-183.66 556.5,-175.6 546.1,-177.62 549.63,-183.66"/>
</g>
<!-- &#45;1403829924740293303 -->
<g id="node6" class="node">
<title>&#45;1403829924740293303</title>
<path fill="none" stroke="black" d="M12,-0.5C12,-0.5 148,-0.5 148,-0.5 154,-0.5 160,-6.5 160,-12.5 160,-12.5 160,-57.5 160,-57.5 160,-63.5 154,-69.5 148,-69.5 148,-69.5 12,-69.5 12,-69.5 6,-69.5 0,-63.5 0,-57.5 0,-57.5 0,-12.5 0,-12.5 0,-6.5 6,-0.5 12,-0.5"/>
<text text-anchor="middle" x="80" y="-54.3" font-family="Times,serif" font-size="14.00">ADDXri</text>
<polyline fill="none" stroke="black" points="0,-46.5 160,-46.5 "/>
<text text-anchor="middle" x="40" y="-31.3" font-family="Times,serif" font-size="14.00">&#45;102.000</text>
<polyline fill="none" stroke="black" points="0,-23.5 80,-23.5 "/>
<text text-anchor="middle" x="40" y="-8.3" font-family="Times,serif" font-size="14.00">1</text>
<polyline fill="none" stroke="black" points="80,-0.5 80,-46.5 "/>
<text text-anchor="middle" x="120" y="-19.8" font-family="Times,serif" font-size="14.00">&#45;102.000</text>
</g>
<!-- 1317871303405355091&#45;&gt;&#45;1403829924740293303 -->
<g id="edge5" class="edge">
<title>1317871303405355091&#45;&gt;&#45;1403829924740293303</title>
<path fill="none" stroke="black" d="M200.21,-106.23C183.09,-96.23 164.21,-85.2 146.59,-74.91"/>
<polygon fill="black" stroke="black" points="147.9,-71.62 137.5,-69.6 144.37,-77.66 147.9,-71.62"/>
</g>
<!-- 6386025509214713711 -->
<g id="node7" class="node">
<title>6386025509214713711</title>
<path fill="none" stroke="black" d="M190,-0.5C190,-0.5 326,-0.5 326,-0.5 332,-0.5 338,-6.5 338,-12.5 338,-12.5 338,-57.5 338,-57.5 338,-63.5 332,-69.5 326,-69.5 326,-69.5 190,-69.5 190,-69.5 184,-69.5 178,-63.5 178,-57.5 178,-57.5 178,-12.5 178,-12.5 178,-6.5 184,-0.5 190,-0.5"/>
<text text-anchor="middle" x="258" y="-54.3" font-family="Times,serif" font-size="14.00">SUBSXri</text>
<polyline fill="none" stroke="black" points="178,-46.5 338,-46.5 "/>
<text text-anchor="middle" x="218" y="-31.3" font-family="Times,serif" font-size="14.00">&#45;121.000</text>
<polyline fill="none" stroke="black" points="178,-23.5 258,-23.5 "/>
<text text-anchor="middle" x="218" y="-8.3" font-family="Times,serif" font-size="14.00">1</text>
<polyline fill="none" stroke="black" points="258,-0.5 258,-46.5 "/>
<text text-anchor="middle" x="298" y="-19.8" font-family="Times,serif" font-size="14.00">&#45;121.000</text>
</g>
<!-- 1317871303405355091&#45;&gt;6386025509214713711 -->
<g id="edge6" class="edge">
<title>1317871303405355091&#45;&gt;6386025509214713711</title>
<path fill="none" stroke="black" d="M258,-106.23C258,-97.79 258,-88.62 258,-79.77"/>
<polygon fill="black" stroke="black" points="261.5,-79.6 258,-69.6 254.5,-79.6 261.5,-79.6"/>
</g>
<!-- &#45;8268876125238066335 -->
<g id="node5" class="node">
<title>&#45;8268876125238066335</title>
<path fill="none" stroke="black" d="M368,-0.5C368,-0.5 504,-0.5 504,-0.5 510,-0.5 516,-6.5 516,-12.5 516,-12.5 516,-57.5 516,-57.5 516,-63.5 510,-69.5 504,-69.5 504,-69.5 368,-69.5 368,-69.5 362,-69.5 356,-63.5 356,-57.5 356,-57.5 356,-12.5 356,-12.5 356,-6.5 362,-0.5 368,-0.5"/>
<text text-anchor="middle" x="436" y="-54.3" font-family="Times,serif" font-size="14.00">UBFMXri</text>
<polyline fill="none" stroke="black" points="356,-46.5 516,-46.5 "/>
<text text-anchor="middle" x="396" y="-31.3" font-family="Times,serif" font-size="14.00">&#45;121.000</text>
<polyline fill="none" stroke="black" points="356,-23.5 436,-23.5 "/>
<text text-anchor="middle" x="396" y="-8.3" font-family="Times,serif" font-size="14.00">1</text>
<polyline fill="none" stroke="black" points="436,-0.5 436,-46.5 "/>
<text text-anchor="middle" x="476" y="-19.8" font-family="Times,serif" font-size="14.00">&#45;121.000</text>
</g>
<!-- &#45;7216548928710871556&#45;&gt;&#45;8268876125238066335 -->
<g id="edge4" class="edge">
<title>&#45;7216548928710871556&#45;&gt;&#45;8268876125238066335</title>
<path fill="none" stroke="black" d="M436,-106.23C436,-97.79 436,-88.62 436,-79.77"/>
<polygon fill="black" stroke="black" points="439.5,-79.6 436,-69.6 432.5,-79.6 439.5,-79.6"/>
</g>
<!-- &#45;7332566056673673724 -->
<g id="node8" class="node">
<title>&#45;7332566056673673724</title>
<path fill="none" stroke="black" d="M546,-0.5C546,-0.5 682,-0.5 682,-0.5 688,-0.5 694,-6.5 694,-12.5 694,-12.5 694,-57.5 694,-57.5 694,-63.5 688,-69.5 682,-69.5 682,-69.5 546,-69.5 546,-69.5 540,-69.5 534,-63.5 534,-57.5 534,-57.5 534,-12.5 534,-12.5 534,-6.5 540,-0.5 546,-0.5"/>
<text text-anchor="middle" x="614" y="-54.3" font-family="Times,serif" font-size="14.00">ADDXri</text>
<polyline fill="none" stroke="black" points="534,-46.5 694,-46.5 "/>
<text text-anchor="middle" x="574" y="-31.3" font-family="Times,serif" font-size="14.00">&#45;131.000</text>
<polyline fill="none" stroke="black" points="534,-23.5 614,-23.5 "/>
<text text-anchor="middle" x="574" y="-8.3" font-family="Times,serif" font-size="14.00">1</text>
<polyline fill="none" stroke="black" points="614,-0.5 614,-46.5 "/>
<text text-anchor="middle" x="654" y="-19.8" font-family="Times,serif" font-size="14.00">&#45;131.000</text>
</g>
<!-- 5879491820264793887&#45;&gt;&#45;7332566056673673724 -->
<g id="edge7" class="edge">
<title>5879491820264793887&#45;&gt;&#45;7332566056673673724</title>
<path fill="none" stroke="black" d="M614,-106.23C614,-97.79 614,-88.62 614,-79.77"/>
<polygon fill="black" stroke="black" points="617.5,-79.6 614,-69.6 610.5,-79.6 617.5,-79.6"/>
</g>
</g>
</svg>
