<?xml version="1.0"?>
<svg xmlns="http://www.w3.org/2000/svg" style="cursor: move;" width="1502" height="1115">
  <g transform="translate(-163.5626469798625,-201.10770912751275) scale(1.3717332885905966)">
    <path class="link" style="stroke-width: 0.184577px; stroke-opacity: 0.151293; stroke: rgb(80, 80, 80);" marker-end="" d="M622,387.5, 776,522.5"/>
    <path class="link" style="stroke-width: 0.780081px; stroke-opacity: 0.639411; stroke: rgb(80, 80, 80);" marker-end="" d="M622,387.5, 776,567.5"/>
    <path class="link" style="stroke-width: 1.01931px; stroke-opacity: 0.835503; stroke: rgb(80, 80, 80);" marker-end="" d="M622,387.5, 776,612.5"/>
    <path class="link" style="stroke-width: 1.10856px; stroke-opacity: 0.908652; stroke: rgb(80, 80, 80);" marker-end="" d="M622,432.5, 776,522.5"/>
    <path class="link" style="stroke-width: 0.730668px; stroke-opacity: 0.598908; stroke: rgb(80, 80, 80);" marker-end="" d="M622,432.5, 776,567.5"/>
    <path class="link" style="stroke-width: 0.297131px; stroke-opacity: 0.24355; stroke: rgb(80, 80, 80);" marker-end="" d="M622,432.5, 776,612.5"/>
    <path class="link" style="stroke-width: 0.678756px; stroke-opacity: 0.556358; stroke: rgb(80, 80, 80);" marker-end="" d="M622,477.5, 776,522.5"/>
    <path class="link" style="stroke-width: 0.922215px; stroke-opacity: 0.755914; stroke: rgb(80, 80, 80);" marker-end="" d="M622,477.5, 776,567.5"/>
    <path class="link" style="stroke-width: 0.234373px; stroke-opacity: 0.192109; stroke: rgb(80, 80, 80);" marker-end="" d="M622,477.5, 776,612.5"/>
    <path class="link" style="stroke-width: 0.29421px; stroke-opacity: 0.241156; stroke: rgb(80, 80, 80);" marker-end="" d="M622,522.5, 776,522.5"/>
    <path class="link" style="stroke-width: 0.023515px; stroke-opacity: 0.0192746; stroke: rgb(80, 80, 80);" marker-end="" d="M622,522.5, 776,567.5"/>
    <path class="link" style="stroke-width: 1.06677px; stroke-opacity: 0.874404; stroke: rgb(80, 80, 80);" marker-end="" d="M622,522.5, 776,612.5"/>
    <path class="link" style="stroke-width: 1.01332px; stroke-opacity: 0.83059; stroke: rgb(80, 80, 80);" marker-end="" d="M622,567.5, 776,522.5"/>
    <path class="link" style="stroke-width: 0.271625px; stroke-opacity: 0.222643; stroke: rgb(80, 80, 80);" marker-end="" d="M622,567.5, 776,567.5"/>
    <path class="link" style="stroke-width: 1.15292px; stroke-opacity: 0.94502; stroke: rgb(80, 80, 80);" marker-end="" d="M622,567.5, 776,612.5"/>
    <path class="link" style="stroke-width: 0.337618px; stroke-opacity: 0.276736; stroke: rgb(80, 80, 80);" marker-end="" d="M622,612.5, 776,522.5"/>
    <path class="link" style="stroke-width: 0.204008px; stroke-opacity: 0.167219; stroke: rgb(80, 80, 80);" marker-end="" d="M622,612.5, 776,567.5"/>
    <path class="link" style="stroke-width: 0.093389px; stroke-opacity: 0.0765484; stroke: rgb(80, 80, 80);" marker-end="" d="M622,612.5, 776,612.5"/>
    <path class="link" style="stroke-width: 1.1199px; stroke-opacity: 0.917947; stroke: rgb(80, 80, 80);" marker-end="" d="M622,657.5, 776,522.5"/>
    <path class="link" style="stroke-width: 1.21206px; stroke-opacity: 0.99349; stroke: rgb(80, 80, 80);" marker-end="" d="M622,657.5, 776,567.5"/>
    <path class="link" style="stroke-width: 0.714473px; stroke-opacity: 0.585633; stroke: rgb(80, 80, 80);" marker-end="" d="M622,657.5, 776,612.5"/>
    <path class="link" style="stroke-width: 0.897698px; stroke-opacity: 0.735818; stroke: rgb(80, 80, 80);" marker-end="" d="M622,702.5, 776,522.5"/>
    <path class="link" style="stroke-width: 0.220532px; stroke-opacity: 0.180764; stroke: rgb(80, 80, 80);" marker-end="" d="M622,702.5, 776,567.5"/>
    <path class="link" style="stroke-width: 1.14387px; stroke-opacity: 0.937598; stroke: rgb(80, 80, 80);" marker-end="" d="M622,702.5, 776,612.5"/>
    <path class="link" style="stroke-width: 1.03491px; stroke-opacity: 0.848285; stroke: rgb(80, 80, 80);" marker-end="" d="M776,477.5, 930,545"/>
    <path class="link" style="stroke-width: 0.927811px; stroke-opacity: 0.760501; stroke: rgb(80, 80, 80);" marker-end="" d="M776,522.5, 930,545"/>
    <path class="link" style="stroke-width: 0.86288px; stroke-opacity: 0.707278; stroke: rgb(80, 80, 80);" marker-end="" d="M776,567.5, 930,545"/>
    <path class="link" style="stroke-width: 1.19561px; stroke-opacity: 0.980011; stroke: rgb(80, 80, 80);" marker-end="" d="M776,612.5, 930,545"/>
    <path class="link" style="stroke-width: 0.600145px; stroke-opacity: 0.491922; stroke: rgb(80, 80, 80);" marker-end="" d="M622,387.5, 776,477.5"/>
    <path class="link" style="stroke-width: 0.381966px; stroke-opacity: 0.313087; stroke: rgb(80, 80, 80);" marker-end="" d="M622,432.5, 776,477.5"/>
    <path class="link" style="stroke-width: 0.729779px; stroke-opacity: 0.598179; stroke: rgb(80, 80, 80);" marker-end="" d="M622,477.5, 776,477.5"/>
    <path class="link" style="stroke-width: 0.497379px; stroke-opacity: 0.407688; stroke: rgb(80, 80, 80);" marker-end="" d="M622,522.5, 776,477.5"/>
    <path class="link" style="stroke-width: 0.748743px; stroke-opacity: 0.613724; stroke: rgb(80, 80, 80);" marker-end="" d="M622,567.5, 776,477.5"/>
    <path class="link" style="stroke-width: 0.576919px; stroke-opacity: 0.472884; stroke: rgb(80, 80, 80);" marker-end="" d="M622,612.5, 776,477.5"/>
    <path class="link" style="stroke-width: 0.741368px; stroke-opacity: 0.607679; stroke: rgb(80, 80, 80);" marker-end="" d="M622,657.5, 776,477.5"/>
    <path class="link" style="stroke-width: 0.557573px; stroke-opacity: 0.457027; stroke: rgb(80, 80, 80);" marker-end="" d="M622,702.5, 776,477.5"/>
    <circle r="12.5" class="node" id="0_0" style="fill: rgb(255, 255, 255); stroke: rgb(51, 51, 51);" cx="622" cy="387.5"/>
    <circle r="12.5" class="node" id="0_1" style="fill: rgb(255, 255, 255); stroke: rgb(51, 51, 51);" cx="622" cy="432.5"/>
    <circle r="12.5" class="node" id="0_2" style="fill: rgb(255, 255, 255); stroke: rgb(51, 51, 51);" cx="622" cy="477.5"/>
    <circle r="12.5" class="node" id="0_3" style="fill: rgb(255, 255, 255); stroke: rgb(51, 51, 51);" cx="622" cy="522.5"/>
    <circle r="12.5" class="node" id="0_4" style="fill: rgb(255, 255, 255); stroke: rgb(51, 51, 51);" cx="622" cy="567.5"/>
    <circle r="12.5" class="node" id="0_5" style="fill: rgb(255, 255, 255); stroke: rgb(51, 51, 51);" cx="622" cy="612.5"/>
    <circle r="12.5" class="node" id="0_6" style="fill: rgb(255, 255, 255); stroke: rgb(51, 51, 51);" cx="622" cy="657.5"/>
    <circle r="12.5" class="node" id="0_7" style="fill: rgb(255, 255, 255); stroke: rgb(51, 51, 51);" cx="622" cy="702.5"/>
    <circle r="12.5" class="node" id="1_0" style="fill: rgb(255, 255, 255); stroke: rgb(51, 51, 51);" cx="776" cy="477.5"/>
    <circle r="12.5" class="node" id="1_1" style="fill: rgb(255, 255, 255); stroke: rgb(51, 51, 51);" cx="776" cy="522.5"/>
    <circle r="12.5" class="node" id="1_2" style="fill: rgb(255, 255, 255); stroke: rgb(51, 51, 51);" cx="776" cy="567.5"/>
    <circle r="12.5" class="node" id="1_3" style="fill: rgb(255, 255, 255); stroke: rgb(51, 51, 51);" cx="776" cy="612.5"/>
    <circle r="12.5" class="node" id="2_0" style="fill: rgb(255, 255, 255); stroke: rgb(51, 51, 51);" cx="930" cy="545"/>
    <text class="text" dy=".35em" style="font-size: 12px;" x="587" y="747.5">Input Layer &#x2208; &#x211D;&#x2078;</text>
    <text class="text" dy=".35em" style="font-size: 12px;" x="741" y="747.5">Hidden Layer &#x2208; &#x211D;&#x2074;</text>
    <text class="text" dy=".35em" style="font-size: 12px;" x="895" y="747.5">Output Layer &#x2208; &#x211D;&#xB9;</text>
  </g>
  <defs>
    <marker id="arrow" viewBox="0 -5 10 10" markerWidth="7" markerHeight="7" orient="auto" refX="47">
      <path d="M0,-5L10,0L0,5" style="stroke: rgb(80, 80, 80); fill: none;"/>
    </marker>
  </defs>
</svg>
